<?xml version="1.0" encoding="UTF-8"?>
<svg xmlns="http://www.w3.org/2000/svg" version="1.1" viewBox="0 0 32 32">
  <defs>
    <style>
      .cls-1 {
        fill: #800300;
      }
    </style>
  </defs>
  <!-- Generator: Adobe Illustrator 28.7.1, SVG Export Plug-In . SVG Version: 1.2.0 Build 142)  -->
  <g>
    <g id="Layer_1">
      <path class="cls-1" d="M20.62,18.99c-2.22,3.31-4.58,4.54-8.53,4.54-6.05,0-9.95-3.23-9.95-8.26S6.16,6.79,12.28,6.79c4.47,0,7.51,1.88,7.51,4.66,0,1.95-1.32,3.23-3.42,3.23s-3.61-1.28-3.61-2.93c0-.79.15-1.09,1.05-2.03.23-.26.34-.45.34-.64,0-.56-.79-1.05-1.65-1.05-.64,0-1.28.26-1.65.71-.53.6-.71,1.46-.71,3.34v5.14c0,1.88.22,2.93.71,3.68.6.86,1.69,1.39,2.85,1.39,2.29,0,4.17-1.17,6.12-3.91l.79.6Z"/>
      <path class="cls-1" d="M30,19.86c0,1.88-1.58,3.45-3.49,3.45s-3.53-1.58-3.53-3.49,1.58-3.53,3.49-3.53,3.53,1.54,3.53,3.57Z"/>
    </g>
  </g>
</svg>