<svg width="182" height="18" viewBox="0 0 182 18" fill="none" xmlns="http://www.w3.org/2000/svg">
<path d="M9.11043 12.5601C8.48043 12.8301 7.74043 12.9901 7.20043 12.9901H6.52043V4.44005C6.88043 4.40005 7.15043 4.39005 7.37043 4.39005C8.47043 4.39005 9.80043 4.79005 10.3604 5.25005C10.4104 5.30005 10.4504 5.36005 10.4504 5.41005C10.4504 5.50005 10.4104 5.54005 10.3104 5.54005C10.2604 5.54005 10.1804 5.52005 10.0904 5.50005C9.95043 5.46005 9.69043 5.43005 9.53043 5.43005C8.63043 5.43005 7.87043 6.20005 7.87043 7.14005C7.87043 8.13005 8.68043 8.92005 9.67043 8.92005C10.7504 8.92005 11.5404 8.11005 11.5404 7.01005C11.5404 5.30005 9.81043 4.18005 7.16043 4.18005C4.26043 4.18005 2.19043 6.09005 2.19043 8.74005C2.19043 11.3901 4.17043 13.2201 6.91043 13.2201C8.58043 13.2201 9.99043 12.5901 10.9404 11.4001C11.2604 11.0001 11.3704 10.7701 11.5704 10.1401L11.4104 10.0901C10.7104 11.5701 10.2404 12.0701 9.11043 12.5601Z" fill="#800300"/>
<path d="M17.3606 4.16003C14.1406 4.16003 12.1006 5.94003 12.1006 8.79003C12.1006 9.91003 12.5706 11.06 13.3606 11.85C14.3006 12.79 15.6106 13.24 17.3606 13.24C19.1106 13.24 20.4706 12.77 21.4106 11.8C22.1506 11.03 22.6006 9.82003 22.6006 8.70003C22.6006 7.58003 22.1106 6.34003 21.3606 5.57003C20.4406 4.63003 19.1106 4.17003 17.3606 4.17003V4.16003ZM18.2006 12.96C17.9706 13 17.7006 13 17.3506 13.01C16.9206 12.99 16.8306 12.99 16.5006 12.96V4.44003C16.7506 4.42003 16.9006 4.40003 17.2006 4.40003H17.7806L18.1906 4.42003V12.96H18.2006Z" fill="#800300"/>
<path d="M33.8701 4.30005H33.4401C33.4401 4.30005 33.3501 4.32005 33.2201 4.32005C32.6401 4.39005 32.2301 4.41005 31.7301 4.41005H28.8501V4.64005H29.7701V10.29C29.7701 10.43 29.7001 10.67 29.5501 11.01C29.3301 11.48 29.0601 11.88 28.7601 12.23C28.6201 12.39 28.4401 12.52 28.0801 12.68V4.30005H27.7601C27.6901 4.30005 27.6001 4.32005 27.4201 4.34005C27.0201 4.38005 26.6501 4.41005 26.3601 4.41005H23.1201V4.64005H24.0601V11.52C24.0601 12.53 25.1401 13.23 26.6901 13.23C27.5901 13.23 28.3101 12.96 28.9001 12.42C29.2201 12.11 29.4001 11.88 29.6901 11.25H29.7301V13.23H30.1801C30.1801 13.23 30.2201 13.23 30.2301 13.21C30.3901 13.17 30.6401 13.16 31.0001 13.12C32.1001 12.99 32.3001 12.99 32.9801 12.99H34.8201V12.74H33.8801V4.30005H33.8701Z" fill="#800300"/>
<path d="M42.9404 4.16003C41.7304 4.16003 40.8504 4.95003 40.1904 6.61003H40.1504V4.29003H39.7704C39.7704 4.29003 39.6104 4.31003 39.4104 4.33003C38.6504 4.40003 38.3804 4.42003 38.1304 4.42003H35.2104V4.65003H36.0904V12.77H35.1904V13H41.4404V12.77H40.1404V7.35003C40.1404 7.35003 40.1604 7.30003 40.1604 7.28003C40.2504 6.94003 40.3604 6.61003 40.5204 6.31003C41.0604 5.19003 41.2904 4.96003 42.2304 4.55003L42.2704 4.59003C41.6004 5.20003 41.3304 5.71003 41.3304 6.35003C41.3304 7.34003 42.0704 8.06003 43.0904 8.06003C44.1104 8.06003 44.8504 7.25003 44.8504 6.13003C44.8504 4.94003 44.0904 4.17003 42.9204 4.17003L42.9404 4.16003Z" fill="#800300"/>
<path d="M50.6004 12.3C50.3504 12.3 50.1704 12.05 50.1704 11.67V4.65H52.2204V4.42H50.1704V1.37H49.9704C49.5204 2.23 49.2904 2.56 48.8004 3.01C48.3304 3.44 47.7904 3.8 47.2004 4.04C46.5704 4.29 46.1604 4.36 45.1504 4.42V4.65H46.1204V11.1C46.1204 12.45 47.0704 13.24 48.7504 13.24C49.6704 13.24 50.4204 12.99 51.0004 12.5C51.6704 11.94 52.0104 11.26 52.3104 9.87H52.0804C51.8304 11.2 51.1604 12.3 50.6004 12.3Z" fill="#800300"/>
<path d="M63.4608 6.24004C63.4608 4.93004 62.5208 4.17004 60.8308 4.17004C60.0608 4.17004 59.4308 4.33004 58.8708 4.69004C58.4008 5.00004 58.1908 5.27004 57.7708 6.08004H57.7308V4.30004H57.2408C57.2408 4.30004 57.1108 4.30004 56.9708 4.32004C56.8808 4.34004 56.7508 4.36004 56.5708 4.36004C55.9208 4.40004 55.3308 4.41004 54.7508 4.41004H52.5708V4.64004H53.5808V12.76H52.5508V12.99H58.3308L58.3108 12.76H57.7208V7.11004C57.7208 6.98004 57.8508 6.57004 57.9708 6.26004C58.3308 5.41004 58.6908 5.02004 59.3208 4.73004V12.76H58.7108V12.99H64.4908V12.76H63.4508V6.24004H63.4608Z" fill="#800300"/>
<path d="M75.32 9.18003C75.19 7.32003 74.92 6.55003 74.02 5.65003C73.08 4.66003 71.77 4.16003 70.26 4.16003C67.34 4.16003 65.04 6.21003 65.04 8.80003C65.04 11.39 67.22 13.27 70.35 13.27C71.92 13.27 73.25 12.77 74.26 11.81C74.71 11.36 74.91 11.07 75.3 10.28L75.07 10.17C74.67 10.96 74.48 11.25 74.04 11.66C73.12 12.56 71.84 13.03 70.35 13.03C70.28 13.03 70.1 13.01 69.83 12.99L69.45 12.97V9.17003H75.32V9.18003ZM69.47 4.48003C69.78 4.43003 69.97 4.41003 70.3 4.41003C70.71 4.41003 70.93 4.43003 71.16 4.48003V8.94003H69.47V4.48003Z" fill="#800300"/>
<path d="M82.1509 4.64002H82.7809L84.5309 6.13002L82.9309 8.85002L80.2809 4.64002H81.1309L81.1509 4.41002H74.9009V4.64002H75.6009L80.6809 12.65C79.9809 13.96 79.6509 14.45 79.0809 15.12C78.4709 15.8 78.0709 16.08 77.3909 16.31L77.3509 16.27C77.9109 15.77 78.0309 15.51 78.0309 14.9C78.0309 14.04 77.3509 13.37 76.4509 13.37C75.5509 13.37 74.8809 14.05 74.8809 14.95C74.8809 15.92 75.6509 16.62 76.7409 16.62C77.4609 16.62 78.0909 16.39 78.6809 15.88C79.2609 15.41 79.7809 14.73 80.5309 13.43L84.8009 6.12002L86.3809 4.63002H86.7209V4.40002H82.1709L82.1509 4.63002V4.64002Z" fill="#800300"/>
<path d="M104.24 12.46V6.82003C104.24 4.88003 102.94 4.16003 99.4002 4.16003C96.5002 4.16003 94.9902 4.86003 94.9902 6.21003C94.9902 7.02003 95.7102 7.52003 96.8302 7.52003C98.2202 7.52003 99.1302 6.80003 99.1302 5.72003C99.1302 5.36003 98.9502 5.04003 98.6102 4.76003C98.5002 4.67003 98.4502 4.60003 98.4502 4.55003C98.4502 4.44003 98.6702 4.39003 99.1902 4.39003H99.5302C99.6902 4.39003 99.9102 4.41003 100.14 4.43003V8.00003C98.9502 8.02003 98.4702 8.04003 97.8002 8.11003C97.1202 8.18003 96.6102 8.29003 96.2002 8.43003C94.9602 8.86003 94.2402 9.73003 94.2402 10.81C94.2402 12.32 95.3602 13.22 97.2102 13.22C97.8402 13.22 98.4502 13.09 98.9702 12.88C99.4602 12.68 99.7102 12.5 100.23 11.98C100.73 12.9 101.36 13.24 102.44 13.24C103.29 13.24 104.01 13.01 104.51 12.56C105.01 12.11 105.23 11.62 105.36 10.7H105.11C105 11.55 104.82 11.92 104.25 12.47L104.24 12.46ZM100.14 11.36V11.58C100.14 11.89 99.4602 12.41 98.7202 12.68V8.29003C98.9702 8.25003 99.2802 8.24003 99.4902 8.24003H100.14V11.37V11.36Z" fill="#800300"/>
<path d="M112.22 4.64003H112.95L114.62 6.30003L112.69 10.62L109.85 4.64003H110.57V4.41003H104.79V4.64003H105.53L109.52 13.09H111.88L114.91 6.24003L116.42 4.64003H116.74V4.41003H112.22V4.64003Z" fill="#800300"/>
<path d="M126.581 9.18003C126.451 7.32003 126.181 6.55003 125.281 5.65003C124.341 4.66003 123.031 4.16003 121.521 4.16003C118.601 4.16003 116.301 6.21003 116.301 8.80003C116.301 11.39 118.481 13.27 121.611 13.27C123.181 13.27 124.511 12.77 125.521 11.81C125.971 11.36 126.171 11.07 126.561 10.28L126.331 10.17C125.931 10.96 125.741 11.25 125.301 11.66C124.381 12.56 123.101 13.03 121.611 13.03C121.541 13.03 121.361 13.01 121.091 12.99L120.711 12.97V9.17003H126.581V9.18003ZM120.731 4.48003C121.041 4.43003 121.231 4.41003 121.561 4.41003C121.971 4.41003 122.191 4.43003 122.421 4.48003V8.94003H120.731V4.48003Z" fill="#800300"/>
<path d="M137.78 6.24004C137.78 4.93004 136.84 4.17004 135.15 4.17004C134.38 4.17004 133.75 4.33004 133.19 4.69004C132.72 5.00004 132.51 5.27004 132.09 6.08004H132.05V4.30004H131.56C131.56 4.30004 131.43 4.30004 131.29 4.32004C131.2 4.34004 131.07 4.36004 130.89 4.36004C130.24 4.40004 129.65 4.41004 129.07 4.41004H126.89V4.64004H127.9V12.76H126.87V12.99H132.65L132.63 12.76H132.04V7.11004C132.04 6.98004 132.17 6.57004 132.29 6.26004C132.65 5.41004 133.01 5.02004 133.64 4.73004V12.76H133.03V12.99H138.81V12.76H137.77V6.24004H137.78Z" fill="#800300"/>
<path d="M144.61 12.3C144.36 12.3 144.18 12.05 144.18 11.67V4.65H146.23V4.42H144.18V1.37H143.98C143.53 2.23 143.3 2.56 142.81 3.01C142.34 3.44 141.8 3.8 141.21 4.04C140.58 4.29 140.17 4.36 139.16 4.42V4.65H140.13V11.1C140.13 12.45 141.08 13.24 142.76 13.24C143.68 13.24 144.43 12.99 145.01 12.5C145.68 11.94 146.02 11.26 146.32 9.87H146.09C145.84 11.2 145.17 12.3 144.61 12.3Z" fill="#800300"/>
<path d="M157.5 4.30005H157.07C157.07 4.30005 156.98 4.32005 156.85 4.32005C156.27 4.39005 155.86 4.41005 155.36 4.41005H152.48V4.64005H153.4V10.29C153.4 10.43 153.33 10.67 153.18 11.01C152.96 11.48 152.69 11.88 152.39 12.23C152.25 12.39 152.07 12.52 151.71 12.68V4.30005H151.39C151.32 4.30005 151.23 4.32005 151.05 4.34005C150.65 4.38005 150.28 4.41005 149.99 4.41005H146.75V4.64005H147.69V11.52C147.69 12.53 148.77 13.23 150.32 13.23C151.22 13.23 151.94 12.96 152.53 12.42C152.85 12.11 153.03 11.88 153.32 11.25H153.36V13.23H153.81C153.81 13.23 153.85 13.23 153.86 13.21C154.02 13.17 154.27 13.16 154.63 13.12C155.73 12.99 155.93 12.99 156.61 12.99H158.45V12.74H157.51V4.30005H157.5Z" fill="#800300"/>
<path d="M166.57 4.16003C165.36 4.16003 164.48 4.95003 163.82 6.61003H163.78V4.29003H163.4C163.4 4.29003 163.24 4.31003 163.04 4.33003C162.28 4.40003 162.01 4.42003 161.76 4.42003H158.84V4.65003H159.72V12.77H158.82V13H165.07V12.77H163.77V7.35003C163.77 7.35003 163.79 7.30003 163.79 7.28003C163.88 6.94003 163.99 6.61003 164.15 6.31003C164.69 5.19003 164.92 4.96003 165.86 4.55003L165.9 4.59003C165.23 5.20003 164.96 5.71003 164.96 6.35003C164.96 7.34003 165.7 8.06003 166.72 8.06003C167.74 8.06003 168.48 7.25003 168.48 6.13003C168.48 4.94003 167.72 4.17003 166.55 4.17003L166.57 4.16003Z" fill="#800300"/>
<path d="M179.8 10.69C179.69 11.54 179.51 11.91 178.94 12.46V6.82003C178.94 4.88003 177.64 4.16003 174.1 4.16003C171.2 4.16003 169.69 4.86003 169.69 6.21003C169.69 7.02003 170.41 7.52003 171.53 7.52003C172.92 7.52003 173.83 6.80003 173.83 5.72003C173.83 5.36003 173.65 5.04003 173.31 4.76003C173.2 4.67003 173.15 4.60003 173.15 4.55003C173.15 4.44003 173.37 4.39003 173.89 4.39003H174.23C174.39 4.39003 174.61 4.41003 174.84 4.43003V8.00003C173.65 8.02003 173.17 8.04003 172.5 8.11003C171.82 8.18003 171.31 8.29003 170.9 8.43003C169.66 8.86003 168.94 9.73003 168.94 10.81C168.94 12.32 170.06 13.22 171.91 13.22C172.54 13.22 173.15 13.09 173.67 12.88C174.16 12.68 174.41 12.5 174.93 11.98C175.43 12.9 176.06 13.24 177.14 13.24C177.99 13.24 178.71 13.01 179.21 12.56C179.71 12.11 179.93 11.62 180.06 10.7H179.81L179.8 10.69ZM174.84 11.36V11.58C174.84 11.89 174.16 12.41 173.42 12.68V8.29003C173.67 8.25003 173.98 8.24003 174.19 8.24003H174.84V11.37V11.36Z" fill="#800300"/>
</svg>
