<?xml version="1.0" encoding="UTF-8"?>
<svg xmlns="http://www.w3.org/2000/svg" version="1.1" viewBox="0 0 81 34">
  <defs>
    <style>
      .cls-1 {
        fill: #800300;
      }
    </style>
  </defs>
  <!-- Generator: Adobe Illustrator 28.7.1, SVG Export Plug-In . SVG Version: 1.2.0 Build 142)  -->
  <g>
    <g id="Layer_1">
      <path class="cls-1" d="M10.04,10.46c-1.06,1.58-2.2,2.18-4.09,2.18-2.9,0-4.77-1.55-4.77-3.96s1.93-4.07,4.86-4.07c2.14,0,3.6.9,3.6,2.23,0,.94-.63,1.55-1.64,1.55s-1.73-.61-1.73-1.4c0-.38.07-.52.5-.97.11-.13.16-.22.16-.31,0-.27-.38-.5-.79-.5-.31,0-.61.12-.79.34-.25.29-.34.7-.34,1.6v2.47c0,.9.11,1.41.34,1.77.29.41.81.67,1.37.67,1.1,0,2-.56,2.93-1.87l.38.29Z"/>
      <path class="cls-1" d="M20.68,8.68c0,2.36-2.03,3.96-4.99,3.96s-4.99-1.6-4.99-4.02,2-4.01,4.97-4.01,5,1.6,5,4.07ZM14.54,9.83c0,.85.07,1.35.22,1.67.14.32.52.54.94.54s.79-.22.94-.54c.14-.32.22-.83.22-1.67v-2.41c0-.85-.07-1.35-.22-1.68-.14-.32-.52-.54-.94-.54-.86,0-1.15.56-1.15,2.21v2.41Z"/>
      <path class="cls-1" d="M27.64,11.12c-.79,1.01-1.71,1.51-2.81,1.51-.86,0-1.58-.29-2.02-.81-.36-.41-.49-.94-.49-1.84v-4.61h-.85v-.54h.74c1.84,0,2.47-.04,3.66-.23v5.53c0,.76.18,1.08.63,1.08.27,0,.63-.22.83-.52.23-.32.31-.63.31-1.33v-3.98h-1.08v-.54h.97c1.84,0,2.48-.04,3.66-.23v7.26h1.08v.54h-4.63v-1.28Z"/>
      <path class="cls-1" d="M33.74,5.38h-1.08v-.54h.99c1.82,0,2.48-.04,3.64-.23v1.48c.54-1.03,1.26-1.48,2.3-1.48,1.26,0,2.11.86,2.11,2.14,0,1.1-.72,1.82-1.8,1.82-.97,0-1.73-.67-1.73-1.53,0-.31.11-.59.29-.83.13-.16.16-.22.16-.29,0-.13-.09-.22-.2-.22-.22,0-.49.25-.74.65-.32.54-.4.9-.4,2.09v3.42h1.08v.54h-5.71v-.54h1.08v-6.48Z"/>
      <path class="cls-1" d="M46.74,10.33c0,.81.16,1.15.54,1.15s.67-.34.97-1.15l.45.14c-.38,1.49-1.31,2.16-3.04,2.16-.88,0-1.49-.18-1.91-.58-.45-.41-.56-.85-.56-2.14v-4.54h-1.12v-.34c2.18-1.37,3.03-2.18,4.18-3.98h.49v3.78h1.69v.54h-1.69v4.95Z"/>
      <path class="cls-1" d="M50.25,5.38h-1.08v-.54h.99c1.82,0,2.47-.04,3.64-.23v1.73c.85-1.26,1.69-1.75,3.03-1.75,1.49,0,2.23.78,2.23,2.34v4.93h1.08v.54h-5.28v-.54h.65v-4.99c0-.59-.14-.83-.52-.83-.67,0-1.19.94-1.19,2.12v3.69h.65v.54h-5.28v-.54h1.08v-6.48Z"/>
      <path class="cls-1" d="M64.54,8.82c0,2.41.47,3.22,1.87,3.22,1.31,0,2.43-.86,3.1-2.38l.45.2c-.76,1.89-2.14,2.79-4.34,2.79-1.22,0-2.3-.23-3.02-.63-1.17-.67-1.89-1.96-1.89-3.44,0-2.38,1.98-3.98,4.95-3.98,2.7,0,4.2,1.26,4.3,3.62h-5.42v.59ZM65.86,7.68c.45,0,.49-.05.49-.83,0-1.19-.25-1.66-.86-1.66-.52,0-.77.34-.88,1.13-.04.29-.05.61-.05,1.35h1.31Z"/>
      <path class="cls-1" d="M70.73,5.38h-.77v-.54h5.69v.54h-.81l1.62,3.21,1.13-2.38c.13-.25.18-.41.18-.52,0-.22-.16-.31-.59-.31h-.29v-.54h2.74v.54h-.32c-.47.04-.72.23-1.01.83l-4.16,8.41q-.63,1.28-.86,1.64c-.4.56-.88.83-1.48.83-.83,0-1.4-.61-1.4-1.48,0-.95.72-1.71,1.62-1.71.36,0,.7.11.96.32q.38.31.47.31c.09,0,.2-.11.31-.34l.77-1.64-3.78-7.17Z"/>
      <path class="cls-1" d="M6.19,24.3c0-.67-.34-1.04-.92-1.04-.4,0-.72.2-.72.43,0,.09.02.12.14.25.22.21.32.5.32.81,0,.79-.72,1.33-1.76,1.33s-1.64-.5-1.64-1.3.58-1.44,1.64-1.84c.68-.27,1.39-.36,2.63-.36,3.04,0,3.85.43,3.85,2.02v4.46c0,.31.09.45.27.45.14,0,.27-.09.54-.45l.43.32c-.56.83-1.37,1.24-2.39,1.24-1.17,0-1.8-.36-2.25-1.24-1.06.9-1.93,1.24-3.12,1.24s-2.05-.79-2.05-1.91c0-.97.58-1.62,1.78-2.05.99-.34,1.93-.52,3.24-.59v-1.78ZM6.19,26.75c-.14-.04-.22-.04-.29-.04-.7,0-1.17.61-1.17,1.49,0,.67.29,1.06.76,1.06s.7-.36.7-.99v-1.53Z"/>
      <path class="cls-1" d="M18.18,24.15c.07-.14.11-.31.11-.41,0-.23-.18-.36-.52-.36h-.34v-.54h2.36v.54h-.2c-.31,0-.45.14-.7.61l-3.26,6.41h-.9l-3.53-7.02h-.58v-.54h5.35v.54h-.79l1.67,3.42,1.33-2.65Z"/>
      <path class="cls-1" d="M23.49,26.82c0,2.41.47,3.22,1.87,3.22,1.31,0,2.43-.86,3.1-2.38l.45.2c-.76,1.89-2.14,2.79-4.34,2.79-1.22,0-2.3-.23-3.02-.63-1.17-.67-1.89-1.96-1.89-3.44,0-2.38,1.98-3.98,4.95-3.98,2.7,0,4.2,1.26,4.3,3.62h-5.42v.59ZM24.8,25.68c.45,0,.49-.05.49-.83,0-1.19-.25-1.66-.86-1.66-.52,0-.77.34-.88,1.13-.04.29-.05.61-.05,1.35h1.31Z"/>
      <path class="cls-1" d="M30.67,23.38h-1.08v-.54h.99c1.82,0,2.47-.04,3.64-.23v1.73c.85-1.26,1.69-1.75,3.03-1.75,1.49,0,2.23.78,2.23,2.34v4.93h1.08v.54h-5.28v-.54h.65v-4.99c0-.59-.14-.83-.52-.83-.67,0-1.19.94-1.19,2.12v3.69h.65v.54h-5.28v-.54h1.08v-6.48Z"/>
      <path class="cls-1" d="M45.39,28.33c0,.81.16,1.15.54,1.15s.67-.34.97-1.15l.45.14c-.38,1.49-1.31,2.16-3.04,2.16-.88,0-1.49-.18-1.91-.58-.45-.41-.56-.85-.56-2.14v-4.54h-1.12v-.34c2.18-1.37,3.03-2.18,4.18-3.98h.49v3.78h1.69v.54h-1.69v4.95Z"/>
      <path class="cls-1" d="M54.01,29.12c-.79,1.01-1.71,1.51-2.81,1.51-.86,0-1.58-.29-2.02-.81-.36-.41-.49-.94-.49-1.84v-4.61h-.85v-.54h.74c1.84,0,2.47-.04,3.66-.23v5.53c0,.76.18,1.08.63,1.08.27,0,.63-.22.83-.52.23-.32.31-.63.31-1.33v-3.98h-1.08v-.54h.97c1.84,0,2.48-.04,3.66-.23v7.26h1.08v.54h-4.63v-1.28Z"/>
      <path class="cls-1" d="M60.12,23.38h-1.08v-.54h.99c1.82,0,2.48-.04,3.64-.23v1.48c.54-1.03,1.26-1.48,2.3-1.48,1.26,0,2.11.86,2.11,2.14,0,1.1-.72,1.82-1.8,1.82-.97,0-1.73-.67-1.73-1.53,0-.31.11-.59.29-.83.13-.16.16-.22.16-.29,0-.13-.09-.22-.2-.22-.22,0-.49.25-.74.65-.32.54-.4.9-.4,2.09v3.42h1.08v.54h-5.71v-.54h1.08v-6.48Z"/>
      <path class="cls-1" d="M73.63,24.3c0-.67-.34-1.04-.92-1.04-.4,0-.72.2-.72.43,0,.09.02.12.14.25.22.21.32.5.32.81,0,.79-.72,1.33-1.76,1.33s-1.64-.5-1.64-1.3.58-1.44,1.64-1.84c.68-.27,1.39-.36,2.63-.36,3.04,0,3.85.43,3.85,2.02v4.46c0,.31.09.45.27.45.14,0,.27-.09.54-.45l.43.32c-.56.83-1.37,1.24-2.39,1.24-1.17,0-1.8-.36-2.25-1.24-1.06.9-1.93,1.24-3.12,1.24s-2.05-.79-2.05-1.91c0-.97.58-1.62,1.78-2.05.99-.34,1.93-.52,3.24-.59v-1.78ZM73.63,26.75c-.14-.04-.22-.04-.29-.04-.7,0-1.17.61-1.17,1.49,0,.67.29,1.06.76,1.06s.7-.36.7-.99v-1.53Z"/>
    </g>
  </g>
</svg>