<?xml version="1.0" encoding="UTF-8"?>
<svg xmlns="http://www.w3.org/2000/svg" version="1.1" viewBox="0 0 17 18">
  <defs>
    <style>
      .cls-1 {
        fill: #800300;
      }
    </style>
  </defs>
  <!-- Generator: Adobe Illustrator 28.7.1, SVG Export Plug-In . SVG Version: 1.2.0 Build 142)  -->
  <g>
    <g id="Layer_1">
      <g>
        <path class="cls-1" d="M10.01,11.55c-.81.99-1.22,1.33-2.11,1.76-.79.4-1.66.59-2.63.59-2.75,0-4.39-1.42-4.39-3.8,0-2.83,2.99-5.2,6.52-5.2,2.04,0,3.4,1.01,3.4,2.5,0,1.13-.79,1.98-1.84,1.98s-1.8-.76-1.8-1.76c0-.95.76-1.69,1.76-1.69.38,0,.77.11,1.22.34l.04-.04c-.59-.77-1.39-1.1-2.74-1.1-.23,0-.45.02-.92.07l-2.39,8.39c.5.04.88.07,1.12.07,1.13,0,2.16-.29,3.06-.85.56-.36.86-.65,1.49-1.42l.2.14Z"/>
        <path class="cls-1" d="M15.73,12.02c0,1.06-.96,1.86-2.21,1.86-1.17,0-2.16-.85-2.16-1.86,0-1.06.92-1.87,2.12-1.87,1.3,0,2.25.79,2.25,1.87Z"/>
      </g>
    </g>
  </g>
</svg>