<?xml version="1.0" encoding="UTF-8"?>
<svg xmlns="http://www.w3.org/2000/svg" version="1.1" viewBox="0 0 16 18">
  <defs>
    <style>
      .cls-1 {
        fill: #800300;
      }
    </style>
  </defs>
  <!-- Generator: Adobe Illustrator 28.7.1, SVG Export Plug-In . SVG Version: 1.2.0 Build 142)  -->
  <g>
    <g id="Layer_1">
      <g>
        <path class="cls-1" d="M5.17,13.65h.68c.54,0,1.28-.16,1.91-.43,1.13-.49,1.6-.99,2.3-2.47l.16.05c-.2.63-.31.86-.63,1.26-.95,1.19-2.36,1.82-4.03,1.82-2.74,0-4.72-1.89-4.72-4.48s2.07-4.56,4.97-4.56c2.65,0,4.38,1.12,4.38,2.83,0,1.1-.79,1.91-1.87,1.91-.99,0-1.8-.79-1.8-1.78,0-.94.76-1.71,1.66-1.71.16,0,.41.04.56.07.09.02.16.04.22.04.11,0,.14-.04.14-.13,0-.05-.04-.11-.09-.16-.56-.47-1.89-.86-2.99-.86-.22,0-.49.02-.85.05v8.55Z"/>
        <path class="cls-1" d="M15.25,11.95c0,1.13-.92,1.91-2.21,1.91-1.15,0-2.16-.85-2.16-1.85,0-1.08.9-1.87,2.14-1.87s2.23.79,2.23,1.82Z"/>
      </g>
    </g>
  </g>
</svg>