<?xml version="1.0" encoding="UTF-8"?>
<svg xmlns="http://www.w3.org/2000/svg" version="1.1" viewBox="0 0 186 18">
  <defs>
    <style>
      .cls-1 {
        fill: #800300;
      }
    </style>
  </defs>
  <!-- Generator: Adobe Illustrator 28.7.1, SVG Export Plug-In . SVG Version: 1.2.0 Build 142)  -->
  <g>
    <g id="Layer_1">
      <g>
        <path class="cls-1" d="M9.65,11.55c-.81.99-1.22,1.33-2.11,1.76-.79.4-1.66.59-2.63.59-2.75,0-4.39-1.42-4.39-3.8,0-2.83,2.99-5.2,6.52-5.2,2.03,0,3.4,1.01,3.4,2.5,0,1.13-.79,1.98-1.84,1.98s-1.8-.76-1.8-1.76c0-.95.76-1.69,1.76-1.69.38,0,.77.11,1.22.34l.04-.04c-.59-.77-1.39-1.1-2.74-1.1-.23,0-.45.02-.92.07l-2.39,8.39c.5.04.88.07,1.12.07,1.13,0,2.16-.29,3.06-.85.56-.36.86-.65,1.5-1.42l.2.14Z"/>
        <path class="cls-1" d="M21.52,8.76c0,1.17-.54,2.43-1.42,3.35-1.17,1.19-2.74,1.76-4.81,1.76-2.68,0-4.48-1.49-4.48-3.75,0-3.03,2.56-5.26,6.01-5.26h.13c2.88.07,4.57,1.51,4.57,3.89ZM18.24,5.23c-.61-.09-.88-.13-1.28-.13-.14,0-.25,0-.5.02l-2.41,8.41c.45.09.79.11,1.19.11.2,0,.31,0,.58-.04l2.43-8.37Z"/>
        <path class="cls-1" d="M30.08,5.05c.72.07,1.13.11,1.89.11,1.13,0,1.49-.02,2.27-.11l-2.36,8.25c.54-.23.86-.49,1.35-1.06.36-.43.56-.72.96-1.48l.2.11c-.56,1.06-.85,1.46-1.44,2-.76.68-1.58,1.03-2.5,1.03-1.39,0-2.23-.68-2.23-1.82,0-.2,0-.32.05-.61l-.04-.04c-.68.94-.95,1.24-1.51,1.69-.63.52-1.35.79-2.07.79-1.28,0-2.09-.67-2.09-1.71,0-.25.05-.63.18-1.06l1.58-5.71h-1.19l.07-.23h1.87c.14,0,.47,0,.99-.02.49-.02.81-.04.99-.04.76-.05,1.15-.09,1.17-.09h.34l-2.29,8.08.04.04c.5-.4.83-.7,1.3-1.28.32-.4.49-.65.88-1.3l1.58-5.54Z"/>
        <path class="cls-1" d="M40.97,6.49l.04.04c.86-1.15,1.62-1.64,2.5-1.64,1.17,0,2.02.81,2.02,1.93,0,.96-.74,1.71-1.69,1.71-1.06,0-1.78-.7-1.78-1.69,0-.76.29-1.21,1.03-1.6l-.04-.04c-.45.13-.67.23-.94.45-.65.56-1.26,1.3-1.37,1.71l-1.84,6.43c-.58-.11-1.06-.13-1.87-.13-.86,0-1.64.04-2.25.11l2.34-8.34h-1.26l.07-.23h1.58c.11,0,.27,0,.49-.02,1.53-.02,2.41-.05,3.13-.14h.25l-.41,1.46Z"/>
        <path class="cls-1" d="M53.05,1.9l-.94,3.26h1.69l-.05.25h-1.71l-2.38,8.19c1.03-.27,1.57-.61,2.21-1.37.38-.47.58-.79.97-1.64l.22.07c-.47,1.03-.72,1.42-1.26,1.96-.85.85-1.89,1.28-3.12,1.28-1.64,0-2.65-.68-2.65-1.76,0-.23.07-.59.22-1.12l1.6-5.62h-1.1l.05-.25c1.12-.07,1.55-.16,2.48-.59.43-.2.86-.45,1.28-.7.81-.54,1.26-.92,2.25-1.96h.22Z"/>
        <path class="cls-1" d="M63.33,13.33c.56-.27.86-.52,1.35-1.12.4-.47.58-.76.97-1.5l.16.07c-.43.92-.79,1.46-1.33,2-.77.77-1.57,1.12-2.54,1.12-1.42,0-2.3-.7-2.3-1.82,0-.25.04-.52.11-.77l1.62-5.69-.04-.04c-.47.36-.79.67-1.37,1.37-.34.41-.47.59-.77,1.1l-1.6,5.73c-.72-.09-1.06-.13-1.75-.13-.95,0-1.6.04-2.36.13l2.34-8.34h-1.22l.07-.23h1.85c.16,0,.85-.02,2.07-.05.31-.02.54-.04.67-.05.29-.04.45-.05.49-.05h.29l-.65,2.21.04.04c.07-.13.09-.14.25-.34.81-.99,1.31-1.44,1.96-1.75.41-.2.86-.31,1.31-.31,1.33,0,2.14.67,2.14,1.73,0,.23-.02.47-.09.7l-1.67,6Z"/>
        <path class="cls-1" d="M69.63,13.56c.56.07.83.09,1.12.09.95,0,2.03-.29,2.93-.81.61-.32.92-.58,1.57-1.28l.2.16c-.86.88-1.28,1.19-2.2,1.6-.83.38-1.69.56-2.56.56-2.59,0-4.39-1.46-4.39-3.53,0-2.83,3.02-5.44,6.3-5.44,2.09,0,3.56,1.1,3.56,2.65,0,1.82-1.71,3.01-4.3,3.01-.38,0-.67-.02-1.33-.09l-.9,3.08ZM70.6,10.23c.41.07.7.09,1.17.09h.4l1.46-5.1c-.36-.07-.52-.09-.92-.09-.29,0-.38,0-.67.05l-1.44,5.04Z"/>
        <path class="cls-1" d="M83.18,5.01l-2.3,8.12c.59-.4.88-.68,1.31-1.21.31-.4.49-.67.96-1.42l1.58-5.49c.61.09,1.26.14,1.98.14.05,0,.27-.02.61-.02.43-.02.74-.04.88-.05.27-.02.42-.04.47-.04h.2l-2.36,8.17c-.04.09-.05.2-.13.4-.2.79-.34,1.17-.56,1.55-.25.45-.61.85-1.04,1.15-.94.67-2.27.95-4.41.95s-3.4-.56-3.4-1.57c0-.7.59-1.21,1.4-1.21.86,0,1.48.54,1.48,1.28,0,.54-.29.9-.97,1.17v.04c.79.05,1.19.07,1.69.07.27,0,.4,0,.74-.04l1.58-5.6-.04-.04c-.67.94-.97,1.28-1.53,1.71-.67.54-1.35.81-2.03.81-1.33,0-2.12-.68-2.12-1.8,0-.25.04-.52.11-.79l1.67-5.92h-1.19l.05-.23h2.3c.41,0,.9-.02,2.92-.14h.14Z"/>
        <path class="cls-1" d="M103.23,5.05c.7.07,1.35.11,2.11.11.59,0,1.31-.04,2.07-.11l-2.41,8.34c.67-.31,1.04-.61,1.57-1.28.34-.43.5-.72.85-1.46l.22.11c-.36.83-.77,1.44-1.33,1.98-.83.85-1.64,1.17-2.77,1.17-1.3,0-2.18-.7-2.18-1.75v-.22h-.04c-.49.65-.72.88-1.19,1.22-.65.5-1.31.74-1.98.74-1.55,0-2.56-1.12-2.56-2.83,0-1.48.83-3.4,1.96-4.61.97-.99,2.14-1.58,3.19-1.58.97,0,1.71.54,2.07,1.55h.04l.4-1.39ZM99.09,13.49c.52-.23.72-.34,1.13-.68.5-.41.7-.65,1.15-1.3l1.33-4.66c-.25-.88-.56-1.3-1.26-1.58l-2.36,8.23Z"/>
        <path class="cls-1" d="M109.05,5.43l.07-.23h2.16c.16,0,.65-.02,1.46-.05.23-.02.41-.02.52-.04.22-.04.36-.05.4-.05h.38l-2.45,8.62c1.26-.05,2.11-.32,3.08-.97,1.64-1.1,3.01-3.49,3.01-5.29,0-.2-.04-.54-.11-1.01h-.04c-.25.85-.65,1.19-1.33,1.19-.72,0-1.33-.63-1.33-1.37s.59-1.33,1.35-1.33c.95,0,1.71,1.04,1.71,2.34,0,1.58-.92,3.62-2.18,4.88-1.17,1.19-2.63,1.8-4.21,1.8-1.93,0-3.28-1.03-3.28-2.48,0-.29.05-.61.14-.97l1.4-5.02h-.76Z"/>
        <path class="cls-1" d="M121.75,13.56c.56.07.83.09,1.12.09.95,0,2.03-.29,2.93-.81.61-.32.92-.58,1.57-1.28l.2.16c-.86.88-1.28,1.19-2.2,1.6-.83.38-1.69.56-2.56.56-2.59,0-4.39-1.46-4.39-3.53,0-2.83,3.02-5.44,6.3-5.44,2.09,0,3.57,1.1,3.57,2.65,0,1.82-1.71,3.01-4.3,3.01-.38,0-.67-.02-1.33-.09l-.9,3.08ZM122.73,10.23c.41.07.7.09,1.17.09h.4l1.46-5.1c-.36-.07-.52-.09-.92-.09-.29,0-.38,0-.67.05l-1.44,5.04Z"/>
        <path class="cls-1" d="M138.51,13.33c.56-.27.86-.52,1.35-1.12.4-.47.58-.76.97-1.5l.16.07c-.43.92-.79,1.46-1.33,2-.77.77-1.57,1.12-2.54,1.12-1.42,0-2.3-.7-2.3-1.82,0-.25.04-.52.11-.77l1.62-5.69-.04-.04c-.47.36-.79.67-1.37,1.37-.34.41-.47.59-.77,1.1l-1.6,5.73c-.72-.09-1.06-.13-1.75-.13-.95,0-1.6.04-2.36.13l2.34-8.34h-1.22l.07-.23h1.85c.16,0,.85-.02,2.07-.05.31-.02.54-.04.67-.05.29-.04.45-.05.49-.05h.29l-.65,2.21.04.04c.07-.13.09-.14.25-.34.81-.99,1.31-1.44,1.96-1.75.41-.2.86-.31,1.31-.31,1.33,0,2.14.67,2.14,1.73,0,.23-.02.47-.09.7l-1.67,6Z"/>
        <path class="cls-1" d="M148.86,1.9l-.94,3.26h1.69l-.05.25h-1.71l-2.38,8.19c1.03-.27,1.57-.61,2.21-1.37.38-.47.58-.79.97-1.64l.22.07c-.47,1.03-.72,1.42-1.26,1.96-.85.85-1.89,1.28-3.12,1.28-1.64,0-2.65-.68-2.65-1.76,0-.23.07-.59.22-1.12l1.6-5.62h-1.1l.05-.25c1.12-.07,1.55-.16,2.48-.59.43-.2.86-.45,1.28-.7.81-.54,1.26-.92,2.25-1.96h.22Z"/>
        <path class="cls-1" d="M157.4,5.05c.72.07,1.13.11,1.89.11,1.13,0,1.49-.02,2.27-.11l-2.36,8.25c.54-.23.86-.49,1.35-1.06.36-.43.56-.72.96-1.48l.2.11c-.56,1.06-.85,1.46-1.44,2-.76.68-1.58,1.03-2.5,1.03-1.39,0-2.23-.68-2.23-1.82,0-.2,0-.32.05-.61l-.04-.04c-.68.94-.95,1.24-1.51,1.69-.63.52-1.35.79-2.07.79-1.28,0-2.09-.67-2.09-1.71,0-.25.05-.63.18-1.06l1.58-5.71h-1.19l.07-.23h1.87c.14,0,.47,0,.99-.02.49-.02.81-.04.99-.04.76-.05,1.15-.09,1.17-.09h.34l-2.29,8.08.04.04c.5-.4.83-.7,1.3-1.28.32-.4.49-.65.88-1.3l1.58-5.54Z"/>
        <path class="cls-1" d="M168.29,6.49l.04.04c.86-1.15,1.62-1.64,2.5-1.64,1.17,0,2.02.81,2.02,1.93,0,.96-.74,1.71-1.69,1.71-1.06,0-1.78-.7-1.78-1.69,0-.76.29-1.21,1.03-1.6l-.04-.04c-.45.13-.67.23-.94.45-.65.56-1.26,1.3-1.37,1.71l-1.84,6.43c-.58-.11-1.06-.13-1.87-.13-.86,0-1.64.04-2.25.11l2.34-8.34h-1.26l.07-.23h1.58c.11,0,.27,0,.49-.02,1.53-.02,2.41-.05,3.13-.14h.25l-.41,1.46Z"/>
        <path class="cls-1" d="M180.67,5.05c.7.07,1.35.11,2.11.11.59,0,1.31-.04,2.07-.11l-2.41,8.34c.67-.31,1.04-.61,1.57-1.28.34-.43.5-.72.85-1.46l.22.11c-.36.83-.77,1.44-1.33,1.98-.83.85-1.64,1.17-2.77,1.17-1.3,0-2.18-.7-2.18-1.75v-.22h-.04c-.49.65-.72.88-1.19,1.22-.65.5-1.31.74-1.98.74-1.55,0-2.56-1.12-2.56-2.83,0-1.48.83-3.4,1.96-4.61.97-.99,2.14-1.58,3.19-1.58.97,0,1.71.54,2.07,1.55h.04l.4-1.39ZM176.53,13.49c.52-.23.72-.34,1.13-.68.5-.41.7-.65,1.15-1.3l1.33-4.66c-.25-.88-.56-1.3-1.26-1.58l-2.36,8.23Z"/>
      </g>
    </g>
  </g>
</svg>