<?xml version="1.0" encoding="UTF-8"?>
<svg xmlns="http://www.w3.org/2000/svg" version="1.1" viewBox="0 0 182 18">
  <defs>
    <style>
      .cls-1 {
        fill: #800300;
      }
    </style>
  </defs>
  <!-- Generator: Adobe Illustrator 28.7.1, SVG Export Plug-In . SVG Version: 1.2.0 Build 142)  -->
  <g>
    <g id="Layer_1">
      <g>
        <path class="cls-1" d="M5.36,13.65h.68c.54,0,1.28-.16,1.91-.43,1.13-.49,1.6-.99,2.3-2.47l.16.05c-.2.63-.31.86-.63,1.26-.96,1.19-2.36,1.82-4.03,1.82-2.74,0-4.72-1.89-4.72-4.48s2.07-4.56,4.97-4.56c2.65,0,4.38,1.12,4.38,2.83,0,1.1-.79,1.91-1.87,1.91-.99,0-1.8-.79-1.8-1.78,0-.94.76-1.71,1.66-1.71.16,0,.41.04.56.07.09.02.16.04.22.04.11,0,.14-.04.14-.13,0-.05-.04-.11-.09-.16-.56-.47-1.89-.86-2.99-.86-.22,0-.49.02-.85.05v8.55Z"/>
        <path class="cls-1" d="M20.19,6.21c.76.77,1.24,2,1.24,3.13s-.45,2.32-1.19,3.1c-.94.97-2.27,1.44-4.05,1.44s-3.06-.45-4-1.39c-.79-.79-1.26-1.94-1.26-3.06,0-2.84,2.03-4.63,5.26-4.63,1.75,0,3.08.47,4,1.4ZM15.35,13.61c.32.04.41.04.85.05.34-.02.61-.02.85-.05V5.07l-.41-.02h-.58c-.31,0-.45.02-.7.04v8.52Z"/>
        <path class="cls-1" d="M26.9,13.34c.36-.16.54-.29.68-.45.31-.36.58-.76.79-1.22.14-.34.22-.58.22-.72v-5.65h-.92v-.23h2.88c.5,0,.92-.02,1.49-.09.13,0,.2-.02.22-.02h.43v8.44h.94v.25h-1.84c-.68,0-.88,0-1.98.13-.36.04-.61.05-.77.09-.02.02-.04.02-.05.02h-.45v-1.98h-.04c-.29.63-.47.86-.79,1.17-.59.54-1.31.81-2.21.81-1.55,0-2.63-.7-2.63-1.71v-6.88h-.94v-.23h3.24c.29,0,.67-.04,1.06-.07.18-.02.27-.04.34-.04h.32v8.39Z"/>
        <path class="cls-1" d="M38.98,7.25h.04c.67-1.66,1.55-2.45,2.75-2.45s1.93.77,1.93,1.96c0,1.12-.74,1.93-1.76,1.93s-1.76-.72-1.76-1.71c0-.65.27-1.15.94-1.76l-.04-.04c-.94.41-1.17.65-1.71,1.76-.16.31-.27.63-.36.97,0,.02-.02.05-.02.07v5.42h1.3v.23h-6.25v-.23h.9V5.29h-.88v-.23h2.92c.25,0,.52-.02,1.28-.09.2-.02.34-.04.36-.04h.38v2.32Z"/>
        <path class="cls-1" d="M49.01,2.01v3.04h2.05v.23h-2.05v7.02c0,.38.18.63.43.63.56,0,1.22-1.1,1.48-2.43h.23c-.31,1.39-.65,2.07-1.31,2.63-.58.49-1.33.74-2.25.74-1.67,0-2.63-.79-2.63-2.14v-6.45h-.97v-.23c1.01-.05,1.42-.13,2.05-.38.59-.23,1.13-.59,1.6-1.03.49-.45.72-.77,1.17-1.64h.2Z"/>
        <path class="cls-1" d="M56.57,6.73h.04c.41-.81.63-1.08,1.1-1.39.56-.36,1.19-.52,1.96-.52,1.69,0,2.63.76,2.63,2.07v6.52h1.04v.23h-5.78v-.23h.61V5.38c-.63.29-.99.68-1.35,1.53-.13.31-.25.72-.25.85v5.65h.59l.02.23h-5.78v-.23h1.03V5.29h-1.01v-.23h2.18c.58,0,1.17-.02,1.82-.05.18,0,.31-.02.4-.04.14-.02.23-.02.27-.02h.49v1.78Z"/>
        <path class="cls-1" d="M68.28,9.83v3.8l.38.02c.27.02.45.04.52.04,1.5,0,2.77-.47,3.69-1.37.43-.41.63-.7,1.03-1.49l.23.11c-.4.79-.59,1.08-1.04,1.53-1.01.95-2.34,1.46-3.91,1.46-3.13,0-5.31-1.84-5.31-4.47s2.3-4.65,5.22-4.65c1.51,0,2.83.5,3.76,1.49.9.9,1.17,1.67,1.3,3.53h-5.87ZM68.3,9.59h1.69v-4.47c-.23-.05-.45-.07-.86-.07-.32,0-.52.02-.83.07v4.47Z"/>
        <path class="cls-1" d="M80.98,5.06l-.02.23h-.85l2.65,4.21,1.6-2.72-1.75-1.49h-.63l.02-.23h4.55v.23h-.34l-1.58,1.49-4.27,7.31c-.76,1.3-1.28,1.98-1.85,2.45-.59.5-1.22.74-1.94.74-1.08,0-1.86-.7-1.86-1.67,0-.9.68-1.58,1.57-1.58s1.58.67,1.58,1.53c0,.61-.13.86-.68,1.37l.04.04c.68-.23,1.08-.5,1.69-1.19.58-.67.9-1.15,1.6-2.47l-5.08-8.01h-.7v-.23h6.25Z"/>
        <path class="cls-1" d="M103.08,13.11c.58-.54.76-.92.86-1.76h.25c-.13.92-.34,1.4-.85,1.85s-1.22.68-2.07.68c-1.08,0-1.71-.34-2.21-1.26-.52.52-.77.7-1.26.9-.52.22-1.13.34-1.76.34-1.85,0-2.97-.9-2.97-2.41,0-1.08.72-1.94,1.96-2.38.41-.14.92-.25,1.6-.32.67-.07,1.15-.09,2.34-.11v-3.57c-.23-.02-.45-.04-.61-.04h-.34c-.52,0-.74.05-.74.16,0,.05.05.13.16.22.34.27.52.59.52.95,0,1.08-.92,1.8-2.3,1.8-1.12,0-1.84-.5-1.84-1.31,0-1.35,1.51-2.05,4.41-2.05,3.55,0,4.84.72,4.84,2.67v5.64ZM97.55,13.32c.74-.27,1.42-.79,1.42-1.1v-3.35h-.65c-.22,0-.52.02-.77.05v4.39Z"/>
        <path class="cls-1" d="M110.4,5.06v.23h-.72l2.84,5.98,1.93-4.32-1.67-1.66h-.72v-.23h4.52v.23h-.32l-1.51,1.6-3.02,6.84h-2.36l-4-8.44h-.74v-.23h5.78Z"/>
        <path class="cls-1" d="M121.55,9.83v3.8l.38.02c.27.02.45.04.52.04,1.5,0,2.77-.47,3.69-1.37.43-.41.63-.7,1.03-1.49l.23.11c-.4.79-.59,1.08-1.04,1.53-1.01.95-2.34,1.46-3.91,1.46-3.13,0-5.31-1.84-5.31-4.47s2.3-4.65,5.22-4.65c1.51,0,2.83.5,3.76,1.49.9.9,1.17,1.67,1.3,3.53h-5.87ZM121.56,9.59h1.69v-4.47c-.23-.05-.45-.07-.86-.07-.32,0-.52.02-.83.07v4.47Z"/>
        <path class="cls-1" d="M132.89,6.73h.04c.41-.81.63-1.08,1.1-1.39.56-.36,1.19-.52,1.96-.52,1.69,0,2.63.76,2.63,2.07v6.52h1.04v.23h-5.78v-.23h.61V5.38c-.63.29-.99.68-1.35,1.53-.13.31-.25.72-.25.85v5.65h.59l.02.23h-5.78v-.23h1.03V5.29h-1.01v-.23h2.18c.58,0,1.17-.02,1.82-.05.18,0,.31-.02.4-.04.14-.02.23-.02.27-.02h.49v1.78Z"/>
        <path class="cls-1" d="M145.02,2.01v3.04h2.05v.23h-2.05v7.02c0,.38.18.63.43.63.56,0,1.22-1.1,1.48-2.43h.23c-.31,1.39-.65,2.07-1.31,2.63-.58.49-1.33.74-2.25.74-1.67,0-2.63-.79-2.63-2.14v-6.45h-.97v-.23c1.01-.05,1.42-.13,2.05-.38.59-.23,1.13-.59,1.6-1.03.49-.45.72-.77,1.17-1.64h.2Z"/>
        <path class="cls-1" d="M152.54,13.34c.36-.16.54-.29.68-.45.31-.36.58-.76.79-1.22.14-.34.22-.58.22-.72v-5.65h-.92v-.23h2.88c.5,0,.92-.02,1.49-.09.13,0,.2-.02.22-.02h.43v8.44h.94v.25h-1.84c-.68,0-.88,0-1.98.13-.36.04-.61.05-.77.09-.02.02-.04.02-.05.02h-.45v-1.98h-.04c-.29.63-.47.86-.79,1.17-.59.54-1.31.81-2.21.81-1.55,0-2.63-.7-2.63-1.71v-6.88h-.94v-.23h3.24c.29,0,.67-.04,1.06-.07.18-.02.27-.04.34-.04h.32v8.39Z"/>
        <path class="cls-1" d="M164.62,7.25h.04c.67-1.66,1.55-2.45,2.75-2.45s1.93.77,1.93,1.96c0,1.12-.74,1.93-1.76,1.93s-1.76-.72-1.76-1.71c0-.65.27-1.15.94-1.76l-.04-.04c-.94.41-1.17.65-1.71,1.76-.16.31-.27.63-.36.97,0,.02-.02.05-.02.07v5.42h1.3v.23h-6.25v-.23h.9V5.29h-.88v-.23h2.92c.25,0,.52-.02,1.28-.09.2-.02.34-.04.36-.04h.38v2.32Z"/>
        <path class="cls-1" d="M179.78,13.11c.58-.54.76-.92.86-1.76h.25c-.13.92-.34,1.4-.85,1.85s-1.22.68-2.07.68c-1.08,0-1.71-.34-2.21-1.26-.52.52-.77.7-1.26.9-.52.22-1.13.34-1.76.34-1.85,0-2.97-.9-2.97-2.41,0-1.08.72-1.94,1.96-2.38.41-.14.92-.25,1.6-.32.67-.07,1.15-.09,2.34-.11v-3.57c-.23-.02-.45-.04-.61-.04h-.34c-.52,0-.74.05-.74.16,0,.05.05.13.16.22.34.27.52.59.52.95,0,1.08-.92,1.8-2.3,1.8-1.12,0-1.84-.5-1.84-1.31,0-1.35,1.51-2.05,4.41-2.05,3.55,0,4.84.72,4.84,2.67v5.64ZM174.25,13.32c.74-.27,1.42-.79,1.42-1.1v-3.35h-.65c-.22,0-.52.02-.77.05v4.39Z"/>
      </g>
    </g>
  </g>
</svg>