<?xml version="1.0" encoding="UTF-8"?>
<svg xmlns="http://www.w3.org/2000/svg" version="1.1" viewBox="0 0 182 18">
  <defs>
    <style>
      .cls-1 {
        fill: #800300;
      }
    </style>
  </defs>
  <!-- Generator: Adobe Illustrator 28.7.1, SVG Export Plug-In . SVG Version: 1.2.0 Build 142)  -->
  <g>
    <g id="Layer_1">
      <g>
        <path class="cls-1" d="M8.11,12.56c-.63.27-1.37.43-1.91.43h-.68V4.44c.36-.04.63-.05.85-.05,1.1,0,2.43.4,2.99.86.05.05.09.11.09.16,0,.09-.04.13-.14.13-.05,0-.13-.02-.22-.04-.14-.04-.4-.07-.56-.07-.9,0-1.66.77-1.66,1.71,0,.99.81,1.78,1.8,1.78,1.08,0,1.87-.81,1.87-1.91,0-1.71-1.73-2.83-4.38-2.83-2.9,0-4.97,1.91-4.97,4.56s1.98,4.48,4.72,4.48c1.67,0,3.08-.63,4.03-1.82.32-.4.43-.63.63-1.26l-.16-.05c-.7,1.48-1.17,1.98-2.3,2.47Z"/>
        <path class="cls-1" d="M16.36,4.16c-3.22,0-5.26,1.78-5.26,4.63,0,1.12.47,2.27,1.26,3.06.94.94,2.25,1.39,4,1.39s3.11-.47,4.05-1.44c.74-.77,1.19-1.98,1.19-3.1s-.49-2.36-1.24-3.13c-.92-.94-2.25-1.4-4-1.4ZM17.2,12.96c-.23.04-.5.04-.85.05-.43-.02-.52-.02-.85-.05V4.44c.25-.02.4-.04.7-.04h.58l.41.02v8.54Z"/>
        <path class="cls-1" d="M32.87,4.3h-.43s-.09.02-.22.02c-.58.07-.99.09-1.49.09h-2.88v.23h.92v5.65c0,.14-.07.38-.22.72-.22.47-.49.87-.79,1.22-.14.16-.32.29-.68.45V4.3h-.32c-.07,0-.16.02-.34.04-.4.04-.77.07-1.06.07h-3.24v.23h.94v6.88c0,1.01,1.08,1.71,2.63,1.71.9,0,1.62-.27,2.21-.81.32-.31.5-.54.79-1.17h.04v1.98h.45s.04,0,.05-.02c.16-.04.41-.05.77-.09,1.1-.13,1.3-.13,1.98-.13h1.84v-.25h-.94V4.3Z"/>
        <path class="cls-1" d="M41.94,4.16c-1.21,0-2.09.79-2.75,2.45h-.04v-2.32h-.38s-.16.02-.36.04c-.76.07-1.03.09-1.28.09h-2.92v.23h.88v8.12h-.9v.23h6.25v-.23h-1.3v-5.42s.02-.05.02-.07c.09-.34.2-.67.36-.97.54-1.12.77-1.35,1.71-1.76l.04.04c-.67.61-.94,1.12-.94,1.76,0,.99.74,1.71,1.76,1.71s1.76-.81,1.76-1.93c0-1.19-.76-1.96-1.93-1.96Z"/>
        <path class="cls-1" d="M49.6,12.3c-.25,0-.43-.25-.43-.63v-7.02h2.05v-.23h-2.05V1.37h-.2c-.45.86-.68,1.19-1.17,1.64-.47.43-1.01.79-1.6,1.03-.63.25-1.04.32-2.05.38v.23h.97v6.45c0,1.35.95,2.14,2.63,2.14.92,0,1.67-.25,2.25-.74.67-.56,1.01-1.24,1.31-2.63h-.23c-.25,1.33-.92,2.43-1.48,2.43Z"/>
        <path class="cls-1" d="M62.46,6.24c0-1.31-.94-2.07-2.63-2.07-.77,0-1.4.16-1.96.52-.47.31-.68.58-1.1,1.39h-.04v-1.78h-.49s-.13,0-.27.02c-.09.02-.22.04-.4.04-.65.04-1.24.05-1.82.05h-2.18v.23h1.01v8.12h-1.03v.23h5.78l-.02-.23h-.59v-5.65c0-.13.13-.54.25-.85.36-.85.72-1.24,1.35-1.53v8.03h-.61v.23h5.78v-.23h-1.04v-6.52Z"/>
        <path class="cls-1" d="M74.32,9.18c-.13-1.86-.4-2.63-1.3-3.53-.94-.99-2.25-1.49-3.76-1.49-2.92,0-5.22,2.05-5.22,4.64s2.18,4.47,5.31,4.47c1.57,0,2.9-.5,3.91-1.46.45-.45.65-.74,1.04-1.53l-.23-.11c-.4.79-.59,1.08-1.03,1.49-.92.9-2.2,1.37-3.69,1.37-.07,0-.25-.02-.52-.04l-.38-.02v-3.8h5.87ZM68.47,4.48c.31-.05.5-.07.83-.07.41,0,.63.02.86.07v4.46h-1.69v-4.46Z"/>
        <path class="cls-1" d="M82.15,4.64h.63l1.75,1.49-1.6,2.72-2.65-4.21h.85l.02-.23h-6.25v.23h.7l5.08,8.01c-.7,1.31-1.03,1.8-1.6,2.47-.61.68-1.01.96-1.69,1.19l-.04-.04c.56-.5.68-.76.68-1.37,0-.86-.68-1.53-1.58-1.53s-1.57.68-1.57,1.58c0,.97.77,1.67,1.86,1.67.72,0,1.35-.23,1.94-.74.58-.47,1.1-1.15,1.85-2.45l4.27-7.31,1.58-1.49h.34v-.23h-4.55l-.02.23Z"/>
        <path class="cls-1" d="M103.24,12.46v-5.64c0-1.94-1.3-2.66-4.84-2.66-2.9,0-4.41.7-4.41,2.05,0,.81.72,1.31,1.84,1.31,1.39,0,2.3-.72,2.3-1.8,0-.36-.18-.68-.52-.96-.11-.09-.16-.16-.16-.21,0-.11.22-.16.74-.16h.34c.16,0,.38.02.61.04v3.57c-1.19.02-1.67.04-2.34.11-.68.07-1.19.18-1.6.32-1.24.43-1.96,1.3-1.96,2.38,0,1.51,1.12,2.41,2.97,2.41.63,0,1.24-.13,1.76-.34.49-.2.74-.38,1.26-.9.5.92,1.13,1.26,2.21,1.26.85,0,1.57-.23,2.07-.68.5-.45.72-.94.85-1.86h-.25c-.11.85-.29,1.22-.86,1.77ZM99.14,11.36v.22c0,.31-.68.83-1.42,1.1v-4.39c.25-.04.56-.05.77-.05h.65v3.13Z"/>
        <polygon class="cls-1" points="112.22 4.64 112.95 4.64 114.62 6.3 112.69 10.62 109.85 4.64 110.57 4.64 110.57 4.41 104.79 4.41 104.79 4.64 105.53 4.64 109.52 13.09 111.88 13.09 114.91 6.24 116.42 4.64 116.74 4.64 116.74 4.41 112.22 4.41 112.22 4.64"/>
        <path class="cls-1" d="M127.58,9.18c-.13-1.86-.4-2.63-1.3-3.53-.94-.99-2.25-1.49-3.76-1.49-2.92,0-5.22,2.05-5.22,4.64s2.18,4.47,5.31,4.47c1.57,0,2.9-.5,3.91-1.46.45-.45.65-.74,1.04-1.53l-.23-.11c-.4.79-.59,1.08-1.03,1.49-.92.9-2.2,1.37-3.69,1.37-.07,0-.25-.02-.52-.04l-.38-.02v-3.8h5.87ZM121.73,4.48c.31-.05.5-.07.83-.07.41,0,.63.02.86.07v4.46h-1.69v-4.46Z"/>
        <path class="cls-1" d="M138.78,6.24c0-1.31-.94-2.07-2.63-2.07-.77,0-1.4.16-1.96.52-.47.31-.68.58-1.1,1.39h-.04v-1.78h-.49s-.13,0-.27.02c-.09.02-.22.04-.4.04-.65.04-1.24.05-1.82.05h-2.18v.23h1.01v8.12h-1.03v.23h5.78l-.02-.23h-.59v-5.65c0-.13.13-.54.25-.85.36-.85.72-1.24,1.35-1.53v8.03h-.61v.23h5.78v-.23h-1.04v-6.52Z"/>
        <path class="cls-1" d="M145.61,12.3c-.25,0-.43-.25-.43-.63v-7.02h2.05v-.23h-2.05V1.37h-.2c-.45.86-.68,1.19-1.17,1.64-.47.43-1.01.79-1.6,1.03-.63.25-1.04.32-2.05.38v.23h.97v6.45c0,1.35.95,2.14,2.63,2.14.92,0,1.67-.25,2.25-.74.67-.56,1.01-1.24,1.31-2.63h-.23c-.25,1.33-.92,2.43-1.48,2.43Z"/>
        <path class="cls-1" d="M158.5,4.3h-.43s-.09.02-.22.02c-.58.07-.99.09-1.49.09h-2.88v.23h.92v5.65c0,.14-.07.38-.22.72-.22.47-.49.87-.79,1.22-.14.16-.32.29-.68.45V4.3h-.32c-.07,0-.16.02-.34.04-.4.04-.77.07-1.06.07h-3.24v.23h.94v6.88c0,1.01,1.08,1.71,2.63,1.71.9,0,1.62-.27,2.21-.81.32-.31.5-.54.79-1.17h.04v1.98h.45s.04,0,.05-.02c.16-.04.41-.05.77-.09,1.1-.13,1.3-.13,1.98-.13h1.84v-.25h-.94V4.3Z"/>
        <path class="cls-1" d="M167.57,4.16c-1.21,0-2.09.79-2.75,2.45h-.04v-2.32h-.38s-.16.02-.36.04c-.76.07-1.03.09-1.28.09h-2.92v.23h.88v8.12h-.9v.23h6.25v-.23h-1.3v-5.42s.02-.05.02-.07c.09-.34.2-.67.36-.97.54-1.12.77-1.35,1.71-1.76l.04.04c-.67.61-.94,1.12-.94,1.76,0,.99.74,1.71,1.76,1.71s1.76-.81,1.76-1.93c0-1.19-.76-1.96-1.93-1.96Z"/>
        <path class="cls-1" d="M180.8,10.69c-.11.85-.29,1.22-.86,1.77v-5.64c0-1.94-1.3-2.66-4.84-2.66-2.9,0-4.41.7-4.41,2.05,0,.81.72,1.31,1.84,1.31,1.39,0,2.3-.72,2.3-1.8,0-.36-.18-.68-.52-.96-.11-.09-.16-.16-.16-.21,0-.11.22-.16.74-.16h.34c.16,0,.38.02.61.04v3.57c-1.19.02-1.67.04-2.34.11-.68.07-1.19.18-1.6.32-1.24.43-1.96,1.3-1.96,2.38,0,1.51,1.12,2.41,2.97,2.41.63,0,1.24-.13,1.76-.34.49-.2.74-.38,1.26-.9.5.92,1.13,1.26,2.21,1.26.85,0,1.57-.23,2.07-.68.5-.45.72-.94.85-1.86h-.25ZM175.84,11.36v.22c0,.31-.68.83-1.42,1.1v-4.39c.25-.04.56-.05.77-.05h.65v3.13Z"/>
      </g>
    </g>
  </g>
</svg>