<?xml version="1.0" encoding="UTF-8"?>
<svg xmlns="http://www.w3.org/2000/svg" version="1.1" viewBox="0 0 17 18">
  <defs>
    <style>
      .cls-1 {
        fill: #800300;
      }
    </style>
  </defs>
  <!-- Generator: Adobe Illustrator 28.7.1, SVG Export Plug-In . SVG Version: 1.2.0 Build 142)  -->
  <g>
    <g id="Layer_1">
      <g>
        <path class="cls-1" d="M5.6,5.1l.95-.04-2.41,8.3c.7-.38,1.06-.7,1.55-1.35.31-.4.45-.65.76-1.28l.22.09c-.58,1.12-.86,1.51-1.46,2.07-.74.67-1.55,1.01-2.45,1.01-1.39,0-2.29-.72-2.29-1.84,0-.22.04-.45.11-.68l1.71-5.98h-.76l.07-.25h1.84c.05,0,.13-.02.2-.02.18,0,.4.02.67.02l1.3-.05ZM7.15,2.31c0,.94-.83,1.51-2.16,1.51-1.22,0-2.07-.61-2.07-1.49,0-.99.83-1.6,2.14-1.6s2.09.59,2.09,1.58Z"/>
        <path class="cls-1" d="M14.71,5.53v-.04c-.79-.29-1.21-.36-2.03-.36-.74,0-1.06.05-1.89.32.05.43.14.67.32.94.34.47.95.94,2,1.51.88.49,1.03.59,1.58,1.1.59.63.83,1.19.83,1.96,0,.58-.29,1.24-.76,1.73-.79.81-2.05,1.21-3.89,1.21-2.38,0-3.87-.77-3.87-2,0-.67.61-1.19,1.37-1.19.97,0,1.57.52,1.57,1.37,0,.65-.58,1.13-1.46,1.21v.04c.94.27,1.49.36,2.48.36.7,0,1.04-.05,1.91-.23-.04-.38-.13-.63-.36-.96-.32-.49-.76-.83-1.78-1.42-.9-.52-1.06-.63-1.6-1.12-.49-.52-.72-1.08-.72-1.75,0-1.96,1.75-3.29,4.27-3.29,1.98,0,3.37.74,3.37,1.8,0,.72-.52,1.21-1.28,1.21-.86,0-1.42-.5-1.42-1.3,0-.65.54-1.08,1.37-1.12v.02Z"/>
      </g>
    </g>
  </g>
</svg>