<?xml version="1.0" encoding="UTF-8"?>
<svg xmlns="http://www.w3.org/2000/svg" version="1.1" viewBox="0 0 17 18">
  <defs>
    <style>
      .cls-1 {
        fill: #800300;
      }
    </style>
  </defs>
  <!-- Generator: Adobe Illustrator 28.7.1, SVG Export Plug-In . SVG Version: 1.2.0 Build 142)  -->
  <g>
    <g id="Layer_1">
      <g>
        <path class="cls-1" d="M6.5,4.84v8.57h.94v.23H1.28v-.23h1.13V5.29h-1.12v-.23h2.74c.47,0,1.12-.07,2.05-.22h.41ZM6.59,2.45c0,1.04-.9,1.69-2.3,1.69-1.17,0-2.07-.74-2.07-1.71s.9-1.71,2.09-1.71c1.37,0,2.29.7,2.29,1.73Z"/>
        <path class="cls-1" d="M15.41,4.82h.27l.05,3.21h-.22c-.76-1.15-1.15-1.62-1.78-2.11-.72-.58-1.58-.9-2.29-.9-.36,0-.94.09-1.58.29.16.58.29.81.63,1.08.45.36,1.01.61,2.39,1.12,2.45.86,3.26,1.66,3.26,3.2,0,1.78-1.53,3.17-3.51,3.17-.65,0-1.21-.16-2.25-.63l-2.2.63h-.27v-3.37h.2c.63,1.01.94,1.39,1.64,1.96.94.79,1.91,1.19,2.92,1.19.5,0,.97-.13,1.66-.41-.18-.5-.29-.7-.52-.94-.38-.38-.81-.59-1.91-.97-.36-.13-.5-.18-.86-.32-1.42-.54-1.89-.79-2.34-1.22-.49-.49-.72-1.08-.72-1.82,0-1.82,1.41-3.17,3.31-3.17.77,0,1.33.14,2.11.58l2.02-.56Z"/>
      </g>
    </g>
  </g>
</svg>