<svg width="1175" height="360" viewBox="0 0 1175 360" fill="none" xmlns="http://www.w3.org/2000/svg">
<rect width="1175" height="360" fill="white"/>
<g clip-path="url(#clip0_10_490)">
<path d="M117.494 171.051H130.017C130.598 176.225 132.745 180.506 141.331 180.506C147.056 180.506 150.857 177.34 150.857 172.835C150.857 168.33 148.442 166.635 139.945 165.342C125.142 163.424 119.06 158.964 119.06 147.813C119.06 138.001 127.333 130.597 140.079 130.597C152.825 130.597 160.696 136.395 161.769 147.858H149.694C148.889 142.595 145.804 140.186 140.079 140.186C134.355 140.186 131.403 142.862 131.403 146.743C131.403 150.846 133.281 152.809 142.181 154.102C156.179 155.886 163.379 159.677 163.379 171.631C163.379 181.889 154.972 190.007 141.287 190.007C125.455 190.007 118.165 182.603 117.45 171.051H117.494Z" fill="#283244"/>
<path d="M168.612 146.921H180.329V153.522C183.191 148.794 188.29 145.94 193.835 145.94C204.166 145.94 212.261 153.611 212.261 167.572V168.196C212.261 182.157 204.345 189.962 193.835 189.962C187.261 189.962 182.52 186.751 180.329 182.603V203.432H168.612V146.877V146.921ZM200.409 168.286V167.616C200.409 159.053 196.205 154.86 190.302 154.86C184.399 154.86 179.971 159.142 179.971 167.616V168.286C179.971 176.76 183.996 180.863 190.392 180.863C196.787 180.863 200.409 176.492 200.409 168.286Z" fill="#283244"/>
<path d="M216.375 134.834C216.375 131.221 219.282 128.456 222.994 128.456C226.706 128.456 229.702 131.221 229.702 134.834C229.702 138.447 226.796 141.212 222.994 141.212C219.282 141.212 216.375 138.447 216.375 134.834ZM217.225 146.921H228.897V189.115H217.225V146.921Z" fill="#283244"/>
<path d="M233.906 168.598V167.973C233.906 154.102 241.912 145.94 252.511 145.94C259.309 145.94 263.512 148.928 265.838 153.21V127.787H277.51V189.115H265.838V182.112C263.647 186.394 258.459 190.007 252.242 190.007C241.956 190.007 233.862 182.647 233.862 168.642L233.906 168.598ZM266.196 168.196V167.572C266.196 159.187 262.484 154.905 256.089 154.905C249.693 154.905 245.892 159.321 245.892 167.75V168.375C245.892 176.76 249.917 180.863 255.731 180.863C261.902 180.863 266.196 176.76 266.196 168.196Z" fill="#283244"/>
<path d="M282.117 168.509V167.84C282.117 154.548 291.598 145.895 303.897 145.895C314.809 145.895 324.514 152.273 324.514 167.349V170.56H294.013C294.326 177.563 298.127 181.622 304.523 181.622C309.934 181.622 312.617 179.302 313.333 175.734H324.424C323.038 184.833 315.748 189.917 304.21 189.917C291.419 189.917 282.117 181.934 282.117 168.464V168.509ZM313.109 163.469C312.707 157.09 309.487 154.013 303.897 154.013C298.619 154.013 295.086 157.492 294.192 163.469H313.109Z" fill="#283244"/>
<path d="M328.986 146.921H340.703V154.994C343.386 149.33 347.501 146.341 354.388 146.297V157.18C345.712 157.09 340.703 159.9 340.703 167.973V189.115H328.986V146.921Z" fill="#283244"/>
<path d="M356.893 160.614V159.99C356.893 142.773 369.504 130.642 386.678 130.642C403.851 130.642 416.463 142.327 416.463 159.677V160.302C416.463 177.518 404.656 190.007 386.588 190.007C368.52 190.007 356.893 177.518 356.893 160.659V160.614ZM402.778 160.48V159.856C402.778 148.661 396.785 140.989 386.678 140.989C376.57 140.989 370.578 148.349 370.578 159.945V160.614C370.578 172.389 377.375 179.659 386.856 179.659C396.651 179.659 402.778 172.166 402.778 160.525V160.48Z" fill="#283244"/>
<path d="M418.877 177.384C418.877 167.572 427.956 163.825 440.881 163.825H445.666V162.13C445.666 157.135 444.146 154.37 438.779 154.37C434.172 154.37 432.071 156.689 431.579 160.346H420.487C421.203 150.356 429.164 145.895 439.494 145.895C449.825 145.895 457.204 150.088 457.204 161.551V189.07H445.8V183.985C443.385 187.375 439.673 189.962 433.01 189.962C425.317 189.962 418.833 186.26 418.833 177.384H418.877ZM445.621 174.351V170.783H441.104C434.307 170.783 430.326 172.255 430.326 176.76C430.326 179.837 432.205 181.845 436.453 181.845C441.641 181.845 445.577 179.035 445.577 174.351H445.621Z" fill="#283244"/>
<path d="M464.002 127.787H475.719V164.762L489.315 146.921H501.792L486.408 166.145L503 189.159H489.717L475.719 169.222V189.159H464.002V127.787Z" fill="#283244"/>
<path d="M48.3091 100.758C30.1518 104.549 17.8085 121.766 20.3129 139.963C21.6993 149.865 26.4399 157.849 34.4899 163.825C36.2341 165.119 38.1124 166.189 39.9907 167.349C37.1285 180.373 35.4291 193.664 33.7296 207H77.6021C76.7524 204.101 75.8579 201.291 75.0977 198.436C72.5932 188.758 70.0888 179.079 70.6702 168.955C70.6254 168.018 71.1621 167.171 72.0118 166.814C86.7702 159.276 94.3729 142.461 90.2585 126.717C85.4732 108.251 67.0029 96.8333 48.3091 100.758ZM71.8329 156.109C70.0441 158.518 68.3446 161.015 66.4663 163.379C65.5271 164.45 65.1246 165.877 65.3035 167.304C65.7507 171.809 66.0191 176.358 66.6004 180.863C67.4949 187.91 68.7471 194.913 70.8938 201.737C70.9385 201.871 70.9832 202.049 71.0727 202.317H39.2304C39.4541 200.265 39.5435 198.213 39.9013 196.251C41.5113 187.197 43.166 178.187 44.9102 169.133C45.4916 166.145 46.386 163.246 47.191 160.302C47.4593 159.544 47.2804 158.741 46.7438 158.161C43.7027 154.058 40.6616 149.865 37.6652 145.717C37.3521 145.36 37.1732 144.959 37.1285 144.513C37.2179 143.978 37.4863 143.175 37.9335 143.041C38.5596 142.862 39.1857 142.952 39.7224 143.353C41.0193 144.468 42.1374 145.806 43.3449 146.966C45.8493 149.33 48.3538 151.649 50.9029 153.968C51.2607 154.281 51.6632 154.548 52.0657 154.771L52.3341 154.593C52.3341 154.281 52.1999 153.924 52.0657 153.656C50.7241 151.738 51.0818 149.687 51.4396 147.59C52.4235 141.346 52.6918 135.057 52.2446 128.768C52.1104 126.226 51.7079 123.728 51.3949 121.186C51.216 120.428 51.6632 119.625 52.3788 119.357C53.0496 119 53.8993 119.268 54.2571 119.937C54.2571 119.937 54.2571 119.982 54.3018 120.026C55.7777 122.792 57.2535 125.512 58.5504 128.367C58.8188 128.947 58.5057 129.794 58.4163 130.552C58.4163 130.998 58.2821 131.444 58.1479 132.158C58.6399 131.935 59.0871 131.667 59.5343 131.4C61.0996 130.151 62.7096 128.902 64.2302 127.653C65.0352 126.984 65.8849 126.538 66.7793 127.43C67.6738 128.322 67.1818 129.17 66.4663 129.928C64.6774 131.801 62.8885 133.674 61.0996 135.548C60.6077 135.949 60.4735 136.618 60.6971 137.198C62.486 142.907 63.6041 148.839 63.9618 154.816C64.0066 155.886 63.3804 157.001 63.0674 158.116C62.8885 158.696 62.6202 159.276 62.3966 159.9L62.7096 160.123C63.0674 159.9 63.4252 159.677 63.7382 159.41C65.6613 157.67 67.5843 155.931 69.4627 154.147C70.1782 153.478 70.9385 153.121 71.7882 153.79C72.6379 154.459 72.4591 155.351 71.7882 156.198L71.8329 156.109Z" fill="#283244"/>
</g>
<line x1="588.5" y1="25.7158" x2="588.5" y2="339.838" stroke="#E2E2E4" stroke-width="2"/>
<path d="M744.738 155.192C734.653 153.799 732.706 151.363 732.706 146.664C732.706 142.313 736.068 139.18 742.792 139.18C749.515 139.18 753.054 141.791 754.115 147.708H764.024C762.962 136.744 755.354 131.001 742.792 131.001C730.583 131.175 722.444 138.31 722.444 147.708C722.444 158.498 728.991 162.675 742.969 164.415C752.523 165.982 755.177 167.896 755.177 173.291C755.177 178.686 750.577 182.167 744.207 182.167C734.299 182.167 731.999 177.294 731.114 171.551H720.675C721.559 182.341 728.283 190.173 744.207 190.173C757.123 190.173 765.793 182.341 765.793 172.421C765.616 160.935 758.539 157.106 744.738 155.192Z" fill="#303033"/>
<path d="M793.924 146.488C787.554 146.488 782.246 150.143 779.946 154.146V147.358H770.038V203.919H779.946V182.861C782.246 187.038 787.2 190.345 793.924 190.345C804.894 190.345 812.856 182.165 812.856 168.59V167.894C813.033 154.32 804.717 146.488 793.924 146.488ZM802.771 168.59C802.771 177.64 798.701 182.513 791.447 182.513C784.192 182.513 779.592 178.162 779.592 168.59V167.894C779.592 158.496 784.546 153.972 791.447 153.972C797.993 153.972 802.771 158.496 802.771 167.894V168.59Z" fill="#303033"/>
<path d="M827.195 147.351H817.287V189.467H827.195V147.351Z" fill="#303033"/>
<path d="M864.359 127.861V153.792C862.059 149.616 857.635 146.483 850.735 146.483C839.588 146.483 831.449 155.011 831.449 168.411V169.108C831.449 182.856 839.588 190.34 850.204 190.34C856.574 190.34 862.059 186.685 864.359 182.508V189.644H874.267V128.035H864.359V127.861ZM864.713 168.585C864.713 177.983 859.581 182.508 852.681 182.508C846.311 182.508 841.534 178.157 841.534 168.759V168.063C841.534 159.014 845.781 153.967 853.035 153.967C860.289 153.967 864.536 158.491 864.536 167.889V168.585H864.713Z" fill="#303033"/>
<path d="M899.546 146.488C887.337 146.488 878.314 155.19 878.314 168.242V168.938C878.314 182.165 887.337 190.345 900.077 190.345C911.046 190.345 918.301 185.472 919.716 176.596H909.985C909.277 180.773 906.092 183.035 900.253 183.035C892.822 183.035 888.753 178.51 888.399 170.505H919.716V167.72C919.716 152.579 910.162 146.488 899.546 146.488ZM888.576 164.065C889.637 157.626 893.53 153.623 899.546 153.623C905.738 153.623 909.454 156.756 909.985 164.065H888.576Z" fill="#303033"/>
<path d="M933.524 155.184V147.353H923.616V189.469H933.524V167.541C933.524 158.665 938.832 155.88 947.502 155.706V146.657C940.247 146.831 936.355 149.963 933.524 155.184Z" fill="#303033"/>
<path d="M979.182 131.001C961.842 131.001 949.634 143.531 949.634 160.239V160.935C949.634 163.893 949.988 166.852 950.695 169.462H962.373C961.488 166.852 960.958 164.067 960.958 160.761V160.065C960.958 147.708 967.681 139.355 979.182 139.355C990.683 139.355 997.406 148.056 997.406 159.891V160.935C997.406 173.465 990.506 181.645 979.359 181.645C976.174 181.645 973.343 180.949 970.866 179.556V189.128C973.52 189.824 976.174 190.173 979.182 190.173C996.875 190.173 1008.55 177.468 1008.55 160.761V160.065C1008.55 143.183 996.522 131.001 979.182 131.001Z" fill="#303033"/>
<path d="M1030.31 146.488C1020.76 146.488 1012.8 150.665 1011.91 160.411H1021.47C1022 156.234 1024.47 153.797 1029.61 153.797C1035.44 153.797 1037.39 156.582 1037.39 162.325V164.414H1032.08C1019.87 164.414 1010.14 167.894 1010.14 177.814C1010.14 186.516 1016.69 190.345 1024.47 190.345C1031.02 190.345 1034.74 188.082 1037.57 184.428V189.649H1047.3V161.977C1047.48 150.317 1039.87 146.488 1030.31 146.488ZM1026.95 183.209C1022 183.209 1020.05 180.947 1020.05 177.292C1020.05 172.071 1024.83 170.505 1032.44 170.505H1037.57V174.682C1037.57 180.077 1032.97 183.209 1026.95 183.209Z" fill="#303033"/>
<path d="M1089.95 147.353H1079.16L1063.77 165.801V127.861H1053.86V189.47H1063.77V168.759L1079.87 189.47H1091.37L1073.32 166.671L1089.95 147.353Z" fill="#303033"/>
<path d="M827.195 129.945H817.287V139.691H827.195V129.945Z" fill="#303033"/>
<path d="M1105.68 179.723H1095.78V189.469H1105.68V179.723Z" fill="#303033"/>
<path d="M878.386 303.583H873.049L871.764 307.724H869.732L874.894 291.734H876.596L881.67 307.724H879.649L878.386 303.583ZM873.598 301.815H877.848L875.739 294.875L873.598 301.815Z" fill="#979799"/>
<path d="M897.384 300.662H890.728V307.724H888.675V291.734H898.493V293.469H890.728V298.938H897.384V300.662Z" fill="#979799"/>
<path d="M917.007 293.469H912.065V307.724H910.089V293.469H905.147V291.734H917.007V293.469Z" fill="#979799"/>
<path d="M932.754 300.333H926.077V305.999H933.864V307.724H924.046V291.734H933.765V293.469H926.077V298.608H932.754V300.333Z" fill="#979799"/>
<path d="M946.986 301.2H943.79V307.724H941.769V291.734H946.459C947.206 291.748 947.908 291.854 948.567 292.052C949.226 292.25 949.805 292.546 950.302 292.942C950.793 293.337 951.177 293.835 951.456 294.435C951.741 295.028 951.884 295.727 951.884 296.533C951.884 297.053 951.807 297.529 951.653 297.961C951.507 298.392 951.302 298.784 951.038 299.136C950.775 299.487 950.46 299.798 950.094 300.069C949.728 300.34 949.325 300.571 948.886 300.761L952.279 307.592L952.268 307.724H950.127L946.986 301.2ZM943.79 299.531H946.514C946.968 299.524 947.396 299.454 947.799 299.322C948.201 299.183 948.556 298.986 948.864 298.729C949.164 298.473 949.402 298.162 949.578 297.796C949.753 297.422 949.841 296.994 949.841 296.511C949.841 295.998 949.757 295.552 949.589 295.171C949.42 294.783 949.186 294.457 948.886 294.194C948.586 293.937 948.227 293.743 947.81 293.612C947.4 293.48 946.949 293.41 946.459 293.403H943.79V299.531Z" fill="#979799"/>
<path d="M208.685 307.724V291.734H213.44C214.099 291.741 214.743 291.829 215.373 291.997C216.002 292.158 216.562 292.411 217.053 292.755C217.544 293.099 217.935 293.538 218.228 294.073C218.521 294.607 218.664 295.248 218.656 295.995C218.649 296.412 218.579 296.793 218.448 297.137C218.323 297.481 218.151 297.789 217.932 298.059C217.705 298.338 217.452 298.572 217.174 298.762C216.903 298.953 216.573 299.132 216.185 299.3V299.333C216.588 299.429 216.976 299.601 217.349 299.849C217.723 300.098 218.03 300.373 218.272 300.673C218.528 301.003 218.726 301.372 218.865 301.782C219.011 302.192 219.085 302.635 219.085 303.111C219.092 303.858 218.949 304.517 218.656 305.088C218.364 305.659 217.972 306.135 217.481 306.516C216.991 306.904 216.423 307.2 215.779 307.405C215.142 307.61 214.483 307.716 213.802 307.724H208.685ZM210.727 300.245V306H213.857C214.282 305.992 214.684 305.923 215.065 305.791C215.446 305.652 215.783 305.461 216.076 305.22C216.368 304.978 216.599 304.682 216.767 304.33C216.943 303.979 217.031 303.58 217.031 303.133C217.038 302.679 216.961 302.277 216.8 301.925C216.647 301.574 216.431 301.274 216.152 301.025C215.874 300.783 215.548 300.596 215.175 300.464C214.802 300.333 214.399 300.259 213.967 300.245H210.727ZM210.727 298.554H213.561C213.941 298.546 214.315 298.488 214.681 298.378C215.047 298.261 215.373 298.092 215.658 297.873C215.944 297.66 216.174 297.397 216.35 297.082C216.526 296.767 216.614 296.401 216.614 295.984C216.614 295.537 216.526 295.156 216.35 294.842C216.182 294.527 215.955 294.267 215.669 294.062C215.376 293.864 215.04 293.718 214.659 293.623C214.285 293.527 213.901 293.476 213.506 293.469H210.727V298.554Z" fill="#979799"/>
<path d="M235.238 300.333H228.561V306H236.347V307.724H226.529V291.734H236.248V293.469H228.561V298.609H235.238V300.333Z" fill="#979799"/>
<path d="M253.072 300.662H246.416V307.724H244.363V291.734H254.181V293.469H246.416V298.938H253.072V300.662Z" fill="#979799"/>
<path d="M272.311 300.651C272.304 301.222 272.252 301.801 272.157 302.386C272.069 302.965 271.93 303.525 271.74 304.067C271.55 304.608 271.304 305.114 271.004 305.582C270.711 306.051 270.36 306.461 269.95 306.812C269.54 307.164 269.068 307.442 268.533 307.647C268.006 307.845 267.413 307.943 266.754 307.943C266.095 307.943 265.498 307.845 264.964 307.647C264.437 307.442 263.968 307.164 263.558 306.812C263.148 306.461 262.793 306.051 262.493 305.582C262.193 305.106 261.948 304.597 261.757 304.056C261.559 303.514 261.413 302.954 261.318 302.375C261.223 301.797 261.171 301.222 261.164 300.651V298.828C261.171 298.257 261.219 297.682 261.307 297.104C261.402 296.518 261.549 295.954 261.746 295.413C261.937 294.871 262.178 294.366 262.471 293.897C262.771 293.421 263.126 293.004 263.536 292.645C263.946 292.294 264.415 292.019 264.942 291.822C265.476 291.617 266.073 291.514 266.732 291.514C267.391 291.514 267.988 291.617 268.522 291.822C269.057 292.019 269.529 292.294 269.939 292.645C270.349 292.997 270.7 293.41 270.993 293.886C271.293 294.355 271.542 294.86 271.74 295.402C271.93 295.944 272.069 296.507 272.157 297.093C272.252 297.679 272.304 298.257 272.311 298.828V300.651ZM270.301 298.806C270.294 298.425 270.268 298.03 270.224 297.62C270.18 297.203 270.107 296.789 270.005 296.379C269.895 295.976 269.752 295.592 269.576 295.226C269.401 294.853 269.181 294.523 268.918 294.238C268.654 293.959 268.343 293.74 267.984 293.579C267.625 293.41 267.208 293.326 266.732 293.326C266.264 293.326 265.85 293.41 265.491 293.579C265.132 293.747 264.821 293.97 264.558 294.249C264.294 294.534 264.074 294.864 263.899 295.237C263.723 295.603 263.584 295.987 263.481 296.39C263.372 296.8 263.291 297.214 263.24 297.631C263.196 298.041 263.17 298.433 263.163 298.806V300.651C263.17 301.025 263.196 301.42 263.24 301.837C263.291 302.255 263.372 302.665 263.481 303.067C263.591 303.477 263.734 303.869 263.91 304.242C264.085 304.616 264.305 304.942 264.569 305.22C264.832 305.505 265.143 305.732 265.502 305.901C265.861 306.069 266.278 306.153 266.754 306.153C267.23 306.153 267.647 306.069 268.006 305.901C268.372 305.732 268.687 305.505 268.95 305.22C269.207 304.942 269.419 304.619 269.587 304.253C269.763 303.88 269.906 303.488 270.016 303.078C270.118 302.676 270.188 302.266 270.224 301.848C270.268 301.431 270.294 301.032 270.301 300.651V298.806Z" fill="#979799"/>
<path d="M284.939 301.2H281.743V307.724H279.723V291.734H284.412C285.159 291.748 285.862 291.854 286.521 292.052C287.179 292.25 287.758 292.546 288.256 292.942C288.746 293.337 289.131 293.835 289.409 294.435C289.694 295.028 289.837 295.728 289.837 296.533C289.837 297.053 289.76 297.529 289.607 297.961C289.46 298.393 289.255 298.784 288.992 299.136C288.728 299.487 288.413 299.798 288.047 300.069C287.681 300.34 287.278 300.571 286.839 300.761L290.233 307.592L290.222 307.724H288.08L284.939 301.2ZM281.743 299.531H284.467C284.921 299.524 285.349 299.454 285.752 299.322C286.154 299.183 286.51 298.986 286.817 298.729C287.117 298.473 287.355 298.162 287.531 297.796C287.707 297.422 287.794 296.994 287.794 296.511C287.794 295.998 287.71 295.552 287.542 295.171C287.374 294.783 287.139 294.457 286.839 294.194C286.539 293.937 286.18 293.743 285.763 293.612C285.353 293.48 284.903 293.41 284.412 293.403H281.743V299.531Z" fill="#979799"/>
<path d="M306.177 300.333H299.5V306H307.286V307.724H297.468V291.734H307.188V293.469H299.5V298.609H306.177V300.333Z" fill="#979799"/>
<defs>
<clipPath id="clip0_10_490">
<rect width="483" height="107" fill="white" transform="translate(20 100)"/>
</clipPath>
</defs>
</svg>
