<svg fill="none" height="360" viewBox="0 0 1045 360" width="1045" xmlns="http://www.w3.org/2000/svg" xmlns:xlink="http://www.w3.org/1999/xlink"><clipPath id="a"><path d="m0 100h483v107h-483z"/></clipPath><path d="m0 0h1045v360h-1045z" fill="#fff"/><g clip-path="url(#a)" fill="#283244"><path d="m97.4949 171.051h12.5221c.582 5.174 2.728 9.455 11.315 9.455 5.724 0 9.526-3.166 9.526-7.671s-2.415-6.2-10.913-7.493c-14.803-1.918-20.8848-6.378-20.8848-17.529 0-9.812 8.2738-17.216 21.0198-17.216 12.745 0 20.617 5.798 21.69 17.261h-12.075c-.805-5.263-3.891-7.672-9.615-7.672-5.725 0-8.676 2.676-8.676 6.557 0 4.103 1.878 6.066 10.778 7.359 13.998 1.784 21.198 5.575 21.198 17.529 0 10.258-8.408 18.376-22.093 18.376-15.832 0-23.1212-7.404-23.8368-18.956z"/><path d="m148.612 146.921h11.718v6.601c2.862-4.728 7.96-7.582 13.506-7.582 10.33 0 18.425 7.671 18.425 21.632v.624c0 13.961-7.916 21.766-18.425 21.766-6.575 0-11.315-3.211-13.506-7.359v20.829h-11.718v-56.555zm31.798 21.365v-.67c0-8.563-4.204-12.756-10.107-12.756-5.904 0-10.331 4.282-10.331 12.756v.67c0 8.474 4.025 12.577 10.42 12.577s10.018-4.371 10.018-12.577z"/><path d="m196.375 134.834c0-3.613 2.907-6.378 6.619-6.378s6.708 2.765 6.708 6.378-2.907 6.378-6.708 6.378c-3.712 0-6.619-2.765-6.619-6.378zm.85 12.087h11.672v42.194h-11.672z"/><path d="m213.906 168.598v-.625c0-13.871 8.005-22.033 18.605-22.033 6.797 0 11.001 2.988 13.327 7.27v-25.423h11.672v61.328h-11.672v-7.003c-2.192 4.282-7.379 7.895-13.596 7.895-10.286 0-18.381-7.36-18.381-21.365zm32.289-.402v-.624c0-8.385-3.711-12.667-10.107-12.667-6.395 0-10.196 4.416-10.196 12.845v.625c0 8.385 4.025 12.488 9.838 12.488 6.172 0 10.465-4.103 10.465-12.667z"/><path d="m262.117 168.509v-.669c0-13.292 9.481-21.945 21.78-21.945 10.912 0 20.617 6.378 20.617 21.454v3.211h-30.501c.313 7.003 4.115 11.062 10.51 11.062 5.411 0 8.095-2.32 8.81-5.888h11.091c-1.386 9.099-8.676 14.183-20.214 14.183-12.791 0-22.093-7.983-22.093-21.453zm30.993-5.04c-.403-6.379-3.623-9.456-9.213-9.456-5.277 0-8.81 3.479-9.705 9.456z"/><path d="m308.985 146.921h11.718v8.073c2.683-5.664 6.797-8.653 13.685-8.697v10.883c-8.677-.09-13.685 2.72-13.685 10.793v21.142h-11.718z"/><path d="m336.893 160.614v-.624c0-17.217 12.611-29.349 29.785-29.349 17.173 0 29.785 11.686 29.785 29.036v.625c0 17.216-11.807 29.705-29.875 29.705s-29.695-12.489-29.695-29.348zm45.885-.134v-.624c0-11.195-5.993-18.867-16.1-18.867-10.108 0-16.1 7.359-16.1 18.956v.669c0 11.775 6.797 19.045 16.278 19.045 9.795 0 15.922-7.493 15.922-19.134z"/><path d="m398.878 177.384c0-9.812 9.078-13.559 22.003-13.559h4.785v-1.695c0-4.995-1.52-7.76-6.887-7.76-4.606 0-6.708 2.319-7.2 5.976h-11.091c.715-9.99 8.676-14.451 19.007-14.451s17.71 4.193 17.71 15.656v27.519h-11.404v-5.085c-2.415 3.39-6.127 5.977-12.791 5.977-7.692 0-14.177-3.702-14.177-12.578zm26.744-3.033v-3.568h-4.517c-6.798 0-10.778 1.472-10.778 5.977 0 3.077 1.878 5.085 6.127 5.085 5.187 0 9.123-2.81 9.123-7.494z"/><path d="m444.002 127.787h11.717v36.975l13.596-17.841h12.477l-15.384 19.224 16.592 23.014h-13.283l-13.998-19.937v19.937h-11.717z"/><path d="m28.3088 100.758c-18.1572 3.791-30.50054 21.008-27.996099 39.205 1.386389 9.902 6.126949 17.886 14.176899 23.862 1.7442 1.294 3.6225 2.364 5.5009 3.524-2.8622 13.024-4.5617 26.315-6.2611 39.651h43.8725c-.8498-2.899-1.7442-5.709-2.5045-8.564-2.5044-9.678-5.0089-19.357-4.4275-29.481-.0447-.937.492-1.785 1.3417-2.141 14.7583-7.538 22.3611-24.353 18.2467-40.097-4.7853-18.466-23.2556-29.8838-41.9495-25.959zm23.5239 55.351c-1.7889 2.409-3.4883 4.906-5.3667 7.27-.9391 1.071-1.3416 2.498-1.1627 3.925.4472 4.505.7155 9.054 1.2969 13.559.8944 7.047 2.1467 14.05 4.2933 20.874.0448.134.0895.312.1789.58h-31.8422c.2236-2.052.3131-4.104.6708-6.066 1.61-9.054 3.2648-18.064 5.0089-27.118.5814-2.988 1.4759-5.888 2.2809-8.831.2683-.758.0894-1.561-.4473-2.141-3.0411-4.104-6.0822-8.296-9.0786-12.444-.313-.357-.4919-.758-.5366-1.204.0894-.536.3577-1.338.805-1.472.6261-.179 1.2522-.089 1.7888.312 1.297 1.115 2.415 2.453 3.6225 3.613 2.5045 2.364 5.0089 4.683 7.5581 7.002.3578.312.7603.58 1.1628.803l.2683-.178c0-.313-.1342-.669-.2683-.937-1.3417-1.918-.9839-3.97-.6261-6.066.9839-6.244 1.2522-12.533.805-18.822-.1342-2.542-.5367-5.04-.8498-7.582-.1788-.758.2684-1.561.9839-1.829.6709-.357 1.5206-.089 1.8784.58 0 0 0 .045.0447.089 1.4758 2.766 2.9517 5.486 4.2486 8.341.2683.58-.0447 1.427-.1342 2.185 0 .446-.1341.892-.2683 1.606.4919-.223.9392-.491 1.3864-.758 1.5653-1.249 3.1753-2.498 4.6958-3.747.805-.669 1.6547-1.115 2.5492-.223.8944.892.4025 1.74-.3131 2.498-1.7889 1.873-3.5777 3.746-5.3666 5.62-.492.401-.6261 1.07-.4025 1.65 1.7889 5.709 2.9069 11.641 3.2647 17.618.0447 1.07-.5814 2.185-.8945 3.3-.1788.58-.4472 1.16-.6708 1.784l.3131.223c.3577-.223.7155-.446 1.0286-.713 1.923-1.74 3.8461-3.479 5.7244-5.263.7156-.669 1.4759-1.026 2.3256-.357s.6708 1.561 0 2.408z"/></g><path d="m568.5 25.7158v314.1222" stroke="#e2e2e4" stroke-width="2"/><g fill="#303033"><path d="m684.001 155.192c-10.086-1.393-12.032-3.829-12.032-8.528 0-4.351 3.362-7.484 10.085-7.484 6.724 0 10.263 2.611 11.324 8.528h9.909c-1.062-10.964-8.67-16.707-21.233-16.707-12.208.174-20.347 7.309-20.347 16.707 0 10.79 6.546 14.967 20.524 16.707 9.555 1.567 12.209 3.481 12.209 8.876s-4.601 8.876-10.97 8.876c-9.909 0-12.209-4.873-13.093-10.616h-10.439c.884 10.79 7.608 18.621 23.532 18.621 12.916 0 21.586-7.831 21.586-17.751-.177-11.486-7.254-15.315-21.055-17.229z"/><path d="m733.186 146.488c-6.369 0-11.677 3.655-13.977 7.657v-6.787h-9.909v56.561h9.909v-21.058c2.3 4.177 7.254 7.484 13.977 7.484 10.97 0 18.932-8.18 18.932-21.755v-.696c.177-13.574-8.139-21.406-18.932-21.406zm8.847 22.102c0 9.05-4.069 13.923-11.324 13.923-7.254 0-11.854-4.351-11.854-13.923v-.696c0-9.398 4.954-13.923 11.854-13.923 6.547 0 11.324 4.525 11.324 13.923z"/><path d="m766.458 147.351h-9.909v42.116h9.909z"/><path d="m803.621 127.861v25.931c-2.3-4.176-6.723-7.309-13.624-7.309-11.146 0-19.285 8.528-19.285 21.928v.696c0 13.749 8.139 21.233 18.755 21.233 6.369 0 11.854-3.655 14.154-7.832v7.135h9.909v-61.608h-9.909zm.354 40.724c0 9.398-5.131 13.923-12.031 13.923-6.37 0-11.147-4.351-11.147-13.749v-.696c0-9.05 4.246-14.097 11.501-14.097 7.254 0 11.5 4.525 11.5 13.923v.696z"/><path d="m838.808 146.488c-12.208 0-21.232 8.702-21.232 21.754v.696c0 13.227 9.024 21.407 21.763 21.407 10.97 0 18.224-4.873 19.64-13.749h-9.731c-.708 4.177-3.893 6.439-9.732 6.439-7.431 0-11.501-4.525-11.854-12.53h31.317v-2.785c0-15.141-9.555-21.232-20.171-21.232zm-10.97 17.577c1.062-6.439 4.955-10.442 10.97-10.442 6.193 0 9.909 3.133 10.44 10.442z"/><path d="m872.787 155.184v-7.831h-9.909v42.116h9.909v-21.928c0-8.876 5.308-11.661 13.977-11.835v-9.049c-7.254.174-11.146 3.306-13.977 8.527z"/><path d="m918.445 131.001c-17.34 0-29.549 12.53-29.549 29.238v.696c0 2.958.354 5.917 1.062 8.527h11.678c-.885-2.61-1.416-5.395-1.416-8.701v-.696c0-12.357 6.724-20.711 18.225-20.711 11.5 0 18.224 8.702 18.224 20.537v1.044c0 12.53-6.901 20.71-18.047 20.71-3.185 0-6.016-.696-8.493-2.089v9.572c2.654.696 5.308 1.044 8.316 1.044 17.693 0 29.371-12.704 29.371-29.411v-.696c0-16.882-12.032-29.064-29.371-29.064z"/><path d="m969.576 146.488c-9.554 0-17.516 4.177-18.401 13.923h9.554c.531-4.177 3.008-6.614 8.139-6.614 5.839 0 7.786 2.785 7.786 8.528v2.089h-5.308c-12.209 0-21.94 3.48-21.94 13.4 0 8.702 6.546 12.531 14.331 12.531 6.547 0 10.263-2.263 13.094-5.918v5.221h9.731v-27.671c.177-11.66-7.431-15.489-16.986-15.489zm-3.362 36.721c-4.954 0-6.9-2.262-6.9-5.917 0-5.221 4.777-6.787 12.385-6.787h5.132v4.177c0 5.395-4.601 8.527-10.617 8.527z"/><path d="m1029.22 147.353h-10.8l-15.39 18.448v-37.94h-9.91v61.608h9.91v-20.71l16.1 20.71h11.5l-18.05-22.798z"/><path d="m766.458 129.945h-9.909v9.746h9.909z"/><path d="m1044.95 179.723h-9.91v9.746h9.91z"/></g><path d="m817.649 303.583h-5.337l-1.285 4.141h-2.032l5.162-15.99h1.702l5.074 15.99h-2.021zm-4.788-1.768h4.25l-2.109-6.94z" fill="#979799"/><path d="m836.647 300.662h-6.655v7.062h-2.054v-15.99h9.818v1.735h-7.764v5.469h6.655z" fill="#979799"/><path d="m856.271 293.469h-4.942v14.255h-1.977v-14.255h-4.942v-1.735h11.861z" fill="#979799"/><path d="m872.018 300.333h-6.678v5.666h7.787v1.725h-9.818v-15.99h9.719v1.735h-7.688v5.139h6.678z" fill="#979799"/><path d="m886.249 301.2h-3.196v6.524h-2.02v-15.99h4.689c.747.014 1.45.12 2.108.318.659.198 1.238.494 1.736.89.49.395.875.893 1.153 1.493.285.593.428 1.292.428 2.098 0 .52-.077.996-.231 1.428-.146.431-.351.823-.615 1.175-.263.351-.578.662-.944.933s-.769.502-1.208.692l3.393 6.831-.011.132h-2.141zm-3.196-1.669h2.724c.454-.007.882-.077 1.285-.209.402-.139.757-.336 1.065-.593.3-.256.538-.567.714-.933.176-.374.263-.802.263-1.285 0-.513-.084-.959-.252-1.34-.169-.388-.403-.714-.703-.977-.3-.257-.659-.451-1.076-.582-.41-.132-.861-.202-1.351-.209h-2.669z" fill="#979799"/><path d="m188.685 307.724v-15.99h4.755c.659.007 1.303.095 1.933.263.629.161 1.189.414 1.68.758s.882.783 1.175 1.318c.293.534.436 1.175.428 1.922-.007.417-.077.798-.208 1.142-.125.344-.297.652-.516.922-.227.279-.48.513-.758.703-.271.191-.601.37-.989.538v.033c.403.096.791.268 1.164.516.374.249.681.524.923.824.256.33.454.699.593 1.109.146.41.22.853.22 1.329.007.747-.136 1.406-.429 1.977-.292.571-.684 1.047-1.175 1.428-.49.388-1.058.684-1.702.889-.637.205-1.296.311-1.977.319zm2.042-7.479v5.755h3.13c.425-.008.827-.077 1.208-.209.381-.139.718-.33 1.011-.571.292-.242.523-.538.691-.89.176-.351.264-.75.264-1.197.007-.454-.07-.856-.231-1.208-.153-.351-.369-.651-.648-.9-.278-.242-.604-.429-.977-.561-.373-.131-.776-.205-1.208-.219zm0-1.691h2.834c.38-.008.754-.066 1.12-.176.366-.117.692-.286.977-.505.286-.213.516-.476.692-.791s.264-.681.264-1.098c0-.447-.088-.828-.264-1.142-.168-.315-.395-.575-.681-.78-.293-.198-.629-.344-1.01-.439-.374-.096-.758-.147-1.153-.154h-2.779z" fill="#979799"/><path d="m215.238 300.333h-6.677v5.667h7.786v1.724h-9.818v-15.99h9.719v1.735h-7.687v5.14h6.677z" fill="#979799"/><path d="m233.072 300.662h-6.656v7.062h-2.053v-15.99h9.818v1.735h-7.765v5.469h6.656z" fill="#979799"/><path d="m252.311 300.651c-.007.571-.059 1.15-.154 1.735-.088.579-.227 1.139-.417 1.681-.19.541-.436 1.047-.736 1.515-.293.469-.644.879-1.054 1.23-.41.352-.882.63-1.417.835-.527.198-1.12.296-1.779.296s-1.256-.098-1.79-.296c-.527-.205-.996-.483-1.406-.835-.41-.351-.765-.761-1.065-1.23-.3-.476-.545-.985-.736-1.526-.198-.542-.344-1.102-.439-1.681-.095-.578-.147-1.153-.154-1.724v-1.823c.007-.571.055-1.146.143-1.724.095-.586.242-1.15.439-1.691.191-.542.432-1.047.725-1.516.3-.476.655-.893 1.065-1.252.41-.351.879-.626 1.406-.823.534-.205 1.131-.308 1.79-.308s1.256.103 1.79.308c.535.197 1.007.472 1.417.823.41.352.761.765 1.054 1.241.3.469.549.974.747 1.516.19.542.329 1.105.417 1.691.095.586.147 1.164.154 1.735zm-2.01-1.845c-.007-.381-.033-.776-.077-1.186-.044-.417-.117-.831-.219-1.241-.11-.403-.253-.787-.429-1.153-.175-.373-.395-.703-.658-.988-.264-.279-.575-.498-.934-.659-.359-.169-.776-.253-1.252-.253-.468 0-.882.084-1.241.253-.359.168-.67.391-.933.67-.264.285-.484.615-.659.988-.176.366-.315.75-.418 1.153-.109.41-.19.824-.241 1.241-.044.41-.07.802-.077 1.175v1.845c.007.374.033.769.077 1.186.051.418.132.828.241 1.23.11.41.253.802.429 1.175.175.374.395.7.659.978.263.285.574.512.933.681.359.168.776.252 1.252.252s.893-.084 1.252-.252c.366-.169.681-.396.944-.681.257-.278.469-.601.637-.967.176-.373.319-.765.429-1.175.102-.402.172-.812.208-1.23.044-.417.07-.816.077-1.197z" fill="#979799"/><path d="m264.939 301.2h-3.196v6.524h-2.02v-15.99h4.689c.747.014 1.45.12 2.109.318.658.198 1.237.494 1.735.89.49.395.875.893 1.153 1.493.285.593.428 1.293.428 2.098 0 .52-.077.996-.23 1.428-.147.432-.352.823-.615 1.175-.264.351-.579.662-.945.933s-.769.502-1.208.692l3.394 6.831-.011.132h-2.142zm-3.196-1.669h2.724c.454-.007.882-.077 1.285-.209.402-.139.758-.336 1.065-.593.3-.256.538-.567.714-.933.176-.374.263-.802.263-1.285 0-.513-.084-.959-.252-1.34-.168-.388-.403-.714-.703-.977-.3-.257-.659-.451-1.076-.582-.41-.132-.86-.202-1.351-.209h-2.669z" fill="#979799"/><path d="m286.177 300.333h-6.677v5.667h7.786v1.724h-9.818v-15.99h9.72v1.735h-7.688v5.14h6.677z" fill="#979799"/></svg>