<svg fill="none" height="360" viewBox="0 0 1175 360" width="1175" xmlns="http://www.w3.org/2000/svg" xmlns:xlink="http://www.w3.org/1999/xlink"><clipPath id="a"><path d="m21 105h476v106h-476z"/></clipPath><path d="m0 0h1175v360h-1175z" fill="#fff"/><g clip-path="url(#a)" fill="#283244"><path d="m117.081 175.387h12.341c.573 5.125 2.689 9.367 11.151 9.367 5.641 0 9.388-3.137 9.388-7.6 0-4.462-2.38-6.141-10.754-7.423-14.589-1.9-20.583-6.318-20.583-17.365 0-9.72 8.154-17.055 20.715-17.055s20.318 5.744 21.376 17.1h-11.9c-.794-5.214-3.835-7.6-9.476-7.6-5.642 0-8.551 2.651-8.551 6.495 0 4.065 1.852 6.009 10.622 7.291 13.795 1.767 20.891 5.523 20.891 17.364 0 10.163-8.285 18.205-21.772 18.205-15.602 0-22.786-7.335-23.492-18.779z"/><path d="m167.458 151.483h11.548v6.539c2.82-4.683 7.845-7.511 13.31-7.511 10.181 0 18.159 7.6 18.159 21.43v.618c0 13.83-7.802 21.562-18.159 21.562-6.479 0-11.151-3.181-13.31-7.29v20.634h-11.548v-56.026zm31.337 21.164v-.662c0-8.484-4.143-12.637-9.961-12.637s-10.181 4.242-10.181 12.637v.662c0 8.396 3.967 12.461 10.269 12.461 6.303 0 9.873-4.33 9.873-12.461z"/><path d="m214.529 139.509c0-3.579 2.865-6.319 6.523-6.319s6.611 2.74 6.611 6.319-2.864 6.318-6.611 6.318c-3.658 0-6.523-2.739-6.523-6.318zm.838 11.974h11.503v41.799h-11.503z"/><path d="m231.806 172.957v-.619c0-13.741 7.89-21.827 18.335-21.827 6.699 0 10.842 2.96 13.134 7.202v-25.186h11.504v60.755h-11.504v-6.937c-2.159 4.242-7.272 7.821-13.398 7.821-10.137 0-18.115-7.291-18.115-21.165zm31.822-.398v-.619c0-8.306-3.658-12.548-9.961-12.548s-10.049 4.374-10.049 12.725v.619c0 8.307 3.967 12.372 9.696 12.372 6.083 0 10.314-4.065 10.314-12.549z"/><path d="m279.318 172.868v-.662c0-13.168 9.344-21.739 21.464-21.739 10.754 0 20.318 6.318 20.318 21.253v3.181h-30.058c.308 6.937 4.055 10.958 10.357 10.958 5.333 0 7.978-2.298 8.683-5.833h10.93c-1.366 9.014-8.55 14.051-19.921 14.051-12.605 0-21.773-7.909-21.773-21.253zm30.543-4.993c-.396-6.318-3.57-9.367-9.079-9.367-5.201 0-8.682 3.447-9.564 9.367z"/><path d="m325.508 151.483h11.547v7.997c2.645-5.611 6.699-8.572 13.487-8.616v10.781c-8.55-.088-13.487 2.695-13.487 10.693v20.944h-11.547z"/><path d="m353.01 165.048v-.619c0-17.055 12.429-29.074 29.353-29.074 16.925 0 29.354 11.577 29.354 28.765v.618c0 17.056-11.636 29.428-29.442 29.428s-29.265-12.372-29.265-29.074zm45.22-.133v-.619c0-11.09-5.906-18.69-15.867-18.69-9.96 0-15.866 7.291-15.866 18.779v.663c0 11.664 6.699 18.867 16.043 18.867 9.652 0 15.69-7.423 15.69-18.956z"/><path d="m414.097 181.661c0-9.72 8.947-13.432 21.684-13.432h4.716v-1.679c0-4.949-1.499-7.688-6.787-7.688-4.54 0-6.612 2.297-7.096 5.921h-10.931c.705-9.898 8.551-14.316 18.732-14.316s17.453 4.153 17.453 15.509v27.262h-11.239v-5.037c-2.38 3.358-6.038 5.92-12.605 5.92-7.581 0-13.972-3.667-13.972-12.46zm26.356-3.004v-3.535h-4.452c-6.699 0-10.621 1.458-10.621 5.921 0 3.048 1.851 5.037 6.038 5.037 5.112 0 8.991-2.784 8.991-7.423z"/><path d="m458.567 132.527h11.548v36.63l13.398-17.674h12.297l-15.161 19.044 16.351 22.799h-13.09l-13.795-19.751v19.751h-11.548z"/><path d="m48.8989 105.751c-17.8941 3.756-30.0585 20.811-27.5904 38.839 1.3663 9.809 6.0382 17.718 13.9715 23.639 1.7189 1.281 3.57 2.342 5.4211 3.491-2.8207 12.902-4.4955 26.069-6.1704 39.28h43.2367c-.8374-2.872-1.7189-5.656-2.4681-8.483-2.4682-9.589-4.9363-19.177-4.3634-29.207-.0441-.928.4848-1.767 1.3222-2.121 14.5445-7.467 22.0371-24.125 17.9823-39.722-4.716-18.293-22.9186-29.604-41.3415-25.716zm23.183 54.834c-1.763 2.386-3.4378 4.86-5.2889 7.202-.9256 1.061-1.3223 2.474-1.146 3.888.4408 4.463.7052 8.97 1.2782 13.433.8815 6.981 2.1155 13.918 4.2311 20.678.0441.133.0881.31.1763.575h-31.3808c.2204-2.033.3086-4.065.6612-6.01 1.5866-8.969 3.2174-17.894 4.9363-26.864.5729-2.96 1.4544-5.832 2.2477-8.749.2645-.751.0882-1.546-.4407-2.121-2.997-4.065-5.9941-8.218-8.947-12.327-.3086-.354-.4849-.751-.5289-1.193.0881-.53.3526-1.326.7933-1.458.617-.177 1.2341-.089 1.763.309 1.2781 1.105 2.38 2.43 3.57 3.579 2.4681 2.342 4.9363 4.639 7.4485 6.937.3526.309.7492.574 1.1459.795l.2645-.176c0-.31-.1323-.663-.2645-.928-1.3222-1.9-.9696-3.933-.617-6.009.9696-6.186 1.234-12.416.7933-18.647-.1322-2.518-.5289-4.992-.8374-7.511-.1763-.751.2644-1.546.9696-1.812.6611-.353 1.4985-.088 1.8511.575 0 0 0 .044.0441.088 1.4545 2.74 2.9089 5.435 4.187 8.263.2645.574-.044 1.414-.1322 2.165 0 .442-.1322.884-.2644 1.591.4848-.221.9255-.487 1.3663-.752 1.5426-1.237 3.1292-2.474 4.6278-3.711.7933-.663 1.6307-1.105 2.5122-.221s.3966 1.723-.3085 2.474c-1.763 1.856-3.526 3.712-5.2889 5.568-.4848.397-.6171 1.06-.3967 1.634 1.763 5.656 2.8648 11.533 3.2174 17.454.0441 1.06-.5729 2.165-.8815 3.269-.1763.575-.4407 1.149-.6611 1.768l.3085.221c.3526-.221.7052-.442 1.0137-.707 1.8952-1.724 3.7904-3.447 5.6415-5.214.7052-.663 1.4545-1.016 2.2919-.354.8374.663.6611 1.547 0 2.386z"/></g><path d="m588.5 25.7158v314.1222" stroke="#e2e2e4" stroke-width="2"/><g fill="#303033"><path d="m744.738 155.192c-10.085-1.393-12.032-3.829-12.032-8.528 0-4.351 3.362-7.484 10.086-7.484 6.723 0 10.262 2.611 11.323 8.528h9.909c-1.062-10.964-8.67-16.707-21.232-16.707-12.209.174-20.348 7.309-20.348 16.707 0 10.79 6.547 14.967 20.525 16.707 9.554 1.567 12.208 3.481 12.208 8.876s-4.6 8.876-10.97 8.876c-9.908 0-12.208-4.873-13.093-10.616h-10.439c.884 10.79 7.608 18.621 23.532 18.621 12.916 0 21.586-7.831 21.586-17.751-.177-11.486-7.254-15.315-21.055-17.229z"/><path d="m793.924 146.488c-6.37 0-11.678 3.655-13.978 7.657v-6.787h-9.908v56.561h9.908v-21.058c2.3 4.177 7.254 7.484 13.978 7.484 10.97 0 18.932-8.18 18.932-21.755v-.696c.177-13.574-8.139-21.406-18.932-21.406zm8.847 22.102c0 9.05-4.07 13.923-11.324 13.923-7.255 0-11.855-4.351-11.855-13.923v-.696c0-9.398 4.954-13.923 11.855-13.923 6.546 0 11.324 4.525 11.324 13.923z"/><path d="m827.195 147.351h-9.908v42.116h9.908z"/><path d="m864.359 127.861v25.931c-2.3-4.176-6.724-7.309-13.624-7.309-11.147 0-19.286 8.528-19.286 21.928v.696c0 13.749 8.139 21.233 18.755 21.233 6.37 0 11.855-3.655 14.155-7.832v7.135h9.908v-61.608h-9.908zm.354 40.724c0 9.398-5.132 13.923-12.032 13.923-6.37 0-11.147-4.351-11.147-13.749v-.696c0-9.05 4.247-14.097 11.501-14.097s11.501 4.525 11.501 13.923v.696z"/><path d="m899.546 146.488c-12.209 0-21.232 8.702-21.232 21.754v.696c0 13.227 9.023 21.407 21.763 21.407 10.969 0 18.224-4.873 19.639-13.749h-9.731c-.708 4.177-3.893 6.439-9.732 6.439-7.431 0-11.5-4.525-11.854-12.53h31.317v-2.785c0-15.141-9.554-21.232-20.17-21.232zm-10.97 17.577c1.061-6.439 4.954-10.442 10.97-10.442 6.192 0 9.908 3.133 10.439 10.442z"/><path d="m933.524 155.184v-7.831h-9.908v42.116h9.908v-21.928c0-8.876 5.308-11.661 13.978-11.835v-9.049c-7.255.174-11.147 3.306-13.978 8.527z"/><path d="m979.182 131.001c-17.34 0-29.548 12.53-29.548 29.238v.696c0 2.958.354 5.917 1.061 8.527h11.678c-.885-2.61-1.415-5.395-1.415-8.701v-.696c0-12.357 6.723-20.711 18.224-20.711s18.224 8.702 18.224 20.537v1.044c0 12.53-6.9 20.71-18.047 20.71-3.185 0-6.016-.696-8.493-2.089v9.572c2.654.696 5.308 1.044 8.316 1.044 17.693 0 29.368-12.704 29.368-29.411v-.696c0-16.882-12.028-29.064-29.368-29.064z"/><path d="m1030.31 146.488c-9.55 0-17.51 4.177-18.4 13.923h9.56c.53-4.177 3-6.614 8.14-6.614 5.83 0 7.78 2.785 7.78 8.528v2.089h-5.31c-12.21 0-21.94 3.48-21.94 13.4 0 8.702 6.55 12.531 14.33 12.531 6.55 0 10.27-2.263 13.1-5.918v5.221h9.73v-27.671c.18-11.66-7.43-15.489-16.99-15.489zm-3.36 36.721c-4.95 0-6.9-2.262-6.9-5.917 0-5.221 4.78-6.787 12.39-6.787h5.13v4.177c0 5.395-4.6 8.527-10.62 8.527z"/><path d="m1089.95 147.353h-10.79l-15.39 18.448v-37.94h-9.91v61.608h9.91v-20.71l16.1 20.71h11.5l-18.05-22.798z"/><path d="m827.195 129.945h-9.908v9.746h9.908z"/><path d="m1105.68 179.723h-9.9v9.746h9.9z"/></g><path d="m855.53 301.049h-8.441l-2.032 6.547h-3.213l8.163-25.286h2.692l8.023 25.286h-3.195zm-7.572-2.796h6.721l-3.335-10.976z" fill="#979799"/><path d="m885.572 296.429h-10.524v11.167h-3.248v-25.286h15.526v2.744h-12.278v8.649h10.524z" fill="#979799"/><path d="m916.604 285.054h-7.815v22.542h-3.126v-22.542h-7.815v-2.744h18.756z" fill="#979799"/><path d="m941.506 295.908h-10.559v8.962h12.313v2.726h-15.526v-25.286h15.37v2.744h-12.157v8.128h10.559z" fill="#979799"/><path d="m964.011 297.28h-5.054v10.316h-3.195v-25.286h7.415c1.181.023 2.293.191 3.335.504 1.042.312 1.956.781 2.744 1.406.775.626 1.383 1.413 1.823 2.362.452.938.678 2.044.678 3.317 0 .822-.122 1.575-.365 2.258-.232.683-.556 1.303-.973 1.858-.416.556-.914 1.048-1.493 1.476-.579.429-1.216.794-1.911 1.095l5.367 10.802-.018.208h-3.386zm-5.054-2.64h4.307c.718-.011 1.395-.121 2.032-.329.637-.22 1.198-.533 1.685-.938.474-.406.851-.898 1.129-1.476.277-.591.416-1.268.416-2.032 0-.811-.133-1.517-.399-2.119-.266-.614-.637-1.129-1.112-1.546-.474-.405-1.042-.712-1.701-.92-.649-.209-1.361-.319-2.137-.33h-4.22z" fill="#979799"/><path d="m181.037 307.596v-25.286h7.52c1.042.012 2.061.15 3.057.417.995.254 1.881.654 2.657 1.198s1.395 1.239 1.858 2.084.689 1.858.677 3.039c-.011.66-.121 1.262-.33 1.806-.196.545-.468 1.031-.816 1.459-.359.44-.758.811-1.198 1.112-.429.301-.95.584-1.563.851v.052c.637.15 1.25.422 1.841.816.59.394 1.076.828 1.459 1.303.405.521.717 1.105.937 1.754.232.648.348 1.348.348 2.101.011 1.181-.214 2.223-.678 3.126-.463.903-1.082 1.656-1.858 2.258-.776.613-1.673 1.082-2.692 1.406-1.007.325-2.049.492-3.126.504zm3.231-11.827v9.1h4.949c.672-.011 1.308-.121 1.91-.33.603-.22 1.135-.521 1.598-.903s.828-.851 1.094-1.406c.278-.556.417-1.187.417-1.893.012-.718-.11-1.355-.365-1.911-.243-.555-.584-1.03-1.024-1.424-.44-.382-.955-.677-1.546-.885-.59-.209-1.227-.325-1.91-.348zm0-2.674h4.48c.602-.012 1.193-.104 1.772-.278.579-.185 1.094-.452 1.545-.799.452-.336.816-.753 1.094-1.25.278-.498.417-1.077.417-1.737 0-.706-.139-1.308-.417-1.806-.266-.498-.625-.909-1.076-1.233-.463-.313-.996-.544-1.598-.695-.591-.15-1.198-.231-1.824-.243h-4.393z" fill="#979799"/><path d="m223.028 295.908h-10.559v8.961h12.313v2.727h-15.526v-25.286h15.37v2.744h-12.157v8.128h10.559z" fill="#979799"/><path d="m251.229 296.429h-10.524v11.167h-3.247v-25.286h15.526v2.744h-12.279v8.649h10.524z" fill="#979799"/><path d="m281.654 296.412c-.012.903-.093 1.818-.243 2.744-.139.914-.359 1.8-.66 2.657s-.689 1.656-1.164 2.396c-.463.741-1.019 1.39-1.667 1.946-.648.555-1.395.995-2.24 1.319-.834.313-1.772.469-2.814.469s-1.985-.156-2.831-.469c-.833-.324-1.574-.764-2.222-1.319-.649-.556-1.21-1.205-1.685-1.946-.475-.752-.863-1.557-1.164-2.413-.312-.857-.544-1.743-.694-2.658-.151-.914-.232-1.823-.243-2.726v-2.883c.011-.903.086-1.812.225-2.727.151-.926.382-1.817.695-2.674.301-.857.683-1.656 1.146-2.397.475-.752 1.036-1.412 1.685-1.98.648-.555 1.389-.989 2.223-1.302.845-.324 1.789-.486 2.831-.486s1.985.162 2.83.486c.846.313 1.592.747 2.241 1.302.648.556 1.204 1.21 1.667 1.963.475.741.868 1.54 1.181 2.396.301.857.521 1.749.66 2.675.15.926.231 1.841.243 2.744zm-3.178-2.918c-.012-.602-.052-1.227-.122-1.875-.069-.66-.185-1.315-.347-1.963-.174-.637-.4-1.244-.677-1.823-.278-.591-.626-1.112-1.042-1.563-.417-.44-.909-.788-1.477-1.042-.567-.267-1.227-.4-1.979-.4-.741 0-1.396.133-1.963.4-.567.266-1.059.619-1.476 1.059-.417.452-.764.973-1.042 1.563-.278.579-.498 1.187-.66 1.823-.174.649-.301 1.303-.382 1.963-.07.648-.11 1.268-.122 1.858v2.918c.012.59.052 1.215.122 1.875.081.66.208 1.309.382 1.945.174.649.399 1.268.677 1.859.278.59.625 1.105 1.042 1.545.417.452.909.811 1.476 1.077.568.266 1.228.4 1.98.4.753 0 1.413-.134 1.98-.4.579-.266 1.077-.625 1.494-1.077.405-.44.741-.949 1.007-1.528.278-.59.504-1.21.677-1.858.162-.637.272-1.285.33-1.945.07-.66.11-1.291.122-1.893z" fill="#979799"/><path d="m301.623 297.28h-5.053v10.316h-3.196v-25.286h7.416c1.181.023 2.292.191 3.334.504 1.042.312 1.957.781 2.744 1.406.776.626 1.384 1.413 1.824 2.362.451.938.677 2.044.677 3.317 0 .822-.122 1.575-.365 2.258-.231.683-.555 1.302-.972 1.858s-.915 1.048-1.494 1.476c-.579.429-1.215.793-1.91 1.094l5.366 10.803-.017.208h-3.387zm-5.053-2.64h4.307c.718-.011 1.395-.121 2.032-.33.636-.22 1.198-.532 1.684-.937.475-.406.851-.898 1.129-1.477.278-.59.417-1.267.417-2.031 0-.811-.133-1.517-.4-2.119-.266-.614-.636-1.129-1.111-1.546-.475-.405-1.042-.712-1.702-.92-.648-.209-1.36-.319-2.136-.33h-4.22z" fill="#979799"/><path d="m335.209 295.908h-10.559v8.961h12.313v2.727h-15.526v-25.286h15.369v2.744h-12.156v8.128h10.559z" fill="#979799"/></svg>