<svg fill="none" height="624" viewBox="0 0 546 624" width="546" xmlns="http://www.w3.org/2000/svg" xmlns:xlink="http://www.w3.org/1999/xlink"><clipPath id="a"><path d="m22.9663 148.398h500v111.065h-500z"/></clipPath><path d="m0 0h546v624h-546z" fill="#fff"/><g clip-path="url(#a)" fill="#283244"><path d="m123.892 222.148h12.963c.602 5.37 2.824 9.815 11.713 9.815 5.926 0 9.861-3.288 9.861-7.963 0-4.676-2.5-6.436-11.296-7.778-15.324-1.991-21.621-6.621-21.621-18.195 0-10.185 8.565-17.87 21.76-17.87 13.194 0 21.342 6.018 22.453 17.917h-12.5c-.833-5.463-4.027-7.963-9.953-7.963s-8.982 2.777-8.982 6.805c0 4.259 1.945 6.297 11.158 7.639 14.49 1.852 21.944 5.787 21.944 18.195 0 10.648-8.704 19.074-22.87 19.074-16.389 0-23.936-7.686-24.676-19.676z"/><path d="m176.809 197.101h12.13v6.852c2.963-4.907 8.24-7.87 13.981-7.87 10.695 0 19.074 7.963 19.074 22.454v.648c0 14.49-8.194 22.592-19.074 22.592-6.805 0-11.713-3.333-13.981-7.639v21.621h-12.13v-58.704zm32.917 22.176v-.694c0-8.889-4.352-13.241-10.463-13.241s-10.695 4.445-10.695 13.241v.694c0 8.797 4.167 13.056 10.787 13.056 6.621 0 10.371-4.537 10.371-13.056z"/><path d="m226.253 184.555c0-3.75 3.01-6.62 6.852-6.62 3.843 0 6.945 2.87 6.945 6.62s-3.01 6.62-6.945 6.62c-3.842 0-6.852-2.87-6.852-6.62zm.88 12.546h12.083v43.797h-12.083z"/><path d="m244.401 219.601v-.648c0-14.398 8.287-22.87 19.26-22.87 7.037 0 11.388 3.102 13.796 7.546v-26.389h12.083v63.658h-12.083v-7.269c-2.269 4.445-7.639 8.195-14.074 8.195-10.648 0-19.028-7.639-19.028-22.176zm33.426-.416v-.648c0-8.704-3.842-13.148-10.463-13.148-6.62 0-10.555 4.583-10.555 13.333v.648c0 8.704 4.166 12.963 10.185 12.963 6.389 0 10.833-4.259 10.833-13.148z"/><path d="m294.309 219.509v-.695c0-13.796 9.815-22.777 22.546-22.777 11.297 0 21.343 6.62 21.343 22.268v3.333h-31.574c.324 7.269 4.259 11.482 10.88 11.482 5.601 0 8.379-2.407 9.12-6.111h11.481c-1.435 9.444-8.981 14.722-20.926 14.722-13.24 0-22.87-8.287-22.87-22.268zm32.083-5.232c-.416-6.62-3.75-9.814-9.537-9.814-5.463 0-9.12 3.611-10.046 9.814z"/><path d="m342.828 197.101h12.129v8.38c2.778-5.88 7.037-8.981 14.167-9.028v11.297c-8.982-.093-14.167 2.824-14.167 11.203v21.945h-12.129z"/><path d="m371.716 211.314v-.648c0-17.87 13.056-30.463 30.834-30.463 17.777 0 30.833 12.13 30.833 30.139v.648c0 17.871-12.222 30.834-30.926 30.834s-30.741-12.963-30.741-30.463zm47.5-.139v-.648c0-11.62-6.203-19.583-16.666-19.583s-16.667 7.639-16.667 19.676v.694c0 12.223 7.037 19.769 16.852 19.769 10.139 0 16.481-7.778 16.481-19.861z"/><path d="m435.883 228.722c0-10.185 9.398-14.074 22.778-14.074h4.953v-1.76c0-5.185-1.574-8.055-7.129-8.055-4.769 0-6.945 2.407-7.454 6.204h-11.482c.741-10.371 8.982-15 19.676-15 10.695 0 18.334 4.351 18.334 16.25v28.564h-11.806v-5.277c-2.5 3.518-6.343 6.203-13.241 6.203-7.963 0-14.676-3.842-14.676-13.055zm27.685-3.148v-3.704h-4.676c-7.037 0-11.157 1.528-11.157 6.204 0 3.194 1.944 5.277 6.342 5.277 5.371 0 9.445-2.916 9.445-7.777z"/><path d="m482.596 177.24h12.13v38.38l14.074-18.519h12.917l-15.926 19.954 17.176 23.889h-13.75l-14.491-20.695v20.695h-12.13z"/><path d="m52.2718 149.185c-18.7963 3.935-31.574 21.805-28.9814 40.694 1.4351 10.278 6.3426 18.565 14.6759 24.769 1.8055 1.342 3.75 2.453 5.6944 3.657-2.9629 13.519-4.7222 27.315-6.4815 41.157h45.4167c-.8796-3.009-1.8055-5.925-2.5926-8.888-2.5926-10.047-5.1852-20.093-4.5833-30.602-.0463-.972.5093-1.852 1.3889-2.222 15.2778-7.825 23.1481-25.278 18.8889-41.621-4.9537-19.167-24.0741-31.018-43.426-26.944zm24.3519 57.453c-1.8519 2.5-3.6111 5.093-5.5556 7.547-.9722 1.111-1.3888 2.592-1.2037 4.074.463 4.676.7408 9.398 1.3426 14.074.926 7.315 2.2223 14.583 4.4445 21.667.0463.138.0926.324.1852.601h-32.963c.2315-2.129.3241-4.259.6944-6.296 1.6667-9.398 3.3797-18.75 5.1852-28.148.6019-3.102 1.5278-6.111 2.3611-9.167.2778-.787.0926-1.62-.4629-2.222-3.1482-4.259-6.2963-8.611-9.3982-12.917-.3241-.37-.5092-.787-.5555-1.25.0926-.555.3703-1.389.8333-1.527.6481-.186 1.2963-.093 1.8519.324 1.3425 1.157 2.5 2.546 3.75 3.75 2.5925 2.453 5.1851 4.861 7.824 7.268.3704.324.7871.602 1.2037.834l.2778-.186c0-.324-.1389-.694-.2778-.972-1.3889-1.991-1.0185-4.12-.6481-6.296 1.0185-6.482 1.2963-13.009.8333-19.537-.1389-2.639-.5555-5.232-.8796-7.871-.1852-.787.2778-1.62 1.0185-1.898.6944-.37 1.5741-.092 1.9444.602 0 0 0 .046.0463.093 1.5278 2.87 3.0556 5.694 4.3982 8.657.2778.602-.0463 1.482-.1389 2.269 0 .463-.1389.926-.2778 1.666.5093-.231.9723-.509 1.4352-.787 1.6204-1.296 3.2871-2.592 4.8611-3.889.8334-.694 1.713-1.157 2.6389-.231s.4167 1.805-.3241 2.592c-1.8518 1.945-3.7037 3.889-5.5555 5.834-.5093.416-.6482 1.111-.4167 1.713 1.8519 5.926 3.0093 12.083 3.3796 18.287.0463 1.111-.6018 2.268-.9259 3.426-.1852.602-.4629 1.203-.6944 1.852l.3241.231c.3703-.231.7407-.463 1.0648-.741 1.9907-1.805 3.9814-3.611 5.9259-5.463.7407-.694 1.5278-1.064 2.4074-.37s.6944 1.62 0 2.5z"/></g><path d="m10.5547 310.052h524.8233" stroke="#e2e2e4" stroke-width="2"/><g fill="#303033"><path d="m104.525 530.678c-10.0857-1.393-12.032-3.829-12.032-8.528 0-4.351 3.3618-7.483 10.085-7.483 6.724 0 10.262 2.61 11.324 8.527h9.908c-1.061-10.964-8.669-16.707-21.232-16.707-12.2082.174-20.3472 7.309-20.3472 16.707 0 10.79 6.5466 14.967 20.5242 16.707 9.555 1.567 12.209 3.481 12.209 8.876s-4.601 8.876-10.97 8.876c-9.9086 0-12.2087-4.873-13.0934-10.616h-10.4392c.8847 10.79 7.6082 18.622 23.5326 18.622 12.916 0 21.586-7.832 21.586-17.752-.177-11.486-7.255-15.315-21.055-17.229z"/><path d="m153.71 521.974c-6.369 0-11.677 3.655-13.977 7.658v-6.788h-9.909v56.561h9.909v-21.058c2.3 4.177 7.254 7.484 13.977 7.484 10.97 0 18.932-8.18 18.932-21.755v-.696c.177-13.574-8.139-21.406-18.932-21.406zm8.847 22.102c0 9.05-4.069 13.923-11.324 13.923-7.254 0-11.854-4.351-11.854-13.923v-.696c0-9.398 4.954-13.922 11.854-13.922 6.547 0 11.324 4.524 11.324 13.922z"/><path d="m186.982 522.837h-9.909v42.116h9.909z"/><path d="m224.145 503.347v25.932c-2.3-4.177-6.723-7.31-13.624-7.31-11.147 0-19.286 8.528-19.286 21.928v.697c0 13.748 8.139 21.232 18.756 21.232 6.369 0 11.854-3.655 14.154-7.832v7.136h9.909v-61.609h-9.909zm.354 40.724c0 9.398-5.131 13.923-12.031 13.923-6.37 0-11.147-4.351-11.147-13.749v-.696c0-9.049 4.246-14.096 11.501-14.096 7.254 0 11.5 4.524 11.5 13.922v.696z"/><path d="m259.332 521.974c-12.208 0-21.232 8.702-21.232 21.754v.696c0 13.227 9.024 21.407 21.763 21.407 10.97 0 18.224-4.873 19.64-13.749h-9.732c-.707 4.177-3.892 6.439-9.731 6.439-7.431 0-11.501-4.525-11.855-12.53h31.318v-2.785c0-15.141-9.555-21.232-20.171-21.232zm-10.97 17.578c1.062-6.44 4.955-10.443 10.97-10.443 6.193 0 9.909 3.133 10.439 10.443z"/><path d="m293.311 530.67v-7.831h-9.909v42.116h9.909v-21.928c0-8.876 5.308-11.661 13.977-11.835v-9.049c-7.254.174-11.147 3.306-13.977 8.527z"/><path d="m338.969 506.487c-17.34 0-29.549 12.53-29.549 29.238v.696c0 2.958.354 5.917 1.062 8.527h11.678c-.885-2.61-1.416-5.395-1.416-8.701v-.696c0-12.357 6.724-20.71 18.225-20.71 11.5 0 18.224 8.701 18.224 20.536v1.044c0 12.53-6.901 20.71-18.048 20.71-3.184 0-6.015-.696-8.492-2.089v9.572c2.654.697 5.308 1.045 8.316 1.045 17.693 0 29.371-12.705 29.371-29.412v-.696c0-16.882-12.032-29.064-29.371-29.064z"/><path d="m390.1 521.974c-9.554 0-17.516 4.177-18.401 13.923h9.554c.531-4.177 3.008-6.613 8.139-6.613 5.839 0 7.785 2.784 7.785 8.527v2.089h-5.308c-12.208 0-21.939 3.48-21.939 13.4 0 8.702 6.546 12.531 14.331 12.531 6.547 0 10.262-2.263 13.093-5.917v5.221h9.732v-27.672c.177-11.66-7.431-15.489-16.986-15.489zm-3.362 36.721c-4.954 0-6.9-2.262-6.9-5.917 0-5.221 4.777-6.787 12.385-6.787h5.131v4.177c0 5.395-4.6 8.527-10.616 8.527z"/><path d="m449.739 522.839h-10.793l-15.393 18.448v-37.94h-9.909v61.609h9.909v-20.711l16.101 20.711h11.501l-18.048-22.799z"/><path d="m186.982 505.431h-9.909v9.746h9.909z"/><path d="m465.471 555.209h-9.909v9.746h9.909z"/></g><path d="m216.814 370.537h-9.188l-2.212 7.127h-3.497l8.885-27.525h2.93l8.734 27.525h-3.478zm-8.243-3.044h7.316l-3.629-11.947z" fill="#979799"/><path d="m249.517 365.508h-11.456v12.156h-3.536v-27.525h16.901v2.987h-13.365v9.414h11.456z" fill="#979799"/><path d="m283.298 353.126h-8.507v24.538h-3.403v-24.538h-8.508v-2.987h20.418z" fill="#979799"/><path d="m310.405 364.941h-11.494v9.755h13.404v2.968h-16.901v-27.525h16.731v2.987h-13.234v8.847h11.494z" fill="#979799"/><path d="m334.904 366.435h-5.502v11.229h-3.478v-27.525h8.072c1.286.025 2.496.208 3.63.548s2.13.851 2.987 1.531c.845.681 1.506 1.538 1.985 2.571.492 1.021.737 2.225.737 3.611 0 .895-.132 1.714-.397 2.458-.252.743-.605 1.418-1.058 2.023-.454.605-.996 1.14-1.626 1.607-.63.466-1.323.863-2.08 1.191l5.842 11.759-.019.226h-3.686zm-5.502-2.874h4.689c.781-.012 1.519-.132 2.212-.359.693-.239 1.304-.58 1.834-1.021.516-.441.926-.977 1.228-1.607.303-.643.454-1.38.454-2.212 0-.882-.145-1.651-.435-2.306-.29-.668-.693-1.229-1.21-1.683-.516-.441-1.134-.775-1.852-1.002-.706-.226-1.481-.346-2.326-.359h-4.594z" fill="#979799"/><path d="m188.098 58.1002v-27.5257h8.186c1.134.0126 2.243.1638 3.327.4537 1.084.2772 2.048.7121 2.893 1.3044.844.5924 1.518 1.3486 2.023 2.2686.504.9201.75 2.0229.737 3.3084-.013.7184-.132 1.3738-.359 1.9661-.215.5924-.511 1.1217-.889 1.588-.391.479-.825.8823-1.304 1.21-.467.3277-1.034.6364-1.702.9263v.0567c.693.1639 1.361.4601 2.004.8886s1.172.9011 1.588 1.4178c.441.5672.782 1.2037 1.021 1.9095.252.7057.378 1.4682.378 2.2875.013 1.2855-.233 2.4198-.737 3.4029-.504.983-1.179 1.8022-2.023 2.4576-.844.668-1.821 1.1784-2.93 1.5313-1.097.3529-2.231.5357-3.403.5483zm3.516-12.8744v9.9063h5.388c.731-.0126 1.425-.1324 2.08-.3592.655-.2395 1.235-.5672 1.739-.9831s.901-.9263 1.191-1.5313c.303-.6049.454-1.2918.454-2.0606.013-.7814-.12-1.4746-.397-2.0796-.265-.6049-.637-1.1217-1.115-1.5502-.479-.4159-1.04-.7373-1.683-.9642-.643-.2268-1.336-.3528-2.08-.3781zm0-2.9113h4.878c.655-.0126 1.298-.1135 1.928-.3025.63-.2017 1.191-.4915 1.683-.8696.491-.3655.888-.8193 1.191-1.3612.302-.5419.454-1.1721.454-1.8905 0-.7688-.152-1.4242-.454-1.9661-.29-.542-.681-.9894-1.172-1.3423-.504-.3403-1.084-.5923-1.74-.7562-.642-.1638-1.304-.2521-1.985-.2647h-4.783z" fill="#979799"/><path d="m233.808 45.3771h-11.494v9.755h13.404v2.9681h-16.902v-27.5257h16.731v2.9869h-13.233v8.8476h11.494z" fill="#979799"/><path d="m264.507 45.9442h-11.456v12.156h-3.535v-27.5257h16.901v2.9869h-13.366v9.4147h11.456z" fill="#979799"/><path d="m297.627 45.9253c-.013.9831-.101 1.9788-.265 2.987-.151.9957-.391 1.9598-.718 2.8925-.328.9326-.75 1.8023-1.267 2.6089-.504.8066-1.109 1.5124-1.815 2.1174-.706.6049-1.519 1.0838-2.439 1.4367-.907.3403-1.928.5105-3.062.5105-1.135 0-2.162-.1702-3.082-.5105-.907-.3529-1.714-.8318-2.42-1.4367-.705-.605-1.317-1.3108-1.833-2.1174-.517-.8192-.939-1.6952-1.267-2.6278-.34-.9327-.592-1.8968-.756-2.8925-.164-.9956-.252-1.985-.265-2.9681v-3.1382c.013-.9831.095-1.9724.246-2.9681.164-1.0083.416-1.9787.756-2.9114.328-.9326.744-1.8022 1.248-2.6089.517-.8192 1.128-1.5376 1.834-2.1551.705-.605 1.512-1.0776 2.419-1.4179.92-.3529 1.948-.5293 3.082-.5293s2.161.1764 3.081.5293c.921.3403 1.733.8129 2.439 1.4179.706.6049 1.311 1.317 1.815 2.1362.517.8067.945 1.6763 1.286 2.6089.327.9327.567 1.9031.718 2.9114.164 1.0083.252 2.0039.265 2.987zm-3.46-3.176c-.013-.6554-.057-1.336-.132-2.0418-.076-.7183-.202-1.4304-.378-2.1362-.189-.6932-.435-1.3549-.738-1.9851-.302-.6427-.68-1.2099-1.134-1.7014-.454-.4789-.989-.857-1.607-1.1343-.617-.2899-1.336-.4348-2.155-.4348-.807 0-1.519.1449-2.136.4348-.618.2899-1.154.6743-1.607 1.1532-.454.4915-.832 1.0587-1.135 1.7015-.302.6301-.541 1.2918-.718 1.985-.189.7058-.328 1.4179-.416 2.1363-.075.7057-.12 1.38-.132 2.0228v3.176c.012.6428.057 1.3234.132 2.0418.088.7184.227 1.4242.416 2.1173.189.7058.435 1.3801.737 2.0229.303.6427.681 1.2036 1.135 1.6825.453.4916.989.8823 1.607 1.1721.617.2899 1.336.4349 2.155.4349s1.537-.145 2.155-.4349c.63-.2898 1.172-.6805 1.626-1.1721.441-.4789.806-1.0334 1.096-1.6636.303-.6428.548-1.3171.738-2.0229.176-.6931.296-1.3989.359-2.1173.075-.7184.119-1.4053.132-2.0607z" fill="#979799"/><path d="m319.365 46.8706h-5.501v11.2296h-3.479v-27.5257h8.073c1.285.0252 2.495.2079 3.629.5482 1.135.3403 2.13.8507 2.987 1.5313.845.6806 1.507 1.5376 1.985 2.5711.492 1.0209.738 2.2245.738 3.6108 0 .8949-.133 1.7141-.397 2.4577-.252.7436-.605 1.4179-1.059 2.0228-.454.605-.996 1.1406-1.626 1.607-.63.4663-1.323.8633-2.079 1.191l5.841 11.7589-.019.2269h-3.686zm-5.501-2.8736h4.688c.782-.0126 1.519-.1323 2.212-.3592.693-.2394 1.305-.5797 1.834-1.0208.517-.4412.926-.9768 1.229-1.607.302-.6427.453-1.38.453-2.2119 0-.8822-.145-1.651-.434-2.3064-.29-.668-.694-1.2288-1.21-1.6825-.517-.4411-1.135-.7751-1.853-1.002-.706-.2269-1.481-.3466-2.325-.3592h-4.594z" fill="#979799"/><path d="m355.925 45.3771h-11.494v9.755h13.403v2.9681h-16.901v-27.5257h16.731v2.9869h-13.233v8.8476h11.494z" fill="#979799"/></svg>