<svg fill="none" height="240" viewBox="0 0 600 240" width="600" xmlns="http://www.w3.org/2000/svg" xmlns:xlink="http://www.w3.org/1999/xlink"><clipPath id="a"><path d="m0 0h600v240h-600z"/></clipPath><g clip-path="url(#a)"><path d="m0 0h600v240h-600z" fill="#fff"/><g fill="#303033"><path d="m89.2501 109.696c-13.0975-1.862-15.6251-5.12-15.6251-11.4022 0-5.8172 4.3659-10.0056 13.0975-10.0056s13.3275 3.4903 14.7055 11.4017h12.868c-1.379-14.6594-11.259-22.3381-27.5735-22.3381-15.8548.2327-26.4247 9.7729-26.4247 22.3381 0 14.4271 8.5019 20.0111 26.6545 22.3381 12.4081 2.094 15.8547 4.654 15.8547 11.867s-5.9742 11.867-14.2463 11.867c-12.8676 0-15.8548-6.515-17.0037-14.194h-13.557c1.1489 14.427 9.8805 24.898 30.5607 24.898 16.7743 0 28.0333-10.471 28.0333-23.734-.23-15.358-9.421-20.477-27.3439-23.036z"/><path d="m153.126 98.0586c-8.272 0-15.165 4.8864-18.152 10.2384v-9.075h-12.868v75.624h12.868v-28.156c2.987 5.585 9.421 10.006 18.152 10.006 14.247 0 24.587-10.936 24.587-29.086v-.931c.229-18.149-10.57-28.6204-24.587-28.6204zm11.489 29.5514c0 12.1-5.285 18.615-14.706 18.615s-15.395-5.817-15.395-18.615v-.931c0-12.565 6.434-18.615 15.395-18.615 8.502 0 14.706 6.05 14.706 18.615z"/><path d="m196.335 99.2124h-12.868v56.3106h12.868z"/><path d="m244.598 73.1543v34.6707c-2.987-5.585-8.732-9.773-17.693-9.773-14.476 0-25.046 11.402-25.046 29.319v.93c0 18.383 10.57 28.388 24.357 28.388 8.272 0 15.395-4.886 18.382-10.471v9.541h12.868v-82.372h-12.868zm.46 54.4487c0 12.566-6.664 18.615-15.626 18.615-8.272 0-14.476-5.817-14.476-18.382v-.931c0-12.099 5.515-18.847 14.936-18.847s14.936 6.049 14.936 18.615v.93z"/><path d="m290.294 98.0586c-15.855 0-27.573 11.6344-27.573 29.0864v.93c0 17.685 11.718 28.621 28.263 28.621 14.246 0 23.667-6.515 25.505-18.382h-12.638c-.919 5.584-5.055 8.609-12.638 8.609-9.65 0-14.935-6.05-15.395-16.753h40.671v-3.723c0-20.244-12.408-28.3884-26.195-28.3884zm-14.246 23.5014c1.379-8.609 6.434-13.961 14.246-13.961 8.043 0 12.868 4.188 13.557 13.961z"/><path d="m334.421 109.686v-10.4713h-12.868v56.3103h12.868v-29.318c0-11.868 6.893-15.591 18.152-15.823v-12.1001c-9.421.2327-14.476 4.4211-18.152 11.4021z"/><path d="m393.715 77.3518c-22.518 0-38.373 16.7536-38.373 39.0912v.931c0 3.956.46 7.912 1.379 11.402h15.165c-1.149-3.49-1.838-7.213-1.838-11.634v-.931c0-16.5211 8.732-27.6901 23.667-27.6901 14.936 0 23.668 11.6341 23.668 27.4571v1.396c0 16.754-8.962 27.69-23.438 27.69-4.136 0-7.812-.931-11.029-2.792v12.798c3.446.931 6.893 1.396 10.799 1.396 22.978 0 38.144-16.986 38.144-39.324v-.931c0-22.571-15.625-38.8592-38.144-38.8592z"/><path d="m460.118 98.0586c-12.408 0-22.748 5.5844-23.897 18.6154h12.408c.69-5.585 3.907-8.842 10.57-8.842 7.583 0 10.111 3.723 10.111 11.401v2.793h-6.894c-15.855 0-28.493 4.653-28.493 17.917 0 11.634 8.502 16.753 18.613 16.753 8.502 0 13.327-3.025 17.003-7.911v6.98h12.638v-36.997c.23-15.59-9.65-20.7094-22.059-20.7094zm-4.365 49.0974c-6.434 0-8.962-3.025-8.962-7.912 0-6.98 6.204-9.074 16.085-9.074h6.663v5.584c0 7.213-5.974 11.402-13.786 11.402z"/><path d="m537.57 99.2154h-14.017l-19.991 24.6646v-50.7257h-12.867v82.3717h12.867v-27.69l20.91 27.69h14.936l-23.438-30.482z"/><path d="m196.335 75.9397h-12.868v13.0306h12.868z"/><path d="m558 142.495h-12.868v13.03h12.868z"/></g></g></svg>