<svg fill="none" height="360" viewBox="0 0 1175 360" width="1175" xmlns="http://www.w3.org/2000/svg" xmlns:xlink="http://www.w3.org/1999/xlink"><clipPath id="a"><path d="m10 101.21h500v111.065h-500z"/></clipPath><path d="m0 0h1175v360h-1175z" fill="#fff"/><g clip-path="url(#a)" fill="#283244"><path d="m110.926 174.96h12.963c.602 5.37 2.824 9.815 11.713 9.815 5.926 0 9.861-3.287 9.861-7.963s-2.5-6.435-11.296-7.778c-15.324-1.991-21.621-6.62-21.621-18.194 0-10.186 8.565-17.871 21.76-17.871 13.194 0 21.342 6.019 22.453 17.917h-12.5c-.833-5.463-4.028-7.963-9.953-7.963-5.926 0-8.982 2.778-8.982 6.805 0 4.26 1.945 6.297 11.157 7.639 14.491 1.852 21.945 5.787 21.945 18.195 0 10.648-8.704 19.074-22.87 19.074-16.389 0-23.936-7.685-24.676-19.676z"/><path d="m163.843 149.914h12.129v6.852c2.963-4.908 8.241-7.871 13.982-7.871 10.694 0 19.074 7.963 19.074 22.454v.648c0 14.491-8.195 22.593-19.074 22.593-6.806 0-11.713-3.334-13.982-7.639v21.62h-12.129v-58.704zm32.916 22.176v-.695c0-8.889-4.352-13.241-10.463-13.241s-10.694 4.445-10.694 13.241v.695c0 8.796 4.166 13.055 10.787 13.055 6.62 0 10.37-4.537 10.37-13.055z"/><path d="m213.287 137.367c0-3.75 3.009-6.62 6.852-6.62s6.944 2.87 6.944 6.62-3.009 6.621-6.944 6.621c-3.843 0-6.852-2.871-6.852-6.621zm.88 12.547h12.083v43.796h-12.083z"/><path d="m231.435 172.414v-.648c0-14.399 8.287-22.871 19.259-22.871 7.038 0 11.389 3.102 13.797 7.546v-26.388h12.083v63.657h-12.083v-7.269c-2.269 4.445-7.639 8.195-14.074 8.195-10.648 0-19.028-7.639-19.028-22.176zm33.426-.417v-.648c0-8.704-3.842-13.148-10.463-13.148-6.62 0-10.555 4.583-10.555 13.333v.648c0 8.704 4.166 12.963 10.185 12.963 6.389 0 10.833-4.259 10.833-13.148z"/><path d="m281.343 172.321v-.694c0-13.797 9.814-22.778 22.546-22.778 11.296 0 21.342 6.62 21.342 22.268v3.334h-31.574c.324 7.268 4.26 11.481 10.88 11.481 5.602 0 8.38-2.407 9.12-6.111h11.482c-1.435 9.445-8.982 14.722-20.926 14.722-13.241 0-22.87-8.287-22.87-22.268zm32.083-5.231c-.417-6.621-3.75-9.815-9.537-9.815-5.463 0-9.121 3.611-10.046 9.815z"/><path d="m329.861 149.914h12.13v8.379c2.778-5.879 7.037-8.981 14.166-9.027v11.296c-8.981-.093-14.166 2.824-14.166 11.204v21.944h-12.13z"/><path d="m358.75 164.127v-.649c0-17.87 13.056-30.462 30.833-30.462 17.778 0 30.834 12.129 30.834 30.138v.649c0 17.87-12.223 30.833-30.926 30.833-18.704 0-30.741-12.963-30.741-30.463zm47.5-.139v-.648c0-11.621-6.204-19.584-16.667-19.584s-16.666 7.639-16.666 19.676v.695c0 12.222 7.037 19.768 16.852 19.768 10.138 0 16.481-7.778 16.481-19.861z"/><path d="m422.917 181.534c0-10.185 9.398-14.074 22.777-14.074h4.954v-1.759c0-5.185-1.574-8.056-7.129-8.056-4.769 0-6.945 2.408-7.454 6.204h-11.482c.741-10.37 8.982-15 19.676-15 10.695 0 18.334 4.352 18.334 16.25v28.565h-11.806v-5.278c-2.5 3.518-6.343 6.204-13.241 6.204-7.963 0-14.676-3.843-14.676-13.056zm27.685-3.148v-3.704h-4.676c-7.037 0-11.157 1.528-11.157 6.204 0 3.194 1.944 5.278 6.342 5.278 5.37 0 9.445-2.917 9.445-7.778z"/><path d="m469.63 130.053h12.129v38.379l14.074-18.518h12.917l-15.926 19.953 17.176 23.889h-13.75l-14.491-20.694v20.694h-12.129z"/><path d="m39.3055 101.997c-18.7963 3.935-31.57404 21.806-28.9814 40.694 1.4351 10.278 6.3425 18.565 14.6759 24.769 1.8055 1.343 3.75 2.454 5.6944 3.657-2.9629 13.519-4.7222 27.315-6.4815 41.158h45.4167c-.8796-3.009-1.8055-5.926-2.5926-8.889-2.5926-10.046-5.1852-20.093-4.5833-30.602-.0463-.972.5092-1.852 1.3889-2.222 15.2777-7.824 23.1481-25.278 18.8889-41.621-4.9537-19.166-24.0741-31.018-43.426-26.944zm24.3519 57.454c-1.8519 2.5-3.6111 5.092-5.5556 7.546-.9722 1.111-1.3889 2.593-1.2037 4.074.463 4.676.7408 9.398 1.3426 14.074.9259 7.315 2.2222 14.584 4.4445 21.667.0463.139.0926.324.1851.602h-32.9629c.2315-2.13.3241-4.26.6944-6.297 1.6667-9.398 3.3797-18.75 5.1852-28.148.6019-3.102 1.5278-6.111 2.3611-9.166.2778-.787.0926-1.621-.4629-2.223-3.1482-4.259-6.2963-8.611-9.3982-12.916-.3241-.371-.5092-.787-.5555-1.25.0926-.556.3703-1.389.8333-1.528.6481-.185 1.2963-.093 1.8518.324 1.3426 1.157 2.5 2.546 3.75 3.75 2.5926 2.454 5.1852 4.861 7.8241 7.269.3704.324.7871.601 1.2037.833l.2778-.185c0-.324-.1389-.695-.2778-.973-1.3889-1.99-1.0185-4.12-.6481-6.296 1.0185-6.481 1.2963-13.009.8333-19.537-.1389-2.639-.5555-5.231-.8796-7.87-.1852-.787.2778-1.621 1.0185-1.898.6944-.371 1.5741-.093 1.9444.601 0 0 0 .047.0463.093 1.5278 2.87 3.0556 5.694 4.3982 8.657.2778.602-.0463 1.482-.1389 2.269 0 .463-.1389.926-.2778 1.667.5093-.232.9722-.51 1.4352-.787 1.6204-1.297 3.287-2.593 4.8611-3.889.8334-.695 1.713-1.158 2.6389-.232s.4167 1.806-.3241 2.593c-1.8518 1.944-3.7037 3.889-5.5555 5.833-.5093.417-.6482 1.111-.4167 1.713 1.8519 5.926 3.0093 12.083 3.3796 18.287.0463 1.111-.6018 2.269-.9259 3.426-.1852.602-.463 1.204-.6944 1.852l.324.231c.3704-.231.7408-.463 1.0649-.74 1.9907-1.806 3.9814-3.611 5.9259-5.463.7407-.695 1.5278-1.065 2.4074-.371.8796.695.6944 1.621 0 2.5z"/></g><path d="m588 25.7158v314.1222" stroke="#000"/><g fill="#303033"><path d="m744.738 155.192c-10.085-1.393-12.032-3.829-12.032-8.528 0-4.351 3.362-7.484 10.086-7.484 6.723 0 10.262 2.611 11.323 8.528h9.909c-1.062-10.964-8.67-16.707-21.232-16.707-12.209.174-20.348 7.309-20.348 16.707 0 10.79 6.547 14.967 20.525 16.707 9.554 1.567 12.208 3.481 12.208 8.876s-4.6 8.876-10.97 8.876c-9.908 0-12.208-4.873-13.093-10.616h-10.439c.884 10.79 7.608 18.622 23.532 18.622 12.916 0 21.586-7.832 21.586-17.752-.177-11.486-7.254-15.315-21.055-17.229z"/><path d="m793.924 146.488c-6.37 0-11.678 3.655-13.978 7.658v-6.788h-9.908v56.561h9.908v-21.058c2.3 4.177 7.254 7.484 13.978 7.484 10.97 0 18.932-8.18 18.932-21.755v-.696c.177-13.574-8.139-21.406-18.932-21.406zm8.847 22.102c0 9.05-4.07 13.923-11.324 13.923-7.255 0-11.855-4.351-11.855-13.923v-.696c0-9.398 4.954-13.922 11.855-13.922 6.546 0 11.324 4.524 11.324 13.922z"/><path d="m827.195 147.351h-9.908v42.116h9.908z"/><path d="m864.359 127.861v25.931c-2.3-4.176-6.724-7.309-13.624-7.309-11.147 0-19.286 8.528-19.286 21.928v.697c0 13.748 8.139 21.232 18.755 21.232 6.37 0 11.855-3.655 14.155-7.832v7.136h9.908v-61.609h-9.908zm.354 40.724c0 9.398-5.132 13.923-12.032 13.923-6.37 0-11.147-4.351-11.147-13.749v-.696c0-9.049 4.247-14.096 11.501-14.096s11.501 4.524 11.501 13.922v.696z"/><path d="m899.546 146.488c-12.209 0-21.232 8.702-21.232 21.754v.696c0 13.227 9.023 21.407 21.763 21.407 10.969 0 18.224-4.873 19.639-13.749h-9.731c-.708 4.177-3.893 6.439-9.732 6.439-7.431 0-11.5-4.525-11.854-12.53h31.317v-2.785c0-15.141-9.554-21.232-20.17-21.232zm-10.97 17.577c1.061-6.439 4.954-10.442 10.97-10.442 6.192 0 9.908 3.133 10.439 10.442z"/><path d="m933.524 155.184v-7.831h-9.908v42.116h9.908v-21.928c0-8.876 5.308-11.661 13.978-11.835v-9.049c-7.255.174-11.147 3.306-13.978 8.527z"/><path d="m979.182 131.001c-17.34 0-29.548 12.53-29.548 29.238v.696c0 2.958.354 5.917 1.061 8.527h11.678c-.885-2.61-1.415-5.395-1.415-8.701v-.696c0-12.357 6.723-20.71 18.224-20.71s18.224 8.701 18.224 20.536v1.044c0 12.53-6.9 20.71-18.047 20.71-3.185 0-6.016-.696-8.493-2.089v9.572c2.654.696 5.308 1.045 8.316 1.045 17.693 0 29.368-12.705 29.368-29.412v-.696c0-16.882-12.028-29.064-29.368-29.064z"/><path d="m1030.31 146.488c-9.55 0-17.51 4.177-18.4 13.923h9.56c.53-4.177 3-6.614 8.14-6.614 5.83 0 7.78 2.785 7.78 8.528v2.089h-5.31c-12.21 0-21.94 3.48-21.94 13.4 0 8.702 6.55 12.531 14.33 12.531 6.55 0 10.27-2.263 13.1-5.917v5.221h9.73v-27.672c.18-11.66-7.43-15.489-16.99-15.489zm-3.36 36.721c-4.95 0-6.9-2.262-6.9-5.917 0-5.221 4.78-6.787 12.39-6.787h5.13v4.177c0 5.395-4.6 8.527-10.62 8.527z"/><path d="m1089.95 147.353h-10.79l-15.39 18.448v-37.94h-9.91v61.609h9.91v-20.711l16.1 20.711h11.5l-18.05-22.799z"/><path d="m827.195 129.945h-9.908v9.746h9.908z"/><path d="m1105.68 179.723h-9.9v9.746h9.9z"/><path d="m878.386 303.583h-5.337l-1.285 4.141h-2.032l5.162-15.99h1.702l5.074 15.99h-2.021zm-4.788-1.768h4.25l-2.109-6.94z"/><path d="m897.384 300.662h-6.656v7.062h-2.053v-15.99h9.818v1.735h-7.765v5.469h6.656z"/><path d="m917.007 293.469h-4.942v14.255h-1.976v-14.255h-4.942v-1.735h11.86z"/><path d="m932.754 300.333h-6.677v5.666h7.787v1.725h-9.818v-15.99h9.719v1.735h-7.688v5.139h6.677z"/><path d="m946.986 301.2h-3.196v6.524h-2.021v-15.99h4.69c.747.014 1.449.12 2.108.318s1.238.494 1.735.89c.491.395.875.893 1.154 1.493.285.593.428 1.292.428 2.098 0 .52-.077.996-.231 1.428-.146.431-.351.823-.615 1.175-.263.351-.578.662-.944.933s-.769.502-1.208.692l3.393 6.831-.011.132h-2.141zm-3.196-1.669h2.724c.454-.007.882-.077 1.285-.209.402-.139.757-.336 1.065-.593.3-.256.538-.567.714-.933.175-.374.263-.802.263-1.285 0-.513-.084-.959-.252-1.34-.169-.388-.403-.714-.703-.977-.3-.257-.659-.451-1.076-.582-.41-.132-.861-.202-1.351-.209h-2.669z"/><path d="m208.685 307.724v-15.99h4.755c.659.007 1.303.095 1.933.263.629.161 1.189.414 1.68.758s.882.783 1.175 1.318c.293.534.436 1.175.428 1.922-.007.417-.077.798-.208 1.142-.125.344-.297.652-.516.922-.227.279-.48.513-.758.703-.271.191-.601.37-.989.538v.033c.403.096.791.268 1.164.516.374.249.681.524.923.824.256.33.454.699.593 1.109.146.41.22.853.22 1.329.007.747-.136 1.406-.429 1.977-.292.571-.684 1.047-1.175 1.428-.49.388-1.058.684-1.702.889-.637.205-1.296.311-1.977.319zm2.042-7.479v5.755h3.13c.425-.008.827-.077 1.208-.209.381-.139.718-.33 1.011-.571.292-.242.523-.538.691-.89.176-.351.264-.75.264-1.197.007-.454-.07-.856-.231-1.208-.153-.351-.369-.651-.648-.9-.278-.242-.604-.429-.977-.561-.373-.131-.776-.205-1.208-.219zm0-1.691h2.834c.38-.008.754-.066 1.12-.176.366-.117.692-.286.977-.505.286-.213.516-.476.692-.791s.264-.681.264-1.098c0-.447-.088-.828-.264-1.142-.168-.315-.395-.575-.681-.78-.293-.198-.629-.344-1.01-.439-.374-.096-.758-.147-1.153-.154h-2.779z"/><path d="m235.238 300.333h-6.677v5.667h7.786v1.724h-9.818v-15.99h9.719v1.735h-7.687v5.14h6.677z"/><path d="m253.072 300.662h-6.656v7.062h-2.053v-15.99h9.818v1.735h-7.765v5.469h6.656z"/><path d="m272.311 300.651c-.007.571-.059 1.15-.154 1.735-.088.579-.227 1.139-.417 1.681-.19.541-.436 1.047-.736 1.515-.293.469-.644.879-1.054 1.23-.41.352-.882.63-1.417.835-.527.198-1.12.296-1.779.296s-1.256-.098-1.79-.296c-.527-.205-.996-.483-1.406-.835-.41-.351-.765-.761-1.065-1.23-.3-.476-.545-.985-.736-1.526-.198-.542-.344-1.102-.439-1.681-.095-.578-.147-1.153-.154-1.724v-1.823c.007-.571.055-1.146.143-1.724.095-.586.242-1.15.439-1.691.191-.542.432-1.047.725-1.516.3-.476.655-.893 1.065-1.252.41-.351.879-.626 1.406-.823.534-.205 1.131-.308 1.79-.308s1.256.103 1.79.308c.535.197 1.007.472 1.417.823.41.352.761.765 1.054 1.241.3.469.549.974.747 1.516.19.542.329 1.105.417 1.691.095.586.147 1.164.154 1.735zm-2.01-1.845c-.007-.381-.033-.776-.077-1.186-.044-.417-.117-.831-.219-1.241-.11-.403-.253-.787-.429-1.153-.175-.373-.395-.703-.658-.988-.264-.279-.575-.498-.934-.659-.359-.169-.776-.253-1.252-.253-.468 0-.882.084-1.241.253-.359.168-.67.391-.933.67-.264.285-.484.615-.659.988-.176.366-.315.75-.418 1.153-.109.41-.19.824-.241 1.241-.044.41-.07.802-.077 1.175v1.845c.007.374.033.769.077 1.186.051.418.132.828.241 1.23.11.41.253.802.429 1.175.175.374.395.7.659.978.263.285.574.512.933.681.359.168.776.252 1.252.252s.893-.084 1.252-.252c.366-.169.681-.396.944-.681.257-.278.469-.601.637-.967.176-.373.319-.765.429-1.175.102-.402.172-.812.208-1.23.044-.417.07-.816.077-1.197z"/><path d="m284.939 301.2h-3.196v6.524h-2.02v-15.99h4.689c.747.014 1.45.12 2.109.318.658.198 1.237.494 1.735.89.49.395.875.893 1.153 1.493.285.593.428 1.293.428 2.098 0 .52-.077.996-.23 1.428-.147.432-.352.823-.615 1.175-.264.351-.579.662-.945.933s-.769.502-1.208.692l3.394 6.831-.011.132h-2.142zm-3.196-1.669h2.724c.454-.007.882-.077 1.285-.209.402-.139.758-.336 1.065-.593.3-.256.538-.567.714-.933.176-.374.263-.802.263-1.285 0-.513-.084-.959-.252-1.34-.168-.388-.403-.714-.703-.977-.3-.257-.659-.451-1.076-.582-.41-.132-.86-.202-1.351-.209h-2.669z"/><path d="m306.177 300.333h-6.677v5.667h7.786v1.724h-9.818v-15.99h9.72v1.735h-7.688v5.14h6.677z"/></g></svg>