<svg fill="none" height="240" viewBox="0 0 600 240" width="600" xmlns="http://www.w3.org/2000/svg" xmlns:xlink="http://www.w3.org/1999/xlink"><clipPath id="a"><path d="m0 0h600v240h-600z"/></clipPath><clipPath id="b"><path d="m50 56.025h500v111.065h-500z"/></clipPath><g clip-path="url(#a)"><path d="m0 0h600v240h-600z" fill="#fff"/><g clip-path="url(#b)" fill="#283244"><path d="m150.926 129.775h12.963c.602 5.37 2.824 9.815 11.713 9.815 5.926 0 9.861-3.287 9.861-7.963s-2.5-6.435-11.296-7.778c-15.324-1.991-21.621-6.62-21.621-18.194 0-10.1855 8.565-17.8707 21.76-17.8707 13.194 0 21.342 6.0185 22.453 17.9167h-12.5c-.833-5.463-4.028-7.963-9.953-7.963-5.926 0-8.982 2.778-8.982 6.806 0 4.259 1.945 6.296 11.157 7.638 14.491 1.852 21.945 5.787 21.945 18.195 0 10.648-8.704 19.074-22.87 19.074-16.389 0-23.936-7.685-24.676-19.676z"/><path d="m203.843 104.729h12.129v6.852c2.963-4.908 8.241-7.871 13.982-7.871 10.694 0 19.074 7.963 19.074 22.454v.648c0 14.491-8.195 22.593-19.074 22.593-6.806 0-11.713-3.334-13.982-7.639v21.62h-12.129v-58.704zm32.916 22.176v-.695c0-8.889-4.352-13.241-10.463-13.241s-10.694 4.445-10.694 13.241v.695c0 8.796 4.167 13.055 10.787 13.055s10.37-4.537 10.37-13.055z"/><path d="m253.287 92.1824c0-3.75 3.009-6.6204 6.852-6.6204 3.842 0 6.944 2.8704 6.944 6.6204s-3.009 6.6204-6.944 6.6204c-3.843 0-6.852-2.8704-6.852-6.6204zm.88 12.5466h12.083v43.796h-12.083z"/><path d="m271.435 127.229v-.648c0-14.399 8.287-22.871 19.259-22.871 7.037 0 11.389 3.102 13.797 7.547v-26.3893h12.083v63.6573h-12.083v-7.268c-2.269 4.444-7.639 8.194-14.074 8.194-10.648 0-19.028-7.639-19.028-22.176zm33.426-.417v-.648c0-8.704-3.842-13.148-10.463-13.148-6.62 0-10.555 4.583-10.555 13.333v.648c0 8.704 4.166 12.963 10.185 12.963 6.389 0 10.833-4.259 10.833-13.148z"/><path d="m321.343 127.136v-.694c0-13.797 9.814-22.778 22.546-22.778 11.296 0 21.342 6.62 21.342 22.268v3.334h-31.574c.324 7.268 4.26 11.481 10.88 11.481 5.602 0 8.38-2.407 9.12-6.111h11.482c-1.435 9.445-8.982 14.722-20.926 14.722-13.241 0-22.87-8.287-22.87-22.268zm32.083-5.231c-.417-6.621-3.75-9.815-9.537-9.815-5.463 0-9.12 3.611-10.046 9.815z"/><path d="m369.861 104.729h12.13v8.379c2.778-5.879 7.037-8.981 14.166-9.027v11.296c-8.981-.093-14.166 2.824-14.166 11.204v21.944h-12.13z"/><path d="m398.75 118.942v-.648c0-17.871 13.056-30.4634 30.833-30.4634 17.778 0 30.834 12.1296 30.834 30.1384v.649c0 17.87-12.223 30.833-30.926 30.833-18.704 0-30.741-12.963-30.741-30.463zm47.5-.139v-.648c0-11.621-6.204-19.5837-16.667-19.5837s-16.666 7.6387-16.666 19.6757v.695c0 12.222 7.037 19.768 16.852 19.768 10.138 0 16.481-7.778 16.481-19.861z"/><path d="m462.917 136.349c0-10.185 9.398-14.074 22.777-14.074h4.954v-1.759c0-5.185-1.574-8.056-7.129-8.056-4.769 0-6.945 2.408-7.454 6.204h-11.482c.741-10.37 8.982-15 19.676-15 10.695 0 18.334 4.352 18.334 16.25v28.565h-11.806v-5.278c-2.5 3.518-6.343 6.204-13.241 6.204-7.963 0-14.676-3.843-14.676-13.056zm27.685-3.148v-3.704h-4.676c-7.037 0-11.157 1.528-11.157 6.204 0 3.194 1.944 5.278 6.342 5.278 5.37 0 9.445-2.917 9.445-7.778z"/><path d="m509.63 84.8677h12.129v38.3793l14.074-18.518h12.917l-15.926 19.953 17.176 23.889h-13.75l-14.491-20.694v20.694h-12.129z"/><path d="m79.3055 56.812c-18.7963 3.9352-31.574 21.8056-28.9814 40.6945 1.4351 10.2775 6.3425 18.5645 14.6759 24.7685 1.8055 1.343 3.75 2.454 5.6944 3.657-2.9629 13.519-4.7222 27.315-6.4815 41.158h45.4171c-.88-3.009-1.806-5.926-2.593-8.889-2.593-10.046-5.185-20.093-4.583-30.602-.047-.972.509-1.852 1.389-2.222 15.277-7.824 23.148-25.278 18.888-41.6205-4.953-19.1667-24.0736-31.0185-43.4255-26.9445zm24.3515 57.454c-1.851 2.5-3.611 5.092-5.5552 7.546-.9722 1.111-1.3889 2.593-1.2037 4.074.463 4.676.7408 9.398 1.3426 14.074.9259 7.315 2.2223 14.584 4.4443 21.667.046.139.093.324.185.602h-32.9626c.2315-2.13.3241-4.26.6944-6.297 1.6667-9.398 3.3797-18.75 5.1852-28.148.6019-3.102 1.5278-6.111 2.3611-9.166.2778-.787.0926-1.621-.4629-2.223-3.1482-4.259-6.2963-8.611-9.3982-12.916-.3241-.371-.5092-.787-.5555-1.25.0926-.556.3703-1.389.8333-1.528.6481-.185 1.2963-.093 1.8518.324 1.3426 1.157 2.5 2.546 3.75 3.75 2.5926 2.454 5.1852 4.861 7.8241 7.269.3704.324.7871.601 1.2037.833l.2778-.185c0-.324-.1389-.695-.2778-.973-1.3889-1.99-1.0185-4.12-.6481-6.296 1.0185-6.4813 1.2963-13.0091.8333-19.5369-.1389-2.6389-.5555-5.2315-.8796-7.8704-.1852-.787.2778-1.6203 1.0185-1.8981.6944-.3704 1.5741-.0926 1.9444.6018 0 0 0 .0463.0463.0926 1.5278 2.8704 3.0556 5.6945 4.3982 8.6574.2778.6019-.0463 1.4815-.1389 2.2686 0 .4629-.1389.9259-.2778 1.6666.5093-.2315.9722-.5092 1.4352-.787 1.6204-1.2963 3.287-2.5926 4.8611-3.8889.8334-.6944 1.713-1.1574 2.6389-.2315s.4167 1.8056-.3241 2.5926c-1.8518 1.9445-3.7037 3.8889-5.5555 5.8333-.5093.4167-.6482 1.1112-.4167 1.713 1.8519 5.9259 3.0093 12.0829 3.3796 18.2869.0463 1.111-.6018 2.269-.9259 3.426-.1852.602-.463 1.204-.6944 1.852l.324.231c.3704-.231.7408-.463 1.0649-.74 1.9907-1.806 3.9814-3.611 5.9262-5.463.74-.695 1.527-1.065 2.407-.371.88.695.695 1.621 0 2.5z"/></g></g></svg>