<svg width="1175" height="360" viewBox="0 0 1175 360" fill="none" xmlns="http://www.w3.org/2000/svg">
<rect width="1175" height="360" fill="white"/>
<g clip-path="url(#clip0_11_555)">
<path d="M136.044 169.986H147.867C148.416 174.869 150.442 178.911 158.549 178.911C163.953 178.911 167.542 175.922 167.542 171.67C167.542 167.418 165.262 165.818 157.24 164.597C143.264 162.787 137.522 158.576 137.522 148.051C137.522 138.789 145.333 131.8 157.367 131.8C169.4 131.8 176.831 137.273 177.844 148.093H166.444C165.684 143.125 162.771 140.852 157.367 140.852C151.962 140.852 149.176 143.378 149.176 147.041C149.176 150.914 150.949 152.767 159.351 153.987C172.567 155.671 179.364 159.25 179.364 170.533C179.364 180.216 171.427 187.879 158.507 187.879C143.56 187.879 136.678 180.89 136.002 169.986H136.044Z" fill="#283244"/>
<path d="M184.304 147.209H195.367V153.44C198.069 148.978 202.882 146.283 208.118 146.283C217.871 146.283 225.513 153.525 225.513 166.702V167.292C225.513 180.469 218.04 187.837 208.118 187.837C201.911 187.837 197.436 184.806 195.367 180.89V200.551H184.304V147.167V147.209ZM214.324 167.376V166.744C214.324 158.661 210.356 154.703 204.782 154.703C199.209 154.703 195.029 158.745 195.029 166.744V167.376C195.029 175.375 198.829 179.248 204.867 179.248C210.904 179.248 214.324 175.122 214.324 167.376Z" fill="#283244"/>
<path d="M229.398 135.8C229.398 132.39 232.142 129.78 235.647 129.78C239.151 129.78 241.98 132.39 241.98 135.8C241.98 139.21 239.235 141.82 235.647 141.82C232.142 141.82 229.398 139.21 229.398 135.8ZM230.2 147.209H241.22V187.037H230.2V147.209Z" fill="#283244"/>
<path d="M245.949 167.67V167.081C245.949 153.987 253.507 146.283 263.513 146.283C269.931 146.283 273.9 149.104 276.096 153.145V129.148H287.116V187.037H276.096V180.427C274.027 184.468 269.129 187.879 263.26 187.879C253.549 187.879 245.907 180.932 245.907 167.712L245.949 167.67ZM276.433 167.291V166.702C276.433 158.787 272.929 154.745 266.891 154.745C260.853 154.745 257.265 158.913 257.265 166.87V167.46C257.265 175.375 261.065 179.248 266.553 179.248C272.38 179.248 276.433 175.375 276.433 167.291Z" fill="#283244"/>
<path d="M291.464 167.586V166.955C291.464 154.409 300.415 146.241 312.027 146.241C322.329 146.241 331.491 152.261 331.491 166.491V169.523H302.695C302.991 176.133 306.58 179.964 312.618 179.964C317.727 179.964 320.26 177.775 320.935 174.406H331.407C330.098 182.995 323.215 187.795 312.322 187.795C300.247 187.795 291.464 180.258 291.464 167.544V167.586ZM320.724 162.829C320.344 156.808 317.304 153.903 312.027 153.903C307.044 153.903 303.709 157.187 302.864 162.829H320.724Z" fill="#283244"/>
<path d="M335.713 147.209H346.776V154.83C349.309 149.483 353.193 146.662 359.696 146.62V156.892C351.504 156.808 346.776 159.461 346.776 167.081V187.037H335.713V147.209Z" fill="#283244"/>
<path d="M362.06 160.134V159.545C362.06 143.294 373.967 131.843 390.18 131.843C406.393 131.843 418.3 142.873 418.3 159.25V159.84C418.3 176.091 407.153 187.879 390.096 187.879C373.038 187.879 362.06 176.091 362.06 160.176V160.134ZM405.38 160.008V159.419C405.38 148.851 399.722 141.61 390.18 141.61C380.638 141.61 374.98 148.557 374.98 159.503V160.134C374.98 171.249 381.398 178.111 390.349 178.111C399.596 178.111 405.38 171.038 405.38 160.05V160.008Z" fill="#283244"/>
<path d="M420.58 175.964C420.58 166.702 429.151 163.166 441.353 163.166H445.871V161.566C445.871 156.85 444.436 154.24 439.369 154.24C435.02 154.24 433.036 156.429 432.571 159.882H422.1C422.776 150.451 430.291 146.241 440.045 146.241C449.798 146.241 456.765 150.198 456.765 161.018V186.995H445.998V182.195C443.718 185.395 440.213 187.837 433.922 187.837C426.66 187.837 420.538 184.342 420.538 175.964H420.58ZM445.829 173.101V169.733H441.565C435.147 169.733 431.389 171.123 431.389 175.375C431.389 178.28 433.162 180.174 437.173 180.174C442.071 180.174 445.787 177.522 445.787 173.101H445.829Z" fill="#283244"/>
<path d="M463.182 129.148H474.244V164.05L487.08 147.209H498.86L484.335 165.355L500 187.079H487.46L474.244 168.26V187.079H463.182V129.148Z" fill="#283244"/>
<path d="M70.7268 103.635C53.5845 107.214 41.9312 123.465 44.2957 140.642C45.6045 149.988 50.0801 157.524 57.6801 163.166C59.3268 164.387 61.1001 165.397 62.8734 166.492C60.1712 178.785 58.5668 191.331 56.9623 203.919H98.3823C97.5801 201.183 96.7357 198.53 96.0179 195.836C93.6534 186.7 91.289 177.564 91.8379 168.007C91.7957 167.123 92.3023 166.323 93.1045 165.986C107.038 158.871 114.216 142.999 110.331 128.138C105.813 110.708 88.3757 99.9302 70.7268 103.635ZM92.9357 155.882C91.2468 158.156 89.6423 160.513 87.869 162.745C86.9823 163.755 86.6023 165.102 86.7712 166.45C87.1934 170.702 87.4468 174.996 87.9957 179.248C88.8401 185.9 90.0223 192.51 92.049 198.951C92.0912 199.078 92.1334 199.246 92.2179 199.499H62.1557C62.3668 197.562 62.4512 195.626 62.789 193.773C64.309 185.227 65.8712 176.722 67.5179 168.176C68.0668 165.355 68.9112 162.618 69.6712 159.84C69.9245 159.124 69.7557 158.366 69.249 157.819C66.3779 153.946 63.5068 149.988 60.6779 146.073C60.3823 145.736 60.2134 145.357 60.1712 144.936C60.2557 144.431 60.509 143.673 60.9312 143.547C61.5223 143.378 62.1134 143.463 62.6201 143.841C63.8445 144.894 64.9001 146.157 66.0401 147.252C68.4045 149.483 70.769 151.672 73.1757 153.861C73.5134 154.156 73.8934 154.409 74.2734 154.619L74.5268 154.451C74.5268 154.156 74.4001 153.819 74.2734 153.567C73.0068 151.756 73.3445 149.82 73.6823 147.841C74.6112 141.947 74.8645 136.011 74.4423 130.074C74.3157 127.675 73.9357 125.317 73.6401 122.917C73.4712 122.202 73.8934 121.444 74.569 121.191C75.2023 120.854 76.0045 121.107 76.3423 121.738C76.3423 121.738 76.3423 121.781 76.3845 121.823C77.7779 124.433 79.1712 127.001 80.3957 129.696C80.649 130.243 80.3534 131.043 80.269 131.758C80.269 132.179 80.1423 132.601 80.0157 133.274C80.4801 133.064 80.9023 132.811 81.3245 132.558C82.8023 131.38 84.3223 130.201 85.7579 129.022C86.5179 128.39 87.3201 127.969 88.1645 128.811C89.009 129.653 88.5445 130.453 87.869 131.169C86.1801 132.937 84.4912 134.706 82.8023 136.474C82.3379 136.853 82.2112 137.484 82.4223 138.032C84.1112 143.42 85.1668 149.02 85.5045 154.661C85.5468 155.672 84.9557 156.724 84.6601 157.777C84.4912 158.324 84.2379 158.871 84.0268 159.461L84.3223 159.671C84.6601 159.461 84.9979 159.25 85.2934 158.998C87.109 157.356 88.9245 155.714 90.6979 154.03C91.3734 153.398 92.0912 153.062 92.8934 153.693C93.6957 154.325 93.5268 155.167 92.8934 155.966L92.9357 155.882Z" fill="#283244"/>
</g>
<line x1="588.5" y1="25.7158" x2="588.5" y2="339.838" stroke="#E2E2E4" stroke-width="2"/>
<path d="M744.738 155.192C734.653 153.799 732.706 151.363 732.706 146.664C732.706 142.313 736.068 139.18 742.792 139.18C749.515 139.18 753.054 141.791 754.115 147.708H764.024C762.962 136.744 755.354 131.001 742.792 131.001C730.583 131.175 722.444 138.31 722.444 147.708C722.444 158.498 728.991 162.675 742.969 164.415C752.523 165.982 755.177 167.896 755.177 173.291C755.177 178.686 750.577 182.167 744.207 182.167C734.299 182.167 731.999 177.294 731.114 171.551H720.675C721.559 182.341 728.283 190.172 744.207 190.172C757.123 190.172 765.793 182.341 765.793 172.421C765.616 160.935 758.539 157.106 744.738 155.192Z" fill="#303033"/>
<path d="M793.924 146.488C787.554 146.488 782.246 150.143 779.946 154.145V147.358H770.038V203.919H779.946V182.861C782.246 187.038 787.2 190.345 793.924 190.345C804.894 190.345 812.856 182.165 812.856 168.59V167.894C813.033 154.32 804.717 146.488 793.924 146.488ZM802.771 168.59C802.771 177.64 798.701 182.513 791.447 182.513C784.192 182.513 779.592 178.162 779.592 168.59V167.894C779.592 158.496 784.546 153.971 791.447 153.971C797.993 153.971 802.771 158.496 802.771 167.894V168.59Z" fill="#303033"/>
<path d="M827.195 147.351H817.287V189.467H827.195V147.351Z" fill="#303033"/>
<path d="M864.359 127.861V153.792C862.059 149.616 857.635 146.483 850.735 146.483C839.588 146.483 831.449 155.011 831.449 168.411V169.107C831.449 182.856 839.588 190.34 850.204 190.34C856.574 190.34 862.059 186.685 864.359 182.508V189.643H874.267V128.035H864.359V127.861ZM864.713 168.585C864.713 177.983 859.581 182.508 852.681 182.508C846.311 182.508 841.534 178.157 841.534 168.759V168.063C841.534 159.013 845.781 153.966 853.035 153.966C860.289 153.966 864.536 158.491 864.536 167.889V168.585H864.713Z" fill="#303033"/>
<path d="M899.546 146.488C887.337 146.488 878.314 155.19 878.314 168.242V168.938C878.314 182.165 887.337 190.345 900.077 190.345C911.046 190.345 918.301 185.472 919.716 176.596H909.985C909.277 180.773 906.092 183.035 900.253 183.035C892.822 183.035 888.753 178.51 888.399 170.505H919.716V167.72C919.716 152.579 910.162 146.488 899.546 146.488ZM888.576 164.065C889.637 157.626 893.53 153.623 899.546 153.623C905.738 153.623 909.454 156.756 909.985 164.065H888.576Z" fill="#303033"/>
<path d="M933.524 155.184V147.353H923.616V189.469H933.524V167.541C933.524 158.665 938.832 155.88 947.502 155.706V146.657C940.247 146.831 936.355 149.963 933.524 155.184Z" fill="#303033"/>
<path d="M979.182 131.001C961.842 131.001 949.634 143.531 949.634 160.239V160.935C949.634 163.893 949.988 166.852 950.695 169.462H962.373C961.488 166.852 960.958 164.067 960.958 160.761V160.065C960.958 147.708 967.681 139.354 979.182 139.354C990.683 139.354 997.406 148.056 997.406 159.891V160.935C997.406 173.465 990.506 181.645 979.359 181.645C976.174 181.645 973.343 180.949 970.866 179.556V189.128C973.52 189.824 976.174 190.172 979.182 190.172C996.875 190.172 1008.55 177.468 1008.55 160.761V160.065C1008.55 143.183 996.522 131.001 979.182 131.001Z" fill="#303033"/>
<path d="M1030.31 146.488C1020.76 146.488 1012.8 150.665 1011.91 160.411H1021.47C1022 156.234 1024.47 153.797 1029.61 153.797C1035.44 153.797 1037.39 156.582 1037.39 162.325V164.414H1032.08C1019.87 164.414 1010.14 167.894 1010.14 177.814C1010.14 186.516 1016.69 190.345 1024.47 190.345C1031.02 190.345 1034.74 188.082 1037.57 184.427V189.648H1047.3V161.977C1047.48 150.317 1039.87 146.488 1030.31 146.488ZM1026.95 183.209C1022 183.209 1020.05 180.947 1020.05 177.292C1020.05 172.071 1024.83 170.505 1032.44 170.505H1037.57V174.682C1037.57 180.077 1032.97 183.209 1026.95 183.209Z" fill="#303033"/>
<path d="M1089.95 147.353H1079.16L1063.77 165.801V127.861H1053.86V189.469H1063.77V168.759L1079.87 189.469H1091.37L1073.32 166.671L1089.95 147.353Z" fill="#303033"/>
<path d="M827.195 129.945H817.287V139.691H827.195V129.945Z" fill="#303033"/>
<path d="M1105.68 179.723H1095.78V189.469H1105.68V179.723Z" fill="#303033"/>
<path d="M855.53 301.049H847.089L845.057 307.596H841.844L850.007 282.31H852.699L860.722 307.596H857.527L855.53 301.049ZM847.958 298.253H854.679L851.344 287.277L847.958 298.253Z" fill="#979799"/>
<path d="M885.572 296.429H875.048V307.596H871.8V282.31H887.326V285.054H875.048V293.703H885.572V296.429Z" fill="#979799"/>
<path d="M916.604 285.054H908.789V307.596H905.663V285.054H897.848V282.31H916.604V285.054Z" fill="#979799"/>
<path d="M941.506 295.908H930.947V304.87H943.26V307.596H927.734V282.31H943.104V285.054H930.947V293.182H941.506V295.908Z" fill="#979799"/>
<path d="M964.011 297.28H958.957V307.596H955.762V282.31H963.177C964.358 282.333 965.47 282.501 966.512 282.814C967.554 283.126 968.468 283.595 969.256 284.22C970.031 284.846 970.639 285.633 971.079 286.582C971.531 287.52 971.757 288.626 971.757 289.899C971.757 290.721 971.635 291.474 971.392 292.157C971.16 292.84 970.836 293.46 970.419 294.015C970.003 294.571 969.505 295.063 968.926 295.491C968.347 295.92 967.71 296.285 967.015 296.586L972.382 307.388L972.364 307.596H968.978L964.011 297.28ZM958.957 294.64H963.264C963.982 294.629 964.659 294.519 965.296 294.311C965.933 294.091 966.494 293.778 966.981 293.373C967.455 292.967 967.832 292.475 968.11 291.897C968.387 291.306 968.526 290.629 968.526 289.865C968.526 289.054 968.393 288.348 968.127 287.746C967.861 287.132 967.49 286.617 967.015 286.2C966.541 285.795 965.973 285.488 965.314 285.28C964.665 285.071 963.953 284.961 963.177 284.95H958.957V294.64Z" fill="#979799"/>
<path d="M181.037 307.596V282.31H188.557C189.599 282.322 190.618 282.46 191.614 282.727C192.609 282.981 193.495 283.381 194.271 283.925C195.047 284.469 195.666 285.164 196.129 286.009C196.592 286.854 196.818 287.867 196.806 289.048C196.795 289.708 196.685 290.31 196.476 290.854C196.28 291.399 196.008 291.885 195.66 292.313C195.301 292.753 194.902 293.124 194.462 293.425C194.033 293.726 193.512 294.009 192.899 294.276V294.328C193.536 294.478 194.149 294.75 194.74 295.144C195.33 295.538 195.816 295.972 196.199 296.447C196.604 296.968 196.916 297.552 197.136 298.201C197.368 298.849 197.484 299.549 197.484 300.302C197.495 301.483 197.27 302.525 196.806 303.428C196.343 304.331 195.724 305.084 194.948 305.686C194.172 306.299 193.275 306.768 192.256 307.092C191.249 307.417 190.207 307.584 189.13 307.596H181.037ZM184.268 295.769V304.869H189.217C189.889 304.858 190.525 304.748 191.127 304.539C191.73 304.319 192.262 304.018 192.725 303.636C193.188 303.254 193.553 302.785 193.819 302.23C194.097 301.674 194.236 301.043 194.236 300.337C194.248 299.619 194.126 298.982 193.871 298.426C193.628 297.871 193.287 297.396 192.847 297.002C192.407 296.62 191.892 296.325 191.301 296.117C190.711 295.908 190.074 295.792 189.391 295.769H184.268ZM184.268 293.095H188.748C189.35 293.083 189.941 292.991 190.52 292.817C191.099 292.632 191.614 292.365 192.065 292.018C192.517 291.682 192.881 291.265 193.159 290.768C193.437 290.27 193.576 289.691 193.576 289.031C193.576 288.325 193.437 287.723 193.159 287.225C192.893 286.727 192.534 286.316 192.083 285.992C191.62 285.679 191.087 285.448 190.485 285.297C189.894 285.147 189.287 285.066 188.661 285.054H184.268V293.095Z" fill="#979799"/>
<path d="M223.028 295.908H212.469V304.869H224.782V307.596H209.256V282.31H224.626V285.054H212.469V293.182H223.028V295.908Z" fill="#979799"/>
<path d="M251.229 296.429H240.705V307.596H237.458V282.31H252.984V285.054H240.705V293.703H251.229V296.429Z" fill="#979799"/>
<path d="M281.654 296.412C281.642 297.315 281.561 298.23 281.411 299.156C281.272 300.07 281.052 300.956 280.751 301.813C280.45 302.67 280.062 303.469 279.587 304.209C279.124 304.95 278.568 305.599 277.92 306.155C277.272 306.71 276.525 307.15 275.68 307.474C274.846 307.787 273.908 307.943 272.866 307.943C271.824 307.943 270.881 307.787 270.035 307.474C269.202 307.15 268.461 306.71 267.813 306.155C267.164 305.599 266.603 304.95 266.128 304.209C265.653 303.457 265.265 302.652 264.964 301.796C264.652 300.939 264.42 300.053 264.27 299.138C264.119 298.224 264.038 297.315 264.027 296.412V293.529C264.038 292.626 264.113 291.717 264.252 290.802C264.403 289.876 264.634 288.985 264.947 288.128C265.248 287.271 265.63 286.472 266.093 285.731C266.568 284.979 267.129 284.319 267.778 283.751C268.426 283.196 269.167 282.762 270.001 282.449C270.846 282.125 271.79 281.963 272.832 281.963C273.874 281.963 274.817 282.125 275.662 282.449C276.508 282.762 277.254 283.196 277.903 283.751C278.551 284.307 279.107 284.961 279.57 285.714C280.045 286.455 280.438 287.254 280.751 288.11C281.052 288.967 281.272 289.859 281.411 290.785C281.561 291.711 281.642 292.626 281.654 293.529V296.412ZM278.476 293.494C278.464 292.892 278.424 292.267 278.354 291.619C278.285 290.959 278.169 290.304 278.007 289.656C277.833 289.019 277.607 288.412 277.33 287.833C277.052 287.242 276.704 286.721 276.288 286.27C275.871 285.83 275.379 285.482 274.811 285.228C274.244 284.961 273.584 284.828 272.832 284.828C272.091 284.828 271.436 284.961 270.869 285.228C270.302 285.494 269.81 285.847 269.393 286.287C268.976 286.739 268.629 287.26 268.351 287.85C268.073 288.429 267.853 289.037 267.691 289.673C267.517 290.322 267.39 290.976 267.309 291.636C267.239 292.284 267.199 292.904 267.187 293.494V296.412C267.199 297.002 267.239 297.627 267.309 298.287C267.39 298.947 267.517 299.596 267.691 300.232C267.865 300.881 268.09 301.5 268.368 302.091C268.646 302.681 268.993 303.196 269.41 303.636C269.827 304.088 270.319 304.447 270.886 304.713C271.454 304.979 272.114 305.113 272.866 305.113C273.619 305.113 274.279 304.979 274.846 304.713C275.425 304.447 275.923 304.088 276.34 303.636C276.745 303.196 277.081 302.687 277.347 302.108C277.625 301.518 277.851 300.898 278.024 300.25C278.186 299.613 278.296 298.965 278.354 298.305C278.424 297.645 278.464 297.014 278.476 296.412V293.494Z" fill="#979799"/>
<path d="M301.623 297.28H296.57V307.596H293.374V282.31H300.79C301.971 282.333 303.082 282.501 304.124 282.814C305.166 283.126 306.081 283.595 306.868 284.22C307.644 284.846 308.252 285.633 308.692 286.582C309.143 287.52 309.369 288.626 309.369 289.899C309.369 290.721 309.247 291.474 309.004 292.157C308.773 292.84 308.449 293.459 308.032 294.015C307.615 294.571 307.117 295.063 306.538 295.491C305.959 295.92 305.323 296.284 304.628 296.585L309.994 307.388L309.977 307.596H306.59L301.623 297.28ZM296.57 294.64H300.877C301.595 294.629 302.272 294.519 302.909 294.31C303.545 294.09 304.107 293.778 304.593 293.373C305.068 292.967 305.444 292.475 305.722 291.896C306 291.306 306.139 290.629 306.139 289.865C306.139 289.054 306.006 288.348 305.739 287.746C305.473 287.132 305.103 286.617 304.628 286.2C304.153 285.795 303.586 285.488 302.926 285.28C302.278 285.071 301.566 284.961 300.79 284.95H296.57V294.64Z" fill="#979799"/>
<path d="M335.209 295.908H324.65V304.869H336.963V307.596H321.437V282.31H336.806V285.054H324.65V293.182H335.209V295.908Z" fill="#979799"/>
<defs>
<clipPath id="clip0_11_555">
<rect width="456" height="101" fill="white" transform="translate(44 102.919)"/>
</clipPath>
</defs>
</svg>
