<svg fill="none" height="360" viewBox="0 0 1063 360" width="1063" xmlns="http://www.w3.org/2000/svg" xmlns:xlink="http://www.w3.org/1999/xlink"><clipPath id="a"><path d="m1 102.919h456v101h-456z"/></clipPath><path d="m0 0h1063v360h-1063z" fill="#fff"/><g clip-path="url(#a)" fill="#283244"><path d="m93.0442 169.986h11.8218c.549 4.884 2.576 8.925 10.683 8.925 5.404 0 8.993-2.989 8.993-7.241s-2.28-5.852-10.302-7.073c-13.976-1.81-19.7181-6.02-19.7181-16.546 0-9.262 7.8111-16.25 19.8441-16.25 12.034 0 19.465 5.473 20.478 16.293h-11.4c-.76-4.968-3.673-7.242-9.078-7.242-5.404 0-8.191 2.526-8.191 6.189 0 3.873 1.774 5.726 10.176 6.947 13.215 1.684 20.013 5.262 20.013 16.545 0 9.684-7.938 17.346-20.858 17.346-14.946 0-21.8285-6.989-22.504-17.893z"/><path d="m141.305 147.209h11.062v6.231c2.702-4.462 7.515-7.157 12.751-7.157 9.753 0 17.396 7.242 17.396 20.419v.59c0 13.177-7.474 20.545-17.396 20.545-6.207 0-10.682-3.031-12.751-6.947v19.661h-11.062v-53.384zm30.02 20.167v-.632c0-8.083-3.969-12.041-9.543-12.041-5.573 0-9.753 4.042-9.753 12.041v.632c0 7.999 3.8 11.872 9.838 11.872s9.458-4.126 9.458-11.872z"/><path d="m186.397 135.8c0-3.41 2.745-6.02 6.249-6.02 3.505 0 6.334 2.61 6.334 6.02s-2.745 6.021-6.334 6.021c-3.504 0-6.249-2.611-6.249-6.021zm.803 11.409h11.02v39.828h-11.02z"/><path d="m202.948 167.67v-.589c0-13.093 7.558-20.798 17.565-20.798 6.418 0 10.387 2.821 12.582 6.863v-23.998h11.02v57.889h-11.02v-6.61c-2.069 4.042-6.967 7.452-12.835 7.452-9.712 0-17.354-6.947-17.354-20.166zm30.485-.378v-.59c0-7.915-3.505-11.957-9.542-11.957-6.038 0-9.627 4.168-9.627 12.126v.589c0 7.915 3.8 11.788 9.289 11.788 5.827 0 9.88-3.873 9.88-11.956z"/><path d="m248.465 167.586v-.631c0-12.546 8.951-20.714 20.562-20.714 10.302 0 19.464 6.021 19.464 20.251v3.031h-28.795c.296 6.61 3.884 10.441 9.922 10.441 5.109 0 7.642-2.189 8.318-5.557h10.471c-1.309 8.588-8.191 13.388-19.084 13.388-12.076 0-20.858-7.536-20.858-20.251zm29.26-4.757c-.38-6.021-3.42-8.926-8.698-8.926-4.982 0-8.318 3.284-9.162 8.926z"/><path d="m292.713 147.209h11.062v7.621c2.533-5.347 6.418-8.168 12.92-8.21v10.273c-8.191-.085-12.92 2.568-12.92 10.188v19.956h-11.062z"/><path d="m319.06 160.134v-.589c0-16.251 11.906-27.702 28.12-27.702 16.213 0 28.12 11.03 28.12 27.407v.59c0 16.251-11.147 28.039-28.205 28.039s-28.035-11.788-28.035-27.703zm43.32-.126v-.589c0-10.568-5.658-17.809-15.2-17.809-9.543 0-15.2 6.947-15.2 17.893v.631c0 11.115 6.417 17.977 15.368 17.977 9.247 0 15.032-7.072 15.032-18.061z"/><path d="m377.58 175.964c0-9.262 8.571-12.798 20.774-12.798h4.517v-1.6c0-4.715-1.435-7.326-6.502-7.326-4.349 0-6.333 2.189-6.798 5.642h-10.471c.676-9.431 8.191-13.641 17.945-13.641 9.753 0 16.72 3.958 16.72 14.777v25.977h-10.767v-4.8c-2.28 3.2-5.784 5.642-12.075 5.642-7.263 0-13.385-3.495-13.385-11.873zm25.249-2.863v-3.368h-4.264c-6.418 0-10.176 1.39-10.176 5.642 0 2.905 1.774 4.799 5.785 4.799 4.897 0 8.613-2.652 8.613-7.073z"/><path d="m420.183 129.148h11.062v34.902l12.835-16.841h11.78l-14.524 18.146 15.664 21.724h-12.54l-13.215-18.819v18.819h-11.062z"/><path d="m27.7268 103.635c-17.1423 3.579-28.79559 19.83-26.43115 37.007 1.30889 9.346 5.78445 16.882 13.38445 22.524 1.6467 1.221 3.42 2.231 5.1933 3.326-2.7022 12.293-4.3066 24.839-5.9111 37.427h41.42c-.8022-2.736-1.6466-5.388-2.3644-8.083-2.3645-9.136-4.7289-18.272-4.18-27.829-.0422-.884.4644-1.684 1.2666-2.02 13.9334-7.116 21.1112-22.988 17.2267-37.849-4.5178-17.43-21.9555-28.2077-39.6044-24.503zm22.2089 52.247c-1.6889 2.274-3.2934 4.631-5.0667 6.863-.8867 1.01-1.2667 2.357-1.0978 3.705.4222 4.252.6756 8.546 1.2245 12.798.8444 6.652 2.0266 13.262 4.0533 19.704.0422.126.0844.294.1689.547h-30.0622c.2111-1.937.2955-3.873.6333-5.726 1.52-8.546 3.0822-17.051 4.7289-25.597.5489-2.821 1.3933-5.558 2.1533-8.336.2533-.716.0845-1.474-.4222-2.021-2.8711-3.873-5.7422-7.831-8.5711-11.746-.2956-.337-.4645-.716-.5067-1.137.0845-.505.3378-1.263.76-1.389.5911-.169 1.1822-.084 1.6889.294 1.2244 1.053 2.28 2.316 3.42 3.411 2.3644 2.231 4.7289 4.42 7.1356 6.609.3377.295.7177.548 1.0977.758l.2534-.168c0-.295-.1267-.632-.2534-.884-1.2666-1.811-.9289-3.747-.5911-5.726.9289-5.894 1.1822-11.83.76-17.767-.1266-2.399-.5066-4.757-.8022-7.157-.1689-.715.2533-1.473.9289-1.726.6333-.337 1.4355-.084 1.7733.548 0 0 0 .042.0422.084 1.3934 2.61 2.7867 5.178 4.0112 7.873.2533.547-.0423 1.347-.1267 2.063 0 .421-.1267.842-.2533 1.515.4644-.21.8866-.463 1.3088-.716 1.4778-1.178 2.9978-2.357 4.4334-3.536.76-.632 1.5622-1.053 2.4066-.211.8445.842.38 1.642-.2955 2.358-1.6889 1.768-3.3778 3.537-5.0667 5.305-.4644.379-.5911 1.01-.38 1.558 1.6889 5.388 2.7445 10.988 3.0822 16.629.0423 1.011-.5488 2.063-.8444 3.116-.1689.547-.4222 1.094-.6333 1.684l.2955.21c.3378-.21.6756-.421.9711-.673 1.8156-1.642 3.6311-3.284 5.4045-4.968.6755-.632 1.3933-.968 2.1955-.337.8023.632.6334 1.474 0 2.274z"/></g><path d="m545.5 25.7158v314.1222" stroke="#e2e2e4" stroke-width="2"/><g fill="#303033"><path d="m701.738 155.192c-10.085-1.393-12.032-3.829-12.032-8.528 0-4.351 3.362-7.484 10.086-7.484 6.723 0 10.262 2.611 11.323 8.528h9.909c-1.062-10.964-8.67-16.707-21.232-16.707-12.209.174-20.348 7.309-20.348 16.707 0 10.79 6.547 14.967 20.525 16.707 9.554 1.567 12.208 3.481 12.208 8.876s-4.6 8.876-10.97 8.876c-9.908 0-12.208-4.873-13.093-10.616h-10.439c.884 10.79 7.608 18.622 23.532 18.622 12.916 0 21.586-7.832 21.586-17.752-.177-11.486-7.254-15.315-21.055-17.229z"/><path d="m750.924 146.488c-6.37 0-11.678 3.655-13.978 7.658v-6.788h-9.908v56.561h9.908v-21.058c2.3 4.177 7.254 7.484 13.978 7.484 10.97 0 18.932-8.18 18.932-21.755v-.696c.177-13.574-8.139-21.406-18.932-21.406zm8.847 22.102c0 9.05-4.07 13.923-11.324 13.923-7.255 0-11.855-4.351-11.855-13.923v-.696c0-9.398 4.954-13.922 11.855-13.922 6.546 0 11.324 4.524 11.324 13.922z"/><path d="m784.195 147.351h-9.908v42.116h9.908z"/><path d="m821.359 127.861v25.931c-2.3-4.176-6.724-7.309-13.624-7.309-11.147 0-19.286 8.528-19.286 21.928v.697c0 13.748 8.139 21.232 18.755 21.232 6.37 0 11.855-3.655 14.155-7.832v7.136h9.908v-61.609h-9.908zm.354 40.724c0 9.398-5.132 13.923-12.032 13.923-6.37 0-11.147-4.351-11.147-13.749v-.696c0-9.049 4.247-14.096 11.501-14.096s11.501 4.524 11.501 13.922v.696z"/><path d="m856.546 146.488c-12.209 0-21.232 8.702-21.232 21.754v.696c0 13.227 9.023 21.407 21.763 21.407 10.969 0 18.224-4.873 19.639-13.749h-9.731c-.708 4.177-3.893 6.439-9.732 6.439-7.431 0-11.5-4.525-11.854-12.53h31.317v-2.785c0-15.141-9.554-21.232-20.17-21.232zm-10.97 17.577c1.061-6.439 4.954-10.442 10.97-10.442 6.192 0 9.908 3.133 10.439 10.442z"/><path d="m890.524 155.184v-7.831h-9.908v42.116h9.908v-21.928c0-8.876 5.308-11.661 13.978-11.835v-9.049c-7.255.174-11.147 3.306-13.978 8.527z"/><path d="m936.182 131.001c-17.34 0-29.548 12.53-29.548 29.238v.696c0 2.958.354 5.917 1.061 8.527h11.678c-.885-2.61-1.415-5.395-1.415-8.701v-.696c0-12.357 6.723-20.71 18.224-20.71s18.224 8.701 18.224 20.536v1.044c0 12.53-6.9 20.71-18.047 20.71-3.185 0-6.016-.696-8.493-2.089v9.572c2.654.696 5.308 1.045 8.316 1.045 17.693 0 29.371-12.705 29.371-29.412v-.696c0-16.882-12.031-29.064-29.371-29.064z"/><path d="m987.313 146.488c-9.554 0-17.516 4.177-18.401 13.923h9.555c.531-4.177 3.008-6.614 8.139-6.614 5.839 0 7.785 2.785 7.785 8.528v2.089h-5.308c-12.209 0-21.94 3.48-21.94 13.4 0 8.702 6.546 12.531 14.332 12.531 6.546 0 10.262-2.263 13.093-5.917v5.221h9.732v-27.672c.18-11.66-7.432-15.489-16.987-15.489zm-3.361 36.721c-4.954 0-6.901-2.262-6.901-5.917 0-5.221 4.777-6.787 12.386-6.787h5.131v4.177c0 5.395-4.6 8.527-10.616 8.527z"/><path d="m1046.95 147.353h-10.79l-15.39 18.448v-37.94h-9.91v61.609h9.91v-20.711l16.1 20.711h11.5l-18.05-22.799z"/><path d="m784.195 129.945h-9.908v9.746h9.908z"/><path d="m1062.68 179.723h-9.9v9.746h9.9z"/></g><path d="m812.53 301.049h-8.441l-2.031 6.547h-3.213l8.162-25.286h2.692l8.023 25.286h-3.195zm-7.572-2.796h6.721l-3.335-10.976z" fill="#979799"/><path d="m842.572 296.429h-10.524v11.167h-3.248v-25.286h15.526v2.744h-12.278v8.649h10.524z" fill="#979799"/><path d="m873.604 285.054h-7.815v22.542h-3.126v-22.542h-7.815v-2.744h18.756z" fill="#979799"/><path d="m898.506 295.908h-10.559v8.961h12.313v2.727h-15.526v-25.286h15.37v2.744h-12.157v8.128h10.559z" fill="#979799"/><path d="m921.011 297.28h-5.053v10.316h-3.196v-25.286h7.416c1.181.023 2.292.191 3.334.504 1.042.312 1.957.781 2.744 1.406.776.625 1.384 1.413 1.824 2.362.451.938.677 2.044.677 3.317 0 .822-.122 1.575-.365 2.258-.231.683-.556 1.302-.972 1.858-.417.556-.915 1.048-1.494 1.476-.579.429-1.216.793-1.91 1.094l5.366 10.803-.017.208h-3.387zm-5.053-2.64h4.306c.718-.011 1.396-.121 2.032-.33.637-.22 1.199-.532 1.685-.937.475-.406.851-.898 1.129-1.477.278-.59.417-1.267.417-2.032 0-.81-.134-1.516-.4-2.118-.266-.614-.637-1.129-1.111-1.546-.475-.405-1.042-.712-1.702-.92-.649-.209-1.361-.319-2.136-.33h-4.22z" fill="#979799"/><path d="m138.037 307.596v-25.286h7.52c1.042.012 2.061.15 3.056.417.996.254 1.882.654 2.658 1.198.775.544 1.395 1.239 1.858 2.084s.689 1.858.677 3.039c-.011.66-.121 1.262-.33 1.806-.197.545-.469 1.031-.816 1.459-.359.44-.758.811-1.198 1.112-.429.301-.95.584-1.563.851v.052c.636.15 1.25.422 1.84.816.591.394 1.077.828 1.459 1.303.406.521.718 1.105.938 1.754.232.648.347 1.348.347 2.101.012 1.181-.214 2.223-.677 3.126s-1.082 1.656-1.858 2.258c-.776.613-1.673 1.082-2.692 1.406-1.007.325-2.049.492-3.126.504zm3.23-11.827v9.1h4.95c.671-.011 1.308-.121 1.91-.33.602-.22 1.135-.521 1.598-.903s.828-.851 1.094-1.406c.278-.556.417-1.187.417-1.893.011-.718-.11-1.355-.365-1.911-.243-.555-.585-1.03-1.024-1.424-.44-.382-.956-.677-1.546-.885-.591-.209-1.227-.325-1.91-.348zm0-2.674h4.481c.602-.012 1.192-.104 1.771-.278.579-.185 1.094-.452 1.546-.799.452-.336.816-.753 1.094-1.25.278-.498.417-1.077.417-1.737 0-.706-.139-1.308-.417-1.806-.266-.498-.625-.909-1.077-1.233-.463-.313-.995-.544-1.597-.695-.591-.15-1.199-.231-1.824-.243h-4.394z" fill="#979799"/><path d="m180.028 295.908h-10.559v8.961h12.313v2.727h-15.526v-25.286h15.37v2.744h-12.157v8.128h10.559z" fill="#979799"/><path d="m208.229 296.429h-10.524v11.167h-3.248v-25.286h15.526v2.744h-12.278v8.649h10.524z" fill="#979799"/><path d="m238.654 296.412c-.012.903-.093 1.818-.244 2.744-.138.914-.358 1.8-.659 2.657s-.689 1.656-1.164 2.396c-.463.741-1.019 1.39-1.667 1.946-.649.555-1.395.995-2.241 1.319-.833.313-1.771.469-2.813.469s-1.986-.156-2.831-.469c-.833-.324-1.574-.764-2.223-1.319-.648-.556-1.21-1.205-1.684-1.946-.475-.752-.863-1.557-1.164-2.413-.312-.857-.544-1.743-.695-2.658-.15-.914-.231-1.823-.243-2.726v-2.883c.012-.903.087-1.812.226-2.727.151-.926.382-1.817.695-2.674.301-.857.683-1.656 1.146-2.397.475-.752 1.036-1.412 1.685-1.98.648-.555 1.389-.989 2.223-1.302.845-.324 1.788-.486 2.83-.486s1.986.162 2.831.486c.845.313 1.592.747 2.24 1.302.649.556 1.205 1.21 1.668 1.963.474.741.868 1.54 1.181 2.396.301.857.521 1.749.659 2.675.151.926.232 1.841.244 2.744zm-3.178-2.918c-.012-.602-.053-1.227-.122-1.875-.07-.66-.185-1.315-.347-1.963-.174-.637-.4-1.244-.678-1.823-.278-.591-.625-1.112-1.042-1.563-.417-.44-.909-.788-1.476-1.042-.567-.267-1.227-.4-1.98-.4-.741 0-1.395.133-1.962.4-.567.266-1.06.619-1.476 1.059-.417.452-.764.973-1.042 1.563-.278.579-.498 1.187-.66 1.823-.174.649-.301 1.303-.382 1.963-.07.648-.11 1.268-.122 1.858v2.918c.012.59.052 1.215.122 1.875.081.66.208 1.309.382 1.945.173.649.399 1.268.677 1.859.278.59.625 1.105 1.042 1.545.417.452.909.811 1.476 1.077.568.266 1.227.4 1.98.4s1.413-.134 1.98-.4c.579-.266 1.077-.625 1.493-1.077.406-.44.741-.949 1.008-1.528.278-.59.503-1.21.677-1.858.162-.637.272-1.285.33-1.945.069-.66.11-1.291.122-1.893z" fill="#979799"/><path d="m258.623 297.28h-5.053v10.316h-3.196v-25.286h7.416c1.181.023 2.292.191 3.334.504 1.042.312 1.957.781 2.744 1.406.776.626 1.384 1.413 1.824 2.362.451.938.677 2.044.677 3.317 0 .822-.122 1.575-.365 2.258-.231.683-.556 1.302-.972 1.858-.417.556-.915 1.048-1.494 1.476-.579.429-1.216.793-1.91 1.094l5.366 10.803-.017.208h-3.387zm-5.053-2.64h4.306c.718-.011 1.396-.121 2.032-.33.637-.22 1.199-.532 1.685-.937.475-.406.851-.898 1.129-1.477.278-.59.417-1.267.417-2.031 0-.811-.134-1.517-.4-2.119-.266-.614-.637-1.129-1.111-1.546-.475-.405-1.042-.712-1.702-.92-.649-.209-1.361-.319-2.136-.33h-4.22z" fill="#979799"/><path d="m292.208 295.908h-10.559v8.961h12.313v2.727h-15.525v-25.286h15.369v2.744h-12.157v8.128h10.559z" fill="#979799"/></svg>