<svg fill="none" height="807" viewBox="0 0 820 807" width="820" xmlns="http://www.w3.org/2000/svg" xmlns:xlink="http://www.w3.org/1999/xlink"><clipPath id="a"><path d="m0 0h820v807h-820z"/></clipPath><clipPath id="b"><path d="m674.764-.188477h146.67v220h-146.67z"/></clipPath><clipPath id="c"><path d="m762.703 160.422h44.12v43.55h-44.12z"/></clipPath><clipPath id="d"><path d="m222.682 292.04h146.67v220h-146.67z"/></clipPath><clipPath id="e"><path d="m222.682 586.82h146.67v220h-146.67z"/></clipPath><clipPath id="f"><path d="m235.682 674.905h44.07v43.83h-44.07z"/></clipPath><clipPath id="g"><path d="m-.489258 586.82h146.67v220h-146.67z"/></clipPath><clipPath id="h"><path d="m11.5107 668.82h40v41.68h-40z"/></clipPath><clipPath id="i"><path d="m451.043 586.82h146.67v220h-146.67z"/></clipPath><g clip-path="url(#a)"><path d="m72.8371 292.04v146.663h-73.326358l73.326358 73.337h73.3369v-146.674z" fill="#303033"/><path d="m87.6029 457.923v3.937h-1.6947v-10.282h3.441c.5167 0 .992.083 1.426.227.434.145.806.362 1.1264.641.3203.279.558.61.7337 1.002.1757.393.2686.838.2686 1.334 0 .475-.0826.909-.2686 1.302-.186.392-.4237.713-.7337.992-.3101.279-.6924.485-1.1264.63s-.9093.217-1.426.227h-1.7463zm0-1.374h1.7463c.2893 0 .5477-.042.775-.135.2274-.082.4238-.206.5788-.361s.2789-.341.3719-.558.124-.455.124-.703c0-.269-.0413-.517-.124-.744-.0826-.228-.2066-.424-.3719-.579-.1654-.165-.3514-.289-.5788-.382-.2273-.093-.4857-.135-.775-.145h-1.7463z" fill="#fff"/><path d="m100.189 460.475h4.898v1.385h-6.5929v-10.282h1.6949z" fill="#fff"/><path d="m115.854 459.473h-3.214l-.703 2.387h-1.756l3.337-10.282h1.488l3.276 10.282h-1.746zm-2.78-1.447h2.356l-1.168-4.03z" fill="#fff"/><path d="m130.704 452.973h-3.163v8.887h-1.684v-8.887h-3.141v-1.395h7.977v1.395z" fill="#fff"/><path d="m91.9433 474.839h-4.3194v4.381h-1.705v-10.282h6.6651v1.395h-4.9498v3.111h4.3195v1.395z" fill="#fff"/><path d="m105.304 474.746c0 .61-.083 1.188-.238 1.746s-.392 1.054-.692 1.478c-.31.424-.692.765-1.157 1.013s-1.003.382-1.633.382c-.62 0-1.158-.124-1.6122-.382-.4547-.259-.837-.6-1.1367-1.023-.2996-.424-.5373-.92-.682-1.468-.155-.558-.2273-1.136-.2273-1.746v-1.312c0-.403.031-.796.1033-1.189.0723-.382.1652-.754.2996-1.095.1343-.341.2998-.651.5064-.951.1964-.289.434-.537.7026-.744.2687-.206.5783-.372.9193-.485.341-.114.713-.176 1.127-.176.62 0 1.168.124 1.633.382.465.259.847.6 1.157 1.023.31.424.547.92.702 1.478s.238 1.147.238 1.757v1.312zm-1.705-1.333c0-.382-.042-.775-.104-1.147s-.175-.723-.33-1.023-.362-.537-.62-.734c-.259-.186-.579-.279-.961-.279-.383 0-.703.093-.951.279s-.455.434-.599.734c-.1449.3-.2482.641-.3102 1.023s-.0931.765-.0931 1.147v1.333c0 .382.0414.765.1034 1.147s.1653.723.3099 1.023c.145.3.351.548.599.734s.569.279.951.279.703-.093.961-.279c.259-.186.465-.434.62-.734s.269-.641.331-1.023.093-.765.103-1.147v-1.333z" fill="#fff"/><path d="m114.315 492.571h-1.726v4.01h-1.694v-10.282h3.244c.527 0 1.013.072 1.457.206.445.124.827.321 1.158.579.32.259.578.579.754.961.176.383.269.837.269 1.354 0 .351-.042.661-.135.951-.093.289-.217.547-.382.775-.165.227-.362.434-.589.609-.227.176-.486.321-.765.445l2.181 4.319v.083h-1.809zm-1.715-1.374h1.56c.279 0 .537-.041.775-.124s.434-.196.61-.341c.175-.145.299-.331.403-.548.093-.217.144-.465.144-.733 0-.29-.041-.538-.134-.765s-.217-.403-.382-.558c-.166-.155-.372-.269-.61-.341s-.506-.114-.806-.124h-1.55v3.534z" fill="#fff"/><path d="m125.423 486.299 1.281 4.443 1.416-4.443h2.108v10.282h-1.592v-3.534l.104-4.506-1.581 4.929h-.889l-1.436-4.763.103 4.34v3.534h-1.591v-10.282z" fill="#fff"/><path d="m130.787 479.22h-19.933v-10.282h19.933z" fill="#fff"/><path d="m105.727 496.581h-19.9331v-10.282h19.9331z" fill="#fff"/><path d="m524.373 365.409-73.333-73.333h146.677zm0 73.334 73.344-73.334h-73.333-73.334l73.323 73.334h-73.333l73.333 73.333 73.334-73.333z" fill="#303033"/><path d="m502.495 319.588v-10.23h2.498c.699 0 1.337.124 1.892.35s1.038.555 1.429.966c.391.422.689.915.905 1.491s.319 1.223.319 1.923v.771c0 .699-.114 1.346-.319 1.922-.216.576-.514 1.08-.895 1.491-.39.411-.863.74-1.408.966-.555.226-1.172.34-1.861.34zm1.717-8.873v7.516h.833c.462 0 .874-.082 1.213-.247.349-.164.637-.391.864-.679.236-.298.4-.647.524-1.058.113-.412.175-.874.175-1.378v-.792c0-.493-.062-.946-.175-1.346-.113-.412-.288-.761-.524-1.059-.237-.299-.525-.525-.885-.7-.349-.164-.771-.257-1.244-.257z" fill="#fff"/><path d="m504.181 335.482h4.873v1.378h-6.559v-10.23h1.686z" fill="#fff"/><path d="m521.896 315.126c0 .606-.082 1.182-.236 1.737-.154.556-.391 1.049-.689 1.47-.308.422-.689.761-1.151 1.008-.463.247-.998.38-1.625.38-.617 0-1.151-.123-1.604-.38-.452-.257-.832-.596-1.131-1.018-.298-.421-.534-.915-.678-1.46-.154-.555-.226-1.131-.226-1.737v-1.306c0-.401.031-.791.103-1.182.071-.38.164-.751.298-1.09.133-.339.298-.648.503-.946.196-.288.432-.534.699-.74.268-.206.576-.37.915-.483.34-.113.71-.175 1.121-.175.617 0 1.162.123 1.625.38.462.258.843.597 1.151 1.018.308.422.545.915.699 1.47.154.556.236 1.142.236 1.748zm-1.696-1.316c0-.38-.041-.771-.103-1.141-.062-.381-.175-.72-.329-1.018s-.36-.535-.617-.73c-.257-.185-.575-.278-.956-.278-.38 0-.699.093-.946.278-.246.185-.452.432-.596.73s-.247.637-.308 1.018c-.062.38-.093.761-.093 1.141v1.326c0 .381.041.761.103 1.141.061.381.164.72.308 1.018s.35.545.597.73c.246.185.565.278.945.278.381 0 .7-.093.957-.278s.462-.432.616-.73c.155-.298.268-.637.329-1.018.062-.38.093-.76.103-1.141v-1.326z" fill="#fff"/><path d="m521.896 332.398c0 .606-.082 1.182-.236 1.737s-.381 1.049-.689 1.47c-.308.422-.689.761-1.151 1.008-.463.247-.998.38-1.625.38-.617 0-1.151-.123-1.604-.38-.452-.257-.832-.596-1.131-1.018-.298-.421-.534-.915-.678-1.46-.154-.555-.226-1.131-.226-1.737v-1.306c0-.401.031-.791.103-1.182.071-.381.164-.751.298-1.09.133-.339.298-.648.503-.946.196-.288.432-.534.699-.74.268-.206.576-.37.915-.483.34-.113.71-.175 1.121-.175.617 0 1.162.123 1.625.38.462.257.843.597 1.151 1.018.308.422.545.915.699 1.47.154.556.236 1.142.236 1.748v1.306zm-1.696-1.316c0-.38-.041-.771-.103-1.141s-.175-.72-.329-1.018-.36-.535-.617-.73c-.257-.185-.575-.278-.956-.278-.38 0-.699.093-.946.278-.246.185-.452.432-.596.73s-.247.637-.308 1.018c-.062.38-.093.761-.093 1.141v1.326c0 .381.041.761.103 1.141.061.381.164.72.308 1.018s.35.545.597.73c.246.185.565.278.945.278.381 0 .7-.093.957-.278s.462-.432.616-.73c.155-.298.268-.637.329-1.018.062-.38.093-.76.103-1.141v-1.326z" fill="#fff"/><path d="m532.844 316.061.73-6.713h1.573l-1.306 10.229h-1.614l-1.12-6.806-1.1 6.806h-1.614l-1.306-10.229h1.573l.73 6.672 1.048-6.672h1.327z" fill="#fff"/><path d="m532.762 334.474h-3.197l-.699 2.375h-1.748l3.321-10.23h1.48l3.259 10.23h-1.737zm-2.776-1.44h2.345l-1.162-4.009z" fill="#fff"/><path d="m547.228 319.588h-1.697l-3.331-7.043-.01 7.043h-1.707v-10.23h1.707l3.321 7.022.01-7.022h1.707z" fill="#fff"/><path d="m540.524 336.859v-10.229h2.499c.699 0 1.336.123 1.891.349.556.227 1.039.556 1.429.967.391.421.689.915.905 1.491.216.575.319 1.223.319 1.922v.771c0 .699-.113 1.347-.319 1.923-.216.575-.514 1.079-.894 1.49-.391.412-.864.741-1.409.967s-1.172.339-1.861.339zm1.717-8.872v7.515h.833c.463 0 .874-.082 1.213-.246.35-.165.638-.391.864-.679.236-.298.401-.648.524-1.059.113-.411.175-.874.175-1.378v-.791c0-.494-.062-.946-.175-1.347-.113-.411-.288-.761-.524-1.059-.237-.298-.525-.524-.884-.699-.35-.165-.771-.257-1.244-.257z" fill="#fff"/><path d="m502.495 292.076h45.082v10.23h-45.082z" fill="#fff"/><path d="m502.495 319.516v-10.23h2.498c.699 0 1.337.124 1.892.35s1.038.555 1.429.966c.391.422.689.915.905 1.491s.319 1.223.319 1.922v.771c0 .699-.114 1.347-.319 1.923-.216.576-.514 1.079-.895 1.491-.39.411-.863.74-1.408.966-.555.226-1.172.339-1.861.339zm1.717-8.873v7.516h.833c.462 0 .874-.083 1.213-.247.349-.165.637-.391.864-.679.236-.298.4-.647.524-1.059.113-.411.175-.874.175-1.377v-.792c0-.493-.062-.946-.175-1.347-.113-.411-.288-.761-.524-1.059-.237-.298-.525-.524-.885-.699-.349-.164-.771-.257-1.244-.257z" fill="#fff"/><path d="m504.181 335.41h4.873v1.378h-6.559v-10.23h1.686z" fill="#fff"/><path d="m521.896 315.054c0 .606-.082 1.182-.236 1.737s-.391 1.049-.689 1.47c-.308.422-.689.761-1.151 1.008-.463.246-.998.38-1.625.38-.617 0-1.151-.123-1.604-.38-.452-.257-.832-.597-1.131-1.018-.298-.422-.534-.915-.678-1.46-.154-.555-.226-1.131-.226-1.737v-1.306c0-.401.031-.792.103-1.182.071-.381.164-.751.298-1.09.133-.339.298-.648.503-.946.196-.288.432-.535.699-.74.268-.206.576-.37.915-.483.34-.113.71-.175 1.121-.175.617 0 1.162.123 1.625.38.462.257.843.597 1.151 1.018.308.422.545.915.699 1.47s.236 1.141.236 1.748zm-1.696-1.316c0-.381-.041-.771-.103-1.142-.062-.38-.175-.719-.329-1.017s-.36-.535-.617-.73c-.257-.185-.575-.278-.956-.278-.38 0-.699.093-.946.278-.246.185-.452.432-.596.73s-.247.637-.308 1.017c-.062.381-.093.761-.093 1.142v1.326c0 .38.041.761.103 1.141.061.38.164.72.308 1.018s.35.545.597.73c.246.185.565.277.945.277.381 0 .7-.092.957-.277s.462-.432.616-.73c.155-.298.268-.638.329-1.018.062-.38.093-.761.103-1.141v-1.326z" fill="#fff"/><path d="m521.896 332.326c0 .606-.082 1.182-.236 1.737s-.381 1.049-.689 1.47c-.308.422-.689.761-1.151 1.008-.463.246-.998.38-1.625.38-.617 0-1.151-.123-1.604-.38-.452-.257-.832-.597-1.131-1.018-.298-.422-.534-.915-.678-1.46-.154-.555-.226-1.131-.226-1.737v-1.306c0-.401.031-.792.103-1.182.071-.381.164-.751.298-1.09.133-.339.298-.648.503-.946.196-.288.432-.535.699-.74.268-.206.576-.37.915-.483.34-.114.71-.175 1.121-.175.617 0 1.162.123 1.625.38.462.257.843.596 1.151 1.018s.545.915.699 1.47.236 1.141.236 1.748v1.306zm-1.696-1.316c0-.381-.041-.771-.103-1.142-.062-.37-.175-.719-.329-1.017s-.36-.535-.617-.73c-.257-.185-.575-.278-.956-.278-.38 0-.699.093-.946.278-.246.185-.452.432-.596.73s-.247.637-.308 1.017c-.062.381-.093.761-.093 1.142v1.326c0 .38.041.761.103 1.141.061.38.164.72.308 1.018s.35.545.597.73c.246.185.565.277.945.277.381 0 .7-.092.957-.277s.462-.432.616-.73c.155-.298.268-.638.329-1.018.062-.38.093-.761.103-1.141v-1.326z" fill="#fff"/><path d="m532.844 315.989.73-6.714h1.573l-1.306 10.23h-1.614l-1.12-6.806-1.1 6.806h-1.614l-1.306-10.23h1.573l.73 6.673 1.048-6.673h1.327z" fill="#fff"/><path d="m532.762 334.401h-3.197l-.699 2.375h-1.748l3.321-10.229h1.48l3.259 10.229h-1.737zm-2.776-1.439h2.345l-1.162-4.009z" fill="#fff"/><path d="m547.228 319.516h-1.697l-3.331-7.043-.01 7.043h-1.707v-10.23h1.707l3.321 7.022.01-7.022h1.707z" fill="#fff"/><path d="m540.524 336.787v-10.229h2.499c.699 0 1.336.123 1.891.349.556.226 1.039.555 1.429.967.391.421.689.915.905 1.49.216.576.319 1.224.319 1.923v.771c0 .699-.113 1.347-.319 1.922-.216.576-.514 1.08-.894 1.491-.391.411-.864.74-1.409.967-.545.226-1.172.339-1.861.339zm1.717-8.872v7.515h.833c.463 0 .874-.082 1.213-.247.35-.164.638-.39.864-.678.236-.298.401-.648.524-1.059.113-.411.175-.874.175-1.378v-.791c0-.494-.062-.946-.175-1.347-.113-.411-.288-.761-.524-1.059-.237-.298-.525-.525-.884-.699-.35-.165-.771-.257-1.244-.257z" fill="#fff"/><path d="m502.495 292.004h45.082v10.229h-45.082z" fill="#fff"/><g fill="#303033"><path d="m296.018-.188477 73.336 73.326377v-73.326377z"/><path d="m222.68 73.1379 73.336-73.326377h-73.336z"/><path d="m296.016 146.475-73.336-73.3368v73.3368l73.336 73.337 73.337-73.337v-73.3368z"/><path d="m280.568 94.2598h-6.923v-10.2818h6.923z"/><path d="m318.647 76.8995h-6.923v-10.2818h6.923z"/><path d="m280.609 55.2094c0 .6097-.082 1.1884-.237 1.7464s-.393 1.054-.692 1.4777c-.31.4236-.693.7646-1.158 1.0126s-1.002.3824-1.633.3824c-.62 0-1.157-.124-1.612-.3824-.454-.2583-.837-.5993-1.136-1.023-.3-.4237-.538-.9197-.682-1.4673-.155-.558-.228-1.1367-.228-1.7464v-1.3123c0-.4031.031-.7957.104-1.1884.072-.3823.165-.7543.299-1.0953.135-.341.3-.6511.507-.9507.196-.2894.434-.5374.702-.744.269-.2067.579-.372.92-.4857s.713-.1757 1.126-.1757c.62 0 1.168.124 1.633.3824.465.2583.848.5993 1.158 1.023.31.4236.547.9197.702 1.4777s.238 1.147.238 1.7567v1.3123zm-1.704-1.3227c0-.3823-.042-.775-.104-1.147s-.176-.7233-.331-1.023-.361-.5374-.62-.7337c-.258-.186-.578-.279-.961-.279-.382 0-.702.093-.95.279s-.455.434-.6.7337c-.144.2997-.248.6407-.31 1.023s-.093.7647-.093 1.147v1.333c0 .3824.042.7647.104 1.1471.062.3823.165.7233.31 1.023.144.2996.351.5476.599.7336.248.1861.568.2791.951.2791.382 0 .702-.093.961-.2791.258-.186.465-.434.62-.7336.155-.2997.268-.6407.33-1.023.062-.3824.094-.7647.104-1.1471v-1.333z"/><path d="m292.834 59.6939h-1.706l-3.348-7.0784-.01 7.0784h-1.715v-10.2818h1.715l3.338 7.0578.01-7.0578h1.716z"/><path d="m304.748 55.0754h-4.227v3.2241h4.95v1.3847h-6.655v-10.2819h6.604v1.3951h-4.899v2.9037h4.227z"/><path d="m310.846 57.0591c0-.3203.041-.5993.134-.868.093-.2583.217-.5064.382-.7337.166-.2273.362-.4443.589-.6407.228-.1963.486-.403.775-.5993-.299-.4237-.527-.8267-.692-1.1987s-.248-.7647-.248-1.1677c0-.4133.062-.775.186-1.0953.124-.3204.3-.589.537-.8164.238-.2273.517-.3926.848-.5063.33-.1137.692-.1757 1.105-.1757.352 0 .662.062.951.186s.527.2894.723.5064c.197.2066.352.4546.466.7336.113.279.165.5684.165.8784 0 .248-.042.4753-.114.682s-.175.403-.31.589c-.134.186-.289.3617-.465.5167-.176.1653-.372.3203-.579.4753l-.599.5064 1.912 2.4903c.155-.279.269-.589.362-.93.082-.3307.134-.6923.134-1.0747h1.477c0 .6304-.082 1.2091-.258 1.7464s-.434 1.0127-.785 1.4467l1.302 1.6947h-1.974l-.496-.651c-.351.2583-.734.4546-1.126.589-.403.1343-.837.2066-1.302.2066-.476 0-.899-.0723-1.282-.2066-.382-.1344-.702-.3307-.971-.5787s-.475-.5373-.61-.8784c-.134-.341-.237-.7233-.237-1.1263zm3.11 1.426c.279 0 .558-.0413.827-.1343.268-.093.527-.217.764-.3824l-2.035-2.6867-.114.093c-.196.1654-.351.3307-.465.4857s-.207.31-.258.4444c-.062.1446-.093.2686-.114.3926s-.031.217-.031.2997c0 .2067.031.403.093.5787.062.186.155.341.279.4753s.269.2377.444.3204c.176.0826.383.1136.61.1136zm-.589-6.6547c0 .2273.052.465.145.7026.093.2377.238.496.413.7647l.723-.5683c.145-.1034.259-.1964.341-.2997.083-.1033.145-.1963.176-.2997.031-.1033.062-.1963.072-.2893.011-.093.011-.1757.011-.248 0-.124-.021-.248-.052-.3617-.041-.124-.093-.2273-.165-.3203-.073-.093-.155-.1654-.259-.217-.103-.0517-.216-.0827-.34-.0827-.176 0-.331.031-.466.1033-.134.0724-.248.155-.341.2687s-.155.2377-.196.3824c-.041.1446-.062.2996-.062.465z"/><path d="m280.537 75.7626c-.176.2067-.383.3927-.61.5684s-.496.3203-.796.4547c-.299.1343-.609.2273-.95.2996-.341.0724-.703.1034-1.096.1034-.62 0-1.167-.124-1.643-.3617-.475-.2377-.878-.5683-1.209-.9817-.33-.4133-.578-.9093-.744-1.4673-.175-.5684-.258-1.1677-.268-1.8187v-1.2711c0-.651.082-1.2606.258-1.8186s.413-1.0541.734-1.4777c.32-.4237.702-.7544 1.167-.992.465-.2377.992-.3617 1.581-.3617.527 0 1.013.0723 1.426.217.414.1447.775.3513 1.085.6303.3.279.538.6097.713 1.0024.176.3926.29.837.331 1.333h-1.664c-.041-.279-.103-.527-.196-.744s-.207-.4133-.362-.5684c-.155-.155-.33-.279-.547-.3513-.217-.0827-.465-.124-.765-.124-.362 0-.661.0827-.92.2687-.258.1756-.475.4133-.64.713-.166.2997-.3.6407-.372 1.0437-.083.3926-.124.806-.124 1.2296v1.2814c0 .434.051.837.134 1.2297s.217.7337.393 1.0333c.175.2997.403.5374.682.713.279.1757.609.2687 1.002.279.165 0 .32-.0103.496-.031.165-.0206.331-.0516.486-.1033s.289-.1033.423-.1757c.124-.0723.228-.1653.31-.2686l.011-2.0564h-1.86v-1.3433h3.513z"/><path d="m289.63 73.0346h-1.725v4.0094h-1.695v-10.2818h3.245c.527 0 1.012.0723 1.457.2067.444.124.826.3203 1.157.5787.32.2583.579.5786.754.961.176.3823.269.837.269 1.3537 0 .3513-.041.6613-.134.9506-.093.2894-.217.5477-.383.775-.165.2274-.361.4341-.589.6097-.227.1757-.485.3204-.764.4444l2.18 4.3194v.0826h-1.808zm-1.725-1.364h1.56c.279 0 .537-.0413.775-.124s.434-.1963.61-.341c.175-.1447.299-.3307.403-.5477.093-.217.144-.465.144-.7337 0-.2893-.041-.5373-.134-.7646-.093-.2274-.217-.403-.382-.558-.166-.155-.372-.2687-.61-.341-.238-.0724-.506-.1137-.806-.124h-1.55v3.534z"/><path d="m305.699 72.5698c0 .6096-.082 1.1883-.237 1.7463s-.393 1.054-.693 1.4777c-.31.4237-.692.7647-1.157 1.0127s-1.002.3823-1.633.3823c-.62 0-1.157-.124-1.612-.3823-.454-.2583-.837-.5994-1.136-1.023-.3-.4237-.538-.9197-.682-1.4674-.155-.558-.228-1.1367-.228-1.7463v-1.3124c0-.403.031-.7957.104-1.1883.072-.3824.165-.7544.299-1.0954.135-.341.3-.651.507-.9507.196-.2893.434-.5373.702-.744.269-.2067.579-.372.92-.4857.341-.1136.713-.1756 1.126-.1756.62 0 1.168.124 1.633.3823.465.2584.847.5994 1.157 1.023.31.4237.548.9197.703 1.4777s.238 1.147.238 1.7567v1.3124zm-1.705-1.3227c0-.3824-.041-.775-.103-1.147s-.176-.7234-.331-1.0231c-.155-.2996-.361-.5373-.62-.7336-.258-.186-.578-.279-.961-.279-.382 0-.702.093-.95.279s-.455.434-.6.7336c-.144.2997-.248.6407-.31 1.0231-.062.3823-.093.7646-.093 1.147v1.333c0 .3823.042.7647.104 1.147s.165.7234.31 1.023c.144.2997.351.5477.599.7337s.568.279.951.279c.382 0 .702-.093.961-.279.258-.186.465-.434.62-.7337.155-.2996.268-.6407.33-1.023s.093-.7647.104-1.147v-1.333z"/><path d="m292.875 84.1226.011 6.8924c0 .527-.093 1.0127-.259 1.4467-.165.434-.392.806-.692 1.116s-.651.5477-1.075.7233c-.423.1654-.899.2584-1.415.2584-.507 0-.972-.0827-1.385-.2584-.413-.1756-.775-.4133-1.064-.713-.3-.31-.527-.682-.693-1.116-.165-.434-.248-.9197-.258-1.457l.01-6.8924h1.664l.01 6.8924c0 .3203.042.6097.124.868.083.2583.186.4857.321.682.144.186.32.341.527.4443.206.1034.454.1551.733.1551s.527-.0517.744-.1551c.217-.1033.393-.2583.548-.4443.145-.1963.258-.4237.331-.682.072-.2583.113-.558.124-.868l.01-6.8924z"/><path d="m300.552 90.4673v3.9371h-1.695v-10.2818h3.442c.516 0 .991.0826 1.425.2273s.807.3617 1.127.6407.558.6096.734 1.0023c.175.3927.268.837.268 1.333 0 .4754-.082.9094-.268 1.302-.186.3927-.424.7131-.734.9921s-.693.4856-1.127.6303-.909.217-1.425.2273h-1.747zm0-1.3743h1.747c.289 0 .547-.0414.775-.1344.227-.0826.423-.2066.578-.3617.155-.155.279-.341.372-.558s.124-.4546.124-.7026c0-.2687-.041-.5167-.124-.744-.083-.2274-.206-.4237-.372-.5787-.165-.1654-.351-.2894-.578-.3824-.228-.093-.486-.1343-.775-.1446h-1.747z"/><path d="m316.611 91.7591c0-.248-.052-.465-.155-.6511-.103-.186-.248-.3513-.434-.4856-.186-.1447-.403-.2687-.661-.372-.259-.1034-.538-.2067-.837-.2894-.403-.1136-.806-.2583-1.199-.434-.393-.1756-.744-.3926-1.054-.6407-.31-.248-.558-.5476-.744-.8783-.186-.341-.289-.7233-.289-1.1677 0-.4443.093-.837.289-1.1883.186-.3514.444-.651.765-.899.32-.248.692-.434 1.116-.5684.423-.1343.868-.1963 1.333-.1963.496 0 .961.0723 1.384.2273.434.155.806.372 1.127.6407.32.279.578.6097.764.992s.29.806.29 1.271h-1.695c-.021-.2583-.083-.496-.165-.713-.083-.217-.207-.403-.372-.558-.155-.155-.352-.279-.579-.3617-.227-.0826-.486-.124-.785-.124-.259 0-.486.031-.703.1034-.217.0723-.403.1653-.558.2893s-.279.279-.372.4547-.134.3823-.134.6097c0 .2376.062.4443.186.6303.124.1757.279.3307.475.465s.424.248.682.341.527.186.806.2687c.434.124.837.279 1.23.4753.392.186.733.4134 1.033.6717s.527.5683.703.9093c.176.3411.258.7337.258 1.1781 0 .4546-.093.8576-.289 1.209-.197.3513-.455.6407-.775.8783-.321.2377-.703.4134-1.127.5374-.434.124-.878.1756-1.343.1756-.32 0-.63-.031-.94-.093s-.61-.155-.889-.279c-.289-.124-.548-.279-.796-.4546-.248-.186-.454-.3927-.64-.6304s-.321-.5063-.424-.7957c-.103-.2996-.155-.62-.165-.9713h1.705c.02.31.093.5787.206.8163.114.2377.259.4237.455.5787.186.155.413.2687.661.3513.248.0724.527.1137.837.1137.259 0 .496-.031.713-.093s.414-.155.579-.2687c.165-.124.3-.2686.393-.4443.082-.2067.134-.403.134-.6303z"/><path d="m524.373-.188477-73.326 73.326377 73.326 73.3371v-73.3371h73.337z"/><path d="m524.373 219.811v-73.336h-73.326z"/><path d="m548.481 167.07c0-.248-.051-.465-.155-.651-.103-.186-.248-.352-.434-.486-.186-.145-.403-.269-.661-.372-.259-.103-.537-.207-.837-.289-.403-.114-.806-.259-1.199-.434-.393-.176-.744-.393-1.054-.641s-.558-.548-.744-.878c-.186-.341-.289-.724-.289-1.168s.093-.837.289-1.188c.186-.352.444-.651.765-.899.32-.248.692-.434 1.116-.569.423-.134.868-.196 1.333-.196.496 0 .961.072 1.384.227.435.155.807.372 1.127.641.32.279.579.61.765.992s.289.806.289 1.271h-1.695c-.02-.258-.082-.496-.165-.713s-.207-.403-.372-.558c-.155-.155-.351-.279-.579-.362-.227-.082-.486-.124-.785-.124-.259 0-.486.031-.703.104-.217.072-.403.165-.558.289s-.279.279-.372.455c-.093.175-.134.382-.134.609 0 .238.062.445.186.631.124.175.279.33.475.465.197.134.424.248.682.341.259.093.527.186.806.268.434.124.837.279 1.23.476.393.186.734.413 1.033.671.3.259.527.569.703.91s.258.733.258 1.178c0 .454-.093.857-.289 1.209-.196.351-.455.64-.775.878s-.703.413-1.127.537c-.434.124-.878.176-1.343.176-.32 0-.63-.031-.94-.093s-.61-.155-.889-.279c-.289-.124-.548-.279-.796-.455-.248-.186-.454-.392-.64-.63s-.321-.506-.424-.796c-.103-.299-.155-.62-.165-.971h1.705c.02.31.093.579.207.816.113.238.258.424.454.579.186.155.413.269.661.351.248.073.528.114.838.114.258 0 .496-.031.713-.093s.413-.155.578-.269c.166-.124.3-.268.393-.444.083-.207.134-.403.134-.63z"/><path d="m561.708 165.106h-4.227v3.224h4.95v1.385h-6.655v-10.282h6.603v1.395h-4.898v2.904h4.227z"/><path d="m570.233 159.433 1.282 4.444 1.415-4.444h2.108v10.282h-1.591v-3.534l.103-4.506-1.581 4.93h-.888l-1.437-4.764.104 4.34v3.534h-1.592v-10.282z"/><path d="m585.754 184.688h-3.214l-.702 2.387h-1.757l3.338-10.282h1.488l3.275 10.282h-1.746zm-2.78-1.446h2.356l-1.167-4.031z"/><path d="m544.957 200.498v3.937h-1.694v-10.282h3.441c.516 0 .992.083 1.426.228.434.144.806.361 1.126.64.321.279.558.61.734 1.003.175.392.268.837.268 1.333 0 .475-.082.909-.268 1.302-.186.392-.424.713-.734.992s-.692.485-1.126.63-.91.217-1.426.227h-1.747zm0-1.374h1.747c.289 0 .547-.042.775-.135.227-.082.423-.206.578-.361s.279-.341.372-.558.124-.455.124-.703c0-.269-.041-.517-.124-.744-.082-.227-.206-.424-.372-.579-.165-.165-.351-.289-.578-.382-.228-.093-.486-.134-.775-.145h-1.747z"/><path d="m562.349 204.435h-1.654v-4.588h-3.492v4.588h-1.643v-10.282h1.643v4.299h3.492v-4.299h1.654z"/><path d="m575.203 199.961c0 .61-.082 1.188-.237 1.746s-.393 1.054-.693 1.478c-.31.424-.692.765-1.157 1.013s-1.002.382-1.633.382c-.62 0-1.157-.124-1.612-.382-.454-.259-.837-.6-1.136-1.023-.3-.424-.538-.92-.682-1.468-.156-.558-.228-1.136-.228-1.746v-1.312c0-.403.031-.796.104-1.189.072-.382.165-.754.299-1.095.135-.341.3-.651.507-.951.196-.289.433-.537.702-.744s.579-.372.92-.486c.341-.113.713-.175 1.126-.175.62 0 1.168.124 1.633.382s.847.599 1.157 1.023.548.92.703 1.478.238 1.147.238 1.757v1.312zm-1.705-1.333c0-.382-.041-.775-.103-1.147s-.176-.724-.331-1.023c-.155-.3-.361-.538-.62-.734-.258-.186-.578-.279-.961-.279-.382 0-.702.093-.95.279s-.455.434-.6.734c-.144.299-.248.641-.31 1.023s-.093.765-.093 1.147v1.333c0 .382.042.765.104 1.147s.165.723.31 1.023c.144.3.351.548.599.734s.568.279.951.279c.382 0 .702-.093.961-.279.258-.186.465-.434.62-.734s.268-.641.33-1.023.093-.765.104-1.147v-1.333z"/><path d="m584.215 200.426h-1.725v4.009h-1.695v-10.282h3.245c.527 0 1.012.073 1.457.207.444.124.826.32 1.157.579.32.258.579.578.754.961.176.382.269.837.269 1.353 0 .352-.041.662-.134.951s-.217.548-.383.775c-.165.227-.361.434-.589.61-.227.175-.485.32-.764.444l2.18 4.319v.083h-1.808zm-1.715-1.375h1.56c.279 0 .538-.041.775-.124.238-.082.434-.196.61-.341.176-.144.3-.33.403-.547.093-.217.145-.465.145-.734 0-.289-.042-.537-.135-.765-.093-.227-.217-.403-.382-.558s-.372-.268-.61-.341c-.237-.072-.506-.113-.806-.124h-1.55v3.534z"/><path d="m575.069 186.941h-31.93v-10.282h31.93z"/><path d="m588.141 169.581h-6.923v-10.282h6.923z"/><path d="m72.8475 73.138 73.3265-73.326477h-146.663258v146.663477l73.336758 73.337 73.3265-73.337h-73.3265l73.3265-73.337z"/></g><path d="m45.7323 57.9273h-31.9305v-10.2818h31.9305z" fill="#fff"/><path d="m32.3728 18.7322h-4.2263v3.224h4.9497v1.3847h-6.6548v-10.2818h6.6031v1.395h-4.898v2.9037h4.2263z" fill="#fff"/><path d="m45.5473 23.3512h-1.7051l-3.348-7.0785-.0104 7.0785h-1.7152v-10.2819h1.7152l3.3378 7.0578.0104-7.0578h1.7153z" fill="#fff"/><path d="m58.3823 20.1892c-.0517.4961-.1653.9507-.3514 1.3537-.186.403-.4341.7544-.7441 1.0437-.31.2894-.6819.5167-1.0952.6717-.4237.155-.8887.2377-1.4054.2377-.6303 0-1.1678-.124-1.6431-.3617-.465-.2377-.8577-.5683-1.1677-.9817-.31-.4133-.5476-.899-.7026-1.457s-.2376-1.147-.2376-1.7774v-1.4053c0-.6304.0826-1.2194.2479-1.7774.1654-.558.3927-1.0437.713-1.457.31-.4133.7027-.744 1.1677-.992s1.0127-.3617 1.6224-.3617c.5374 0 1.0231.0827 1.4467.2377.4237.155.7853.3823 1.085.682.2996.2997.5374.651.7234 1.0643.186.4134.2996.8887.341 1.3951h-1.6948c-.031-.2997-.0827-.5787-.1757-.8267-.0826-.248-.2066-.4547-.3616-.6407-.155-.1757-.3409-.31-.5683-.403-.2273-.093-.496-.1447-.806-.1447-.3824 0-.7028.0827-.9611.2584-.2583.1756-.465.4133-.6303.7026-.1654.2894-.279.6304-.341 1.0231-.0723.3823-.1033.7956-.1033 1.2193v1.4157c0 .4443.031.8577.1033 1.2503.0724.3927.1756.7337.3306 1.0231.155.2893.3617.527.62.6923.2584.1653.5788.2583.9714.2583.589 0 1.0436-.1653 1.3537-.5063.31-.341.496-.8163.5477-1.426h1.7154z" fill="#fff"/><path d="m17.2543 36.6919h-1.7256v4.0094h-1.6947v-10.2819h3.2447c.527 0 1.0126.0724 1.4569.2067.4444.124.8267.3203 1.1574.5787.3203.2583.5788.5787.7544.961.1757.3823.2686.837.2686 1.3537 0 .3513-.0412.6613-.1342.9507-.093.2893-.2171.5476-.3825.775-.1653.2273-.3616.434-.5889.6097-.2274.1756-.4857.3203-.7647.4443l2.1804 4.3194v.0827h-1.8084zm-1.7256-1.3641h1.5604c.279 0 .5373-.0413.775-.124.2376-.0826.4339-.1963.6096-.341.1757-.1446.2997-.3306.403-.5476.093-.217.1447-.465.1447-.7337 0-.2894-.0413-.5374-.1343-.7647s-.217-.403-.3824-.558c-.1653-.155-.3721-.2687-.6097-.341-.2377-.0723-.5063-.1137-.8059-.124h-1.5501v3.534z" fill="#fff"/><path d="m29.6447 35.3382 2.1391-4.9188h1.891l-3.2033 6.5928-.0104 3.6994h-1.643l-.0103-3.7407-3.1828-6.5515h1.8911z" fill="#fff"/><path d="m40.7123 36.7642v3.9371h-1.6947v-10.2819h3.441c.5167 0 .992.0827 1.426.2274.434.1446.806.3616 1.1263.6406.3204.2791.5581.6097.7338 1.0024s.2687.837.2687 1.333c0 .4754-.0827.9094-.2687 1.302-.186.3927-.4238.713-.7338.9921-.31.279-.6923.4856-1.1263.6303s-.9093.217-1.426.2273h-1.7463zm0-1.364h1.7463c.2893 0 .5477-.0414.775-.1344.2273-.0826.4237-.2066.5787-.3616s.279-.341.372-.558.124-.4547.124-.7027c0-.2687-.0413-.5167-.124-.744-.0826-.2274-.2066-.4237-.372-.5787-.1653-.1653-.3514-.2893-.5787-.3823s-.4857-.1344-.775-.1447h-1.7463z" fill="#fff"/><path d="m58.7231 31.8247h-3.162v8.8868h-1.6843v-8.8868h-3.1414v-1.395h7.9774v1.395z" fill="#fff"/><path d="m54.8892 54.0522h-1.7257v4.0094h-1.6947v-10.2818h3.2447c.527 0 1.0127.0723 1.457.2067.4444.124.8267.3203 1.1574.5786.3203.2584.5786.5787.7543.961.1757.3824.2687.8371.2687 1.3537 0 .3514-.0413.6614-.1344.9507-.093.2893-.2169.5477-.3823.775-.1653.2274-.3616.434-.5889.6097-.2274.1757-.4857.3203-.7647.4443l2.1803 4.3194v.0827h-1.8083zm-1.7257-1.364h1.5603c.279 0 .5374-.0413.775-.124.2377-.0827.434-.1963.6097-.341.1756-.1447.2997-.3307.403-.5477.093-.217.1447-.465.1447-.7337 0-.2893-.0414-.5373-.1344-.7646-.093-.2274-.217-.4031-.3823-.5581s-.372-.2686-.6096-.341c-.2377-.0723-.5064-.1136-.8061-.124h-1.55v3.5341z" fill="#fff"/><path d="m20.7359 23.1964h-6.9234v-10.2818h6.9234z" fill="#fff"/><path d="m748.093 365.377h-73.326v73.327l73.326 73.336h73.337v-73.336z" fill="#303033"/><path d="m674.767 292.04 73.326 73.337 73.337-73.337z" fill="#303033"/><path d="m806.106 479.868h-6.508v-10.023h6.508zm-40.648-21.175h-1.682v3.909h-1.652v-10.024h3.163c.514 0 .987.071 1.42.202.434.121.806.312 1.129.564.312.252.564.564.735.937.171.383.262.816.262 1.32 0 .342-.04.644-.131.926s-.212.534-.373.756c-.161.221-.352.423-.574.594s-.473.312-.745.433l2.125 4.211v.081h-1.763zm-1.672-1.34h1.521c.272 0 .524-.04.756-.121.231-.08.423-.191.594-.332s.292-.322.393-.534c.101-.211.141-.453.141-.715 0-.282-.04-.524-.131-.746-.091-.211-.212-.392-.373-.544-.161-.151-.362-.261-.594-.332-.232-.07-.494-.121-.786-.121h-1.511v3.445zm16.128.746h-4.12v3.143h4.825v1.35h-6.487v-10.024h6.437v1.36h-4.775v2.831h4.12zm8.865 3.153h4.775v1.35h-6.427v-10.024h1.652zm16.601-3.153h-4.12v3.143h4.826v1.35h-6.488v-10.024h6.437v1.36h-4.775v2.831h4.12zm-38.421 19.1h-3.133l-.685 2.327h-1.712l3.254-10.024h1.45l3.194 10.024h-1.703zm-2.71-1.411h2.297l-1.138-3.928zm15 1.149c0-.242-.05-.454-.151-.635s-.242-.342-.423-.473c-.181-.141-.393-.262-.645-.363s-.524-.202-.816-.282c-.393-.111-.786-.252-1.168-.423-.383-.171-.726-.383-1.028-.625s-.544-.534-.725-.856-.282-.705-.282-1.138c0-.434.09-.816.282-1.159.191-.342.433-.635.745-.876.313-.242.675-.423 1.088-.554s.846-.192 1.3-.192c.483 0 .937.071 1.35.222s.785.363 1.098.624c.312.272.564.595.745.968.181.372.282.785.282 1.239h-1.652c-.02-.252-.08-.484-.161-.695-.081-.212-.202-.383-.363-.544-.151-.152-.342-.272-.564-.353-.221-.081-.473-.121-.765-.121-.252 0-.474.03-.685.101-.212.06-.393.161-.544.282-.152.121-.272.272-.363.443s-.131.373-.131.594c0 .232.06.434.181.615.121.171.272.322.464.453.191.131.413.242.665.333.251.09.513.181.785.262.423.12.816.282 1.199.463s.715.403 1.007.655c.293.252.514.554.685.886.172.333.252.716.252 1.149 0 .443-.09.836-.282 1.178-.191.343-.443.625-.755.857-.313.231-.685.403-1.098.523-.423.121-.857.182-1.31.182-.312 0-.614-.03-.917-.091-.302-.06-.594-.151-.866-.272-.282-.121-.534-.272-.776-.443-.241-.171-.443-.383-.624-.615-.182-.231-.312-.493-.413-.775s-.151-.605-.161-.947h1.662c.02.302.09.564.201.796.111.221.252.413.443.564.182.151.403.262.645.342.242.071.514.111.816.111.252 0 .484-.03.695-.091.212-.06.403-.151.564-.262.162-.12.293-.261.383-.433.081-.201.131-.403.131-.624zm13.59-1.914h-4.121v3.143h4.826v1.35h-6.488v-10.024h6.437v1.36h-4.775v2.831h4.121zm-24.248 21.426h-1.662l-3.264-6.9-.01 6.9h-1.672v-10.023h1.672l3.254 6.88.01-6.88h1.672zm12.25-4.372c0 .595-.081 1.159-.232 1.703s-.383 1.027-.675 1.44c-.302.414-.675.746-1.128.988-.453.241-.977.372-1.592.372-.604 0-1.128-.12-1.571-.372s-.816-.585-1.108-.998c-.293-.413-.524-.896-.665-1.44-.151-.544-.222-1.108-.222-1.703v-1.279c0-.393.03-.786.101-1.158.07-.383.161-.736.292-1.068.131-.333.292-.635.494-.927.191-.282.423-.524.685-.725.262-.202.564-.363.896-.474.333-.111.695-.171 1.098-.171.605 0 1.139.121 1.592.373s.826.574 1.128.997c.302.413.534.897.685 1.441s.232 1.118.232 1.712v1.289zm-1.662-1.289c0-.383-.041-.755-.101-1.128-.061-.373-.171-.705-.322-.997-.152-.293-.353-.534-.605-.716-.252-.181-.564-.272-.937-.272-.372 0-.685.091-.927.272-.241.182-.443.423-.584.716-.141.292-.242.624-.302.997s-.091.745-.091 1.118v1.299c0 .373.041.746.101 1.119.06.372.161.705.302.997s.343.534.585.715c.241.182.554.272.926.272.373 0 .685-.09.937-.272.252-.181.453-.423.605-.715.151-.292.262-.625.322-.997.06-.373.091-.746.101-1.119v-1.289zm14.889-3.002h-3.083v8.663h-1.642v-8.663h-3.062v-1.36h7.777v1.36zm11.312 4.161h-4.12v3.143h4.826v1.349h-6.488v-10.023h6.437v1.36h-4.775v2.831h4.12z" fill="#fff"/><path d="m748.094 586.82h-73.33v73.33 73.33h73.33v73.34l36.67-36.67 36.67-36.67v-73.33-73.33z" fill="#303033"/><path d="m699.713 674.5c0-.24-.05-.45-.15-.63s-.24-.34-.42-.47c-.18-.14-.39-.26-.64-.36s-.52-.2-.81-.28c-.39-.11-.78-.25-1.16-.42s-.72-.38-1.02-.62-.54-.53-.72-.85c-.18-.33-.28-.7-.28-1.13s.09-.81.28-1.15c.18-.34.43-.63.74-.87s.67-.42 1.08-.55.84-.19 1.29-.19c.48 0 .93.07 1.34.22.42.15.78.36 1.09.62.31.27.56.59.74.96s.28.78.28 1.23h-1.64c-.02-.25-.08-.48-.16-.69s-.2-.39-.36-.54c-.15-.15-.34-.27-.56-.35s-.47-.12-.76-.12c-.25 0-.47.03-.68.1s-.39.16-.54.28-.27.27-.36.44-.13.37-.13.59c0 .23.06.43.18.61.12.17.27.32.46.45s.41.24.66.33.51.18.78.26c.42.12.81.27 1.19.46.38.18.71.4 1 .65s.51.55.68.88.25.71.25 1.14c0 .44-.09.83-.28 1.17s-.44.62-.75.85-.68.4-1.09.52c-.42.12-.85.17-1.3.17-.31 0-.61-.03-.91-.09s-.59-.15-.86-.27c-.28-.12-.53-.27-.77-.44-.24-.18-.44-.38-.62-.61s-.31-.49-.41-.77c-.1-.29-.15-.6-.16-.94h1.65c.02.3.09.56.2.79s.25.41.44.56c.18.15.4.26.64.34.24.07.51.11.81.11.25 0 .48-.03.69-.09s.4-.15.56-.26c.16-.12.29-.26.38-.43.08-.2.13-.39.13-.61zm13.44-7.39.01 6.67c0 .51-.09.98-.25 1.4s-.38.78-.67 1.08-.63.53-1.04.7c-.41.16-.87.25-1.37.25-.49 0-.94-.08-1.34-.25s-.75-.4-1.03-.69c-.29-.3-.51-.66-.67-1.08s-.24-.89-.25-1.41l.01-6.67h1.61l.01 6.67c0 .31.04.59.12.84s.18.47.31.66c.14.18.31.33.51.43s.44.15.71.15.51-.05.72-.15.38-.25.53-.43c.14-.19.25-.41.32-.66s.11-.54.12-.84l.01-6.67zm7.43 6.14v3.81h-1.64v-9.95h3.33c.5 0 .96.08 1.38.22s.78.35 1.09.62.54.59.71.97.26.81.26 1.29c0 .46-.08.88-.26 1.26s-.41.69-.71.96-.67.47-1.09.61-.88.21-1.38.22h-1.69zm0-1.33h1.69c.28 0 .53-.04.75-.13.22-.08.41-.2.56-.35s.27-.33.36-.54.12-.44.12-.68c0-.26-.04-.5-.12-.72s-.2-.41-.36-.56c-.16-.16-.34-.28-.56-.37s-.47-.13-.75-.14h-1.69zm-12.14 18.13v3.81h-1.64v-9.95h3.33c.5 0 .96.08 1.38.22s.78.35 1.09.62.54.59.71.97.26.81.26 1.29c0 .46-.08.88-.26 1.26s-.41.69-.71.96-.67.47-1.09.61-.88.21-1.38.22h-1.69zm0-1.33h1.69c.28 0 .53-.04.75-.13.22-.08.41-.2.56-.35s.27-.33.36-.54.12-.44.12-.68c0-.26-.04-.5-.12-.72s-.2-.41-.36-.56c-.16-.16-.34-.28-.56-.37s-.47-.13-.75-.14h-1.69zm17.12.81c0 .59-.08 1.15-.23 1.69s-.38 1.02-.67 1.43c-.3.41-.67.74-1.12.98s-.97.37-1.58.37c-.6 0-1.12-.12-1.56-.37s-.81-.58-1.1-.99-.52-.89-.66-1.42c-.15-.54-.22-1.1-.22-1.69v-1.27c0-.39.03-.77.1-1.15.07-.37.16-.73.29-1.06s.29-.63.49-.92c.19-.28.42-.52.68-.72s.56-.36.89-.47.69-.17 1.09-.17c.6 0 1.13.12 1.58.37s.82.58 1.12.99.53.89.68 1.43.23 1.11.23 1.7v1.27zm-1.64-1.29c0-.37-.04-.75-.1-1.11s-.17-.7-.32-.99-.35-.52-.6-.71c-.25-.18-.56-.27-.93-.27s-.68.09-.92.27-.44.42-.58.71-.24.62-.3.99-.09.74-.09 1.11v1.29c0 .37.04.74.1 1.11s.16.7.3.99.34.53.58.71.55.27.92.27.68-.09.93-.27.45-.42.6-.71.26-.62.32-.99.09-.74.1-1.11v-1.29zm10.37 1.74h-1.67v3.88h-1.64v-9.95h3.14c.51 0 .98.07 1.41.2.43.12.8.31 1.12.56.31.25.56.56.73.93s.26.81.26 1.31c0 .34-.04.64-.13.92s-.21.53-.37.75-.35.42-.57.59-.47.31-.74.43l2.11 4.18v.08h-1.75zm-1.67-1.33h1.51c.27 0 .52-.04.75-.12s.42-.19.59-.33.29-.32.39-.53c.09-.21.14-.45.14-.71 0-.28-.04-.52-.13-.74s-.21-.39-.37-.54-.36-.26-.59-.33-.49-.11-.78-.12h-1.5v3.42zm-31.03 13.41h-3.06v8.6h-1.63v-8.6h-3.04v-1.35h7.72v1.35zm35.82 8.61h-30.9v-9.95h30.9zm-36.85-16.81h-6.7v-9.95h6.7zm36.85-16.8h-6.7v-9.95h6.7z" fill="#fff"/><g clip-path="url(#b)" fill="#303033"><path d="m748.097 183.145v-18.333-18.333h-18.333-18.334-18.333-18.333v18.333 18.333 18.334 18.333h18.333 18.333 18.334 18.333v-18.333z"/><path d="m803.097-.188477h-18.334-18.333-18.333v18.333377 18.3333 18.3333 18.3334 18.3333 18.3338 18.333 18.333h18.333 18.333 18.334 18.333v-18.333-18.333-18.3338-18.3333-18.3334-18.3333-18.3333-18.333377z"/><g clip-path="url(#c)"><path d="m787.883 160.422h5.92v1.36h-2.15v7.24h2.15v1.35h-5.92v-1.35h2.11v-7.24h-2.11z"/><path d="m806.243 170.372h-1.65l-3.25-6.85-.01 6.85h-1.66v-9.95h1.66l3.23 6.83.02-6.83h1.66z"/><path d="m769.823 184.122c-.05.48-.16.92-.34 1.31s-.42.73-.72 1.01-.66.5-1.06.65c-.41.15-.86.23-1.36.23-.61 0-1.13-.12-1.59-.35-.45-.23-.83-.55-1.13-.95s-.53-.87-.68-1.41-.24-1.12-.24-1.73v-1.36c0-.61.08-1.18.24-1.72s.38-1.01.69-1.41c.3-.4.68-.72 1.13-.96s.98-.35 1.57-.35c.52 0 .99.08 1.4.23s.76.37 1.05.66.52.63.7 1.03.29.86.33 1.35h-1.63c-.03-.29-.08-.56-.17-.8-.08-.24-.2-.44-.34-.62-.15-.17-.33-.3-.55-.39s-.48-.14-.78-.14c-.37 0-.68.08-.93.25s-.45.4-.61.68-.27.61-.33.99c-.07.37-.1.77-.1 1.18v1.37c0 .43.03.83.1 1.21s.17.71.32.99.35.51.6.67.56.25.94.25c.57 0 1.01-.16 1.31-.49s.48-.79.53-1.38z"/><path d="m777.324 185.832h4.74v1.34h-6.38v-9.95h1.64z"/><path d="m792.483 184.862h-3.11l-.68 2.31h-1.7l3.23-9.95h1.44l3.17 9.95h-1.69zm-2.69-1.4h2.28l-1.13-3.9z"/><path d="m802.964 184.682 2.07-7.46h1.79l-3.08 9.95h-1.57l-3.07-9.95h1.79z"/><path d="m781.353 199.512h-4.09v3.12h4.79v1.34h-6.44v-9.95h6.39v1.35h-4.74v2.81h4.09z"/><path d="m769.823 203.972h-7.12v-9.95h7.12z"/><path d="m806.163 203.842h-19.17v-9.95h19.17z"/><path d="m782.233 170.512h-19.53v-9.95h19.53z"/></g></g><g clip-path="url(#d)"><path d="m222.682 512.04 146.666-146.667h-73.333l73.333-73.333h-146.666z" fill="#303033"/><g fill="#fff"><path d="m254.338 310.42h-4.18v4.19h-1.65v-9.85h6.45v1.34h-4.79v2.98h4.18v1.34z"/><path d="m267.088 310.19h-4.09v3.09h4.79v1.33h-6.44v-9.85h6.39v1.34h-4.74v2.78h4.09z"/><path d="m273.566 314.61v-9.85h2.43c.68.01 1.3.12 1.84.34s1.01.53 1.39.93.67.88.88 1.44.31 1.17.31 1.85v.74c0 .68-.11 1.29-.31 1.85-.21.56-.5 1.04-.88 1.43-.37.41-.83.72-1.37.94s-1.14.33-1.81.33zm1.67-8.54v7.23h.81c.45-.01.85-.09 1.18-.24.34-.15.62-.37.84-.66.23-.28.39-.62.51-1.02.11-.4.17-.84.17-1.33v-.74c0-.47-.06-.91-.17-1.3s-.28-.73-.51-1.02-.51-.51-.86-.67c-.34-.16-.75-.24-1.21-.25z"/><path d="m242.207 326.82h-4.09v3.09h4.79v1.33h-6.44v-9.85h6.39v1.34h-4.74v2.78h4.09z"/><path d="m251.706 327.39h-1.67v3.84h-1.64v-9.85h3.14c.51 0 .98.07 1.41.19s.8.31 1.12.55c.31.25.56.55.73.92s.26.8.26 1.3c0 .33-.04.64-.13.91s-.21.52-.37.74-.35.42-.57.58c-.22.17-.47.31-.74.43l2.11 4.14v.08h-1.75zm-1.67-1.31h1.51c.27 0 .52-.04.75-.12s.42-.19.59-.33.29-.32.39-.52.14-.44.14-.71-.04-.52-.13-.73-.21-.39-.37-.53-.36-.25-.59-.33c-.23-.07-.49-.11-.78-.12h-1.5v3.39z"/><path d="m266.338 345.57h-3.11l-.68 2.29h-1.7l3.23-9.85h1.44l3.17 9.85h-1.69zm-2.69-1.38h2.28l-1.13-3.86z"/><path d="m275.447 346.53h4.74v1.33h-6.38v-9.85h1.64z"/><path d="m280.017 331.09h-18.66v-9.85h18.67z"/><path d="m256.527 347.73h-20.06v-9.85h20.06z"/><path d="m242.717 314.75h-6.25v-9.85h6.25z"/></g></g><g clip-path="url(#e)"><path d="m369.352 660.153v-73.333h-73.335l-36.668 36.666-36.667 36.667v73.333l36.667 36.667 36.668 36.667h73.335v-73.334h-73.335v-73.333z" fill="#303033"/><g clip-path="url(#f)" fill="#fff"><path d="m250.132 684.795c.45.24.98.35 1.59.35.5 0 .96-.08 1.36-.23.41-.15.76-.37 1.06-.65s.54-.62.72-1.01.3-.83.34-1.31h-1.65c-.05.6-.23 1.06-.53 1.38-.3.33-.74.49-1.31.49-.37 0-.69-.08-.94-.25s-.44-.38-.59-.66-.26-.61-.32-.99c-.07-.38-.1-.78-.1-1.21v-1.37c0-.41.03-.8.1-1.18s.18-.7.33-.99.36-.51.61-.68.56-.25.93-.25c.3 0 .56.05.78.14s.4.22.55.39.26.38.34.62.14.51.17.8h1.64c-.05-.5-.16-.95-.33-1.35s-.41-.75-.7-1.03-.64-.5-1.05-.66c-.42-.16-.88-.24-1.41-.24-.6 0-1.12.12-1.57.35s-.83.55-1.13.96c-.3.4-.53.88-.69 1.41-.16.54-.23 1.11-.24 1.72v1.36c0 .61.08 1.19.23 1.72.15.54.38 1.01.68 1.41.3.41.68.72 1.13.96z"/><path d="m262.341 682.695h3.11l.67 2.31h1.69l-3.17-9.95h-1.44l-3.23 9.95h1.7zm1.58-5.31 1.13 3.9h-2.28z"/><path d="m277.641 680.734c.27-.12.51-.26.74-.43.22-.17.42-.37.57-.59.16-.22.28-.47.37-.75s.13-.58.13-.92c0-.5-.09-.94-.26-1.31-.17-.38-.42-.69-.73-.93s-.69-.44-1.12-.56-.9-.19-1.41-.2h-3.14v9.95h1.64v-3.88h1.67l1.89 3.88h1.75v-.08zm-.94-1.06c-.23.08-.48.12-.75.12h-1.51v-3.42h1.5c.29.01.55.04.78.12s.43.19.59.33c.16.15.29.33.37.54.09.21.13.46.13.74 0 .27-.05.51-.14.71-.09.21-.22.38-.39.53-.16.14-.35.25-.58.33z"/><path d="m242.152 700.465h-4.79v-3.13h4.09v-1.32h-4.09v-2.81h4.74v-1.36h-6.39v9.96h6.44z"/><path d="m254.972 693.205v-1.36h-6.39v9.96h6.44v-1.34h-4.79v-3.13h4.09v-1.32h-4.09v-2.81z"/><path d="m266.81 696.515c.16-.22.28-.47.37-.75s.13-.58.13-.92c0-.5-.09-.94-.26-1.31s-.42-.68-.73-.93-.69-.44-1.12-.56c-.43-.13-.9-.19-1.41-.2h-3.14v9.95h1.64v-3.88h1.67l1.89 3.88h1.75v-.08l-2.11-4.18c.27-.12.51-.26.74-.43s.43-.36.58-.59zm-1.27-.9c-.09.21-.22.38-.39.53-.17.14-.36.25-.59.33s-.48.12-.75.12h-1.51v-3.42h1.5c.29 0 .55.04.78.12s.43.19.59.33.29.33.37.54c.09.21.13.46.13.74 0 .27-.04.51-.13.71z"/><path d="m241.902 714.005c-.29-.25-.62-.47-1-.65s-.77-.33-1.19-.46c-.27-.08-.53-.16-.78-.26-.25-.09-.47-.2-.66-.33s-.35-.28-.46-.45c-.12-.17-.18-.37-.18-.61 0-.22.04-.41.13-.59.09-.17.21-.32.36-.44s.33-.22.54-.28.44-.1.68-.1c.29 0 .54.04.76.12s.4.2.56.35c.15.15.27.33.36.54.08.21.14.44.16.69h1.64c0-.45-.1-.86-.28-1.23s-.43-.69-.74-.96-.68-.47-1.09-.62c-.42-.15-.87-.22-1.34-.22-.45 0-.88.06-1.29.19s-.77.31-1.08.55-.56.53-.74.87-.28.72-.28 1.15.09.8.28 1.13c.18.33.42.61.72.86.3.24.64.45 1.02.62s.77.31 1.16.42c.29.09.56.18.81.28s.46.22.64.36.32.29.42.47.15.39.15.63c0 .22-.05.41-.14.58s-.22.31-.38.43-.35.21-.56.26c-.21.06-.44.09-.69.09-.3 0-.57-.04-.81-.11-.24-.08-.46-.19-.64-.34s-.33-.33-.44-.56c-.11-.22-.18-.48-.2-.79h-1.64c0 .34.06.65.16.94s.24.54.41.77.38.43.62.61.49.32.77.44.56.21.87.27c.3.06.6.09.91.09.45 0 .88-.06 1.3-.18s.78-.29 1.09-.52.57-.51.75-.85c.19-.34.28-.73.28-1.17 0-.43-.08-.81-.25-1.14-.17-.31-.4-.6-.69-.85z"/><path d="m279.221 708.515h-30.78v9.95h30.78z"/><path d="m279.222 691.845h-7.64v9.95h7.64z"/><path d="m241.962 675.185h-6.25v9.95h6.25z"/></g></g><path d="m186.16-46.0386v1193.5286" stroke="#fff" stroke-width="2"/><path d="m412.16-46.0386v1193.5286" stroke="#fff" stroke-width="2"/><path d="m638.16-46.0386v1193.5286" stroke="#fff" stroke-width="2"/><path d="m-490.066 254.908h1356.409" stroke="#fff" stroke-width="2"/><path d="m-490.066 549.724h1356.409" stroke="#fff" stroke-width="2"/><g clip-path="url(#g)"><path d="m146.181 660.15v-73.33l-36.67 36.67-36.6703 36.66v-73.33l-36.66 36.67-36.669958 36.66v73.34 73.33l36.669958-36.67 36.66-36.66v73.33l36.6703-36.67 36.67-36.66z" fill="#303033"/><g clip-path="url(#h)" fill="#fff"><path d="m27.8915 675.06.68-6.23h1.46l-1.21 9.49h-1.5l-1.04-6.31-1.02 6.31h-1.49l-1.21-9.49h1.46l.68 6.2.97-6.2h1.23z"/><path d="m40.0815 678.32h-1.53v-4.24h-3.23v4.24h-1.51v-9.49h1.52v3.97h3.23v-3.97h1.53v9.49z"/><path d="m44.8711 668.83h5.65v1.3h-2.05v6.91h2.05v1.28h-5.65v-1.29h2.01v-6.9h-2.01z"/><path d="m19.2111 686.149h-2.92v8.21h-1.56v-8.21h-2.9v-1.29h7.38z"/><path d="m28.771 690.09h-3.91v2.98h4.57v1.28h-6.14v-9.5h6.1v1.29h-4.53v2.68h3.91z"/><path d="m35.6208 690.71v3.64h-1.57v-9.5h3.18c.47.01.91.08 1.31.21s.75.33 1.04.59.52.56.68.93c.16.36.24.77.24 1.23 0 .44-.08.84-.24 1.2s-.39.66-.68.91-.64.45-1.04.58-.84.2-1.31.21zm0-1.26h1.61c.27 0 .5-.04.71-.12s.39-.19.54-.34c.15-.14.26-.31.34-.52.08-.2.12-.42.12-.65 0-.25-.04-.48-.12-.69s-.19-.39-.34-.54-.33-.27-.54-.35-.45-.13-.71-.13h-1.61z"/><path d="m49.2615 692.149h-2.97l-.65 2.21h-1.62l3.08-9.5h1.38l3.03 9.5h-1.61zm-2.57-1.34h2.18l-1.08-3.72z"/><path d="m14.1606 706.739v3.64h-1.56v-9.5h3.18c.47.01.91.08 1.31.21s.75.33 1.04.59.52.56.68.93c.16.36.24.77.24 1.23 0 .44-.08.84-.24 1.2s-.39.66-.68.91-.64.45-1.04.58-.84.2-1.31.21zm0-1.27h1.61c.27 0 .5-.04.71-.12s.39-.19.54-.34c.15-.14.26-.31.34-.52.08-.2.12-.42.12-.65 0-.25-.04-.48-.12-.69s-.19-.39-.34-.54-.33-.27-.54-.35-.45-.13-.71-.13h-1.61z"/><path d="m28.771 706.119h-3.91v2.98h4.57v1.28h-6.14v-9.5h6.1v1.29h-4.53v2.68h3.91z"/><path d="m37.1207 706.669h-1.59v3.71h-1.56v-9.5h3c.49.01.94.07 1.35.19s.77.3 1.07.54.53.54.7.89c.17.36.25.77.25 1.25 0 .32-.04.62-.13.88-.08.26-.2.5-.36.71s-.33.4-.55.56c-.21.16-.45.3-.7.41l2.01 3.99v.08h-1.67zm-1.6-1.26h1.44c.26 0 .5-.04.72-.11s.41-.18.56-.32c.16-.14.28-.3.37-.5s.13-.43.13-.68c0-.27-.04-.5-.12-.71-.08-.2-.2-.38-.36-.52-.15-.14-.34-.24-.56-.31s-.47-.11-.74-.12h-1.43v3.27z"/><path d="m49.5911 707.93c0-.23-.05-.43-.14-.6s-.23-.32-.4-.45-.38-.24-.61-.34c-.24-.1-.5-.19-.77-.27-.37-.11-.74-.24-1.1-.4s-.69-.36-.97-.59c-.29-.23-.52-.5-.69-.81-.18-.31-.26-.67-.26-1.08s.09-.78.26-1.1c.18-.32.41-.6.71-.83s.64-.4 1.03-.52.8-.18 1.23-.18c.46 0 .88.07 1.28.21s.75.34 1.04.59.53.56.71.91c.17.36.26.75.27 1.18h-1.57c-.02-.24-.07-.46-.15-.66s-.19-.37-.34-.51-.32-.25-.53-.33-.45-.12-.72-.12c-.23 0-.45.03-.65.09s-.37.15-.52.27-.26.26-.34.42-.12.35-.12.56c0 .22.06.41.17.58.11.16.26.31.44.43s.39.23.63.32.48.17.74.24c.4.12.77.26 1.13.43s.68.38.95.62.49.52.65.84.24.68.24 1.09c0 .42-.09.79-.27 1.12-.18.32-.42.59-.72.81s-.65.38-1.04.49-.81.17-1.24.17c-.29 0-.58-.03-.87-.08-.29-.06-.56-.14-.82-.25s-.51-.25-.73-.42c-.23-.17-.42-.36-.59-.58s-.3-.46-.39-.74-.15-.57-.15-.9h1.57c.02.29.08.54.19.75.1.21.24.39.42.53.17.14.38.25.61.32s.49.11.77.11c.23 0 .45-.03.66-.08s.38-.14.54-.25c.15-.11.27-.25.36-.41.06-.18.1-.37.1-.58z"/><path d="m18.9407 668.82h-7.43v9.5h7.43z"/></g></g><g clip-path="url(#i)" fill="#303033"><path d="m524.378 586.394-36.53 37.159-37.233 36.458v73.618l37.233-36.459 36.53-37.159 37.232 37.159 36.53 36.459v-73.618l-36.53-36.458z"/><path d="m524.378 733.629h-73.763v73.617l37.233-36.458z"/><path d="m561.61 770.788 36.531 36.458v-73.617h-73.763z"/><path d="m504.755 770.8h3.11l.67 2.31h1.69l-3.17-9.95h-1.44l-3.23 9.95h1.7zm1.58-5.31 1.13 3.9h-2.28z"/><path d="m522.391 796.62h-20.043v9.95h20.043z"/><path d="m509.617 779.95h-7.232v9.95h7.232z"/><path d="m546.148 779.95h-7.232v9.95h7.232z"/><path d="m546.147 763.29h-32.099v9.95h32.099z"/><path d="m546.408 797.97h-3.069v8.593h-1.634v-8.593h-3.049v-1.36h7.752z"/><path d="m534.47 796.73.007 6.658c0 .515-.08.985-.24 1.408-.155.42-.376.78-.663 1.08-.291.301-.642.534-1.053.698-.405.164-.861.246-1.367.246-.496 0-.945-.08-1.346-.239-.401-.164-.743-.397-1.026-.698-.287-.3-.51-.663-.67-1.087-.155-.423-.234-.893-.239-1.408l.014-6.658h1.62l.014 6.658c.004.315.043.604.116.868.073.26.18.481.321.663.137.174.303.31.499.411.201.095.433.143.697.143.269 0 .506-.048.711-.143.21-.101.385-.242.527-.424.141-.187.248-.408.321-.663.073-.26.114-.545.123-.855l.014-6.658z"/><path d="m534.478 785.45c0 .401-.037.788-.11 1.162-.068.374-.168.727-.301 1.059-.141.333-.316.641-.526.923-.21.278-.451.517-.725.718-.264.182-.558.326-.881.431-.319.104-.67.157-1.053.157-.397 0-.761-.055-1.094-.164-.328-.114-.622-.269-.882-.465-.264-.201-.496-.442-.697-.725-.196-.282-.36-.592-.492-.929-.128-.324-.224-.668-.287-1.033-.064-.369-.096-.747-.096-1.134v-1.313c0-.405.034-.797.103-1.176.068-.378.17-.736.307-1.073.132-.323.294-.62.485-.888.196-.274.427-.511.691-.711.255-.196.545-.347.868-.452.328-.109.688-.164 1.08-.164.397 0 .761.055 1.094.164.333.11.631.262.895.458.265.196.495.427.691.691s.36.554.492.868c.146.337.255.7.328 1.087.073.383.11.781.11 1.196zm-1.655-1.326c-.004-.251-.02-.497-.048-.739-.022-.241-.063-.471-.123-.69-.068-.251-.159-.479-.273-.684-.109-.209-.244-.387-.403-.533-.142-.128-.303-.228-.486-.301-.182-.073-.389-.109-.622-.109-.223 0-.424.036-.601.109-.178.069-.333.164-.465.287-.16.151-.294.331-.404.54-.109.205-.193.436-.252.691-.055.219-.096.451-.124.697-.022.242-.034.485-.034.732v1.326c0 .241.012.481.034.717.023.237.062.465.117.684.059.246.139.476.239.691.105.209.23.387.376.533.141.136.303.246.485.328.187.077.401.116.643.116.232 0 .442-.039.629-.116.191-.078.355-.182.492-.315.159-.15.292-.328.396-.533.11-.209.196-.44.26-.69.055-.219.094-.447.116-.684.028-.241.044-.485.048-.731z"/><path d="m514.434 789.763v-9.953h3.185c.483 0 .937.055 1.36.164.424.105.791.267 1.101.485.31.219.552.499.725.841.177.338.266.739.266 1.203-.004.283-.054.547-.15.793-.091.242-.223.456-.397.643-.123.137-.262.257-.417.362-.15.101-.325.192-.526.274v.013c.296.078.549.192.759.342.209.146.385.312.526.499.146.201.255.424.328.67.078.242.117.497.117.766.004.474-.08.891-.253 1.251-.174.36-.413.661-.718.902-.305.246-.67.433-1.094.561-.419.123-.875.184-1.367.184zm1.654-4.498v3.145h1.805c.259 0 .496-.037.711-.11.214-.073.396-.173.546-.3.164-.133.29-.294.376-.486.092-.196.137-.412.137-.649 0-.251-.036-.472-.109-.663-.073-.196-.183-.363-.328-.499-.146-.137-.324-.242-.534-.315-.209-.077-.449-.118-.717-.123zm0-1.251h1.565c.269-.004.515-.041.739-.109.227-.069.419-.169.574-.301.141-.118.253-.262.335-.431.082-.168.123-.362.123-.581 0-.232-.039-.433-.116-.601-.073-.173-.178-.315-.315-.424-.155-.137-.348-.235-.581-.294-.232-.064-.49-.098-.772-.103h-1.552z"/></g></g></svg>