<svg fill="none" height="234" viewBox="0 0 2205 234" width="2205" xmlns="http://www.w3.org/2000/svg" xmlns:xlink="http://www.w3.org/1999/xlink"><clipPath id="a"><path d="m685.657 6.81165h146.67v220h-146.67z"/></clipPath><clipPath id="b"><path d="m773.597 167.422h44.12v43.55h-44.12z"/></clipPath><clipPath id="c"><path d="m1138.99 6.81165h146.67v220h-146.67z"/></clipPath><clipPath id="d"><path d="m2045.67 6.81165h146.67v220h-146.67z"/></clipPath><clipPath id="e"><path d="m2058.67 94.8967h44.07v43.83h-44.07z"/></clipPath><path d="m985.654 6.81165v146.66335h-73.327l73.327 73.337h73.336v-146.6739z" fill="#303033"/><path d="m1000.42 172.694v3.937h-1.694v-10.282h3.444c.51 0 .99.083 1.42.228.44.144.81.361 1.13.64s.56.61.73 1.003c.18.392.27.837.27 1.333 0 .475-.08.909-.27 1.302-.18.392-.42.713-.73.992s-.69.485-1.13.63c-.43.145-.91.217-1.42.227h-1.75zm0-1.374h1.75c.29 0 .54-.042.77-.135.23-.082.43-.206.58-.361.16-.155.28-.341.37-.558.1-.217.13-.455.13-.703 0-.269-.05-.517-.13-.744s-.2-.424-.37-.579c-.16-.165-.35-.289-.58-.382s-.48-.134-.77-.145h-1.75z" fill="#fff"/><path d="m1013.01 175.247h4.89v1.384h-6.59v-10.282h1.7z" fill="#fff"/><path d="m1028.67 174.244h-3.21l-.71 2.387h-1.75l3.34-10.282h1.48l3.28 10.282h-1.75zm-2.78-1.447h2.36l-1.17-4.03z" fill="#fff"/><path d="m1043.52 167.744h-3.16v8.887h-1.69v-8.887h-3.14v-1.395h7.98v1.395z" fill="#fff"/><path d="m1004.76 189.61h-4.32v4.381h-1.704v-10.281h6.664v1.395h-4.95v3.11h4.32v1.395z" fill="#fff"/><path d="m1018.12 189.517c0 .61-.08 1.188-.24 1.746-.15.558-.39 1.054-.69 1.478-.31.424-.69.765-1.16 1.013-.46.248-1 .382-1.63.382-.62 0-1.16-.124-1.61-.382-.46-.259-.84-.6-1.14-1.023-.3-.424-.53-.92-.68-1.468-.15-.558-.23-1.136-.23-1.746v-1.312c0-.403.03-.796.11-1.189.07-.382.16-.754.3-1.095.13-.341.3-.651.5-.951.2-.289.44-.537.71-.744.26-.206.57-.372.91-.485.35-.114.72-.176 1.13-.176.62 0 1.17.124 1.63.382.47.259.85.6 1.16 1.023.31.424.55.92.7 1.478.16.558.24 1.147.24 1.757v1.312zm-1.7-1.333c0-.382-.05-.775-.11-1.147s-.17-.723-.33-1.023c-.15-.3-.36-.537-.62-.734-.26-.186-.58-.279-.96-.279s-.7.093-.95.279-.45.434-.6.734c-.14.3-.25.641-.31 1.023s-.09.765-.09 1.147v1.333c0 .382.04.765.1 1.147s.17.723.31 1.023c.15.3.35.548.6.734s.57.279.95.279.7-.093.96-.279.47-.434.62-.734c.16-.3.27-.641.33-1.023.07-.382.1-.765.11-1.147v-1.333z" fill="#fff"/><path d="m1027.13 207.342h-1.72v4.01h-1.7v-10.282h3.25c.52 0 1.01.072 1.45.207.45.124.83.32 1.16.578.32.259.58.579.76.961.17.383.26.837.26 1.354 0 .351-.04.661-.13.951-.09.289-.22.547-.38.775-.17.227-.36.434-.59.609-.23.176-.49.321-.77.445l2.18 4.319v.083h-1.8zm-1.71-1.374h1.56c.28 0 .53-.041.77-.124s.44-.196.61-.341c.18-.145.3-.331.41-.548.09-.217.14-.465.14-.733 0-.29-.04-.538-.13-.765-.1-.227-.22-.403-.39-.558-.16-.155-.37-.269-.61-.341-.23-.072-.5-.114-.8-.124h-1.55v3.534z" fill="#fff"/><path d="m1038.24 201.07 1.28 4.443 1.42-4.443h2.11v10.282h-1.6v-3.534l.11-4.506-1.58 4.929h-.89l-1.44-4.763.1 4.34v3.534h-1.59v-10.282z" fill="#fff"/><path d="m1043.6 193.991h-19.93v-10.281h19.93z" fill="#fff"/><path d="m1018.54 211.352h-19.929v-10.282h19.929z" fill="#fff"/><path d="m1438.99 80.145-73.33-73.33329h146.68zm0 73.333 73.35-73.333h-73.34-73.33l73.32 73.333h-73.33l73.33 73.334 73.34-73.334z" fill="#303033"/><path d="m1417.12 34.3233v-10.2295h2.49c.7 0 1.34.1234 1.9.3496.55.2261 1.03.5551 1.42.9664.4.4215.69.915.91 1.4907s.32 1.2234.32 1.9225v.7711c0 .6991-.12 1.3468-.32 1.9225-.22.5757-.51 1.0795-.9 1.4907s-.86.7402-1.4.9664c-.56.2262-1.18.3393-1.86.3393zm1.71-8.8724v7.5153h.84c.46 0 .87-.0823 1.21-.2468.35-.1644.64-.3906.86-.6785.24-.2981.4-.6477.53-1.0589.11-.4113.17-.8739.17-1.3777v-.7916c0-.4935-.06-.9458-.17-1.3468-.12-.4112-.29-.7608-.53-1.0589-.23-.2981-.52-.5243-.88-.6991-.35-.1645-.77-.257-1.25-.257z" fill="#fff"/><path d="m1418.8 50.2174h4.87v1.3776h-6.55v-10.2294h1.68z" fill="#fff"/><path d="m1436.52 29.8614c0 .6066-.09 1.1823-.24 1.7375-.15.5551-.39 1.0486-.69 1.4701-.31.4215-.69.7608-1.15 1.0076-.46.2467-1 .3803-1.62.3803s-1.16-.1233-1.61-.3803c-.45-.2571-.83-.5963-1.13-1.0178-.3-.4216-.53-.915-.68-1.4599-.15-.5552-.22-1.1309-.22-1.7375v-1.3057c0-.4009.03-.7916.1-1.1823.07-.3804.16-.7505.3-1.0897.13-.3393.3-.6477.5-.9459.2-.2878.43-.5346.7-.7402s.58-.3701.92-.4832c.33-.1131.7-.1748 1.12-.1748.61 0 1.16.1234 1.62.3804s.84.5963 1.15 1.0178.55.915.7 1.4702.24 1.1412.24 1.7477zm-1.7-1.3159c0-.3804-.04-.7711-.1-1.1412-.06-.3804-.18-.7197-.33-1.0178-.16-.2982-.36-.5346-.62-.73-.26-.185-.57-.2775-.95-.2775s-.7.0925-.95.2775c-.25.1851-.45.4318-.6.73-.14.2981-.24.6374-.3 1.0178-.07.3804-.1.7608-.1 1.1412v1.3262c0 .3804.04.7608.11 1.1412.06.3804.16.7196.3 1.0178.15.2981.35.5449.6.7299.25.1851.57.2776.95.2776s.7-.0925.95-.2776c.26-.185.46-.4318.62-.7299.15-.2982.27-.6374.33-1.0178s.09-.7608.1-1.1412v-1.3262z" fill="#fff"/><path d="m1436.52 47.1332c0 .6066-.09 1.1823-.24 1.7375-.15.5551-.38 1.0486-.69 1.4701s-.69.7608-1.15 1.0075c-.46.2468-1 .3804-1.62.3804s-1.16-.1233-1.61-.3804c-.45-.257-.83-.5962-1.13-1.0178-.3-.4215-.53-.915-.68-1.4598-.15-.5552-.22-1.1309-.22-1.7375v-1.3057c0-.4009.03-.7916.1-1.1823.07-.3804.16-.7505.3-1.0897.13-.3393.3-.6477.5-.9459.2-.2878.43-.5346.7-.7402s.58-.3701.92-.4832c.33-.1131.7-.1748 1.12-.1748.61 0 1.16.1234 1.62.3804s.84.5963 1.15 1.0178.55.915.7 1.4702c.15.5551.24 1.1412.24 1.7477v1.3057zm-1.7-1.316c0-.3803-.04-.771-.1-1.1411s-.18-.7197-.33-1.0178c-.16-.2982-.36-.5346-.62-.73-.26-.185-.57-.2776-.95-.2776s-.7.0926-.95.2776c-.25.1851-.45.4318-.6.73-.14.2981-.24.6374-.3 1.0178-.07.3804-.1.7608-.1 1.1411v1.3263c0 .3804.04.7608.11 1.1411.06.3804.16.7197.3 1.0179.15.2981.35.5448.6.7299.25.185.57.2776.95.2776s.7-.0926.95-.2776c.26-.1851.46-.4318.62-.7299.15-.2982.27-.6375.33-1.0179.06-.3803.09-.7607.1-1.1411v-1.3263z" fill="#fff"/><path d="m1447.46 30.7969.73-6.7134h1.58l-1.31 10.2294h-1.61l-1.12-6.8059-1.1 6.8059h-1.62l-1.3-10.2294h1.57l.73 6.6723 1.05-6.6723h1.33z" fill="#fff"/><path d="m1447.38 49.2099h-3.19l-.7 2.3749h-1.75l3.32-10.2295h1.48l3.26 10.2295h-1.74zm-2.77-1.4393h2.34l-1.16-4.0095z" fill="#fff"/><path d="m1461.85 34.3233h-1.7l-3.33-7.0424-.01 7.0424h-1.71v-10.2295h1.71l3.32 7.0218.01-7.0218h1.71z" fill="#fff"/><path d="m1455.15 51.5951v-10.2294h2.49c.7 0 1.34.1233 1.89.3495.56.2262 1.04.5552 1.43.9664.39.4215.69.915.91 1.4907.21.5758.32 1.2235.32 1.9226v.771c0 .6991-.12 1.3468-.32 1.9225-.22.5758-.52 1.0795-.9 1.4908-.39.4112-.86.7402-1.4.9664-.55.2261-1.18.3392-1.87.3392zm1.71-8.8724v7.5153h.83c.47 0 .88-.0822 1.22-.2467.35-.1645.64-.3907.86-.6785.24-.2982.4-.6477.53-1.059.11-.4112.17-.8738.17-1.3776v-.7916c0-.4935-.06-.9459-.17-1.3468-.12-.4113-.29-.7608-.53-1.0589-.24-.2982-.52-.5244-.88-.6991-.35-.1645-.77-.2571-1.25-.2571z" fill="#fff"/><path d="m1417.12 6.81171h45.08v10.22949h-45.08z" fill="#fff"/><path d="m1417.12 34.3233v-10.2295h2.49c.7 0 1.34.1234 1.9.3496.55.2261 1.03.5551 1.42.9664.4.4215.69.915.91 1.4907s.32 1.2234.32 1.9225v.7711c0 .6991-.12 1.3468-.32 1.9225-.22.5757-.51 1.0795-.9 1.4907s-.86.7402-1.4.9664c-.56.2262-1.18.3393-1.86.3393zm1.71-8.8724v7.5153h.84c.46 0 .87-.0823 1.21-.2468.35-.1644.64-.3906.86-.6785.24-.2981.4-.6477.53-1.0589.11-.4113.17-.8739.17-1.3777v-.7916c0-.4935-.06-.9458-.17-1.3468-.12-.4112-.29-.7608-.53-1.0589-.23-.2981-.52-.5243-.88-.6991-.35-.1645-.77-.257-1.25-.257z" fill="#fff"/><path d="m1418.8 50.2174h4.87v1.3776h-6.55v-10.2294h1.68z" fill="#fff"/><path d="m1436.52 29.8615c0 .6065-.09 1.1823-.24 1.7374-.15.5552-.39 1.0487-.69 1.4702-.31.4215-.69.7608-1.15 1.0075-.46.2468-1 .3804-1.62.3804s-1.16-.1234-1.61-.3804-.83-.5963-1.13-1.0178-.53-.915-.68-1.4599c-.15-.5551-.22-1.1309-.22-1.7374v-1.3057c0-.401.03-.7916.1-1.1823.07-.3804.16-.7505.3-1.0898.13-.3392.3-.6477.5-.9458.2-.2879.43-.5346.7-.7402s.58-.3701.92-.4832c.33-.1131.7-.1748 1.12-.1748.61 0 1.16.1234 1.62.3804s.84.5963 1.15 1.0178.55.915.7 1.4702c.15.5551.24 1.1411.24 1.7477zm-1.7-1.316c0-.3804-.04-.771-.1-1.1412-.06-.3803-.18-.7196-.33-1.0178-.16-.2981-.36-.5346-.62-.7299-.26-.1851-.57-.2776-.95-.2776s-.7.0925-.95.2776-.45.4318-.6.7299c-.14.2982-.24.6375-.3 1.0178-.07.3804-.1.7608-.1 1.1412v1.3262c0 .3804.04.7608.11 1.1412.06.3804.16.7197.3 1.0178.15.2982.35.5449.6.73.25.185.57.2776.95.2776s.7-.0926.95-.2776c.26-.1851.46-.4318.62-.73.15-.2981.27-.6374.33-1.0178s.09-.7608.1-1.1412v-1.3262z" fill="#fff"/><path d="m1436.52 47.1333c0 .6066-.09 1.1823-.24 1.7375-.15.5551-.38 1.0486-.69 1.4701-.31.4216-.69.7608-1.15 1.0076-.46.2467-1 .3804-1.62.3804s-1.16-.1234-1.61-.3804c-.45-.2571-.83-.5963-1.13-1.0178-.3-.4216-.53-.915-.68-1.4599-.15-.5552-.22-1.1309-.22-1.7375v-1.3057c0-.4009.03-.7916.1-1.1822.07-.3804.16-.7506.3-1.0898.13-.3393.3-.6477.5-.9459.2-.2878.43-.5346.7-.7402s.58-.3701.92-.4832c.33-.1131.7-.1748 1.12-.1748.61 0 1.16.1234 1.62.3804.46.2571.84.5963 1.15 1.0178.31.4216.55.915.7 1.4702s.24 1.1412.24 1.7477v1.3057zm-1.7-1.3159c0-.3804-.04-.7711-.1-1.1412s-.18-.7197-.33-1.0178c-.16-.2982-.36-.5346-.62-.73-.26-.185-.57-.2775-.95-.2775s-.7.0925-.95.2775c-.25.1851-.45.4318-.6.73-.14.2981-.24.6374-.3 1.0178-.07.3804-.1.7608-.1 1.1412v1.3262c0 .3804.04.7608.11 1.1412.06.3804.16.7196.3 1.0178.15.2981.35.5449.6.7299.25.1851.57.2776.95.2776s.7-.0925.95-.2776c.26-.185.46-.4318.62-.7299.15-.2982.27-.6374.33-1.0178s.09-.7608.1-1.1412v-1.3262z" fill="#fff"/><path d="m1447.46 30.7969.73-6.7134h1.58l-1.31 10.2294h-1.61l-1.12-6.8059-1.1 6.8059h-1.62l-1.3-10.2294h1.57l.73 6.6723 1.05-6.6723h1.33z" fill="#fff"/><path d="m1447.38 49.2099h-3.19l-.7 2.3749h-1.75l3.32-10.2295h1.48l3.26 10.2295h-1.74zm-2.77-1.4393h2.34l-1.16-4.0095z" fill="#fff"/><path d="m1461.85 34.3233h-1.7l-3.33-7.0424-.01 7.0424h-1.71v-10.2295h1.71l3.32 7.0218.01-7.0218h1.71z" fill="#fff"/><path d="m1455.15 51.5951v-10.2294h2.49c.7 0 1.34.1233 1.89.3495.56.2262 1.04.5552 1.43.9664.39.4215.69.915.91 1.4907.21.5758.32 1.2235.32 1.9226v.771c0 .6991-.12 1.3468-.32 1.9225-.22.5758-.52 1.0795-.9 1.4908-.39.4112-.86.7402-1.4.9664-.55.2261-1.18.3392-1.87.3392zm1.71-8.8724v7.5153h.83c.47 0 .88-.0822 1.22-.2467.35-.1645.64-.3907.86-.6785.24-.2982.4-.6477.53-1.059.11-.4112.17-.8738.17-1.3776v-.7916c0-.4935-.06-.9459-.17-1.3468-.12-.4113-.29-.7608-.53-1.0589-.24-.2982-.52-.5244-.88-.6991-.35-.1645-.77-.2571-1.25-.2571z" fill="#fff"/><path d="m1417.12 6.81165h45.08v10.22945h-45.08z" fill="#fff"/><g fill="#303033"><path d="m305.657 6.81165 73.337 73.32635v-73.32635z"/><path d="m232.319 80.138 73.337-73.32635h-73.337z"/><path d="m305.656 153.475-73.337-73.3368v73.3368l73.337 73.337 73.337-73.337v-73.3368z"/><path d="m290.208 101.26h-6.924v-10.282h6.924z"/><path d="m328.287 83.8995h-6.924v-10.2818h6.924z"/><path d="m290.249 62.2095c0 .6097-.083 1.1884-.238 1.7464s-.392 1.054-.692 1.4777c-.31.4236-.692.7647-1.157 1.0127s-1.003.3823-1.633.3823c-.62 0-1.157-.124-1.612-.3823-.455-.2584-.837-.5994-1.137-1.0231-.299-.4236-.537-.9196-.682-1.4673-.155-.558-.227-1.1367-.227-1.7464v-1.3123c0-.403.031-.7957.103-1.1884.073-.3823.166-.7543.3-1.0953s.3-.651.506-.9507c.197-.2893.434-.5373.703-.744s.579-.372.92-.4857.713-.1757 1.126-.1757c.62 0 1.168.124 1.633.3824.465.2583.847.5993 1.157 1.023s.548.9197.703 1.4777.237 1.147.237 1.7567v1.3123zm-1.705-1.3227c0-.3823-.041-.775-.103-1.147s-.176-.7233-.331-1.023-.362-.5373-.62-.7337c-.258-.186-.579-.279-.961-.279s-.703.093-.951.279-.454.434-.599.7337-.248.6407-.31 1.023c-.062.3824-.093.7647-.093 1.147v1.3331c0 .3823.041.7646.103 1.147.062.3823.166.7233.31 1.023.145.2997.352.5477.6.7337s.568.279.95.279c.383 0 .703-.093.961-.279.259-.186.465-.434.62-.7337s.269-.6407.331-1.023c.062-.3824.093-.7647.104-1.147v-1.3331z"/><path d="m302.473 66.6943h-1.705l-3.348-7.0784-.01 7.0784h-1.716v-10.2818h1.716l3.337 7.0577.011-7.0577h1.715z"/><path d="m314.388 62.0752h-4.227v3.2241h4.95v1.3847h-6.655v-10.2818h6.603v1.395h-4.898v2.9037h4.227z"/><path d="m320.485 64.0592c0-.3203.042-.5993.135-.868.093-.2583.217-.5063.382-.7337.165-.2273.362-.4443.589-.6406.227-.1964.486-.403.775-.5994-.3-.4237-.527-.8267-.692-1.1987-.166-.372-.248-.7646-.248-1.1677 0-.4133.062-.775.186-1.0953s.299-.589.537-.8163c.238-.2274.517-.3927.847-.5064.331-.1137.693-.1757 1.106-.1757.351 0 .661.062.951.186.289.124.527.2894.723.5064.196.2067.352.4547.465.7337.114.279.166.5683.166.8783 0 .248-.042.4754-.114.682-.073.2067-.176.403-.31.589-.135.186-.29.3617-.465.5167-.176.1653-.372.3203-.579.4753l-.599.5064 1.912 2.4904c.155-.2791.268-.5891.361-.9301.083-.3306.135-.6923.135-1.0746h1.477c0 .6303-.083 1.209-.258 1.7463-.176.5374-.434 1.0127-.785 1.4467l1.301 1.6947h-1.973l-.496-.651c-.351.2583-.734.4547-1.127.589-.403.1343-.837.2067-1.302.2067-.475 0-.899-.0724-1.281-.2067s-.703-.3307-.971-.5787c-.269-.248-.476-.5373-.61-.8783s-.238-.7234-.238-1.1264zm3.111 1.426c.279 0 .558-.0413.826-.1343.269-.093.527-.217.765-.3823l-2.036-2.6867-.113.093c-.197.1653-.352.3306-.465.4856-.114.155-.207.31-.259.4444-.062.1446-.093.2686-.113.3926-.021.1241-.031.2171-.031.2997 0 .2067.031.403.093.5787.062.186.155.341.279.4753.124.1344.268.2377.444.3204.176.0826.382.1136.61.1136zm-.589-6.6547c0 .2273.051.465.144.7027.093.2376.238.496.414.7646l.723-.5683c.145-.1033.258-.1963.341-.2997.083-.1033.145-.1963.176-.2996.031-.1034.062-.1964.072-.2894s.01-.1757.01-.248c0-.124-.02-.248-.051-.3617-.042-.124-.093-.2273-.166-.3203-.072-.093-.155-.1653-.258-.217s-.217-.0827-.341-.0827c-.176 0-.331.031-.465.1034-.134.0723-.248.155-.341.2686-.093.1137-.155.2377-.196.3824-.042.1446-.062.2996-.062.465z"/><path d="m290.176 82.7628c-.175.2067-.382.3927-.609.5684-.228.1756-.496.3203-.796.4546-.3.1344-.61.2274-.951.2997s-.702.1033-1.095.1033c-.62 0-1.168-.124-1.643-.3616-.475-.2377-.878-.5684-1.209-.9817s-.579-.9093-.744-1.4674c-.176-.5683-.258-1.1676-.269-1.8186v-1.2711c0-.651.083-1.2606.259-1.8187.175-.558.413-1.054.733-1.4776.321-.4237.703-.7544 1.168-.9921.465-.2376.992-.3616 1.581-.3616.527 0 1.013.0723 1.426.217.413.1446.775.3513 1.085.6303.3.279.537.6097.713 1.0024.176.3926.289.837.331 1.333h-1.664c-.041-.279-.103-.527-.196-.744s-.207-.4134-.362-.5684-.331-.279-.548-.3513c-.217-.0827-.465-.124-.764-.124-.362 0-.662.0827-.92.2687-.258.1756-.475.4133-.641.713-.165.2996-.299.6406-.372 1.0437-.082.3926-.124.806-.124 1.2296v1.2814c0 .434.052.837.135 1.2297.082.3926.217.7336.392 1.0333.176.2997.403.5374.682.713.279.1757.61.2687 1.003.279.165 0 .32-.0103.496-.031.165-.0206.33-.0516.485-.1033s.29-.1033.424-.1757c.124-.0723.227-.1653.31-.2686l.01-2.0564h-1.86v-1.3434h3.514z"/><path d="m299.27 80.0348h-1.726v4.0093h-1.694v-10.2818h3.244c.527 0 1.013.0724 1.457.2067.445.124.827.3203 1.158.5787.32.2583.578.5787.754.961s.269.837.269 1.3537c0 .3513-.042.6613-.135.9507-.093.2893-.217.5476-.382.775-.165.2273-.362.434-.589.6096-.227.1757-.486.3204-.765.4444l2.181 4.3194v.0826h-1.809zm-1.726-1.3641h1.561c.279 0 .537-.0413.775-.124.237-.0826.434-.1963.609-.341.176-.1446.3-.3306.403-.5477.093-.217.145-.465.145-.7336 0-.2894-.041-.5374-.134-.7647s-.217-.403-.383-.558c-.165-.155-.372-.2687-.609-.341-.238-.0724-.507-.1137-.806-.124h-1.55v3.534z"/><path d="m315.339 79.5698c0 .6096-.083 1.1883-.238 1.7463s-.392 1.054-.692 1.4777c-.31.4237-.692.7647-1.157 1.0127s-1.003.3823-1.633.3823c-.62 0-1.157-.124-1.612-.3823s-.837-.5994-1.137-1.023c-.299-.4237-.537-.9197-.682-1.4674-.155-.558-.227-1.1367-.227-1.7463v-1.3124c0-.403.031-.7957.103-1.1883.073-.3824.166-.7544.3-1.0954s.3-.651.506-.9507c.197-.2893.434-.5373.703-.744s.579-.372.92-.4857c.341-.1136.713-.1756 1.126-.1756.62 0 1.168.124 1.633.3823.465.2584.847.5994 1.157 1.023.31.4237.548.9197.703 1.4777s.237 1.147.237 1.7567v1.3124zm-1.705-1.3227c0-.3824-.041-.775-.103-1.147s-.176-.7234-.331-1.0231c-.155-.2996-.362-.5373-.62-.7336-.258-.186-.579-.279-.961-.279s-.703.093-.951.279-.454.434-.599.7336c-.145.2997-.248.6407-.31 1.0231-.062.3823-.093.7646-.093 1.147v1.333c0 .3823.041.7647.103 1.147s.166.7234.31 1.023c.145.2997.352.5477.6.7337s.568.279.95.279c.383 0 .703-.093.961-.279.259-.186.465-.434.62-.7337.155-.2996.269-.6407.331-1.023s.093-.7647.103-1.147v-1.333z"/><path d="m302.515 91.1226.01 6.8924c0 .5271-.093 1.0127-.258 1.4467s-.393.8063-.692 1.1163c-.3.31-.651.547-1.075.723-.424.165-.899.258-1.416.258-.506 0-.971-.082-1.384-.258-.414-.176-.775-.413-1.065-.713-.299-.31-.527-.6819-.692-1.1159s-.248-.9197-.258-1.4571l.01-6.8924h1.664l.01 6.8924c0 .3204.041.6097.124.8681.083.2583.186.4856.32.682.145.186.321.341.527.4439.207.104.455.155.734.155s.527-.051.744-.155c.217-.1029.393-.2579.548-.4439.144-.1964.258-.4237.33-.682.073-.2584.114-.558.124-.8681l.011-6.8924z"/><path d="m310.192 97.4673v3.9367h-1.695v-10.2814h3.441c.517 0 .992.0826 1.426.2273s.806.3617 1.127.6407c.32.279.558.6096.733 1.0023.176.3927.269.837.269 1.333 0 .4754-.083.9094-.269 1.302-.186.3927-.423.7131-.733.9921s-.693.4856-1.127.6303-.909.217-1.426.2273h-1.746zm0-1.3743h1.746c.29 0 .548-.0414.775-.1344.228-.0826.424-.2066.579-.3617.155-.155.279-.341.372-.558s.124-.4546.124-.7026c0-.2687-.042-.5167-.124-.744-.083-.2274-.207-.4237-.372-.5787-.166-.1654-.351-.2894-.579-.3824-.227-.093-.485-.1343-.775-.1446h-1.746z"/><path d="m326.251 98.7591c0-.248-.052-.465-.155-.6511-.104-.186-.248-.3513-.434-.4856-.186-.1447-.403-.2687-.662-.372-.258-.1034-.537-.2067-.837-.2894-.403-.1136-.806-.2583-1.198-.434-.393-.1756-.744-.3926-1.054-.6407-.31-.248-.558-.5476-.744-.8783-.186-.341-.29-.7233-.29-1.1677 0-.4443.093-.837.29-1.1883.186-.3514.444-.651.764-.899.321-.248.693-.434 1.116-.5684.424-.1343.868-.1963 1.333-.1963.496 0 .961.0723 1.385.2273.434.155.806.372 1.126.6407.321.279.579.6097.765.992s.29.806.29 1.271h-1.695c-.021-.2583-.083-.496-.166-.713-.082-.217-.206-.403-.372-.558-.155-.155-.351-.279-.578-.3617-.228-.0826-.486-.124-.786-.124-.258 0-.485.031-.702.1034-.217.0723-.403.1653-.558.2893s-.279.279-.372.4547-.135.3823-.135.6097c0 .2376.062.4443.186.6303.124.1757.279.3307.476.465.196.1343.423.248.682.341.258.093.527.186.806.2687.434.124.837.279 1.229.4753.393.186.734.4134 1.034.6717.299.2583.527.5683.703.9093.175.3411.258.7337.258 1.1781 0 .4546-.093.8576-.29 1.209-.196.3509-.454.6409-.775.8779-.32.238-.702.414-1.126.538-.434.124-.878.175-1.343.175-.321 0-.631-.031-.941-.093s-.609-.155-.888-.279c-.29-.124-.548-.279-.796-.454-.248-.186-.455-.393-.641-.631-.186-.2373-.32-.5059-.423-.7953-.104-.2996-.155-.62-.166-.9713h1.705c.021.31.093.5787.207.8163.114.2377.258.4237.455.5787.186.155.413.2687.661.3516.248.072.527.113.837.113.258 0 .496-.031.713-.093s.413-.1546.579-.2683c.165-.124.299-.2686.392-.4443.083-.2067.135-.403.135-.6303z"/><path d="m532.32 6.81165-73.326 73.32635 73.326 73.337v-73.337h73.337z"/><path d="m532.32 226.812v-73.337h-73.326z"/><path d="m556.429 174.069c0-.248-.052-.465-.155-.651-.104-.186-.249-.351-.435-.485-.186-.145-.403-.269-.661-.372-.258-.104-.537-.207-.837-.29-.403-.113-.806-.258-1.199-.434-.392-.175-.744-.392-1.054-.64s-.558-.548-.744-.879c-.186-.341-.289-.723-.289-1.167 0-.445.093-.837.289-1.189.186-.351.445-.651.765-.899s.692-.434 1.116-.568.868-.196 1.333-.196c.496 0 .961.072 1.385.227.434.155.806.372 1.126.641.321.279.579.609.765.992.186.382.289.806.289 1.271h-1.694c-.021-.259-.083-.496-.166-.713s-.206-.403-.372-.558c-.155-.155-.351-.279-.579-.362-.227-.083-.485-.124-.785-.124-.258 0-.486.031-.703.103-.217.073-.403.166-.558.29s-.279.279-.372.454c-.093.176-.134.383-.134.61 0 .238.062.444.186.63.124.176.279.331.475.465.197.135.424.248.682.341.259.093.527.186.806.269.434.124.837.279 1.23.475.393.186.734.414 1.034.672.299.258.526.568.702.909s.258.734.258 1.178c0 .455-.092.858-.289 1.21-.196.351-.454.64-.775.878-.32.238-.703.413-1.126.537-.434.124-.879.176-1.344.176-.32 0-.63-.031-.94-.093s-.61-.155-.889-.279c-.289-.124-.547-.279-.795-.455-.248-.186-.455-.392-.641-.63s-.32-.507-.424-.796c-.103-.3-.155-.62-.165-.971h1.705c.021.31.093.578.207.816.113.238.258.424.454.579.186.155.414.269.662.351.248.073.527.114.837.114.258 0 .496-.031.713-.093s.413-.155.579-.269c.165-.124.299-.268.392-.444.083-.207.135-.403.135-.631z"/><path d="m569.655 172.106h-4.226v3.224h4.949v1.385h-6.654v-10.282h6.603v1.395h-4.898v2.904h4.226z"/><path d="m578.181 166.433 1.281 4.443 1.416-4.443h2.108v10.282h-1.592v-3.534l.104-4.506-1.581 4.929h-.889l-1.436-4.763.103 4.34v3.534h-1.591v-10.282z"/><path d="m593.701 191.688h-3.213l-.703 2.387h-1.757l3.338-10.282h1.488l3.276 10.282h-1.747zm-2.779-1.447h2.356l-1.168-4.03z"/><path d="m552.905 207.498v3.937h-1.695v-10.281h3.441c.517 0 .992.082 1.426.227s.806.362 1.126.641c.321.279.558.609.734 1.002s.269.837.269 1.333c0 .475-.083.909-.269 1.302s-.424.713-.734.992-.692.486-1.126.63c-.434.145-.909.217-1.426.228h-1.746zm0-1.374h1.746c.289 0 .548-.041.775-.134.227-.083.424-.207.579-.362s.279-.341.372-.558.124-.455.124-.703c0-.268-.042-.516-.124-.744-.083-.227-.207-.423-.372-.578-.166-.166-.352-.29-.579-.383s-.486-.134-.775-.144h-1.746z"/><path d="m570.296 211.435h-1.653v-4.588h-3.493v4.588h-1.643v-10.281h1.643v4.298h3.493v-4.298h1.653z"/><path d="m583.151 206.961c0 .61-.083 1.188-.238 1.746s-.393 1.054-.692 1.478c-.31.424-.693.765-1.158 1.013s-1.002.382-1.632.382c-.62 0-1.158-.124-1.613-.382-.454-.259-.837-.6-1.136-1.023-.3-.424-.538-.92-.682-1.468-.155-.558-.228-1.136-.228-1.746v-1.312c0-.403.031-.796.104-1.189.072-.382.165-.754.299-1.095.135-.341.3-.651.507-.951.196-.289.434-.537.702-.744.269-.206.579-.372.92-.485.341-.114.713-.176 1.127-.176.62 0 1.167.124 1.632.382.465.259.848.6 1.158 1.023.31.424.547.92.702 1.478s.238 1.147.238 1.757v1.312zm-1.705-1.333c0-.382-.042-.775-.104-1.147s-.176-.723-.331-1.023-.361-.537-.62-.734c-.258-.186-.578-.279-.96-.279-.383 0-.703.093-.951.279s-.455.434-.599.734c-.145.3-.249.641-.311 1.023s-.092.765-.092 1.147v1.333c0 .382.041.765.103 1.147s.165.723.31 1.023.351.548.599.734.569.279.951.279.703-.093.961-.279.465-.434.62-.734.269-.641.331-1.023.093-.765.103-1.147v-1.333z"/><path d="m592.163 207.426h-1.726v4.009h-1.695v-10.281h3.245c.527 0 1.013.072 1.457.206.444.124.827.321 1.157.579.321.258.579.579.755.961.175.382.268.837.268 1.354 0 .351-.041.661-.134.95-.093.29-.217.548-.382.775-.166.228-.362.434-.589.61-.228.176-.486.32-.765.444l2.18 4.32v.082h-1.808zm-1.716-1.374h1.56c.279 0 .538-.042.775-.124.238-.083.435-.197.61-.341.176-.145.3-.331.403-.548.093-.217.145-.465.145-.734 0-.289-.042-.537-.135-.764-.093-.228-.217-.403-.382-.558s-.372-.269-.609-.341c-.238-.073-.507-.114-.807-.124h-1.55v3.534z"/><path d="m583.016 193.941h-31.93v-10.282h31.93z"/><path d="m596.089 176.581h-6.924v-10.282h6.924z"/><path d="m78.993 80.1381 73.326-73.32645h-146.66275v146.66335l73.33675 73.337 73.326-73.337h-73.326l73.326-73.3369z"/></g><path d="m51.8778 64.9272h-31.9305v-10.2818h31.9305z" fill="#fff"/><path d="m38.5183 25.7325h-4.2263v3.224h4.9497v1.3847h-6.6548v-10.2818h6.6031v1.395h-4.898v2.9037h4.2263z" fill="#fff"/><path d="m51.6928 30.3515h-1.7051l-3.348-7.0784-.0104 7.0784h-1.7152v-10.2818h1.7152l3.3379 7.0578.0103-7.0578h1.7153z" fill="#fff"/><path d="m64.5278 27.1895c-.0517.496-.1653.9507-.3513 1.3537s-.4341.7543-.7441 1.0437c-.3101.2893-.682.5166-1.0953.6716-.4237.155-.8887.2377-1.4054.2377-.6303 0-1.1677-.124-1.6431-.3617-.465-.2376-.8577-.5683-1.1677-.9816-.31-.4134-.5476-.8991-.7026-1.4571s-.2376-1.147-.2376-1.7773v-1.4054c0-.6303.0826-1.2193.248-1.7773.1653-.5581.3926-1.0437.7129-1.4571.31-.4133.7027-.744 1.1677-.992s1.0128-.3617 1.6224-.3617c.5374 0 1.0231.0827 1.4467.2377.4237.155.7853.3824 1.085.682.2997.2997.5374.651.7234 1.0644.186.4133.2996.8887.341 1.395h-1.6947c-.031-.2997-.0828-.5787-.1758-.8267-.0826-.248-.2066-.4547-.3616-.6407-.155-.1756-.3409-.31-.5683-.403-.2273-.093-.496-.1446-.806-.1446-.3824 0-.7028.0826-.9611.2583s-.465.4133-.6303.7027c-.1654.2893-.279.6303-.341 1.023-.0723.3823-.1033.7957-.1033 1.2194v1.4156c0 .4444.031.8577.1033 1.2504.0724.3927.1756.7337.3306 1.023s.3617.527.62.6924c.2584.1653.5788.2583.9714.2583.589 0 1.0437-.1653 1.3537-.5064.31-.341.496-.8163.5477-1.426h1.7154z" fill="#fff"/><path d="m23.3998 43.692h-1.7256v4.0094h-1.6947v-10.2818h3.2447c.527 0 1.0126.0724 1.457.2067.4443.124.8266.3203 1.1573.5787.3203.2583.5788.5786.7545.961.1756.3823.2685.837.2685 1.3537 0 .3513-.0412.6613-.1342.9506-.093.2894-.2171.5477-.3825.7751-.1653.2273-.3616.434-.5889.6096-.2274.1757-.4857.3204-.7647.4444l2.1804 4.3194v.0826h-1.8084zm-1.7256-1.364h1.5604c.279 0 .5373-.0413.775-.124.2376-.0826.4339-.1963.6096-.341.1757-.1446.2997-.3307.403-.5477.093-.217.1447-.465.1447-.7336 0-.2894-.0413-.5374-.1343-.7647s-.217-.403-.3823-.558c-.1654-.155-.3721-.2687-.6098-.341-.2377-.0724-.5063-.1137-.8059-.124h-1.5501v3.534z" fill="#fff"/><path d="m35.7903 42.3384 2.1391-4.9188h1.8909l-3.2033 6.5928-.0104 3.6994h-1.643l-.0103-3.7408-3.1828-6.5514h1.8911z" fill="#fff"/><path d="m46.8578 43.7644v3.937h-1.6947v-10.2818h3.441c.5167 0 .992.0827 1.426.2274.434.1446.806.3616 1.1263.6406.3204.279.5581.6097.7338 1.0024s.2687.837.2687 1.333c0 .4753-.0827.9093-.2687 1.302s-.4238.713-.7338.992-.6923.4857-1.1263.6304c-.434.1446-.9093.217-1.426.2273h-1.7463zm0-1.364h1.7463c.2893 0 .5477-.0414.775-.1344.2273-.0826.4237-.2066.5787-.3616.155-.1551.279-.3411.372-.5581s.124-.4546.124-.7026c0-.2687-.0413-.5167-.124-.744-.0826-.2274-.2066-.4237-.372-.5787-.1653-.1654-.3514-.2894-.5787-.3824s-.4857-.1343-.775-.1446h-1.7463z" fill="#fff"/><path d="m64.8686 38.825h-3.162v8.8868h-1.6843v-8.8868h-3.1414v-1.395h7.9774v1.395z" fill="#fff"/><path d="m61.0347 61.0523h-1.7257v4.0094h-1.6947v-10.2818h3.2447c.527 0 1.0127.0723 1.457.2067.4444.124.8267.3203 1.1574.5787.3203.2583.5786.5786.7543.961.1757.3823.2687.837.2687 1.3537 0 .3513-.0413.6613-.1343.9506-.093.2894-.217.5477-.3824.775-.1653.2274-.3616.4341-.5889.6097-.2274.1757-.4857.3204-.7647.4444l2.1804 4.3194v.0826h-1.8084zm-1.7257-1.364h1.5603c.279 0 .5374-.0413.775-.124.2377-.0827.434-.1963.6097-.341s.2997-.3307.403-.5477c.093-.217.1447-.465.1447-.7336 0-.2894-.0413-.5374-.1344-.7647-.093-.2274-.2169-.403-.3823-.558-.1653-.155-.372-.2687-.6096-.341-.2377-.0724-.5064-.1137-.8061-.124h-1.55v3.534z" fill="#fff"/><path d="m26.8814 30.1965h-6.9234v-10.2818h6.9234z" fill="#fff"/><path d="m1665.66 80.1483h-73.32v73.3267l73.32 73.337h73.34v-73.337z" fill="#303033"/><path d="m1592.34 6.81165 73.32 73.33665 73.34-73.33665z" fill="#303033"/><path d="m1723.68 194.639h-6.51v-10.023h6.51zm-40.65-21.175h-1.68v3.909h-1.65v-10.023h3.16c.51 0 .99.07 1.42.201.43.121.81.312 1.13.564.31.252.56.564.73.937.17.383.26.816.26 1.32 0 .342-.04.645-.13.927s-.21.534-.37.755c-.16.222-.35.423-.57.595-.22.171-.48.312-.75.433l2.13 4.211v.08h-1.77zm-1.67-1.339h1.52c.27 0 .52-.041.75-.121.24-.081.43-.192.6-.333s.29-.322.39-.534c.1-.211.14-.453.14-.715 0-.282-.04-.524-.13-.745-.09-.212-.21-.393-.37-.544s-.36-.262-.6-.333c-.23-.07-.49-.121-.78-.121h-1.51v3.446zm16.13.745h-4.12v3.143h4.82v1.35h-6.49v-10.023h6.44v1.36h-4.77v2.83h4.12zm8.86 3.153h4.78v1.35h-6.43v-10.023h1.65zm16.6-3.153h-4.12v3.143h4.83v1.35h-6.49v-10.023h6.44v1.36h-4.78v2.83h4.12zm-38.42 19.1h-3.13l-.69 2.327h-1.71l3.25-10.023h1.45l3.2 10.023h-1.7zm-2.71-1.41h2.3l-1.14-3.929zm15 1.148c0-.242-.05-.453-.15-.635-.1-.181-.24-.342-.42-.473-.18-.141-.4-.262-.65-.363s-.52-.201-.81-.282c-.4-.111-.79-.252-1.17-.423-.39-.171-.73-.383-1.03-.624-.3-.242-.54-.534-.73-.857-.18-.322-.28-.705-.28-1.138s.09-.816.28-1.159c.2-.342.44-.634.75-.876s.68-.423 1.09-.554.84-.191 1.3-.191c.48 0 .93.07 1.35.221.41.151.78.363 1.1.625.31.272.56.594.74.967s.28.786.28 1.239h-1.65c-.02-.252-.08-.484-.16-.695-.08-.212-.2-.383-.36-.544-.15-.151-.35-.272-.57-.353-.22-.08-.47-.121-.76-.121-.25 0-.48.031-.69.101-.21.061-.39.161-.54.282s-.27.272-.36.443c-.09.172-.14.373-.14.595 0 .231.07.433.19.614.12.172.27.323.46.454s.41.241.66.332c.26.091.52.181.79.262.42.121.82.282 1.2.463.38.182.71.403 1.01.655.29.252.51.554.68.887.17.332.25.715.25 1.148 0 .443-.09.836-.28 1.179-.19.342-.44.624-.75.856-.32.232-.69.403-1.1.524-.43.121-.86.181-1.31.181-.31 0-.62-.03-.92-.091-.3-.06-.59-.151-.87-.272-.28-.12-.53-.272-.77-.443s-.44-.383-.63-.614c-.18-.232-.31-.494-.41-.776s-.15-.604-.16-.947h1.66c.02.302.09.564.2.796.11.221.26.413.45.564.18.151.4.262.64.342.24.071.52.111.82.111.25 0 .48-.03.69-.09.21-.061.41-.151.57-.262.16-.121.29-.262.38-.433.08-.202.13-.403.13-.625zm13.59-1.914h-4.12v3.143h4.83v1.35h-6.49v-10.023h6.44v1.359h-4.78v2.831h4.12zm-24.25 21.427h-1.66l-3.26-6.901-.01 6.901h-1.68v-10.024h1.68l3.25 6.881.01-6.881h1.67zm12.25-4.372c0 .594-.08 1.158-.23 1.702s-.38 1.028-.67 1.441c-.31.413-.68.745-1.13.987-.46.242-.98.373-1.59.373s-1.13-.121-1.58-.373c-.44-.252-.81-.584-1.1-.997-.3-.413-.53-.897-.67-1.441-.15-.544-.22-1.108-.22-1.702v-1.28c0-.393.03-.785.1-1.158.07-.383.16-.736.29-1.068s.29-.635.5-.927c.19-.282.42-.524.68-.725.26-.202.57-.363.9-.473.33-.111.69-.172 1.1-.172.6 0 1.13.121 1.59.373.45.252.82.574 1.13.997.3.413.53.897.68 1.441s.23 1.118.23 1.712v1.29zm-1.66-1.29c0-.382-.04-.755-.1-1.128s-.17-.705-.32-.997-.36-.534-.61-.715c-.25-.182-.56-.272-.93-.272-.38 0-.69.09-.93.272-.24.181-.44.423-.59.715-.14.292-.24.624-.3.997s-.09.746-.09 1.118v1.3c0 .373.04.745.1 1.118s.16.705.31.997c.14.292.34.534.58.716.24.181.55.272.93.272.37 0 .68-.091.93-.272.25-.182.46-.424.61-.716s.26-.624.32-.997.09-.745.1-1.118v-1.29zm14.89-3.002h-3.08v8.664h-1.65v-8.664h-3.06v-1.36h7.78v1.36zm11.31 4.161h-4.12v3.143h4.83v1.35h-6.49v-10.024h6.44v1.36h-4.78v2.831h4.12z" fill="#fff"/><path d="m1892.33 6.81165h-73.33v73.32995 73.3304h73.33v73.34l36.67-36.67 36.67-36.67v-73.3304-73.32995z" fill="#303033"/><path d="m1843.95 94.4919c0-.24-.05-.45-.15-.63s-.24-.34-.42-.47c-.18-.14-.39-.26-.64-.36s-.52-.2-.81-.28c-.39-.11-.78-.25-1.16-.42s-.72-.38-1.02-.62-.54-.53-.72-.85c-.18-.33-.28-.7-.28-1.13s.09-.81.28-1.15c.18-.34.43-.63.74-.87s.67-.42 1.08-.55.84-.19 1.29-.19c.48 0 .93.07 1.34.22.42.15.78.36 1.09.62.31.27.56.59.74.96s.28.78.28 1.23h-1.64c-.02-.25-.08-.48-.16-.69s-.2-.39-.36-.54c-.15-.15-.34-.27-.56-.35s-.47-.12-.76-.12c-.25 0-.47.03-.68.1s-.39.16-.54.28-.27.27-.36.44-.13.37-.13.59c0 .23.06.43.18.61.12.17.27.32.46.45s.41.24.66.33.51.18.78.26c.42.12.81.27 1.19.46.38.18.71.4 1 .65s.51.55.68.88.25.71.25 1.14c0 .44-.09.83-.28 1.17s-.44.62-.75.85-.68.4-1.09.52c-.42.12-.85.17-1.3.17-.31 0-.61-.03-.91-.09s-.59-.15-.86-.27c-.28-.12-.53-.27-.77-.44-.24-.18-.44-.38-.62-.61s-.31-.49-.41-.77c-.1-.29-.15-.6-.16-.94h1.65c.02.3.09.56.2.79s.25.41.44.56c.18.15.4.26.64.34.24.07.51.11.81.11.25 0 .48-.03.69-.09s.4-.15.56-.26c.16-.12.29-.26.38-.43.08-.2.13-.39.13-.61zm13.44-7.39.01 6.67c0 .51-.09.98-.25 1.4s-.38.78-.67 1.08-.63.53-1.04.7c-.41.16-.87.25-1.37.25-.49 0-.94-.08-1.34-.25s-.75-.4-1.03-.69c-.29-.3-.51-.66-.67-1.08s-.24-.89-.25-1.41l.01-6.67h1.61l.01 6.67c0 .31.04.59.12.84s.18.47.31.66c.14.18.31.33.51.43s.44.15.71.15.51-.05.72-.15.38-.25.53-.43c.14-.19.25-.41.32-.66s.11-.54.12-.84l.01-6.67zm7.43 6.14v3.81h-1.64v-9.95h3.33c.5 0 .96.08 1.38.22s.78.35 1.09.62.54.59.71.97.26.81.26 1.29c0 .46-.08.88-.26 1.26s-.41.69-.71.96-.67.47-1.09.61-.88.21-1.38.22h-1.69zm0-1.33h1.69c.28 0 .53-.04.75-.13.22-.08.41-.2.56-.35s.27-.33.36-.54.12-.44.12-.68c0-.26-.04-.5-.12-.72s-.2-.41-.36-.56c-.16-.16-.34-.28-.56-.37s-.47-.13-.75-.14h-1.69zm-12.14 18.1301v3.81h-1.64v-9.95h3.33c.5 0 .96.08 1.38.22s.78.35 1.09.62.54.59.71.97.26.81.26 1.29c0 .46-.08.88-.26 1.26s-.41.69-.71.96-.67.47-1.09.61-.88.21-1.38.22h-1.69zm0-1.33h1.69c.28 0 .53-.04.75-.13.22-.08.41-.2.56-.35s.27-.33.36-.54.12-.44.12-.68c0-.26-.04-.5-.12-.72s-.2-.41-.36-.56c-.16-.16-.34-.28-.56-.37s-.47-.13-.75-.14h-1.69zm17.12.81c0 .59-.08 1.15-.23 1.69s-.38 1.02-.67 1.43c-.3.41-.67.74-1.12.98s-.97.37-1.58.37c-.6 0-1.12-.12-1.56-.37s-.81-.58-1.1-.99-.52-.89-.66-1.42c-.15-.54-.22-1.1-.22-1.69v-1.27c0-.39.03-.77.1-1.15.07-.37.16-.73.29-1.06s.29-.63.49-.92c.19-.28.42-.52.68-.72s.56-.36.89-.47.69-.17 1.09-.17c.6 0 1.13.12 1.58.37s.82.58 1.12.99.53.89.68 1.43.23 1.11.23 1.7v1.27zm-1.64-1.29c0-.37-.04-.75-.1-1.11s-.17-.7-.32-.99-.35-.52-.6-.71c-.25-.18-.56-.27-.93-.27s-.68.09-.92.27-.44.42-.58.71-.24.62-.3.99-.09.74-.09 1.11v1.29c0 .37.04.74.1 1.11s.16.7.3.99.34.53.58.71.55.27.92.27.68-.09.93-.27.45-.42.6-.71.26-.62.32-.99.09-.74.1-1.11v-1.29zm10.37 1.74h-1.67v3.88h-1.64v-9.95h3.14c.51 0 .98.07 1.41.2.43.12.8.31 1.12.56.31.25.56.56.73.93s.26.81.26 1.31c0 .34-.04.64-.13.92s-.21.53-.37.75-.35.42-.57.59-.47.31-.74.43l2.11 4.18v.08h-1.75zm-1.67-1.33h1.51c.27 0 .52-.04.75-.12s.42-.19.59-.33.29-.32.39-.53c.09-.21.14-.45.14-.71 0-.28-.04-.52-.13-.74s-.21-.39-.37-.54-.36-.26-.59-.33-.49-.11-.78-.12h-1.5v3.42zm-31.03 13.41h-3.06v8.6h-1.63v-8.6h-3.04v-1.35h7.72v1.35zm35.82 8.61h-30.9v-9.95h30.9zm-36.85-16.81h-6.7v-9.95h6.7zm36.85-16.8001h-6.7v-9.95h6.7z" fill="#fff"/><g clip-path="url(#a)" fill="#303033"><path d="m758.991 190.145v-18.333-18.334h-18.334-18.333-18.333-18.334v18.334 18.333 18.333 18.334h18.334 18.333 18.333 18.334v-18.334z"/><path d="m813.99 6.81165h-18.333-18.333-18.334v18.33335 18.3333 18.3333 18.3334 18.3333 18.3337 18.333 18.333h18.334 18.333 18.333 18.334v-18.333-18.333-18.3337-18.3333-18.3334-18.3333-18.3333-18.33335z"/><g clip-path="url(#b)"><path d="m798.776 167.422h5.92v1.36h-2.15v7.24h2.15v1.35h-5.92v-1.35h2.11v-7.24h-2.11z"/><path d="m817.136 177.372h-1.65l-3.25-6.85-.01 6.85h-1.66v-9.95h1.66l3.23 6.83.02-6.83h1.66z"/><path d="m780.717 191.122c-.05.48-.16.92-.34 1.31s-.42.73-.72 1.01-.66.5-1.06.65c-.41.15-.86.23-1.36.23-.61 0-1.13-.12-1.59-.35-.45-.23-.83-.55-1.13-.95s-.53-.87-.68-1.41-.24-1.12-.24-1.73v-1.36c0-.61.08-1.18.24-1.72s.38-1.01.69-1.41c.3-.4.68-.72 1.13-.96s.98-.35 1.57-.35c.52 0 .99.08 1.4.23s.76.37 1.05.66.52.63.7 1.03.29.86.33 1.35h-1.63c-.03-.29-.08-.56-.17-.8-.08-.24-.2-.44-.34-.62-.15-.17-.33-.3-.55-.39s-.48-.14-.78-.14c-.37 0-.68.08-.93.25s-.45.4-.61.68-.27.61-.33.99c-.07.37-.1.77-.1 1.18v1.37c0 .43.03.83.1 1.21s.17.71.32.99.35.51.6.67.56.25.94.25c.57 0 1.01-.16 1.31-.49s.48-.79.53-1.38z"/><path d="m788.217 192.832h4.74v1.34h-6.38v-9.95h1.64z"/><path d="m803.377 191.862h-3.11l-.68 2.31h-1.7l3.23-9.95h1.44l3.17 9.95h-1.69zm-2.69-1.4h2.28l-1.13-3.9z"/><path d="m813.857 191.682 2.07-7.46h1.79l-3.08 9.95h-1.57l-3.07-9.95h1.79z"/><path d="m792.247 206.512h-4.09v3.12h4.79v1.34h-6.44v-9.95h6.39v1.35h-4.74v2.81h4.09z"/><path d="m780.717 210.972h-7.12v-9.95h7.12z"/><path d="m817.057 210.842h-19.17v-9.95h19.17z"/><path d="m793.127 177.512h-19.53v-9.95h19.53z"/></g></g><g clip-path="url(#c)"><path d="m1138.99 226.812 146.67-146.667h-73.34l73.34-73.33335h-146.67z" fill="#303033"/><g fill="#fff"><path d="m1170.65 25.1913h-4.18v4.19h-1.65v-9.85h6.45v1.34h-4.79v2.98h4.18v1.34z"/><path d="m1183.4 24.9613h-4.09v3.09h4.79v1.33h-6.44v-9.85h6.39v1.34h-4.74v2.78h4.09z"/><path d="m1189.88 29.3813v-9.85h2.42c.68.01 1.3.12 1.84.34s1.01.53 1.39.93.67.88.88 1.44.31 1.17.31 1.85v.74c0 .68-.11 1.29-.31 1.85-.21.56-.5 1.04-.88 1.43-.37.41-.83.72-1.37.94s-1.14.33-1.81.33zm1.66-8.54v7.23h.81c.45-.01.85-.09 1.18-.24.34-.15.63-.37.85-.66.23-.28.38-.62.5-1.02.11-.4.17-.84.17-1.33v-.74c0-.47-.06-.91-.17-1.3s-.27-.73-.5-1.02c-.24-.29-.52-.51-.87-.67-.34-.16-.75-.24-1.21-.25z"/><path d="m1158.52 41.5913h-4.09v3.09h4.79v1.33h-6.44v-9.85h6.39v1.34h-4.74v2.78h4.09z"/><path d="m1168.02 42.1613h-1.67v3.84h-1.64v-9.85h3.14c.51 0 .98.07 1.41.19s.8.31 1.12.55c.31.25.56.55.73.92s.26.8.26 1.3c0 .33-.04.64-.13.91s-.21.52-.37.74-.35.42-.57.58c-.22.17-.47.31-.74.43l2.11 4.14v.08h-1.75zm-1.67-1.31h1.51c.27 0 .52-.04.75-.12s.42-.19.59-.33.29-.32.39-.52.14-.44.14-.71-.04-.52-.13-.73-.21-.39-.37-.53-.36-.25-.59-.33c-.23-.07-.49-.11-.78-.12h-1.5v3.39z"/><path d="m1182.65 60.3413h-3.11l-.68 2.29h-1.7l3.23-9.85h1.44l3.17 9.85h-1.69zm-2.69-1.38h2.28l-1.13-3.86z"/><path d="m1191.76 61.3013h4.74v1.33h-6.38v-9.85h1.64z"/><path d="m1196.33 45.8613h-18.66v-9.85h18.67z"/><path d="m1172.84 62.5013h-20.06v-9.85h20.06z"/><path d="m1159.03 29.5213h-6.25v-9.85h6.25z"/></g></g><g clip-path="url(#d)"><path d="m2192.34 80.145v-73.33335h-73.33l-36.67 36.66665-36.67 36.6667v73.333l36.67 36.667 36.67 36.667h73.33v-73.334h-73.33v-73.333z" fill="#303033"/><g clip-path="url(#e)" fill="#fff"><path d="m2073.12 104.787c.45.24.98.35 1.59.35.5 0 .96-.08 1.36-.23.41-.15.76-.37 1.06-.65s.54-.62.72-1.01.3-.83.34-1.31h-1.65c-.05.6-.23 1.06-.53 1.38-.3.33-.74.49-1.31.49-.37 0-.69-.08-.94-.25s-.44-.38-.59-.66-.26-.61-.32-.99c-.07-.38-.1-.78-.1-1.21v-1.3703c0-.41.03-.8.1-1.18s.18-.7.33-.99.36-.51.61-.68.56-.25.93-.25c.3 0 .56.05.78.14s.4.22.55.39.26.38.34.62.14.51.17.8h1.64c-.05-.5-.16-.95-.33-1.35s-.41-.75-.7-1.03-.64-.5-1.05-.66c-.42-.16-.88-.24-1.41-.24-.6 0-1.12.12-1.57.35s-.83.55-1.13.96c-.3.4-.53.88-.69 1.41-.16.54-.23 1.11-.24 1.72v1.3603c0 .61.08 1.19.23 1.72.15.54.38 1.01.68 1.41.3.41.68.72 1.13.96z"/><path d="m2085.33 102.687h3.11l.67 2.31h1.69l-3.17-9.9503h-1.44l-3.23 9.9503h1.7zm1.58-5.3103 1.13 3.9003h-2.28z"/><path d="m2100.63 100.727c.27-.12.51-.26.74-.43.22-.17.42-.3703.57-.5903.16-.22.28-.47.37-.75s.13-.58.13-.92c0-.5-.09-.94-.26-1.31-.17-.38-.42-.69-.73-.93s-.69-.44-1.12-.56-.9-.19-1.41-.2h-3.14v9.9503h1.64v-3.88h1.67l1.89 3.88h1.75v-.08zm-.94-1.0603c-.23.08-.48.12-.75.12h-1.51v-3.42h1.5c.29.01.55.04.78.12s.43.19.59.33c.16.15.29.33.37.54.09.21.13.46.13.74 0 .27-.05.51-.14.71-.09.21-.22.38-.39.53-.16.14-.35.25-.58.33z"/><path d="m2065.14 120.457h-4.79v-3.13h4.09v-1.32h-4.09v-2.81h4.74v-1.36h-6.39v9.96h6.44z"/><path d="m2077.96 113.197v-1.36h-6.39v9.96h6.44v-1.34h-4.79v-3.13h4.09v-1.32h-4.09v-2.81z"/><path d="m2089.8 116.507c.16-.22.28-.47.37-.75s.13-.58.13-.92c0-.5-.09-.94-.26-1.31s-.42-.68-.73-.93-.69-.44-1.12-.56c-.43-.13-.9-.19-1.41-.2h-3.14v9.95h1.64v-3.88h1.67l1.89 3.88h1.75v-.08l-2.11-4.18c.27-.12.51-.26.74-.43s.43-.36.58-.59zm-1.27-.9c-.09.21-.22.38-.39.53-.17.14-.36.25-.59.33s-.48.12-.75.12h-1.51v-3.42h1.5c.29 0 .55.04.78.12s.43.19.59.33.29.33.37.54c.09.21.13.46.13.74 0 .27-.04.51-.13.71z"/><path d="m2064.89 133.997c-.29-.25-.62-.47-1-.65s-.77-.33-1.19-.46c-.27-.08-.53-.16-.78-.26-.25-.09-.47-.2-.66-.33s-.35-.28-.46-.45c-.12-.17-.18-.37-.18-.61 0-.22.04-.41.13-.59.09-.17.21-.32.36-.44s.33-.22.54-.28.44-.1.68-.1c.29 0 .54.04.76.12s.4.2.56.35c.15.15.27.33.36.54.08.21.14.44.16.69h1.64c0-.45-.1-.86-.28-1.23s-.43-.69-.74-.96-.68-.47-1.09-.62c-.42-.15-.87-.22-1.34-.22-.45 0-.88.06-1.29.19s-.77.31-1.08.55-.56.53-.74.87-.28.72-.28 1.15.09.8.28 1.13c.18.33.42.61.72.86.3.24.64.45 1.02.62s.77.31 1.16.42c.29.09.56.18.81.28s.46.22.64.36.32.29.42.47.15.39.15.63c0 .22-.05.41-.14.58s-.22.31-.38.43-.35.21-.56.26c-.21.06-.44.09-.69.09-.3 0-.57-.04-.81-.11-.24-.08-.46-.19-.64-.34s-.33-.33-.44-.56c-.11-.22-.18-.48-.2-.79h-1.64c0 .34.06.65.16.94s.24.54.41.77.38.43.62.61.49.32.77.44.56.21.87.27c.3.06.6.09.91.09.45 0 .88-.06 1.3-.18s.78-.29 1.09-.52.57-.51.75-.85c.19-.34.28-.73.28-1.17 0-.43-.08-.81-.25-1.14-.17-.31-.4-.6-.69-.85z"/><path d="m2102.21 128.507h-30.78v9.95h30.78z"/><path d="m2102.21 111.837h-7.64v9.95h7.64z"/><path d="m2064.95 95.1766h-6.25v9.9504h6.25z"/></g></g></svg>