<svg fill="none" height="1127" viewBox="0 0 627 1127" width="627" xmlns="http://www.w3.org/2000/svg" xmlns:xlink="http://www.w3.org/1999/xlink"><clipPath id="a"><path d="m0 0h627v1127h-627z"/></clipPath><clipPath id="b"><path d="m13.6592 304.728h146.67v220h-146.67z"/></clipPath><clipPath id="c"><path d="m101.599 465.338h44.12v43.55h-44.12z"/></clipPath><clipPath id="d"><path d="m466.333 304.728h146.67v220h-146.67z"/></clipPath><clipPath id="e"><path d="m237.669 888.562h146.67v220h-146.67z"/></clipPath><clipPath id="f"><path d="m250.669 976.647h44.07v43.83h-44.07z"/></clipPath><clipPath id="g"><path d="m466.34 596.573h146.67v220h-146.67z"/></clipPath><clipPath id="h"><path d="m478.34 678.573h40v41.68h-40z"/></clipPath><clipPath id="i"><path d="m466.33 888.186h146.67v220h-146.67z"/></clipPath><g clip-path="url(#a)"><path d="m310.996 304.728v146.664h-73.327l73.327 73.336h73.337v-146.673z" fill="#303033"/><path d="m325.762 470.611v3.937h-1.695v-10.282h3.441c.517 0 .992.083 1.426.227.434.145.806.362 1.127.641.32.279.558.61.733 1.002.176.393.269.837.269 1.334 0 .475-.083.909-.269 1.302-.186.392-.423.713-.733.992s-.693.485-1.127.63-.909.217-1.426.227h-1.746zm0-1.374h1.746c.29 0 .548-.042.775-.135.228-.082.424-.206.579-.361s.279-.341.372-.558.124-.455.124-.703c0-.269-.041-.517-.124-.744-.083-.228-.207-.424-.372-.579-.165-.165-.351-.289-.579-.382-.227-.093-.485-.135-.775-.145h-1.746z" fill="#fff"/><path d="m338.348 473.163h4.898v1.385h-6.593v-10.282h1.695z" fill="#fff"/><path d="m354.013 472.161h-3.214l-.703 2.387h-1.756l3.338-10.282h1.488l3.275 10.282h-1.746zm-2.78-1.447h2.356l-1.167-4.03z" fill="#fff"/><path d="m368.863 465.661h-3.162v8.887h-1.685v-8.887h-3.141v-1.395h7.977v1.395z" fill="#fff"/><path d="m330.103 487.527h-4.32v4.381h-1.705v-10.282h6.665v1.395h-4.95v3.111h4.32v1.395z" fill="#fff"/><path d="m343.463 487.434c0 .609-.083 1.188-.238 1.746s-.392 1.054-.692 1.478c-.31.424-.692.765-1.157 1.013s-1.003.382-1.633.382c-.62 0-1.157-.124-1.612-.382-.455-.259-.837-.6-1.137-1.024-.299-.423-.537-.919-.682-1.467-.155-.558-.227-1.137-.227-1.746v-1.313c0-.403.031-.795.103-1.188.073-.382.166-.754.3-1.095s.3-.651.506-.951c.197-.289.434-.537.703-.744s.579-.372.92-.486c.341-.113.713-.175 1.126-.175.62 0 1.168.124 1.633.382s.847.599 1.157 1.023.548.92.703 1.478.237 1.147.237 1.756v1.313zm-1.705-1.333c0-.383-.041-.775-.103-1.147s-.176-.724-.331-1.023c-.155-.3-.362-.538-.62-.734-.258-.186-.579-.279-.961-.279s-.703.093-.951.279-.454.434-.599.734c-.145.299-.248.64-.31 1.023-.062.382-.093.764-.093 1.147v1.333c0 .382.041.764.103 1.147.062.382.166.723.31 1.023.145.299.352.547.6.733s.568.279.95.279c.383 0 .703-.093.961-.279.259-.186.465-.434.62-.733.155-.3.269-.641.331-1.023.062-.383.093-.765.103-1.147v-1.333z" fill="#fff"/><path d="m352.474 505.259h-1.726v4.009h-1.694v-10.281h3.244c.527 0 1.013.072 1.457.206.445.124.827.321 1.158.579.32.258.579.579.754.961.176.382.269.837.269 1.354 0 .351-.041.661-.134.95-.093.29-.217.548-.383.775-.165.228-.362.434-.589.61s-.486.32-.765.444l2.181 4.32v.082h-1.808zm-1.715-1.374h1.56c.279 0 .537-.042.775-.124.238-.083.434-.197.61-.341.175-.145.299-.331.403-.548.093-.217.144-.465.144-.734 0-.289-.041-.537-.134-.764-.093-.228-.217-.403-.382-.558-.166-.155-.372-.269-.61-.341-.237-.073-.506-.114-.806-.124h-1.55v3.534z" fill="#fff"/><path d="m363.582 498.987 1.281 4.443 1.416-4.443h2.108v10.281h-1.591v-3.534l.103-4.505-1.581 4.929h-.889l-1.436-4.764.103 4.34v3.534h-1.591v-10.281z" fill="#fff"/><path d="m368.946 491.908h-19.933v-10.282h19.933z" fill="#fff"/><path d="m343.886 509.268h-19.933v-10.281h19.933z" fill="#fff"/><path d="m86.9925 669.979-73.3333-73.333h146.6768zm0 73.333 73.3435-73.333h-73.3333-73.3332l73.323 73.333h-73.3333l73.3333 73.333 73.3335-73.333z" fill="#303033"/><path d="m65.1143 624.157v-10.229h2.4982c.6991 0 1.3365.123 1.8917.349s1.0384.555 1.4291.967c.3906.421.6887.915.9046 1.49.2159.576.3188 1.224.3188 1.923v.771c0 .699-.1132 1.347-.3188 1.923-.2159.575-.514 1.079-.8944 1.49-.3907.411-.8636.74-1.4085.967-.5552.226-1.172.339-1.8608.339zm1.7168-8.872v7.515h.8328c.4626 0 .8739-.082 1.2132-.247.3495-.164.6374-.39.8635-.678.2365-.298.401-.648.5244-1.059.1131-.411.1747-.874.1747-1.378v-.791c0-.494-.0616-.946-.1747-1.347-.1131-.411-.2879-.761-.5244-1.059-.2364-.298-.5243-.524-.8841-.699-.3495-.165-.7711-.257-1.244-.257z" fill="#fff"/><path d="m66.8003 640.052h4.8731v1.377h-6.5591v-10.229h1.686z" fill="#fff"/><path d="m84.5153 619.695c0 .607-.0822 1.183-.2364 1.738s-.3906 1.048-.6888 1.47c-.3084.421-.6888.761-1.1514 1.007-.4627.247-.9973.381-1.6244.381-.6169 0-1.1515-.124-1.6038-.381-.4524-.257-.8328-.596-1.131-1.017-.2981-.422-.5346-.915-.6785-1.46-.1542-.555-.2262-1.131-.2262-1.738v-1.305c0-.401.0309-.792.1029-1.183.0719-.38.1644-.75.2981-1.09.1336-.339.2981-.647.5037-.945.1954-.288.4318-.535.6991-.741.2673-.205.5758-.37.915-.483.3393-.113.7094-.175 1.1207-.175.6168 0 1.1617.124 1.6244.381.4626.257.843.596 1.1514 1.018.3084.421.5449.915.6991 1.47s.2364 1.141.2364 1.748zm-1.6963-1.316c0-.38-.0411-.771-.1028-1.141-.0617-.38-.1748-.72-.329-1.018s-.3598-.534-.6168-.73c-.257-.185-.5757-.277-.9561-.277s-.6991.092-.9459.277c-.2467.185-.4523.432-.5963.73-.1439.298-.2467.638-.3084 1.018s-.0925.761-.0925 1.141v1.326c0 .381.0411.761.1028 1.142.0616.38.1645.719.3084 1.017.144.299.3495.545.5963.73.2467.185.5655.278.9459.278.3803 0 .699-.093.9561-.278.257-.185.4626-.431.6168-.73.1542-.298.2673-.637.329-1.017.0617-.381.0925-.761.1028-1.142v-1.326z" fill="#fff"/><path d="m84.5153 636.967c0 .607-.0822 1.182-.2364 1.738-.1542.555-.3804 1.048-.6888 1.47-.3084.421-.6888.761-1.1514 1.007-.4627.247-.9973.381-1.6244.381-.6169 0-1.1515-.124-1.6038-.381-.4524-.257-.8328-.596-1.131-1.017-.2981-.422-.5346-.915-.6785-1.46-.1542-.556-.2262-1.131-.2262-1.738v-1.305c0-.401.0309-.792.1029-1.183.0719-.38.1644-.75.2981-1.09.1336-.339.2981-.647.5037-.945.1954-.288.4318-.535.6991-.741.2673-.205.5758-.37.915-.483.3393-.113.7094-.175 1.1207-.175.6168 0 1.1617.124 1.6244.381.4626.257.843.596 1.1514 1.018.3084.421.5449.915.6991 1.47s.2364 1.141.2364 1.748v1.305zm-1.6963-1.316c0-.38-.0411-.771-.1028-1.141s-.1748-.72-.329-1.018-.3598-.534-.6168-.73c-.257-.185-.5757-.277-.9561-.277s-.6991.092-.9459.277c-.2467.185-.4523.432-.5963.73-.1439.298-.2467.638-.3084 1.018s-.0925.761-.0925 1.141v1.326c0 .381.0411.761.1028 1.142.0616.38.1645.719.3084 1.017.144.299.3495.545.5963.73.2467.185.5655.278.9459.278.3803 0 .699-.093.9561-.278.257-.185.4626-.431.6168-.73.1542-.298.2673-.637.329-1.017.0617-.381.0925-.761.1028-1.142v-1.326z" fill="#fff"/><path d="m95.4634 620.63.7299-6.713h1.573l-1.3057 10.229h-1.6141l-1.1206-6.805-1.1001 6.805h-1.6141l-1.3056-10.229h1.573l.7299 6.672 1.0486-6.672h1.3263z" fill="#fff"/><path d="m95.3815 639.043h-3.1973l-.6991 2.375h-1.7478l3.3207-10.23h1.4804l3.2591 10.23h-1.7374zm-2.7759-1.439h2.3441l-1.1617-4.01z" fill="#fff"/><path d="m109.847 624.157h-1.697l-3.331-7.042-.01 7.042h-1.706v-10.229h1.706l3.321 7.022.01-7.022h1.707z" fill="#fff"/><path d="m103.144 641.429v-10.23h2.498c.699 0 1.336.124 1.891.35.556.226 1.039.555 1.43.966.39.422.688.915.904 1.491s.319 1.223.319 1.922v.771c0 .7-.113 1.347-.319 1.923-.216.576-.514 1.079-.894 1.491-.391.411-.864.74-1.409.966s-1.172.339-1.861.339zm1.717-8.873v7.516h.832c.463 0 .874-.083 1.213-.247.35-.165.638-.391.864-.679.236-.298.401-.647.524-1.059.113-.411.175-.873.175-1.377v-.792c0-.493-.062-.946-.175-1.347-.113-.411-.288-.76-.524-1.059-.237-.298-.524-.524-.884-.699-.35-.164-.771-.257-1.244-.257z" fill="#fff"/><path d="m65.1143 596.646h45.0817v10.229h-45.0817z" fill="#fff"/><path d="m65.1143 624.085v-10.23h2.4982c.6991 0 1.3365.124 1.8917.35s1.0384.555 1.4291.966c.3906.422.6887.915.9046 1.491s.3188 1.224.3188 1.923v.771c0 .699-.1132 1.347-.3188 1.922-.2159.576-.514 1.08-.8944 1.491-.3907.411-.8636.74-1.4085.966-.5552.227-1.172.34-1.8608.34zm1.7168-8.872v7.515h.8328c.4626 0 .8739-.082 1.2132-.247.3495-.164.6374-.391.8635-.678.2365-.299.401-.648.5244-1.059.1131-.412.1747-.874.1747-1.378v-.792c0-.493-.0616-.945-.1747-1.346-.1131-.412-.2879-.761-.5244-1.059-.2364-.298-.5243-.525-.8841-.699-.3495-.165-.7711-.257-1.244-.257z" fill="#fff"/><path d="m66.8003 639.979h4.8731v1.378h-6.5591v-10.23h1.686z" fill="#fff"/><path d="m84.5153 619.623c0 .607-.0822 1.182-.2364 1.737-.1542.556-.3906 1.049-.6888 1.471-.3084.421-.6888.76-1.1514 1.007-.4627.247-.9973.38-1.6244.38-.6169 0-1.1515-.123-1.6038-.38-.4524-.257-.8328-.596-1.131-1.018-.2981-.421-.5346-.915-.6785-1.46-.1542-.555-.2262-1.13-.2262-1.737v-1.306c0-.401.0309-.791.1029-1.182.0719-.38.1644-.751.2981-1.09.1336-.339.2981-.647.5037-.946.1954-.287.4318-.534.6991-.74.2673-.205.5758-.37.915-.483.3393-.113.7094-.175 1.1207-.175.6168 0 1.1617.124 1.6244.381.4626.257.843.596 1.1514 1.017.3084.422.5449.915.6991 1.471.1542.555.2364 1.141.2364 1.747zm-1.6963-1.316c0-.38-.0411-.771-.1028-1.141-.0617-.381-.1748-.72-.329-1.018s-.3598-.535-.6168-.73c-.257-.185-.5757-.278-.9561-.278s-.6991.093-.9459.278c-.2467.185-.4523.432-.5963.73-.1439.298-.2467.637-.3084 1.018-.0617.38-.0925.761-.0925 1.141v1.326c0 .381.0411.761.1028 1.141.0616.381.1645.72.3084 1.018.144.298.3495.545.5963.73.2467.185.5655.278.9459.278.3803 0 .699-.093.9561-.278.257-.185.4626-.432.6168-.73s.2673-.637.329-1.018c.0617-.38.0925-.76.1028-1.141v-1.326z" fill="#fff"/><path d="m84.5153 636.895c0 .606-.0822 1.182-.2364 1.737-.1542.556-.3804 1.049-.6888 1.471-.3084.421-.6888.76-1.1514 1.007-.4627.247-.9973.38-1.6244.38-.6169 0-1.1515-.123-1.6038-.38-.4524-.257-.8328-.596-1.131-1.018-.2981-.421-.5346-.915-.6785-1.46-.1542-.555-.2262-1.131-.2262-1.737v-1.306c0-.401.0309-.791.1029-1.182.0719-.38.1644-.751.2981-1.09.1336-.339.2981-.648.5037-.946.1954-.288.4318-.534.6991-.74.2673-.205.5758-.37.915-.483.3393-.113.7094-.175 1.1207-.175.6168 0 1.1617.124 1.6244.381.4626.257.843.596 1.1514 1.017.3084.422.5449.915.6991 1.47.1542.556.2364 1.142.2364 1.748v1.306zm-1.6963-1.316c0-.38-.0411-.771-.1028-1.141s-.1748-.72-.329-1.018-.3598-.535-.6168-.73c-.257-.185-.5757-.278-.9561-.278s-.6991.093-.9459.278c-.2467.185-.4523.432-.5963.73-.1439.298-.2467.637-.3084 1.018-.0617.38-.0925.761-.0925 1.141v1.326c0 .381.0411.761.1028 1.141.0616.381.1645.72.3084 1.018.144.298.3495.545.5963.73.2467.185.5655.278.9459.278.3803 0 .699-.093.9561-.278.257-.185.4626-.432.6168-.73s.2673-.637.329-1.018c.0617-.38.0925-.76.1028-1.141v-1.326z" fill="#fff"/><path d="m95.4634 620.558.7299-6.713h1.573l-1.3057 10.229h-1.6141l-1.1206-6.806-1.1001 6.806h-1.6141l-1.3056-10.229h1.573l.7299 6.672 1.0486-6.672h1.3263z" fill="#fff"/><path d="m95.3815 638.971h-3.1973l-.6991 2.375h-1.7478l3.3207-10.23h1.4804l3.2591 10.23h-1.7374zm-2.7759-1.44h2.3441l-1.1617-4.009z" fill="#fff"/><path d="m109.847 624.085h-1.697l-3.331-7.042-.01 7.042h-1.706v-10.23h1.706l3.321 7.022.01-7.022h1.707z" fill="#fff"/><path d="m103.144 641.356v-10.229h2.498c.699 0 1.336.123 1.891.35.556.226 1.039.555 1.43.966.39.421.688.915.904 1.491.216.575.319 1.223.319 1.922v.771c0 .699-.113 1.347-.319 1.923-.216.575-.514 1.079-.894 1.49-.391.412-.864.741-1.409.967s-1.172.339-1.861.339zm1.717-8.872v7.515h.832c.463 0 .874-.082 1.213-.246.35-.165.638-.391.864-.679.236-.298.401-.648.524-1.059.113-.411.175-.874.175-1.378v-.791c0-.494-.062-.946-.175-1.347-.113-.411-.288-.761-.524-1.059-.237-.298-.524-.524-.884-.699-.35-.164-.771-.257-1.244-.257z" fill="#fff"/><path d="m65.1143 596.573h45.0817v10.23h-45.0817z" fill="#fff"/><g fill="#303033"><path d="m311.002 12.8115 73.337 73.3264v-73.3264z"/><path d="m237.664 86.1379 73.337-73.3264h-73.337z"/><path d="m311.001 159.475-73.337-73.3368v73.3368l73.337 73.337 73.336-73.337v-73.3368z"/><path d="m295.552 107.26h-6.923v-10.282h6.923z"/><path d="m333.631 89.8995h-6.923v-10.2818h6.923z"/><path d="m295.594 68.2094c0 .6097-.083 1.1884-.238 1.7464s-.392 1.054-.692 1.4777c-.31.4236-.692.7646-1.157 1.0126s-1.003.3824-1.633.3824c-.62 0-1.157-.124-1.612-.3824-.455-.2583-.837-.5993-1.137-1.023-.299-.4237-.537-.9197-.682-1.4673-.155-.558-.227-1.1367-.227-1.7464v-1.3123c0-.4031.031-.7957.103-1.1884.072-.3823.165-.7543.3-1.0953.134-.341.3-.6511.506-.9507.197-.2894.434-.5374.703-.744.268-.2067.578-.372.919-.4857s.713-.1757 1.127-.1757c.62 0 1.168.124 1.633.3824.465.2583.847.5993 1.157 1.023.31.4236.548.9197.703 1.4777s.237 1.147.237 1.7567v1.3123zm-1.705-1.3227c0-.3823-.042-.775-.104-1.147s-.175-.7233-.33-1.023-.362-.5374-.62-.7337c-.258-.186-.579-.279-.961-.279-.383 0-.703.093-.951.279s-.455.434-.599.7337c-.145.2997-.248.6407-.31 1.023s-.093.7647-.093 1.147v1.333c0 .3824.041.7647.103 1.1471.062.3823.165.7233.31 1.023.145.2996.352.5476.6.7336.248.1861.568.2791.95.2791s.703-.093.961-.2791c.259-.186.465-.434.62-.7336.155-.2997.269-.6407.331-1.023.062-.3824.093-.7647.103-1.1471v-1.333z"/><path d="m307.818 72.6942h-1.705l-3.348-7.0785-.011 7.0785h-1.715v-10.2818h1.715l3.338 7.0577.01-7.0577h1.716z"/><path d="m319.732 68.0752h-4.226v3.224h4.95v1.3847h-6.655v-10.2818h6.603v1.395h-4.898v2.9037h4.226z"/><path d="m325.83 70.0591c0-.3203.041-.5993.134-.868.093-.2583.217-.5064.383-.7337.165-.2273.361-.4443.589-.6407.227-.1963.486-.403.775-.5993-.3-.4237-.527-.8267-.693-1.1987-.165-.372-.248-.7647-.248-1.1677 0-.4133.063-.775.187-1.0953.124-.3204.299-.589.537-.8164.237-.2273.516-.3926.847-.5063s.692-.1757 1.106-.1757c.351 0 .661.062.951.186.289.124.526.2894.723.5064.196.2066.351.4546.465.7336s.165.5684.165.8784c0 .248-.041.4753-.114.682-.072.2067-.175.403-.309.589-.135.186-.29.3617-.466.5167-.175.1653-.371.3203-.578.4753l-.599.5064 1.911 2.4903c.155-.279.269-.589.362-.93.083-.3307.134-.6923.134-1.0747h1.478c0 .6304-.083 1.2091-.258 1.7464-.176.5373-.434 1.0127-.786 1.4467l1.302 1.6947h-1.973l-.496-.651c-.352.2583-.734.4546-1.127.589-.403.1343-.837.2066-1.302.2066-.475 0-.899-.0723-1.281-.2066-.383-.1344-.703-.3307-.972-.5787-.268-.248-.475-.5373-.609-.8784-.134-.341-.238-.7233-.238-1.1263zm3.11 1.426c.279 0 .559-.0413.827-.1343.269-.093.527-.217.765-.3824l-2.036-2.6867-.113.093c-.197.1654-.352.3307-.466.4857-.113.155-.206.31-.258.4444-.062.1446-.093.2686-.114.3926-.02.124-.031.217-.031.2997 0 .2067.032.403.094.5787.062.186.154.341.278.4753s.269.2377.445.3204c.175.0826.382.1136.609.1136zm-.588-6.6547c0 .2273.051.465.144.7026.093.2377.238.496.414.7647l.723-.5683c.145-.1034.258-.1964.341-.2997.082-.1033.145-.1963.176-.2997.031-.1033.061-.1963.072-.2893.01-.093.01-.1757.01-.248 0-.124-.02-.248-.051-.3617-.042-.124-.093-.2273-.166-.3203-.072-.093-.155-.1654-.258-.217-.103-.0517-.217-.0827-.341-.0827-.176 0-.331.031-.465.1033-.135.0724-.248.155-.341.2687s-.155.2377-.197.3824c-.041.1446-.061.2996-.061.465z"/><path d="m295.521 88.7626c-.176.2067-.382.3927-.61.5684-.227.1757-.496.3203-.795.4547-.3.1343-.61.2273-.951.2996-.341.0724-.703.1034-1.095.1034-.62 0-1.168-.124-1.643-.3617-.476-.2377-.879-.5683-1.209-.9817-.331-.4133-.579-.9093-.744-1.4673-.176-.5684-.259-1.1677-.269-1.8187v-1.2711c0-.651.083-1.2606.258-1.8186.176-.558.414-1.0541.734-1.4777.32-.4237.703-.7544 1.168-.992.465-.2377.992-.3617 1.581-.3617.527 0 1.012.0723 1.426.217.413.1447.775.3513 1.085.6303.299.279.537.6097.713 1.0024.176.3926.289.837.33 1.333h-1.663c-.042-.279-.104-.527-.197-.744s-.206-.4133-.361-.5684c-.155-.155-.331-.279-.548-.3513-.217-.0827-.465-.124-.765-.124-.361 0-.661.0827-.919.2687-.259.1756-.476.4133-.641.713s-.3.6407-.372 1.0437c-.083.3926-.124.806-.124 1.2296v1.2814c0 .434.052.837.134 1.2297.083.3927.217.7337.393 1.0333.176.2997.403.5374.682.713.279.1757.61.2687 1.002.279.166 0 .321-.0103.496-.031.166-.0206.331-.0516.486-.1033s.289-.1033.424-.1757c.124-.0723.227-.1653.31-.2686l.01-2.0564h-1.86v-1.3433h3.513z"/><path d="m304.615 86.0346h-1.726v4.0094h-1.695v-10.2818h3.245c.527 0 1.013.0723 1.457.2067.444.124.827.3203 1.157.5787.321.2583.579.5786.755.961.175.3823.268.837.268 1.3537 0 .3513-.041.6613-.134.9506-.093.2894-.217.5477-.382.775-.166.2274-.362.4341-.589.6097-.228.1757-.486.3204-.765.4444l2.18 4.3194v.0826h-1.808zm-1.726-1.364h1.56c.279 0 .538-.0413.775-.124.238-.0827.434-.1963.61-.341s.3-.3307.403-.5477c.093-.217.145-.465.145-.7337 0-.2893-.042-.5373-.135-.7646-.093-.2274-.217-.403-.382-.558s-.372-.2687-.61-.341c-.237-.0724-.506-.1137-.806-.124h-1.55v3.534z"/><path d="m320.684 85.5698c0 .6096-.083 1.1883-.238 1.7463s-.393 1.054-.692 1.4777c-.31.4237-.693.7647-1.158 1.0127s-1.002.3823-1.632.3823c-.62 0-1.158-.124-1.612-.3823-.455-.2583-.837-.5994-1.137-1.023-.3-.4237-.537-.9197-.682-1.4674-.155-.558-.227-1.1367-.227-1.7463v-1.3124c0-.403.031-.7957.103-1.1883.072-.3824.165-.7544.3-1.0954.134-.341.299-.651.506-.9507.196-.2893.434-.5373.703-.744.268-.2067.578-.372.919-.4857.341-.1136.713-.1756 1.127-.1756.62 0 1.167.124 1.632.3823.465.2584.848.5994 1.158 1.023.31.4237.547.9197.702 1.4777s.238 1.147.238 1.7567v1.3124zm-1.705-1.3227c0-.3824-.042-.775-.104-1.147s-.175-.7234-.33-1.0231c-.155-.2996-.362-.5373-.62-.7336-.259-.186-.579-.279-.961-.279-.383 0-.703.093-.951.279s-.455.434-.599.7336c-.145.2997-.248.6407-.31 1.0231-.062.3823-.093.7646-.093 1.147v1.333c0 .3823.041.7647.103 1.147s.165.7234.31 1.023c.145.2997.351.5477.599.7337s.569.279.951.279.703-.093.961-.279.465-.434.62-.7337c.155-.2996.269-.6407.331-1.023s.093-.7647.103-1.147v-1.333z"/><path d="m307.86 97.1226.01 6.8924c0 .527-.093 1.013-.258 1.447-.166.434-.393.806-.693 1.116-.299.31-.651.547-1.074.723-.424.165-.899.258-1.416.258-.506 0-.971-.082-1.385-.258-.413-.176-.775-.413-1.064-.713-.3-.31-.527-.682-.692-1.116-.166-.434-.248-.92-.259-1.457l.011-6.8924h1.663l.011 6.8924c0 .32.041.61.124.868.082.258.186.486.32.682.145.186.32.341.527.444.207.104.455.155.734.155s.527-.051.744-.155c.217-.103.392-.258.547-.444.145-.196.259-.424.331-.682s.114-.558.124-.868l.01-6.8924z"/><path d="m315.537 103.467v3.937h-1.695v-10.2814h3.441c.517 0 .992.0826 1.426.2273s.806.3617 1.126.6407c.321.279.558.6096.734 1.0023s.269.837.269 1.3331c0 .475-.083.909-.269 1.302s-.424.713-.734.992-.692.486-1.126.63c-.434.145-.909.217-1.426.228h-1.746zm0-1.374h1.746c.289 0 .548-.041.775-.134.227-.083.424-.207.579-.362s.279-.341.372-.558.124-.455.124-.703c0-.268-.042-.5164-.124-.7437-.083-.2274-.207-.4237-.372-.5787-.166-.1654-.352-.2894-.579-.3824s-.486-.1343-.775-.1446h-1.746z"/><path d="m331.596 104.759c0-.248-.052-.465-.156-.651-.103-.186-.248-.352-.434-.486-.186-.145-.403-.269-.661-.372s-.537-.207-.837-.289c-.403-.114-.806-.259-1.199-.434-.392-.176-.744-.393-1.054-.641s-.558-.548-.744-.878c-.186-.341-.289-.724-.289-1.1679 0-.4444.093-.837.289-1.1884.186-.3513.445-.651.765-.899s.692-.434 1.116-.5683c.424-.1344.868-.1964 1.333-.1964.496 0 .961.0724 1.385.2274.434.155.806.372 1.126.6407.321.279.579.6096.765.992.186.3823.289.806.289 1.2709h-1.694c-.021-.2583-.083-.4959-.166-.7129s-.207-.403-.372-.558c-.155-.155-.351-.279-.579-.3617-.227-.0827-.485-.124-.785-.124-.258 0-.486.031-.703.1033-.217.0724-.403.1654-.558.2894s-.279.279-.372.4546c-.093.1757-.134.3824-.134.6097 0 .2376.062.4446.186.6306.124.175.279.33.475.465.197.134.424.248.682.341.259.093.527.186.806.268.434.124.837.279 1.23.476.393.186.734.413 1.034.671.299.259.527.569.702.91.176.341.259.733.259 1.178 0 .454-.093.857-.29 1.209-.196.351-.454.641-.775.878-.32.238-.703.414-1.126.538-.434.124-.879.175-1.344.175-.32 0-.63-.031-.94-.093s-.61-.155-.889-.279c-.289-.124-.547-.279-.795-.454-.248-.186-.455-.393-.641-.631s-.32-.506-.424-.796c-.103-.299-.155-.62-.165-.971h1.705c.021.31.093.579.207.816.113.238.258.424.454.579.186.155.414.269.662.352.248.072.527.113.837.113.258 0 .496-.031.713-.093s.413-.155.579-.268c.165-.125.299-.269.392-.445.083-.207.135-.403.135-.63z"/><path d="m539.666 12.8115-73.326 73.3264 73.326 73.3371v-73.3371h73.337z"/><path d="m539.666 232.812v-73.337h-73.326z"/><path d="m563.774 180.069c0-.248-.051-.465-.155-.651-.103-.186-.248-.351-.434-.485-.186-.145-.403-.269-.661-.372-.259-.104-.537-.207-.837-.29-.403-.113-.806-.258-1.199-.434-.393-.175-.744-.392-1.054-.64s-.558-.548-.744-.879c-.186-.341-.289-.723-.289-1.167 0-.445.093-.837.289-1.189.186-.351.444-.651.765-.899.32-.248.692-.434 1.116-.568.423-.134.868-.196 1.333-.196.496 0 .961.072 1.384.227.434.155.807.372 1.127.641.32.279.579.609.765.992.186.382.289.806.289 1.271h-1.695c-.02-.259-.082-.496-.165-.713s-.207-.403-.372-.558c-.155-.155-.352-.279-.579-.362s-.486-.124-.785-.124c-.259 0-.486.031-.703.103-.217.073-.403.166-.558.29s-.279.279-.372.454c-.093.176-.134.383-.134.61 0 .238.062.444.186.63.124.176.279.331.475.465.196.135.424.248.682.341.259.093.527.186.806.269.434.124.837.279 1.23.475.393.186.734.414 1.033.672.3.258.527.568.703.909.175.341.258.734.258 1.178 0 .455-.093.858-.289 1.209-.196.352-.455.641-.775.879-.32.237-.703.413-1.127.537-.434.124-.878.176-1.343.176-.32 0-.63-.031-.94-.093s-.61-.155-.889-.279c-.289-.124-.548-.279-.796-.455-.248-.186-.454-.393-.64-.63-.186-.238-.321-.507-.424-.796-.103-.3-.155-.62-.165-.971h1.705c.02.31.093.578.206.816.114.238.259.424.455.579.186.155.413.268.661.351.248.072.528.114.838.114.258 0 .495-.031.712-.093s.414-.155.579-.269c.166-.124.3-.269.393-.444.083-.207.134-.403.134-.631z"/><path d="m577.001 178.106h-4.227v3.224h4.95v1.385h-6.655v-10.282h6.603v1.395h-4.898v2.904h4.227z"/><path d="m585.526 172.433 1.282 4.443 1.415-4.443h2.108v10.282h-1.591v-3.534l.103-4.506-1.581 4.929h-.888l-1.437-4.763.104 4.34v3.534h-1.592v-10.282z"/><path d="m601.047 197.688h-3.214l-.702 2.387h-1.757l3.338-10.282h1.488l3.275 10.282h-1.746zm-2.78-1.447h2.356l-1.167-4.03z"/><path d="m560.25 213.498v3.937h-1.694v-10.282h3.441c.516 0 .992.083 1.426.228.434.144.806.361 1.126.64s.558.61.734 1.003c.175.392.268.837.268 1.333 0 .475-.082.909-.268 1.302-.186.392-.424.713-.734.992s-.692.485-1.126.63-.91.217-1.426.227h-1.747zm0-1.374h1.747c.289 0 .547-.042.775-.135.227-.082.423-.206.578-.361s.279-.341.372-.558.124-.455.124-.703c0-.269-.041-.517-.124-.744-.082-.227-.206-.424-.372-.579-.165-.165-.351-.289-.578-.382-.228-.093-.486-.134-.775-.145h-1.747z"/><path d="m577.642 217.435h-1.654v-4.588h-3.492v4.588h-1.643v-10.282h1.643v4.299h3.492v-4.299h1.654z"/><path d="m590.496 212.961c0 .61-.082 1.188-.237 1.746s-.393 1.054-.693 1.478c-.31.424-.692.765-1.157 1.013s-1.002.382-1.633.382c-.62 0-1.157-.124-1.612-.382-.455-.259-.837-.6-1.136-1.023-.3-.424-.538-.92-.683-1.468-.155-.558-.227-1.136-.227-1.746v-1.312c0-.403.031-.796.103-1.189.073-.382.166-.754.3-1.095.135-.341.3-.651.507-.951.196-.289.433-.537.702-.744s.579-.372.92-.486c.341-.113.713-.175 1.126-.175.62 0 1.168.124 1.633.382s.847.599 1.157 1.023.548.92.703 1.478.238 1.147.238 1.757v1.312zm-1.705-1.333c0-.382-.041-.775-.103-1.147s-.176-.724-.331-1.023c-.155-.3-.361-.538-.62-.734-.258-.186-.578-.279-.961-.279-.382 0-.702.093-.95.279s-.455.434-.6.734c-.144.299-.248.641-.31 1.023s-.093.765-.093 1.147v1.333c0 .382.042.765.104 1.147s.165.723.31 1.023c.144.3.351.548.599.734s.568.279.951.279c.382 0 .702-.093.961-.279.258-.186.465-.434.62-.734s.268-.641.33-1.023.093-.765.104-1.147v-1.333z"/><path d="m599.508 213.426h-1.726v4.009h-1.694v-10.282h3.244c.528 0 1.013.073 1.458.207.444.124.826.32 1.157.579.32.258.579.578.754.961.176.382.269.837.269 1.353 0 .352-.041.662-.134.951s-.217.548-.383.775c-.165.227-.361.434-.589.61-.227.175-.485.32-.764.444l2.18 4.319v.083h-1.808zm-1.715-1.375h1.56c.279 0 .538-.041.775-.124.238-.082.434-.196.61-.341.176-.144.3-.33.403-.547.093-.217.145-.465.145-.734 0-.289-.042-.537-.135-.765-.093-.227-.217-.403-.382-.558s-.372-.268-.61-.341c-.237-.072-.506-.113-.806-.124h-1.55v3.534z"/><path d="m590.362 199.941h-31.93v-10.282h31.93z"/><path d="m603.434 182.58h-6.923v-10.281h6.923z"/><path d="m86.9959 86.138 73.3261-73.3265h-146.6628v146.6635l73.3367 73.337 73.3261-73.337h-73.3261l73.3261-73.337z"/></g><path d="m59.8807 70.9271h-31.9305v-10.2818h31.9305z" fill="#fff"/><path d="m46.5213 31.7322h-4.2264v3.224h4.9498v1.3847h-6.6549v-10.2818h6.6032v1.395h-4.8981v2.9037h4.2264z" fill="#fff"/><path d="m59.6957 36.3512h-1.7051l-3.348-7.0785-.0103 7.0785h-1.7153v-10.2819h1.7153l3.3378 7.0578.0103-7.0578h1.7153z" fill="#fff"/><path d="m72.5307 33.1892c-.0517.4961-.1653.9507-.3513 1.3537s-.4341.7544-.7441 1.0437c-.31.2894-.682.5167-1.0953.6717-.4237.155-.8887.2377-1.4053.2377-.6304 0-1.1678-.124-1.6432-.3617-.465-.2377-.8576-.5683-1.1676-.9817-.3101-.4133-.5477-.899-.7027-1.457s-.2376-1.147-.2376-1.7774v-1.4053c0-.6304.0827-1.2194.248-1.7774s.3926-1.0437.7129-1.457c.31-.4133.7027-.744 1.1677-.992s1.0128-.3617 1.6225-.3617c.5373 0 1.023.0827 1.4467.2377.4236.155.7852.3823 1.0849.682s.5374.651.7234 1.0643c.186.4134.2997.8887.341 1.3951h-1.6947c-.031-.2997-.0827-.5787-.1757-.8267-.0827-.248-.2067-.4547-.3617-.6407-.155-.1757-.3409-.31-.5682-.403-.2274-.093-.4961-.1447-.8061-.1447-.3823 0-.7027.0827-.9611.2584-.2583.1756-.4649.4133-.6303.7026-.1653.2894-.2789.6304-.3409 1.0231-.0724.3823-.1034.7956-.1034 1.2193v1.4157c0 .4443.031.8577.1034 1.2503.0723.3927.1756.7337.3306 1.0231.155.2893.3616.527.62.6923.2583.1653.5787.2583.9714.2583.589 0 1.0436-.1653 1.3536-.5063s.496-.8163.5477-1.426h1.7154z" fill="#fff"/><path d="m31.4027 49.6919h-1.7256v4.0094h-1.6947v-10.2819h3.2448c.527 0 1.0125.0724 1.4569.2067.4443.124.8267.3203 1.1573.5787.3204.2583.5788.5787.7545.961s.2685.837.2685 1.3537c0 .3513-.0412.6613-.1342.9507-.093.2893-.2171.5476-.3824.775-.1654.2273-.3617.434-.589.6097-.2273.1756-.4857.3203-.7647.4443l2.1804 4.3194v.0827h-1.8084zm-1.7256-1.3641h1.5604c.279 0 .5373-.0413.775-.124.2377-.0826.434-.1963.6096-.341.1757-.1446.2997-.3306.4031-.5476.093-.217.1447-.465.1447-.7337 0-.2894-.0414-.5374-.1344-.7647s-.217-.403-.3823-.558c-.1654-.155-.3721-.2687-.6098-.341s-.5062-.1137-.8059-.124h-1.55v3.534z" fill="#fff"/><path d="m43.7932 48.3382 2.1391-4.9188h1.891l-3.2034 6.5928-.0103 3.6994h-1.643l-.0104-3.7407-3.1828-6.5515h1.8911z" fill="#fff"/><path d="m54.8607 49.7642v3.9371h-1.6947v-10.2819h3.441c.5167 0 .992.0827 1.426.2274.4341.1446.806.3616 1.1264.6406.3203.2791.5581.6097.7337 1.0024.1757.3927.2687.837.2687 1.333 0 .4754-.0827.9094-.2687 1.302-.186.3927-.4237.713-.7337.9921-.31.279-.6923.4856-1.1264.6303-.434.1447-.9093.217-1.426.2273h-1.7463zm0-1.364h1.7463c.2894 0 .5477-.0414.775-.1344.2274-.0826.4238-.2066.5788-.3616s.279-.341.372-.558.124-.4547.124-.7027c0-.2687-.0414-.5167-.124-.744-.0827-.2274-.2067-.4237-.372-.5787-.1654-.1653-.3514-.2893-.5788-.3823-.2273-.093-.4856-.1344-.775-.1447h-1.7463z" fill="#fff"/><path d="m72.8716 44.8247h-3.162v8.8868h-1.6844v-8.8868h-3.1414v-1.395h7.9774v1.395z" fill="#fff"/><path d="m69.0376 67.0522h-1.7257v4.0094h-1.6947v-10.2818h3.2447c.527 0 1.0127.0723 1.4571.2067.4443.124.8267.3203 1.1573.5786.3204.2584.5787.5787.7543.961.1757.3824.2687.8371.2687 1.3537 0 .3514-.0413.6614-.1343.9507s-.217.5477-.3823.775c-.1654.2274-.3617.434-.589.6097s-.4857.3203-.7647.4443l2.1804 4.3194v.0827h-1.8084zm-1.7257-1.364h1.5604c.279 0 .5373-.0413.775-.124.2376-.0827.4339-.1963.6096-.341s.2997-.3307.403-.5477c.093-.217.1447-.465.1447-.7337 0-.2893-.0413-.5373-.1343-.7646-.093-.2274-.217-.4031-.3824-.5581-.1653-.155-.3719-.2686-.6096-.341-.2377-.0723-.5064-.1136-.806-.124h-1.5501v3.5341z" fill="#fff"/><path d="m34.8843 36.1964h-6.9234v-10.2818h6.9234z" fill="#fff"/><path d="m310.996 669.982h-73.327v73.327l73.327 73.337h73.337v-73.337z" fill="#303033"/><path d="m237.669 596.646 73.327 73.336 73.337-73.336z" fill="#303033"/><path d="m369.009 784.474h-6.508v-10.024h6.508zm-40.647-21.175h-1.683v3.908h-1.652v-10.023h3.163c.514 0 .987.07 1.421.201.433.121.806.313 1.128.565.312.251.564.564.735.936.172.383.262.816.262 1.32 0 .343-.04.645-.131.927-.09.282-.211.534-.372.755-.162.222-.353.423-.575.595-.221.171-.473.312-.745.433l2.125 4.211v.08h-1.762zm-1.673-1.34h1.521c.272 0 .524-.04.756-.121s.423-.191.594-.332c.172-.142.292-.323.393-.534.101-.212.141-.454.141-.716 0-.282-.04-.523-.131-.745-.09-.212-.211-.393-.372-.544-.162-.151-.363-.262-.595-.332-.232-.071-.493-.121-.786-.121h-1.511v3.445zm16.128.745h-4.12v3.143h4.825v1.35h-6.487v-10.023h6.437v1.36h-4.775v2.83h4.12zm8.865 3.153h4.775v1.35h-6.427v-10.023h1.652zm16.602-3.153h-4.12v3.143h4.825v1.35h-6.488v-10.023h6.437v1.36h-4.774v2.83h4.12zm-38.422 19.1h-3.132l-.685 2.327h-1.713l3.254-10.023h1.45l3.194 10.023h-1.703zm-2.709-1.41h2.296l-1.138-3.929zm14.999 1.148c0-.242-.05-.453-.151-.634-.1-.182-.241-.343-.423-.474-.181-.141-.393-.262-.644-.363-.252-.1-.524-.201-.816-.282-.393-.11-.786-.252-1.169-.423s-.725-.383-1.028-.624c-.302-.242-.544-.534-.725-.857-.181-.322-.282-.705-.282-1.138s.091-.816.282-1.158c.192-.343.433-.635.746-.877.312-.242.675-.423 1.088-.554s.846-.191 1.299-.191c.484 0 .937.07 1.35.221s.786.363 1.098.625c.312.272.564.594.745.967.182.373.283.786.283 1.239h-1.653c-.02-.252-.08-.483-.161-.695-.08-.212-.201-.383-.362-.544-.151-.151-.343-.272-.564-.353-.222-.08-.474-.12-.766-.12-.252 0-.474.03-.685.1-.212.061-.393.161-.544.282s-.272.272-.363.444c-.09.171-.131.372-.131.594 0 .232.061.433.182.614.12.172.272.323.463.454s.413.242.665.332c.252.091.514.181.786.262.423.121.816.282 1.198.463.383.182.716.403 1.008.655s.514.554.685.887c.171.332.252.715.252 1.148 0 .443-.091.836-.282 1.179-.192.342-.444.624-.756.856s-.685.403-1.098.524c-.423.121-.856.181-1.31.181-.312 0-.614-.03-.916-.09-.303-.061-.595-.152-.867-.272-.282-.121-.534-.272-.775-.444-.242-.171-.444-.382-.625-.614s-.312-.494-.413-.776-.151-.604-.161-.947h1.662c.02.302.091.564.202.796.11.222.251.413.443.564.181.151.403.262.644.343.242.07.514.11.816.11.252 0 .484-.03.696-.09.211-.061.402-.151.564-.262.161-.121.292-.262.382-.433.081-.202.131-.403.131-.625zm13.59-1.914h-4.12v3.143h4.825v1.35h-6.487v-10.023h6.437v1.36h-4.775v2.83h4.12zm-24.248 21.427h-1.662l-3.264-6.901-.01 6.901h-1.672v-10.023h1.672l3.254 6.88.01-6.88h1.672zm12.25-4.372c0 .594-.08 1.158-.232 1.702-.151.544-.382 1.028-.675 1.441-.302.413-.674.745-1.128.987-.453.242-.977.373-1.591.373-.605 0-1.129-.121-1.572-.373s-.816-.584-1.108-.997-.524-.897-.665-1.441c-.151-.544-.222-1.108-.222-1.702v-1.279c0-.393.031-.786.101-1.159.071-.383.161-.735.292-1.068.131-.332.292-.634.494-.927.191-.282.423-.523.685-.725.262-.201.564-.362.897-.473.332-.111.695-.172 1.098-.172.604 0 1.138.121 1.591.373.454.252.826.574 1.128.997.303.413.534.897.685 1.441.152.544.232 1.118.232 1.713v1.289zm-1.662-1.289c0-.383-.04-.756-.101-1.129-.06-.372-.171-.705-.322-.997s-.353-.534-.605-.715c-.251-.182-.564-.272-.936-.272-.373 0-.685.09-.927.272-.242.181-.443.423-.584.715-.142.292-.242.625-.303.997-.06.373-.09.746-.09 1.118v1.3c0 .373.04.745.1 1.118.061.373.162.705.303.997.141.293.342.534.584.716.242.181.554.272.927.272.372 0 .685-.091.937-.272.251-.182.453-.423.604-.716.151-.292.262-.624.322-.997.061-.373.091-.745.101-1.118v-1.289zm14.889-3.002h-3.083v8.663h-1.642v-8.663h-3.062v-1.36h7.777v1.36zm11.313 4.16h-4.12v3.143h4.825v1.35h-6.488v-10.023h6.437v1.359h-4.774v2.831h4.12z" fill="#fff"/><path d="m87.6504 888.562h-73.3301v73.331 73.327h73.3301v73.34l36.6696-36.67 36.67-36.67v-73.327-73.331z" fill="#303033"/><path d="m39.27 976.243c0-.24-.05-.45-.15-.63s-.24-.34-.42-.47c-.18-.14-.3901-.26-.6401-.36s-.5199-.2-.8099-.28c-.39-.11-.78-.25-1.16-.42s-.7201-.38-1.0201-.62-.5399-.53-.7199-.85c-.18-.33-.2801-.7-.2801-1.13s.0901-.81.2801-1.15c.18-.34.43-.63.74-.87s.6699-.42 1.0799-.55.8401-.19 1.2901-.19c.48 0 .9299.07 1.3399.22.42.15.7801.36 1.0901.62.31.27.56.59.74.96s.2799.78.2799 1.23h-1.6399c-.02-.25-.08-.48-.16-.69s-.2-.39-.36-.54c-.15-.15-.3401-.27-.5601-.35s-.47-.12-.76-.12c-.25 0-.4699.03-.6799.1s-.39.16-.54.28-.27.27-.36.44-.13.37-.13.59c0 .23.06.43.18.61.12.17.27.32.46.45s.41.24.66.33.5099.18.7799.26c.42.12.8101.27 1.1901.46.38.18.71.4 1 .65s.5099.55.6799.88.25.71.25 1.14c0 .44-.0899.83-.2799 1.17s-.44.62-.75.85-.6801.4-1.0901.52c-.42.12-.8499.17-1.2999.17-.31 0-.61-.03-.91-.09s-.59-.15-.86-.27c-.28-.12-.53-.27-.77-.44-.24-.18-.44-.38-.62-.61s-.3101-.49-.4101-.77c-.1-.29-.1499-.6-.1599-.94h1.6499c.02.3.0901.56.2001.79s.2499.41.4399.56c.18.15.4001.26.6401.34.24.07.51.11.81.11.25 0 .48-.03.69-.09s.4-.15.56-.26c.16-.12.29-.26.38-.43.08-.2.13-.39.13-.61zm13.44-7.39.01 6.67c0 .51-.09.98-.25 1.4s-.3801.78-.6701 1.08-.6299.53-1.0399.7c-.41.16-.87.25-1.37.25-.49 0-.9401-.08-1.3401-.25s-.7499-.4-1.0299-.69c-.29-.3-.51-.66-.67-1.08s-.24-.89-.25-1.41l.01-6.67h1.61l.01 6.67c0 .31.04.59.12.84s.1799.47.3099.66c.14.18.31.33.51.43s.4401.15.7101.15.51-.05.72-.15.38-.25.53-.43c.14-.19.25-.41.32-.66s.1099-.54.1199-.84l.0101-6.67zm7.43 6.14v3.81h-1.64v-9.95h3.33c.5 0 .96.08 1.38.22s.7799.35 1.0899.62.5401.59.7101.97.26.81.26 1.29c0 .46-.08.88-.26 1.26s-.4101.69-.7101.96-.6699.47-1.0899.61-.88.21-1.38.22h-1.69zm0-1.33h1.69c.28 0 .53-.04.75-.13.22-.08.41-.2.56-.35s.27-.33.36-.54.12-.44.12-.68c0-.26-.04-.5-.12-.72s-.2-.41-.36-.56c-.16-.16-.34-.28-.56-.37s-.47-.13-.75-.14h-1.69zm-12.14 18.13v3.81h-1.64v-9.95h3.3299c.5 0 .96.08 1.38.22s.78.35 1.09.62.5401.59.7101.97.26.81.26 1.29c0 .46-.08.88-.26 1.26s-.4101.69-.7101.96-.67.47-1.09.61-.88.21-1.38.22h-1.6899zm0-1.33h1.6899c.28 0 .53-.04.75-.13.22-.08.4101-.2.5601-.35s.27-.33.36-.54.12-.44.12-.68c0-.26-.04-.5-.12-.72s-.2-.41-.36-.56c-.16-.16-.3401-.28-.5601-.37s-.47-.13-.75-.14h-1.6899zm17.12.81c0 .59-.08 1.15-.23 1.69s-.38 1.02-.67 1.43c-.3.41-.67.74-1.12.98s-.97.37-1.58.37c-.6 0-1.12-.12-1.56-.37s-.81-.58-1.1-.99-.52-.89-.66-1.42c-.15-.54-.22-1.1-.22-1.69v-1.27c0-.39.03-.77.1-1.15.07-.37.16-.73.29-1.06s.29-.63.49-.92c.19-.28.4199-.52.6799-.72s.56-.36.89-.47.6901-.17 1.0901-.17c.6 0 1.13.12 1.58.37s.82.58 1.12.99.53.89.68 1.43.23 1.11.23 1.7v1.27zm-1.64-1.29c0-.37-.04-.75-.1-1.11s-.1701-.7-.3201-.99-.3499-.52-.5999-.71c-.25-.18-.5601-.27-.9301-.27s-.6799.09-.9199.27-.4401.42-.5801.71-.2399.62-.2999.99-.09.74-.09 1.11v1.29c0 .37.04.74.1 1.11s.1599.7.2999.99.3401.53.5801.71.5499.27.9199.27.6801-.09.9301-.27.4499-.42.5999-.71.2601-.62.3201-.99.09-.74.1-1.11v-1.29zm10.37 1.74h-1.6701v3.88h-1.64v-9.95h3.14c.51 0 .9801.07 1.4101.2.43.12.8.31 1.12.56.31.25.5599.56.7299.93s.2601.81.2601 1.31c0 .34-.0401.64-.1301.92s-.2099.53-.3699.75-.35.42-.57.59-.47.31-.74.43l2.11 4.18v.08h-1.75zm-1.6701-1.33h1.51c.27 0 .52-.04.75-.12s.42-.19.59-.33.29-.32.39-.53c.09-.21.14-.45.14-.71 0-.28-.04-.52-.13-.74s-.21-.39-.37-.54-.3599-.26-.5899-.33-.4901-.11-.7801-.12h-1.5v3.42zm-31.0299 13.407h-3.06v8.6h-1.63v-8.6h-3.0401v-1.35h7.7201v1.35zm35.82 8.61h-30.9001v-9.95h30.9001zm-36.85-16.807h-6.7001v-9.95h6.7001zm36.85-16.8h-6.7v-9.95h6.7z" fill="#fff"/><g clip-path="url(#b)" fill="#303033"><path d="m86.9925 488.062v-18.334-18.333h-18.3333-18.3334-18.3333-18.3333v18.333 18.334 18.333 18.333h18.3333 18.3333 18.3334 18.3333v-18.333z"/><path d="m141.992 304.728h-18.333-18.333-18.3338v18.334 18.333 18.333 18.334 18.333 18.333 18.334 18.333h18.3338 18.333 18.333 18.334v-18.333-18.334-18.333-18.333-18.334-18.333-18.333-18.334z"/><g clip-path="url(#c)"><path d="m126.778 465.338h5.92v1.36h-2.15v7.24h2.15v1.35h-5.92v-1.35h2.11v-7.24h-2.11z"/><path d="m145.138 475.288h-1.65l-3.25-6.85-.01 6.85h-1.66v-9.95h1.66l3.23 6.83.02-6.83h1.66z"/><path d="m108.719 489.038c-.05.48-.16.92-.34 1.31s-.42.73-.72 1.01-.66.5-1.06.65c-.41.15-.86.23-1.36.23-.61 0-1.13-.12-1.59-.35-.45-.23-.83-.55-1.13-.95s-.53-.87-.68-1.41-.24-1.12-.24-1.73v-1.36c0-.61.08-1.18.24-1.72s.38-1.01.69-1.41c.3-.4.68-.72 1.13-.96s.98-.35 1.57-.35c.52 0 .99.08 1.4.23s.76.37 1.05.66.52.63.7 1.03.29.86.33 1.35h-1.63c-.03-.29-.08-.56-.17-.8-.08-.24-.2-.44-.34-.62-.15-.17-.33-.3-.55-.39s-.48-.14-.78-.14c-.37 0-.68.08-.93.25s-.45.4-.61.68-.27.61-.33.99c-.07.37-.1.77-.1 1.18v1.37c0 .43.03.83.1 1.21s.17.71.32.99.35.51.6.67.56.25.94.25c.57 0 1.01-.16 1.31-.49s.48-.79.53-1.38z"/><path d="m116.219 490.748h4.74v1.34h-6.38v-9.95h1.64z"/><path d="m131.379 489.778h-3.11l-.68 2.31h-1.7l3.23-9.95h1.44l3.17 9.95h-1.69zm-2.69-1.4h2.28l-1.13-3.9z"/><path d="m141.859 489.598 2.07-7.46h1.79l-3.08 9.95h-1.57l-3.07-9.95h1.79z"/><path d="m120.249 504.428h-4.09v3.12h4.79v1.34h-6.44v-9.95h6.39v1.35h-4.74v2.81h4.09z"/><path d="m108.719 508.888h-7.12v-9.95h7.12z"/><path d="m145.059 508.758h-19.17v-9.95h19.17z"/><path d="m121.129 475.428h-19.53v-9.95h19.53z"/></g></g><g clip-path="url(#d)"><path d="m466.333 524.728 146.667-146.666h-73.334l73.334-73.334h-146.667z" fill="#303033"/><g fill="#fff"><path d="m497.989 323.108h-4.18v4.19h-1.65v-9.85h6.45v1.34h-4.79v2.98h4.18v1.34z"/><path d="m510.739 322.878h-4.09v3.09h4.79v1.33h-6.44v-9.85h6.39v1.34h-4.74v2.78h4.09z"/><path d="m517.218 327.298v-9.85h2.43c.68.01 1.3.12 1.84.34s1.01.53 1.39.93.67.88.88 1.44.31 1.17.31 1.85v.74c0 .68-.11 1.29-.31 1.85-.21.56-.5 1.04-.88 1.43-.37.41-.83.72-1.37.94s-1.14.33-1.81.33zm1.67-8.54v7.23h.81c.45-.01.85-.09 1.18-.24.34-.15.62-.37.84-.66.23-.28.39-.62.51-1.02.11-.4.17-.84.17-1.33v-.74c0-.47-.06-.91-.17-1.3s-.28-.73-.51-1.02-.51-.51-.86-.67c-.34-.16-.75-.24-1.21-.25z"/><path d="m485.858 339.508h-4.09v3.09h4.79v1.33h-6.44v-9.85h6.39v1.34h-4.74v2.78h4.09z"/><path d="m495.358 340.078h-1.67v3.84h-1.64v-9.85h3.14c.51 0 .98.07 1.41.19s.8.31 1.12.55c.31.25.56.55.73.92s.26.8.26 1.3c0 .33-.04.64-.13.91s-.21.52-.37.74-.35.42-.57.58c-.22.17-.47.31-.74.43l2.11 4.14v.08h-1.75zm-1.67-1.31h1.51c.27 0 .52-.04.75-.12s.42-.19.59-.33.29-.32.39-.52.14-.44.14-.71-.04-.52-.13-.73-.21-.39-.37-.53-.36-.25-.59-.33c-.23-.07-.49-.11-.78-.12h-1.5v3.39z"/><path d="m509.989 358.258h-3.11l-.68 2.29h-1.7l3.23-9.85h1.44l3.17 9.85h-1.69zm-2.69-1.38h2.28l-1.13-3.86z"/><path d="m519.098 359.218h4.74v1.33h-6.38v-9.85h1.64z"/><path d="m523.669 343.778h-18.66v-9.85h18.67z"/><path d="m500.178 360.418h-20.06v-9.85h20.06z"/><path d="m486.368 327.438h-6.25v-9.85h6.25z"/></g></g><g clip-path="url(#e)"><path d="m384.339 961.896v-73.334h-73.335l-36.667 36.667-36.668 36.667v73.334l36.668 36.67 36.667 36.66h73.335v-73.33h-73.335v-73.334z" fill="#303033"/><g clip-path="url(#f)" fill="#fff"><path d="m265.12 986.537c.45.24.98.35 1.59.35.5 0 .96-.08 1.36-.23.41-.15.76-.37 1.06-.65s.54-.62.72-1.01.3-.83.34-1.31h-1.65c-.05.6-.23 1.06-.53 1.38-.3.33-.74.49-1.31.49-.37 0-.69-.08-.94-.25s-.44-.38-.59-.66-.26-.61-.32-.99c-.07-.38-.1-.78-.1-1.21v-1.37c0-.41.03-.8.1-1.18s.18-.7.33-.99.36-.51.61-.68.56-.25.93-.25c.3 0 .56.05.78.14s.4.22.55.39.26.38.34.62.14.51.17.8h1.64c-.05-.5-.16-.95-.33-1.35s-.41-.75-.7-1.03-.64-.5-1.05-.66c-.42-.16-.88-.24-1.41-.24-.6 0-1.12.12-1.57.35s-.83.55-1.13.96c-.3.4-.53.88-.69 1.41-.16.54-.23 1.11-.24 1.72v1.36c0 .61.08 1.19.23 1.72.15.54.38 1.01.68 1.41.3.41.68.72 1.13.96z"/><path d="m277.329 984.437h3.11l.67 2.31h1.69l-3.17-9.95h-1.44l-3.23 9.95h1.7zm1.58-5.31 1.13 3.9h-2.28z"/><path d="m292.629 982.477c.27-.12.51-.26.74-.43.22-.17.42-.37.57-.59.16-.22.28-.47.37-.75s.13-.58.13-.92c0-.5-.09-.94-.26-1.31-.17-.38-.42-.69-.73-.93s-.69-.44-1.12-.56-.9-.19-1.41-.2h-3.14v9.95h1.64v-3.88h1.67l1.89 3.88h1.75v-.08zm-.94-1.06c-.23.08-.48.12-.75.12h-1.51v-3.42h1.5c.29.01.55.04.78.12s.43.19.59.33c.16.15.29.33.37.54.09.21.13.46.13.74 0 .27-.05.51-.14.71-.09.21-.22.38-.39.53-.16.14-.35.25-.58.33z"/><path d="m257.14 1002.21h-4.79v-3.133h4.09v-1.32h-4.09v-2.81h4.74v-1.36h-6.39v9.963h6.44z"/><path d="m269.96 994.947v-1.36h-6.39v9.963h6.44v-1.34h-4.79v-3.133h4.09v-1.32h-4.09v-2.81z"/><path d="m281.799 998.257c.16-.22.28-.47.37-.75s.13-.58.13-.92c0-.5-.09-.94-.26-1.31s-.42-.68-.73-.93-.69-.44-1.12-.56c-.43-.13-.9-.19-1.41-.2h-3.14v9.953h1.64v-3.883h1.67l1.89 3.883h1.75v-.08l-2.11-4.183c.27-.12.51-.26.74-.43s.43-.36.58-.59zm-1.27-.9c-.09.21-.22.38-.39.53-.17.14-.36.25-.59.33s-.48.12-.75.12h-1.51v-3.42h1.5c.29 0 .55.04.78.12s.43.19.59.33.29.33.37.54c.09.21.13.46.13.74 0 .27-.04.51-.13.71z"/><path d="m256.889 1015.75c-.29-.25-.62-.47-1-.65s-.77-.33-1.19-.46c-.27-.08-.53-.16-.78-.26-.25-.09-.47-.2-.66-.33s-.35-.28-.46-.45c-.12-.17-.18-.37-.18-.61 0-.22.04-.41.13-.59.09-.17.21-.32.36-.44s.33-.22.54-.28.44-.1.68-.1c.29 0 .54.04.76.12s.4.2.56.35c.15.15.27.33.36.54.08.21.14.44.16.69h1.64c0-.45-.1-.86-.28-1.23s-.43-.69-.74-.96-.68-.47-1.09-.62c-.42-.15-.87-.22-1.34-.22-.45 0-.88.06-1.29.19s-.77.31-1.08.55-.56.53-.74.87-.28.72-.28 1.15.09.8.28 1.13c.18.33.42.61.72.86.3.24.64.45 1.02.62s.77.31 1.16.42c.29.09.56.18.81.28s.46.22.64.36.32.29.42.47.15.39.15.63c0 .22-.05.41-.14.58s-.22.31-.38.43-.35.21-.56.26c-.21.06-.44.09-.69.09-.3 0-.57-.04-.81-.11-.24-.08-.46-.19-.64-.34s-.33-.33-.44-.56c-.11-.22-.18-.48-.2-.79h-1.64c0 .34.06.65.16.94s.24.54.41.77.38.43.62.61.49.32.77.44.56.21.87.27c.3.06.6.09.91.09.45 0 .88-.06 1.3-.18s.78-.29 1.09-.52.57-.51.75-.85c.19-.34.28-.73.28-1.17 0-.43-.08-.81-.25-1.14-.17-.31-.4-.6-.69-.85z"/><path d="m294.209 1010.26h-30.78v9.95h30.78z"/><path d="m294.21 993.587h-7.64v9.953h7.64z"/><path d="m256.95 976.928h-6.25v9.95h6.25z"/></g></g><path d="m199.161-33.0386v1193.5286" stroke="#e2e2e4" stroke-width="2"/><path d="m425.349-33.0386v1193.5286" stroke="#e2e2e4" stroke-width="2"/><path d="m-25.0664 267.908h672.1344" stroke="#e2e2e4" stroke-width="2"/><path d="m-25.0664 562.724h672.1344" stroke="#e2e2e4" stroke-width="2"/><path d="m-25.0664 854.337h672.1344" stroke="#e2e2e4" stroke-width="2"/><g clip-path="url(#g)"><path d="m613.01 669.903v-73.33l-36.67 36.67-36.67 36.66v-73.33l-36.66 36.67-36.67 36.66v73.34 73.33l36.67-36.67 36.66-36.66v73.33l36.67-36.67 36.67-36.66z" fill="#303033"/><g clip-path="url(#h)" fill="#fff"><path d="m494.721 684.813.68-6.23h1.46l-1.21 9.49h-1.5l-1.04-6.31-1.02 6.31h-1.49l-1.21-9.49h1.46l.68 6.2.97-6.2h1.23z"/><path d="m506.911 688.073h-1.53v-4.24h-3.23v4.24h-1.51v-9.49h1.52v3.97h3.23v-3.97h1.53v9.49z"/><path d="m511.7 678.583h5.65v1.3h-2.05v6.91h2.05v1.28h-5.65v-1.29h2.01v-6.9h-2.01z"/><path d="m486.04 695.903h-2.92v8.21h-1.56v-8.21h-2.9v-1.29h7.38z"/><path d="m495.6 699.843h-3.91v2.98h4.57v1.28h-6.14v-9.5h6.1v1.29h-4.53v2.68h3.91z"/><path d="m502.45 700.463v3.64h-1.57v-9.5h3.18c.47.01.91.08 1.31.21s.75.33 1.04.59.52.56.68.93c.16.36.24.77.24 1.23 0 .44-.08.84-.24 1.2s-.39.66-.68.91-.64.45-1.04.58-.84.2-1.31.21zm0-1.26h1.61c.27 0 .5-.04.71-.12s.39-.19.54-.34c.15-.14.26-.31.34-.52.08-.2.12-.42.12-.65 0-.25-.04-.48-.12-.69s-.19-.39-.34-.54-.33-.27-.54-.35-.45-.13-.71-.13h-1.61z"/><path d="m516.091 701.903h-2.97l-.65 2.21h-1.62l3.08-9.5h1.38l3.03 9.5h-1.61zm-2.57-1.34h2.18l-1.08-3.72z"/><path d="m480.99 716.493v3.64h-1.56v-9.5h3.18c.47.01.91.08 1.31.21s.75.33 1.04.59.52.56.68.93c.16.36.24.77.24 1.23 0 .44-.08.84-.24 1.2s-.39.66-.68.91-.64.45-1.04.58-.84.2-1.31.21zm0-1.27h1.61c.27 0 .5-.04.71-.12s.39-.19.54-.34c.15-.14.26-.31.34-.52.08-.2.12-.42.12-.65 0-.25-.04-.48-.12-.69s-.19-.39-.34-.54-.33-.27-.54-.35-.45-.13-.71-.13h-1.61z"/><path d="m495.6 715.873h-3.91v2.98h4.57v1.28h-6.14v-9.5h6.1v1.29h-4.53v2.68h3.91z"/><path d="m503.95 716.423h-1.59v3.71h-1.56v-9.5h3c.49.01.94.07 1.35.19s.77.3 1.07.54.53.54.7.89c.17.36.25.77.25 1.25 0 .32-.04.62-.13.88-.08.26-.2.5-.36.71s-.33.4-.55.56c-.21.16-.45.3-.7.41l2.01 3.99v.08h-1.67zm-1.6-1.26h1.44c.26 0 .5-.04.72-.11s.41-.18.56-.32c.16-.14.28-.3.37-.5s.13-.43.13-.68c0-.27-.04-.5-.12-.71-.08-.2-.2-.38-.36-.52-.15-.14-.34-.24-.56-.31s-.47-.11-.74-.12h-1.43v3.27z"/><path d="m516.42 717.683c0-.23-.05-.43-.14-.6s-.23-.32-.4-.45-.38-.24-.61-.34c-.24-.1-.5-.19-.77-.27-.37-.11-.74-.24-1.1-.4s-.69-.36-.97-.59c-.29-.23-.52-.5-.69-.81-.18-.31-.26-.67-.26-1.08s.09-.78.26-1.1c.18-.32.41-.6.71-.83s.64-.4 1.03-.52.8-.18 1.23-.18c.46 0 .88.07 1.28.21s.75.34 1.04.59.53.56.71.91c.17.36.26.75.27 1.18h-1.57c-.02-.24-.07-.46-.15-.66s-.19-.37-.34-.51-.32-.25-.53-.33-.45-.12-.72-.12c-.23 0-.45.03-.65.09s-.37.15-.52.27-.26.26-.34.42-.12.35-.12.56c0 .22.06.41.17.58.11.16.26.31.44.43s.39.23.63.32.48.17.74.24c.4.12.77.26 1.13.43s.68.38.95.62.49.52.65.84.24.68.24 1.09c0 .42-.09.79-.27 1.12-.18.32-.42.59-.72.81s-.65.38-1.04.49-.81.17-1.24.17c-.29 0-.58-.03-.87-.08-.29-.06-.56-.14-.82-.25s-.51-.25-.73-.42c-.23-.17-.42-.36-.59-.58s-.3-.46-.39-.74-.15-.57-.15-.9h1.57c.02.29.08.54.19.75.1.21.24.39.42.53.17.14.38.25.61.32s.49.11.77.11c.23 0 .45-.03.66-.08s.38-.14.54-.25c.15-.11.27-.25.36-.41.06-.18.1-.37.1-.58z"/><path d="m485.77 678.573h-7.43v9.5h7.43z"/></g></g><g clip-path="url(#i)" fill="#303033"><path d="m539.665 887.759-36.53 37.16-37.233 36.458v73.613l37.233-36.454 36.53-37.159 37.232 37.159 36.531 36.454v-73.613l-36.531-36.458z"/><path d="m539.665 1034.99h-73.763v73.62l37.233-36.46z"/><path d="m576.898 1072.15 36.53 36.46v-73.62h-73.763z"/><path d="m520.042 1072.17h3.11l.67 2.31h1.69l-3.17-9.95h-1.44l-3.23 9.95h1.7zm1.58-5.31 1.13 3.9h-2.28z"/><path d="m537.678 1097.99h-20.043v9.95h20.043z"/><path d="m524.904 1081.32h-7.232v9.95h7.232z"/><path d="m561.435 1081.32h-7.232v9.95h7.232z"/><path d="m561.435 1064.66h-32.1v9.95h32.1z"/><path d="m561.695 1099.34h-3.069v8.59h-1.634v-8.59h-3.049v-1.36h7.752z"/><path d="m549.757 1098.1.007 6.65c0 .52-.08.99-.24 1.41-.155.42-.376.78-.663 1.08-.291.3-.642.54-1.052.7-.406.16-.862.25-1.368.25-.496 0-.945-.08-1.346-.24-.401-.17-.743-.4-1.026-.7-.287-.3-.51-.66-.67-1.09-.155-.42-.234-.89-.239-1.41l.014-6.65h1.62l.014 6.65c.004.32.043.61.116.87s.18.48.321.67c.137.17.303.31.499.41.201.09.433.14.697.14.269 0 .506-.05.711-.14.21-.1.385-.25.527-.43.141-.19.248-.41.321-.66.073-.26.114-.55.123-.86l.014-6.65z"/><path d="m549.765 1086.82c0 .4-.037.78-.11 1.16-.068.37-.168.72-.301 1.06-.141.33-.316.64-.526.92s-.451.52-.724.72c-.265.18-.559.32-.882.43-.319.1-.67.16-1.053.16-.397 0-.761-.06-1.094-.17-.328-.11-.622-.27-.882-.46-.264-.2-.496-.45-.697-.73-.196-.28-.36-.59-.492-.93-.128-.32-.223-.67-.287-1.03-.064-.37-.096-.75-.096-1.13v-1.32c0-.4.034-.79.103-1.17.068-.38.171-.74.307-1.08.132-.32.294-.62.486-.88.196-.28.426-.52.69-.72.255-.19.545-.34.868-.45.328-.11.688-.16 1.08-.16.397 0 .761.05 1.094.16s.631.27.896.46c.264.2.494.43.69.69.196.27.36.56.492.87.146.34.255.7.328 1.09.073.38.11.78.11 1.19zm-1.655-1.33c-.004-.25-.02-.5-.048-.74-.022-.24-.063-.47-.123-.69-.068-.25-.159-.48-.273-.68-.109-.21-.244-.39-.403-.54-.142-.12-.303-.22-.486-.3-.182-.07-.389-.11-.622-.11-.223 0-.424.04-.601.11-.178.07-.333.17-.465.29-.16.15-.294.33-.403.54-.11.21-.194.44-.253.69-.055.22-.096.45-.123.7-.023.24-.035.48-.035.73v1.33c0 .24.012.48.035.71.022.24.061.47.116.69.059.24.139.47.239.69.105.21.23.38.376.53.141.14.303.25.485.33.187.08.401.11.643.11.232 0 .442-.03.629-.11.191-.08.355-.18.492-.32.16-.15.292-.32.397-.53.109-.21.195-.44.259-.69.055-.22.094-.45.116-.68.028-.24.044-.49.048-.73z"/><path d="m529.721 1091.13v-9.95h3.185c.483 0 .937.05 1.361.16.423.1.79.27 1.1.49.31.21.552.49.725.84.178.33.266.73.266 1.2-.004.28-.054.55-.15.79-.091.24-.223.46-.396.64-.124.14-.263.26-.417.37-.151.1-.326.19-.527.27v.01c.296.08.549.2.759.35.21.14.385.31.526.49.146.21.256.43.328.67.078.25.117.5.117.77.004.47-.08.89-.253 1.25s-.413.66-.718.9c-.305.25-.67.44-1.094.56-.419.13-.875.19-1.367.19zm1.654-4.5v3.15h1.805c.259 0 .496-.04.711-.11.214-.08.396-.18.547-.3.164-.14.289-.3.375-.49.092-.2.137-.41.137-.65 0-.25-.036-.47-.109-.66-.073-.2-.182-.36-.328-.5s-.324-.24-.534-.32c-.209-.07-.448-.11-.717-.12zm0-1.25h1.565c.269 0 .515-.04.739-.11.228-.07.419-.17.574-.3.141-.12.253-.26.335-.43s.123-.36.123-.58c0-.23-.039-.43-.116-.6-.073-.18-.178-.32-.315-.43-.155-.13-.348-.23-.581-.29-.232-.07-.49-.1-.772-.1h-1.552z"/></g></g></svg>