<svg fill="none" height="529" viewBox="0 0 1063 529" width="1063" xmlns="http://www.w3.org/2000/svg" xmlns:xlink="http://www.w3.org/1999/xlink"><clipPath id="a"><path d="m684.667 6.81165h146.67v220h-146.67z"/></clipPath><clipPath id="b"><path d="m772.606 167.422h44.12v43.55h-44.12z"/></clipPath><clipPath id="c"><path d="m4.66602 302h146.67v220h-146.67z"/></clipPath><clipPath id="d"><path d="m911.346 302h146.67v220h-146.67z"/></clipPath><clipPath id="e"><path d="m924.346 390.085h44.07v43.83h-44.07z"/></clipPath><path d="m984.663 6.81165v146.66335h-73.326l73.326 73.337h73.337v-146.6739z" fill="#303033"/><path d="m999.43 172.694v3.937h-1.695v-10.282h3.445c.51 0 .99.083 1.42.228.44.144.81.361 1.13.64s.56.61.73 1.003c.18.392.27.837.27 1.333 0 .475-.08.909-.27 1.302-.18.392-.42.713-.73.992s-.69.485-1.13.63c-.43.145-.91.217-1.42.227h-1.75zm0-1.374h1.75c.29 0 .54-.042.77-.135.23-.082.43-.206.58-.361.16-.155.28-.341.37-.558.1-.217.13-.455.13-.703 0-.269-.05-.517-.13-.744s-.2-.424-.37-.579c-.17-.165-.35-.289-.58-.382s-.48-.134-.77-.145h-1.75z" fill="#fff"/><path d="m1012.02 175.247h4.89v1.384h-6.59v-10.282h1.7z" fill="#fff"/><path d="m1027.68 174.244h-3.21l-.71 2.387h-1.75l3.34-10.282h1.48l3.28 10.282h-1.75zm-2.78-1.447h2.36l-1.17-4.03z" fill="#fff"/><path d="m1042.53 167.744h-3.16v8.887h-1.69v-8.887h-3.14v-1.395h7.98v1.395z" fill="#fff"/><path d="m1003.77 189.61h-4.319v4.381h-1.705v-10.281h6.664v1.395h-4.949v3.11h4.319v1.395z" fill="#fff"/><path d="m1017.13 189.517c0 .61-.08 1.188-.24 1.746-.15.558-.39 1.054-.69 1.478-.31.424-.69.765-1.16 1.013-.46.248-1 .382-1.63.382-.62 0-1.16-.124-1.61-.382-.46-.259-.84-.6-1.14-1.023-.3-.424-.54-.92-.68-1.468-.15-.558-.23-1.136-.23-1.746v-1.312c0-.403.03-.796.11-1.189.07-.382.16-.754.3-1.095.13-.341.3-.651.5-.951.2-.289.44-.537.7-.744.27-.206.58-.372.92-.485.35-.114.72-.176 1.13-.176.62 0 1.17.124 1.63.382.47.259.85.6 1.16 1.023.31.424.55.92.7 1.478.16.558.24 1.147.24 1.757v1.312zm-1.7-1.333c0-.382-.05-.775-.11-1.147s-.17-.723-.33-1.023c-.15-.3-.36-.537-.62-.734-.26-.186-.58-.279-.96-.279s-.7.093-.95.279-.45.434-.6.734c-.14.3-.25.641-.31 1.023s-.09.765-.09 1.147v1.333c0 .382.04.765.1 1.147s.17.723.31 1.023c.15.3.35.548.6.734s.57.279.95.279.7-.093.96-.279.47-.434.62-.734c.16-.3.27-.641.33-1.023s.1-.765.11-1.147v-1.333z" fill="#fff"/><path d="m1026.14 207.342h-1.72v4.01h-1.7v-10.282h3.25c.52 0 1.01.072 1.45.207.45.124.83.32 1.16.578.32.259.58.579.76.961.17.383.26.837.26 1.354 0 .351-.04.661-.13.951-.09.289-.22.547-.38.775-.17.227-.36.434-.59.609-.23.176-.49.321-.77.445l2.18 4.319v.083h-1.8zm-1.71-1.374h1.56c.28 0 .53-.041.77-.124s.44-.196.61-.341c.18-.145.3-.331.4-.548s.15-.465.15-.733c0-.29-.04-.538-.13-.765-.1-.227-.22-.403-.39-.558-.16-.155-.37-.269-.61-.341-.23-.072-.5-.114-.8-.124h-1.55v3.534z" fill="#fff"/><path d="m1037.25 201.07 1.28 4.443 1.42-4.443h2.1v10.282h-1.59v-3.534l.11-4.506-1.58 4.929h-.89l-1.44-4.763.1 4.34v3.534h-1.59v-10.282z" fill="#fff"/><path d="m1042.61 193.991h-19.93v-10.281h19.93z" fill="#fff"/><path d="m1017.55 211.352h-19.929v-10.282h19.929z" fill="#fff"/><path d="m304.669 375.333-73.333-73.333h146.677zm0 73.334 73.344-73.334h-73.334-73.333l73.323 73.334h-73.333l73.333 73.333 73.334-73.333z" fill="#303033"/><path d="m282.791 329.512v-10.23h2.498c.699 0 1.337.124 1.892.35s1.038.555 1.429.966c.391.422.689.915.905 1.491s.318 1.223.318 1.922v.771c0 .7-.113 1.347-.318 1.923-.216.576-.514 1.079-.895 1.491-.39.411-.863.74-1.408.966-.555.226-1.172.339-1.861.339zm1.717-8.873v7.516h.833c.462 0 .874-.083 1.213-.247.349-.165.637-.391.863-.679.237-.298.401-.647.525-1.059.113-.411.174-.873.174-1.377v-.792c0-.493-.061-.946-.174-1.347-.113-.411-.288-.76-.525-1.059-.236-.298-.524-.524-.884-.699-.349-.164-.771-.257-1.244-.257z" fill="#fff"/><path d="m284.477 345.406h4.873v1.378h-6.559v-10.23h1.686z" fill="#fff"/><path d="m302.192 325.05c0 .606-.082 1.182-.236 1.737-.155.555-.391 1.049-.689 1.47-.309.422-.689.761-1.152 1.008-.462.247-.997.38-1.624.38-.617 0-1.151-.123-1.604-.38-.452-.257-.833-.596-1.131-1.018-.298-.421-.534-.915-.678-1.46-.154-.555-.226-1.131-.226-1.737v-1.306c0-.401.03-.792.102-1.182.072-.381.165-.751.299-1.09.133-.339.298-.648.503-.946.196-.288.432-.534.699-.74.268-.206.576-.37.915-.483.34-.113.71-.175 1.121-.175.617 0 1.162.123 1.624.38.463.257.843.597 1.152 1.018.308.422.545.915.699 1.47s.236 1.141.236 1.748zm-1.696-1.316c0-.381-.041-.771-.103-1.141-.062-.381-.175-.72-.329-1.018s-.36-.535-.617-.73c-.257-.185-.576-.278-.956-.278s-.699.093-.946.278-.452.432-.596.73-.247.637-.309 1.018c-.061.38-.092.76-.092 1.141v1.326c0 .38.041.761.103 1.141.061.381.164.72.308 1.018s.35.545.596.73c.247.185.566.277.946.277.381 0 .699-.092.956-.277s.463-.432.617-.73.268-.637.329-1.018c.062-.38.093-.761.103-1.141v-1.326z" fill="#fff"/><path d="m302.192 342.322c0 .606-.082 1.182-.236 1.737-.155.555-.381 1.049-.689 1.47-.309.422-.689.761-1.152 1.008-.462.246-.997.38-1.624.38-.617 0-1.151-.123-1.604-.38-.452-.257-.833-.597-1.131-1.018-.298-.422-.534-.915-.678-1.46-.154-.555-.226-1.131-.226-1.737v-1.306c0-.401.03-.792.102-1.182.072-.381.165-.751.299-1.09.133-.339.298-.648.503-.946.196-.288.432-.535.699-.74.268-.206.576-.37.915-.483.34-.114.71-.175 1.121-.175.617 0 1.162.123 1.624.38.463.257.843.596 1.152 1.018.308.421.545.915.699 1.47s.236 1.141.236 1.748v1.306zm-1.696-1.316c0-.381-.041-.771-.103-1.142-.062-.37-.175-.719-.329-1.017-.154-.299-.36-.535-.617-.73-.257-.185-.576-.278-.956-.278s-.699.093-.946.278-.452.431-.596.73c-.144.298-.247.637-.309 1.017-.061.381-.092.761-.092 1.142v1.326c0 .38.041.761.103 1.141.061.38.164.72.308 1.018s.35.545.596.73c.247.185.566.277.946.277.381 0 .699-.092.956-.277s.463-.432.617-.73.268-.638.329-1.018c.062-.38.093-.761.103-1.141v-1.326z" fill="#fff"/><path d="m313.14 325.985.73-6.713h1.573l-1.306 10.229h-1.614l-1.12-6.806-1.1 6.806h-1.614l-1.306-10.229h1.573l.73 6.672 1.048-6.672h1.327z" fill="#fff"/><path d="m313.058 344.398h-3.197l-.699 2.375h-1.748l3.321-10.229h1.48l3.259 10.229h-1.737zm-2.776-1.439h2.344l-1.161-4.01z" fill="#fff"/><path d="m327.524 329.512h-1.697l-3.331-7.043-.01 7.043h-1.707v-10.23h1.707l3.321 7.022.01-7.022h1.707z" fill="#fff"/><path d="m320.82 346.784v-10.23h2.499c.699 0 1.336.123 1.891.35.555.226 1.039.555 1.429.966.391.422.689.915.905 1.491.216.575.319 1.223.319 1.922v.771c0 .699-.113 1.347-.319 1.923-.216.576-.514 1.079-.894 1.491-.391.411-.864.74-1.409.966s-1.172.339-1.861.339zm1.717-8.873v7.515h.833c.463 0 .874-.082 1.213-.246.35-.165.638-.391.864-.679.236-.298.401-.648.524-1.059.113-.411.175-.874.175-1.377v-.792c0-.493-.062-.946-.175-1.347-.113-.411-.288-.761-.524-1.059-.237-.298-.525-.524-.884-.699-.35-.164-.772-.257-1.244-.257z" fill="#fff"/><path d="m282.791 302h45.082v10.229h-45.082z" fill="#fff"/><path d="m282.791 329.512v-10.23h2.498c.699 0 1.337.124 1.892.35s1.038.555 1.429.966c.391.422.689.915.905 1.491s.318 1.223.318 1.922v.771c0 .7-.113 1.347-.318 1.923-.216.576-.514 1.079-.895 1.491-.39.411-.863.74-1.408.966-.555.226-1.172.339-1.861.339zm1.717-8.873v7.516h.833c.462 0 .874-.083 1.213-.247.349-.165.637-.391.863-.679.237-.298.401-.647.525-1.059.113-.411.174-.873.174-1.377v-.792c0-.493-.061-.946-.174-1.347-.113-.411-.288-.76-.525-1.059-.236-.298-.524-.524-.884-.699-.349-.164-.771-.257-1.244-.257z" fill="#fff"/><path d="m284.477 345.406h4.873v1.378h-6.559v-10.23h1.686z" fill="#fff"/><path d="m302.192 325.05c0 .606-.082 1.182-.236 1.737-.155.555-.391 1.049-.689 1.47-.309.422-.689.761-1.152 1.008-.462.247-.997.38-1.624.38-.617 0-1.151-.123-1.604-.38-.452-.257-.833-.596-1.131-1.018-.298-.421-.534-.915-.678-1.46-.154-.555-.226-1.131-.226-1.737v-1.306c0-.401.03-.791.102-1.182.072-.381.165-.751.299-1.09.133-.339.298-.648.503-.946.196-.288.432-.534.699-.74.268-.206.576-.37.915-.483.34-.113.71-.175 1.121-.175.617 0 1.162.123 1.624.38.463.257.843.597 1.152 1.018.308.422.545.915.699 1.47.154.556.236 1.142.236 1.748zm-1.696-1.316c0-.381-.041-.771-.103-1.141-.062-.381-.175-.72-.329-1.018s-.36-.535-.617-.73c-.257-.185-.576-.278-.956-.278s-.699.093-.946.278-.452.432-.596.73-.247.637-.309 1.018c-.061.38-.092.76-.092 1.141v1.326c0 .38.041.761.103 1.141.061.381.164.72.308 1.018s.35.545.596.73c.247.185.566.278.946.278.381 0 .699-.093.956-.278s.463-.432.617-.73.268-.637.329-1.018c.062-.38.093-.761.103-1.141v-1.326z" fill="#fff"/><path d="m302.192 342.322c0 .606-.082 1.182-.236 1.737-.155.555-.381 1.049-.689 1.47-.309.422-.689.761-1.152 1.008-.462.247-.997.38-1.624.38-.617 0-1.151-.123-1.604-.38-.452-.257-.833-.596-1.131-1.018-.298-.421-.534-.915-.678-1.46-.154-.555-.226-1.131-.226-1.737v-1.306c0-.401.03-.792.102-1.182.072-.381.165-.751.299-1.09.133-.339.298-.648.503-.946.196-.288.432-.535.699-.74.268-.206.576-.37.915-.483.34-.113.71-.175 1.121-.175.617 0 1.162.123 1.624.38.463.257.843.597 1.152 1.018.308.422.545.915.699 1.47s.236 1.141.236 1.748v1.306zm-1.696-1.316c0-.381-.041-.771-.103-1.141-.062-.371-.175-.72-.329-1.018s-.36-.535-.617-.73c-.257-.185-.576-.278-.956-.278s-.699.093-.946.278-.452.432-.596.73-.247.637-.309 1.018c-.061.38-.092.76-.092 1.141v1.326c0 .38.041.761.103 1.141.061.381.164.72.308 1.018s.35.545.596.73c.247.185.566.277.946.277.381 0 .699-.092.956-.277s.463-.432.617-.73.268-.637.329-1.018c.062-.38.093-.761.103-1.141v-1.326z" fill="#fff"/><path d="m313.14 325.985.73-6.713h1.573l-1.306 10.229h-1.614l-1.12-6.806-1.1 6.806h-1.614l-1.306-10.229h1.573l.73 6.672 1.048-6.672h1.327z" fill="#fff"/><path d="m313.058 344.398h-3.197l-.699 2.375h-1.748l3.321-10.229h1.48l3.259 10.229h-1.737zm-2.776-1.439h2.344l-1.161-4.01z" fill="#fff"/><path d="m327.524 329.512h-1.697l-3.331-7.043-.01 7.043h-1.707v-10.23h1.707l3.321 7.022.01-7.022h1.707z" fill="#fff"/><path d="m320.82 346.784v-10.23h2.499c.699 0 1.336.123 1.891.35.555.226 1.039.555 1.429.966.391.422.689.915.905 1.491.216.575.319 1.223.319 1.922v.771c0 .699-.113 1.347-.319 1.923-.216.576-.514 1.079-.894 1.491-.391.411-.864.74-1.409.966s-1.172.339-1.861.339zm1.717-8.873v7.515h.833c.463 0 .874-.082 1.213-.246.35-.165.638-.391.864-.679.236-.298.401-.648.524-1.059.113-.411.175-.874.175-1.377v-.792c0-.493-.062-.946-.175-1.347-.113-.411-.288-.761-.524-1.059-.237-.298-.525-.524-.884-.699-.35-.164-.772-.257-1.244-.257z" fill="#fff"/><path d="m282.791 302h45.082v10.229h-45.082z" fill="#fff"/><g fill="#303033"><path d="m304.667 6.81165 73.337 73.32635v-73.32635z"/><path d="m231.329 80.138 73.337-73.32635h-73.337z"/><path d="m304.666 153.475-73.337-73.3368v73.3368l73.337 73.337 73.336-73.337v-73.3368z"/><path d="m289.217 101.26h-6.923v-10.282h6.923z"/><path d="m327.296 83.8995h-6.923v-10.2818h6.923z"/><path d="m289.259 62.2095c0 .6097-.083 1.1884-.238 1.7464s-.392 1.054-.692 1.4777c-.31.4236-.692.7647-1.157 1.0127s-1.003.3823-1.633.3823c-.62 0-1.157-.124-1.612-.3823-.455-.2584-.837-.5994-1.137-1.0231-.299-.4236-.537-.9196-.682-1.4673-.155-.558-.227-1.1367-.227-1.7464v-1.3123c0-.403.031-.7957.103-1.1884.073-.3823.165-.7543.3-1.0953.134-.341.3-.651.506-.9507.197-.2893.434-.5373.703-.744.268-.2067.579-.372.92-.4857s.712-.1757 1.126-.1757c.62 0 1.168.124 1.633.3824.465.2583.847.5993 1.157 1.023s.548.9197.703 1.4777.237 1.147.237 1.7567v1.3123zm-1.705-1.3227c0-.3823-.042-.775-.104-1.147s-.175-.7233-.33-1.023-.362-.5373-.62-.7337c-.258-.186-.579-.279-.961-.279-.383 0-.703.093-.951.279s-.455.434-.599.7337c-.145.2997-.248.6407-.31 1.023-.062.3824-.093.7647-.093 1.147v1.3331c0 .3823.041.7646.103 1.147.062.3823.165.7233.31 1.023s.352.5477.6.7337.568.279.95.279c.383 0 .703-.093.961-.279.259-.186.465-.434.62-.7337s.269-.6407.331-1.023c.062-.3824.093-.7647.103-1.147v-1.3331z"/><path d="m301.483 66.6943h-1.705l-3.348-7.0784-.011 7.0784h-1.715v-10.2818h1.715l3.338 7.0577.011-7.0577h1.715z"/><path d="m313.397 62.0752h-4.226v3.224h4.95v1.3847h-6.655v-10.2818h6.603v1.395h-4.898v2.9037h4.226z"/><path d="m319.495 64.0592c0-.3203.041-.5993.134-.868.093-.2583.217-.5063.383-.7337.165-.2273.362-.4443.589-.6406.227-.1964.486-.403.775-.5994-.3-.4237-.527-.8267-.693-1.1987-.165-.372-.248-.7646-.248-1.1677 0-.4133.063-.775.187-1.0953s.299-.589.537-.8163c.237-.2274.517-.3927.847-.5064.331-.1137.692-.1757 1.106-.1757.351 0 .661.062.951.186.289.124.527.2894.723.5064.196.2067.351.4547.465.7337s.165.5683.165.8783c0 .248-.041.4754-.113.682-.073.2067-.176.403-.31.589-.135.186-.29.3617-.465.5167-.176.1653-.372.3203-.579.4753l-.599.5064 1.911 2.4904c.155-.2791.269-.5891.362-.9301.083-.3306.134-.6923.134-1.0746h1.478c0 .6303-.083 1.209-.258 1.7463-.176.5374-.434 1.0127-.786 1.4467l1.302 1.6947h-1.973l-.496-.651c-.352.2583-.734.4547-1.127.589-.403.1343-.837.2067-1.302.2067-.475 0-.899-.0724-1.281-.2067-.383-.1343-.703-.3307-.971-.5787-.269-.248-.476-.5373-.61-.8783s-.238-.7234-.238-1.1264zm3.111 1.426c.279 0 .558-.0413.826-.1343.269-.093.527-.217.765-.3823l-2.036-2.6867-.113.093c-.197.1653-.352.3306-.465.4856-.114.155-.207.31-.259.4444-.062.1446-.093.2686-.113.3926-.021.1241-.032.2171-.032.2997 0 .2067.032.403.094.5787.062.186.154.341.278.4753.124.1344.269.2377.445.3204.176.0826.382.1136.61.1136zm-.589-6.6547c0 .2273.051.465.144.7027.093.2376.238.496.414.7646l.723-.5683c.145-.1033.258-.1963.341-.2997.083-.1033.145-.1963.176-.2996.031-.1034.062-.1964.072-.2894s.01-.1757.01-.248c0-.124-.02-.248-.051-.3617-.042-.124-.093-.2273-.166-.3203-.072-.093-.155-.1653-.258-.217s-.217-.0827-.341-.0827c-.176 0-.331.031-.465.1034-.134.0723-.248.155-.341.2686-.093.1137-.155.2377-.197.3824-.041.1446-.061.2996-.061.465z"/><path d="m289.186 82.7629c-.175.2067-.382.3927-.609.5683-.228.1757-.496.3204-.796.4547s-.61.2273-.951.2997c-.341.0723-.702.1033-1.095.1033-.62 0-1.168-.124-1.643-.3617-.476-.2376-.879-.5683-1.209-.9816-.331-.4134-.579-.9094-.744-1.4674-.176-.5683-.259-1.1677-.269-1.8187v-1.271c0-.651.083-1.2607.258-1.8187.176-.558.414-1.054.734-1.4777s.703-.7543 1.168-.992.992-.3617 1.581-.3617c.527 0 1.013.0724 1.426.217.413.1447.775.3514 1.085.6304.299.279.537.6096.713 1.0023s.289.837.33 1.333h-1.663c-.042-.279-.103-.527-.196-.744s-.207-.4133-.362-.5683-.331-.279-.548-.3513c-.217-.0827-.465-.124-.764-.124-.362 0-.662.0826-.92.2686-.259.1757-.476.4134-.641.713-.165.2997-.3.6407-.372 1.0437-.083.3927-.124.806-.124 1.2297v1.2814c0 .434.052.837.134 1.2296.083.3927.217.7337.393 1.0334.176.2996.403.5373.682.713s.61.2687 1.002.279c.166 0 .321-.0103.496-.031.166-.0207.331-.0517.486-.1033.155-.0517.289-.1034.424-.1757.124-.0723.227-.1653.31-.2687l.01-2.0563h-1.86v-1.3434h3.513z"/><path d="m298.28 80.0348h-1.726v4.0093h-1.695v-10.2818h3.245c.527 0 1.013.0724 1.457.2067.444.124.827.3203 1.158.5787.32.2583.578.5787.754.961.175.3823.269.837.269 1.3537 0 .3513-.042.6613-.135.9507-.093.2893-.217.5476-.382.775-.166.2273-.362.434-.589.6096-.228.1757-.486.3204-.765.4444l2.18 4.3194v.0826h-1.808zm-1.726-1.3641h1.56c.279 0 .538-.0413.775-.124.238-.0826.434-.1963.61-.341.176-.1446.3-.3306.403-.5477.093-.217.145-.465.145-.7336 0-.2894-.042-.5374-.135-.7647s-.217-.403-.382-.558-.372-.2687-.61-.341c-.237-.0724-.506-.1137-.806-.124h-1.55v3.534z"/><path d="m314.349 79.5698c0 .6096-.083 1.1883-.238 1.7463s-.393 1.054-.692 1.4777c-.31.4237-.693.7647-1.158 1.0127s-1.002.3823-1.632.3823c-.62 0-1.158-.124-1.612-.3823-.455-.2583-.837-.5994-1.137-1.023-.3-.4237-.537-.9197-.682-1.4674-.155-.558-.227-1.1367-.227-1.7463v-1.3124c0-.403.031-.7957.103-1.1883.072-.3824.165-.7544.3-1.0954.134-.341.299-.651.506-.9507.196-.2893.434-.5373.703-.744.268-.2067.578-.372.919-.4857.341-.1136.713-.1756 1.127-.1756.62 0 1.167.124 1.632.3823.465.2584.848.5994 1.158 1.023.31.4237.548.9197.703 1.4777s.237 1.147.237 1.7567v1.3124zm-1.705-1.3227c0-.3824-.042-.775-.104-1.147s-.175-.7234-.33-1.0231c-.155-.2996-.362-.5373-.62-.7336-.258-.186-.579-.279-.961-.279-.383 0-.703.093-.951.279s-.455.434-.599.7336c-.145.2997-.248.6407-.31 1.0231-.062.3823-.093.7646-.093 1.147v1.333c0 .3823.041.7647.103 1.147s.165.7234.31 1.023c.145.2997.351.5477.599.7337s.569.279.951.279.703-.093.961-.279.465-.434.62-.7337c.155-.2996.269-.6407.331-1.023s.093-.7647.103-1.147v-1.333z"/><path d="m301.525 91.1226.01 6.8924c0 .527-.093 1.0127-.258 1.4467-.166.434-.393.8063-.693 1.1163-.299.31-.651.547-1.074.723-.424.165-.899.258-1.416.258-.506 0-.971-.082-1.385-.258-.413-.176-.775-.413-1.064-.713-.3-.31-.527-.682-.692-1.116-.166-.434-.248-.9197-.259-1.457l.011-6.8924h1.663l.011 6.8924c0 .3203.041.6097.124.868.082.2583.186.4857.32.682.145.186.32.341.527.444.207.104.455.155.734.155s.527-.051.744-.155c.217-.103.392-.258.547-.444.145-.1963.259-.4237.331-.682.073-.2583.114-.558.124-.868l.011-6.8924z"/><path d="m309.202 97.4673v3.9367h-1.695v-10.2814h3.441c.517 0 .992.0826 1.426.2273s.806.3617 1.126.6407c.321.279.558.6096.734 1.0023s.269.837.269 1.333c0 .4754-.083.9094-.269 1.302-.186.3927-.424.7131-.734.9921s-.692.4856-1.126.6303-.909.217-1.426.2273h-1.746zm0-1.3743h1.746c.289 0 .548-.0414.775-.1344.227-.0826.424-.2066.579-.3617.155-.155.279-.341.372-.558s.124-.4546.124-.7026c0-.2687-.042-.5167-.124-.744-.083-.2274-.207-.4237-.372-.5787-.166-.1654-.352-.2894-.579-.3824s-.486-.1343-.775-.1446h-1.746z"/><path d="m325.261 98.7591c0-.248-.052-.465-.155-.6511-.104-.186-.249-.3513-.435-.4856-.186-.1447-.403-.2687-.661-.372-.258-.1034-.537-.2067-.837-.2894-.403-.1136-.806-.2583-1.199-.434-.392-.1756-.744-.3926-1.054-.6407-.31-.248-.558-.5476-.744-.8783-.186-.341-.289-.7233-.289-1.1677 0-.4443.093-.837.289-1.1883.186-.3514.445-.651.765-.899s.693-.434 1.116-.5684c.424-.1343.868-.1963 1.333-.1963.496 0 .961.0723 1.385.2273.434.155.806.372 1.126.6407.321.279.579.6097.765.992s.289.806.289 1.271h-1.694c-.021-.2583-.083-.496-.166-.713-.082-.217-.206-.403-.372-.558-.155-.155-.351-.279-.579-.3617-.227-.0826-.485-.124-.785-.124-.258 0-.485.031-.702.1034-.217.0723-.404.1653-.559.2893s-.279.279-.372.4547-.134.3823-.134.6097c0 .2376.062.4443.186.6303.124.1757.279.3307.475.465.197.1343.424.248.683.341.258.093.526.186.805.2687.434.124.838.279 1.23.4753.393.186.734.4134 1.034.6717.299.2583.527.5683.702.9093.176.3411.259.7337.259 1.1781 0 .4546-.093.8576-.29 1.209-.196.3509-.454.6409-.775.8779-.32.238-.703.414-1.126.538-.434.124-.878.175-1.343.175-.321 0-.631-.031-.941-.093s-.61-.155-.889-.279c-.289-.124-.547-.279-.795-.454-.248-.186-.455-.393-.641-.631-.186-.2373-.32-.5059-.424-.7953-.103-.2996-.155-.62-.165-.9713h1.705c.021.31.093.5787.207.8163.113.2377.258.4237.454.5787.186.155.414.2687.662.3516.248.072.527.113.837.113.258 0 .496-.031.713-.093s.413-.1546.579-.2683c.165-.124.299-.2686.392-.4443.083-.2067.135-.403.135-.6303z"/><path d="m531.33 6.81165-73.326 73.32635 73.326 73.337v-73.337h73.337z"/><path d="m531.33 226.812v-73.337h-73.326z"/><path d="m555.438 174.069c0-.248-.051-.465-.155-.651-.103-.186-.248-.351-.434-.485-.186-.145-.403-.269-.661-.372-.258-.104-.537-.207-.837-.29-.403-.113-.806-.258-1.199-.434-.392-.175-.744-.392-1.054-.64s-.558-.548-.744-.879c-.186-.341-.289-.723-.289-1.167 0-.445.093-.837.289-1.189.186-.351.445-.651.765-.899s.692-.434 1.116-.568c.423-.134.868-.196 1.333-.196.496 0 .961.072 1.385.227.434.155.806.372 1.126.641.32.279.579.609.765.992.186.382.289.806.289 1.271h-1.695c-.02-.259-.082-.496-.165-.713s-.207-.403-.372-.558c-.155-.155-.351-.279-.579-.362-.227-.083-.485-.124-.785-.124-.258 0-.486.031-.703.103-.217.073-.403.166-.558.29s-.279.279-.372.454c-.093.176-.134.383-.134.61 0 .238.062.444.186.63.124.176.279.331.475.465.197.135.424.248.682.341.259.093.527.186.806.269.434.124.837.279 1.23.475.393.186.734.414 1.033.672.3.258.527.568.703.909s.258.734.258 1.178c0 .455-.093.858-.289 1.21-.196.351-.455.64-.775.878s-.703.413-1.126.537c-.434.124-.879.176-1.344.176-.32 0-.63-.031-.94-.093s-.61-.155-.889-.279c-.289-.124-.547-.279-.795-.455-.248-.186-.455-.392-.641-.63s-.321-.507-.424-.796c-.103-.3-.155-.62-.165-.971h1.705c.02.31.093.578.207.816.113.238.258.424.454.579.186.155.414.269.662.351.248.073.527.114.837.114.258 0 .496-.031.713-.093s.413-.155.578-.269c.166-.124.3-.268.393-.444.083-.207.134-.403.134-.631z"/><path d="m568.665 172.106h-4.227v3.224h4.95v1.385h-6.655v-10.282h6.604v1.395h-4.899v2.904h4.227z"/><path d="m577.19 166.433 1.282 4.443 1.415-4.443h2.108v10.282h-1.591v-3.534l.103-4.506-1.581 4.929h-.888l-1.437-4.763.104 4.34v3.534h-1.592v-10.282z"/><path d="m592.711 191.688h-3.214l-.702 2.387h-1.757l3.338-10.282h1.488l3.275 10.282h-1.746zm-2.779-1.447h2.355l-1.167-4.03z"/><path d="m551.914 207.498v3.937h-1.694v-10.281h3.441c.516 0 .992.082 1.426.227s.806.362 1.126.641c.321.279.558.609.734 1.002s.269.837.269 1.333c0 .475-.083.909-.269 1.302s-.424.713-.734.992-.692.486-1.126.63c-.434.145-.91.217-1.426.228h-1.747zm0-1.374h1.747c.289 0 .547-.041.775-.134.227-.083.423-.207.578-.362s.279-.341.372-.558.124-.455.124-.703c0-.268-.041-.516-.124-.744-.082-.227-.206-.423-.372-.578-.165-.166-.351-.29-.578-.383-.228-.093-.486-.134-.775-.144h-1.747z"/><path d="m569.306 211.435h-1.654v-4.588h-3.492v4.588h-1.643v-10.281h1.643v4.298h3.492v-4.298h1.654z"/><path d="m582.16 206.961c0 .61-.082 1.188-.237 1.746s-.393 1.054-.693 1.478c-.31.424-.692.765-1.157 1.013s-1.002.382-1.633.382c-.62 0-1.157-.124-1.612-.382-.454-.259-.837-.6-1.136-1.023-.3-.424-.538-.92-.682-1.468-.155-.558-.228-1.136-.228-1.746v-1.312c0-.403.031-.796.104-1.189.072-.382.165-.754.299-1.095.135-.341.3-.651.507-.951.196-.289.434-.537.702-.744.269-.206.579-.372.92-.485.341-.114.713-.176 1.126-.176.62 0 1.168.124 1.633.382.465.259.847.6 1.157 1.023.31.424.548.92.703 1.478s.238 1.147.238 1.757v1.312zm-1.705-1.333c0-.382-.041-.775-.103-1.147s-.176-.723-.331-1.023-.361-.537-.62-.734c-.258-.186-.578-.279-.961-.279-.382 0-.702.093-.95.279s-.455.434-.6.734c-.144.3-.248.641-.31 1.023s-.093.765-.093 1.147v1.333c0 .382.042.765.104 1.147s.165.723.31 1.023c.144.3.351.548.599.734s.568.279.951.279c.382 0 .702-.093.961-.279.258-.186.465-.434.62-.734s.268-.641.33-1.023.093-.765.104-1.147v-1.333z"/><path d="m591.172 207.426h-1.725v4.009h-1.695v-10.281h3.245c.527 0 1.012.072 1.457.206.444.124.826.321 1.157.579.32.258.579.579.754.961.176.382.269.837.269 1.354 0 .351-.041.661-.134.95-.093.29-.217.548-.383.775-.165.228-.361.434-.589.61-.227.176-.485.32-.764.444l2.18 4.32v.082h-1.808zm-1.715-1.374h1.56c.279 0 .538-.042.775-.124.238-.083.434-.197.61-.341.176-.145.3-.331.403-.548.093-.217.145-.465.145-.734 0-.289-.042-.537-.135-.764-.093-.228-.217-.403-.382-.558s-.372-.269-.61-.341c-.237-.073-.506-.114-.806-.124h-1.55v3.534z"/><path d="m582.026 193.941h-31.93v-10.282h31.93z"/><path d="m595.098 176.581h-6.923v-10.282h6.923z"/><path d="m78.0028 80.1381 73.3262-73.32645h-146.66298v146.66335l73.33678 73.337 73.3262-73.337h-73.3262l73.3262-73.3369z"/></g><path d="m50.8875 64.9272h-31.9305v-10.2818h31.9305z" fill="#fff"/><path d="m37.5281 25.7324h-4.2264v3.2241h4.9498v1.3846h-6.6548v-10.2818h6.6031v1.395h-4.8981v2.9038h4.2264z" fill="#fff"/><path d="m50.7025 30.3515h-1.705l-3.3481-7.0784-.0103 7.0784h-1.7153v-10.2818h1.7153l3.3378 7.0578.0104-7.0578h1.7152z" fill="#fff"/><path d="m63.5375 27.1895c-.0516.496-.1653.9507-.3513 1.3537s-.4341.7543-.7441 1.0437c-.31.2893-.6819.5166-1.0953.6716-.4236.155-.8886.2377-1.4053.2377-.6304 0-1.1678-.124-1.6431-.3617-.465-.2376-.8577-.5683-1.1677-.9816-.31-.4134-.5476-.8991-.7026-1.4571s-.2377-1.147-.2377-1.7773v-1.4054c0-.6303.0827-1.2193.248-1.7773.1654-.5581.3926-1.0437.713-1.4571.31-.4133.7027-.744 1.1677-.992s1.0127-.3617 1.6224-.3617c.5373 0 1.023.0827 1.4467.2377s.7853.3824 1.0849.682c.2997.2997.5375.651.7235 1.0644.186.4133.2996.8887.3409 1.395h-1.6947c-.031-.2997-.0827-.5787-.1757-.8267-.0827-.248-.2066-.4547-.3616-.6407-.155-.1756-.341-.31-.5683-.403s-.496-.1446-.8061-.1446c-.3823 0-.7027.0826-.961.2583-.2584.1757-.465.4133-.6303.7027-.1654.2893-.279.6303-.341 1.023-.0723.3823-.1033.7957-.1033 1.2194v1.4156c0 .4444.031.8577.1033 1.2504s.1756.7337.3306 1.023.3617.527.62.6924c.2583.1653.5787.2583.9714.2583.589 0 1.0436-.1653 1.3536-.5064.31-.341.4961-.8163.5477-1.426h1.7154z" fill="#fff"/><path d="m22.4096 43.6921h-1.7256v4.0094h-1.6947v-10.2818h3.2447c.527 0 1.0126.0723 1.4569.2066.4444.1241.8267.3204 1.1574.5787.3203.2584.5787.5787.7544.961.1757.3824.2686.8371.2686 1.3537 0 .3514-.0412.6614-.1342.9507s-.2172.5477-.3825.775c-.1653.2274-.3616.434-.589.6097-.2273.1757-.4856.3203-.7646.4443l2.1803 4.3194v.0827h-1.8083zm-1.7256-1.364h1.5603c.279 0 .5374-.0413.775-.124.2377-.0827.434-.1963.6097-.341s.2997-.3307.403-.5477c.093-.217.1447-.465.1447-.7337 0-.2893-.0413-.5373-.1344-.7646-.093-.2274-.2169-.4031-.3823-.5581-.1653-.155-.3721-.2686-.6098-.341-.2376-.0723-.5062-.1136-.8059-.124h-1.55v3.5341z" fill="#fff"/><path d="m34.8 42.3384 2.1391-4.9187h1.891l-3.2034 6.5927-.0103 3.6994h-1.643l-.0103-3.7407-3.1828-6.5514h1.8911z" fill="#fff"/><path d="m45.8676 43.7644v3.9371h-1.6947v-10.2818h3.441c.5166 0 .992.0826 1.426.2273s.806.3617 1.1263.6407.5581.6097.7338 1.0023c.1756.3927.2686.8371.2686 1.3331 0 .4753-.0826.9093-.2686 1.302s-.4238.713-.7338.992-.6923.4857-1.1263.6303c-.434.1447-.9094.217-1.426.2274h-1.7463zm0-1.364h1.7463c.2893 0 .5476-.0413.775-.1343.2273-.0827.4237-.2067.5787-.3617s.279-.341.372-.558.124-.4547.124-.7027c0-.2686-.0413-.5166-.124-.744-.0827-.2273-.2067-.4237-.372-.5787-.1653-.1653-.3514-.2893-.5787-.3823-.2274-.093-.4857-.1343-.775-.1447h-1.7463z" fill="#fff"/><path d="m63.8784 38.825h-3.162v8.8868h-1.6844v-8.8868h-3.1414v-1.3951h7.9774v1.3951z" fill="#fff"/><path d="m60.0445 61.0523h-1.7258v4.0094h-1.6947v-10.2818h3.2448c.527 0 1.0127.0723 1.457.2067.4444.124.8267.3203 1.1574.5787.3203.2583.5786.5786.7543.961.1757.3823.2687.837.2687 1.3537 0 .3513-.0414.6613-.1344.9506-.093.2894-.217.5477-.3823.775-.1653.2274-.3616.4341-.589.6097-.2273.1757-.4856.3204-.7646.4444l2.1803 4.3194v.0826h-1.8083zm-1.7258-1.364h1.5604c.279 0 .5373-.0413.775-.124s.434-.1963.6097-.341c.1756-.1447.2996-.3307.403-.5477.093-.217.1447-.465.1447-.7336 0-.2894-.0414-.5374-.1344-.7647-.093-.2274-.217-.403-.3823-.558-.1654-.155-.372-.2687-.6097-.341-.2376-.0724-.5063-.1137-.806-.124h-1.55v3.534z" fill="#fff"/><path d="m25.8912 30.1965h-6.9234v-10.2818h6.9234z" fill="#fff"/><path d="m531.339 375.337h-73.326v73.326l73.326 73.337h73.337v-73.337z" fill="#303033"/><path d="m458.013 302 73.326 73.337 73.337-73.337z" fill="#303033"/><path d="m589.353 489.828h-6.508v-10.023h6.508zm-40.648-21.175h-1.682v3.909h-1.652v-10.024h3.163c.514 0 .987.071 1.42.202.434.121.806.312 1.129.564.312.252.564.564.735.937.171.382.262.816.262 1.319 0 .343-.04.645-.131.927s-.212.534-.373.756c-.161.221-.352.423-.574.594s-.473.312-.745.433l2.125 4.211v.081h-1.763zm-1.672-1.34h1.521c.272 0 .524-.04.756-.121.231-.08.423-.191.594-.332s.292-.323.393-.534c.101-.212.141-.453.141-.715 0-.282-.04-.524-.131-.746-.091-.211-.212-.393-.373-.544s-.362-.262-.594-.332c-.232-.071-.494-.121-.786-.121h-1.511v3.445zm16.128.746h-4.12v3.143h4.825v1.349h-6.487v-10.023h6.437v1.36h-4.775v2.831h4.12zm8.865 3.153h4.775v1.35h-6.427v-10.024h1.652zm16.601-3.153h-4.12v3.143h4.826v1.349h-6.488v-10.023h6.437v1.36h-4.775v2.831h4.12zm-38.421 19.099h-3.133l-.685 2.327h-1.712l3.254-10.023h1.45l3.194 10.023h-1.703zm-2.71-1.41h2.297l-1.138-3.929zm15 1.148c0-.241-.05-.453-.151-.634-.101-.182-.242-.343-.423-.474-.181-.141-.393-.262-.645-.362-.252-.101-.524-.202-.816-.282-.393-.111-.785-.252-1.168-.424-.383-.171-.726-.382-1.028-.624s-.544-.534-.725-.856c-.181-.323-.282-.706-.282-1.139s.091-.816.282-1.158c.191-.343.433-.635.745-.877.313-.241.675-.423 1.088-.554s.847-.191 1.3-.191c.483 0 .937.07 1.35.222.413.151.785.362 1.098.624.312.272.564.595.745.967.182.373.282.786.282 1.239h-1.652c-.02-.252-.08-.483-.161-.695-.081-.211-.201-.383-.363-.544-.151-.151-.342-.272-.564-.352-.221-.081-.473-.121-.765-.121-.252 0-.474.03-.685.101-.212.06-.393.161-.544.282-.151.12-.272.272-.363.443s-.131.373-.131.594c0 .232.06.433.181.615.121.171.272.322.464.453.191.131.413.242.665.332.251.091.513.182.785.262.423.121.816.282 1.199.464.383.181.715.403 1.008.655.292.251.513.554.685.886.171.332.251.715.251 1.148 0 .444-.09.837-.282 1.179-.191.343-.443.625-.755.856-.313.232-.685.403-1.098.524-.423.121-.857.181-1.31.181-.312 0-.614-.03-.917-.09-.302-.061-.594-.151-.866-.272-.282-.121-.534-.272-.776-.443-.241-.172-.443-.383-.624-.615s-.312-.494-.413-.776-.151-.604-.161-.947h1.662c.02.303.09.565.201.796.111.222.252.413.444.564.181.152.402.262.644.343.242.07.514.111.816.111.252 0 .484-.03.695-.091.212-.06.403-.151.564-.262.162-.121.293-.262.383-.433.081-.201.131-.403.131-.625zm13.59-1.914h-4.121v3.143h4.826v1.35h-6.488v-10.023h6.437v1.36h-4.775v2.831h4.121zm-24.248 21.427h-1.662l-3.264-6.9-.01 6.9h-1.672v-10.023h1.672l3.254 6.88.01-6.88h1.672zm12.25-4.372c0 .595-.081 1.159-.232 1.703s-.383 1.027-.675 1.44c-.302.413-.675.746-1.128.987-.453.242-.977.373-1.592.373-.604 0-1.128-.121-1.571-.373-.443-.251-.816-.584-1.108-.997s-.524-.896-.665-1.44c-.151-.544-.222-1.109-.222-1.703v-1.279c0-.393.03-.786.101-1.159.07-.382.161-.735.292-1.068.131-.332.292-.634.494-.926.191-.282.423-.524.685-.726.262-.201.564-.362.896-.473.333-.111.695-.171 1.098-.171.605 0 1.139.121 1.592.372.453.252.826.575 1.128.998.302.413.534.896.685 1.44s.232 1.118.232 1.713v1.289zm-1.662-1.289c0-.383-.041-.756-.101-1.128-.061-.373-.171-.706-.322-.998-.152-.292-.353-.534-.605-.715s-.564-.272-.937-.272c-.372 0-.685.091-.926.272-.242.181-.444.423-.585.715s-.242.625-.302.998c-.06.372-.091.745-.091 1.118v1.299c0 .373.041.746.101 1.118.061.373.161.706.302.998s.343.534.585.715c.241.181.554.272.926.272.373 0 .685-.091.937-.272s.454-.423.605-.715.262-.625.322-.998c.06-.372.091-.745.101-1.118v-1.289zm14.889-3.002h-3.083v8.663h-1.642v-8.663h-3.062v-1.36h7.777v1.36zm11.312 4.16h-4.12v3.143h4.826v1.35h-6.488v-10.023h6.437v1.36h-4.775v2.83h4.12z" fill="#fff"/><path d="m758.006 302h-73.33v73.33 73.33h73.33v73.34l36.67-36.67 36.67-36.67v-73.33-73.33z" fill="#303033"/><path d="m709.626 389.68c0-.24-.05-.45-.15-.63s-.24-.34-.42-.47c-.18-.14-.39-.26-.64-.36s-.52-.2-.81-.28c-.39-.11-.78-.25-1.16-.42s-.72-.38-1.02-.62-.54-.53-.72-.85c-.18-.33-.28-.7-.28-1.13s.09-.81.28-1.15c.18-.34.43-.63.74-.87s.67-.42 1.08-.55.84-.19 1.29-.19c.48 0 .93.07 1.34.22.42.15.78.36 1.09.62.31.27.56.59.74.96s.28.78.28 1.23h-1.64c-.02-.25-.08-.48-.16-.69s-.2-.39-.36-.54c-.15-.15-.34-.27-.56-.35s-.47-.12-.76-.12c-.25 0-.47.03-.68.1s-.39.16-.54.28-.27.27-.36.44-.13.37-.13.59c0 .23.06.43.18.61.12.17.27.32.46.45s.41.24.66.33.51.18.78.26c.42.12.81.27 1.19.46.38.18.71.4 1 .65s.51.55.68.88.25.71.25 1.14c0 .44-.09.83-.28 1.17s-.44.62-.75.85-.68.4-1.09.52c-.42.12-.85.17-1.3.17-.31 0-.61-.03-.91-.09s-.59-.15-.86-.27c-.28-.12-.53-.27-.77-.44-.24-.18-.44-.38-.62-.61s-.31-.49-.41-.77c-.1-.29-.15-.6-.16-.94h1.65c.02.3.09.56.2.79s.25.41.44.56c.18.15.4.26.64.34.24.07.51.11.81.11.25 0 .48-.03.69-.09s.4-.15.56-.26c.16-.12.29-.26.38-.43.08-.2.13-.39.13-.61zm13.44-7.39.01 6.67c0 .51-.09.98-.25 1.4s-.38.78-.67 1.08-.63.53-1.04.7c-.41.16-.87.25-1.37.25-.49 0-.94-.08-1.34-.25s-.75-.4-1.03-.69c-.29-.3-.51-.66-.67-1.08s-.24-.89-.25-1.41l.01-6.67h1.61l.01 6.67c0 .31.04.59.12.84s.18.47.31.66c.14.18.31.33.51.43s.44.15.71.15.51-.05.72-.15.38-.25.53-.43c.14-.19.25-.41.32-.66s.11-.54.12-.84l.01-6.67zm7.43 6.14v3.81h-1.64v-9.95h3.33c.5 0 .96.08 1.38.22s.78.35 1.09.62.54.59.71.97.26.81.26 1.29c0 .46-.08.88-.26 1.26s-.41.69-.71.96-.67.47-1.09.61-.88.21-1.38.22h-1.69zm0-1.33h1.69c.28 0 .53-.04.75-.13.22-.08.41-.2.56-.35s.27-.33.36-.54.12-.44.12-.68c0-.26-.04-.5-.12-.72s-.2-.41-.36-.56c-.16-.16-.34-.28-.56-.37s-.47-.13-.75-.14h-1.69zm-12.14 18.13v3.81h-1.64v-9.95h3.33c.5 0 .96.08 1.38.22s.78.35 1.09.62.54.59.71.97.26.81.26 1.29c0 .46-.08.88-.26 1.26s-.41.69-.71.96-.67.47-1.09.61-.88.21-1.38.22h-1.69zm0-1.33h1.69c.28 0 .53-.04.75-.13.22-.08.41-.2.56-.35s.27-.33.36-.54.12-.44.12-.68c0-.26-.04-.5-.12-.72s-.2-.41-.36-.56c-.16-.16-.34-.28-.56-.37s-.47-.13-.75-.14h-1.69zm17.12.81c0 .59-.08 1.15-.23 1.69s-.38 1.02-.67 1.43c-.3.41-.67.74-1.12.98s-.97.37-1.58.37c-.6 0-1.12-.12-1.56-.37s-.81-.58-1.1-.99-.52-.89-.66-1.42c-.15-.54-.22-1.1-.22-1.69v-1.27c0-.39.03-.77.1-1.15.07-.37.16-.73.29-1.06s.29-.63.49-.92c.19-.28.42-.52.68-.72s.56-.36.89-.47.69-.17 1.09-.17c.6 0 1.13.12 1.58.37s.82.58 1.12.99.53.89.68 1.43.23 1.11.23 1.7v1.27zm-1.64-1.29c0-.37-.04-.75-.1-1.11s-.17-.7-.32-.99-.35-.52-.6-.71c-.25-.18-.56-.27-.93-.27s-.68.09-.92.27-.44.42-.58.71-.24.62-.3.99-.09.74-.09 1.11v1.29c0 .37.04.74.1 1.11s.16.7.3.99.34.53.58.71.55.27.92.27.68-.09.93-.27.45-.42.6-.71.26-.62.32-.99.09-.74.1-1.11v-1.29zm10.37 1.74h-1.67v3.88h-1.64v-9.95h3.14c.51 0 .98.07 1.41.2.43.12.8.31 1.12.56.31.25.56.56.73.93s.26.81.26 1.31c0 .34-.04.64-.13.92s-.21.53-.37.75-.35.42-.57.59-.47.31-.74.43l2.11 4.18v.08h-1.75zm-1.67-1.33h1.51c.27 0 .52-.04.75-.12s.42-.19.59-.33.29-.32.39-.53c.09-.21.14-.45.14-.71 0-.28-.04-.52-.13-.74s-.21-.39-.37-.54-.36-.26-.59-.33-.49-.11-.78-.12h-1.5v3.42zm-31.03 13.41h-3.06v8.6h-1.63v-8.6h-3.04v-1.35h7.72v1.35zm35.82 8.61h-30.9v-9.95h30.9zm-36.85-16.81h-6.7v-9.95h6.7zm36.85-16.8h-6.7v-9.95h6.7z" fill="#fff"/><g clip-path="url(#a)" fill="#303033"><path d="m758 190.145v-18.333-18.334h-18.333-18.333-18.334-18.333v18.334 18.333 18.333 18.334h18.333 18.334 18.333 18.333v-18.334z"/><path d="m813 6.81165h-18.333-18.334-18.333v18.33335 18.3333 18.3333 18.3334 18.3333 18.3337 18.333 18.333h18.333 18.334 18.333 18.333v-18.333-18.333-18.3337-18.3333-18.3334-18.3333-18.3333-18.33335z"/><g clip-path="url(#b)"><path d="m797.786 167.422h5.92v1.36h-2.15v7.24h2.15v1.35h-5.92v-1.35h2.11v-7.24h-2.11z"/><path d="m816.146 177.372h-1.65l-3.25-6.85-.01 6.85h-1.66v-9.95h1.66l3.23 6.83.02-6.83h1.66z"/><path d="m779.726 191.122c-.05.48-.16.92-.34 1.31s-.42.73-.72 1.01-.66.5-1.06.65c-.41.15-.86.23-1.36.23-.61 0-1.13-.12-1.59-.35-.45-.23-.83-.55-1.13-.95s-.53-.87-.68-1.41-.24-1.12-.24-1.73v-1.36c0-.61.08-1.18.24-1.72s.38-1.01.69-1.41c.3-.4.68-.72 1.13-.96s.98-.35 1.57-.35c.52 0 .99.08 1.4.23s.76.37 1.05.66.52.63.7 1.03.29.86.33 1.35h-1.63c-.03-.29-.08-.56-.17-.8-.08-.24-.2-.44-.34-.62-.15-.17-.33-.3-.55-.39s-.48-.14-.78-.14c-.37 0-.68.08-.93.25s-.45.4-.61.68-.27.61-.33.99c-.07.37-.1.77-.1 1.18v1.37c0 .43.03.83.1 1.21s.17.71.32.99.35.51.6.67.56.25.94.25c.57 0 1.01-.16 1.31-.49s.48-.79.53-1.38z"/><path d="m787.227 192.832h4.74v1.34h-6.38v-9.95h1.64z"/><path d="m802.386 191.862h-3.11l-.68 2.31h-1.7l3.23-9.95h1.44l3.17 9.95h-1.69zm-2.69-1.4h2.28l-1.13-3.9z"/><path d="m812.867 191.682 2.07-7.46h1.79l-3.08 9.95h-1.57l-3.07-9.95h1.79z"/><path d="m791.257 206.512h-4.09v3.12h4.79v1.34h-6.44v-9.95h6.39v1.35h-4.74v2.81h4.09z"/><path d="m779.726 210.972h-7.12v-9.95h7.12z"/><path d="m816.066 210.842h-19.17v-9.95h19.17z"/><path d="m792.136 177.512h-19.53v-9.95h19.53z"/></g></g><g clip-path="url(#c)"><path d="m4.66602 522 146.66698-146.667h-73.3336l73.3336-73.333h-146.66698z" fill="#303033"/><g fill="#fff"><path d="m36.3222 320.38h-4.18v4.19h-1.65v-9.85h6.45v1.34h-4.79v2.98h4.18v1.34z"/><path d="m49.072 320.15h-4.09v3.09h4.79v1.33h-6.44v-9.85h6.39v1.34h-4.74v2.78h4.09z"/><path d="m55.5508 324.57v-9.85h2.43c.68.01 1.3.12 1.84.34s1.01.53 1.39.93.67.88.88 1.44.31 1.17.31 1.85v.74c0 .68-.11 1.29-.31 1.85-.21.56-.5 1.04-.88 1.43-.37.41-.83.72-1.37.94s-1.14.33-1.81.33zm1.67-8.54v7.23h.81c.45-.01.85-.09 1.18-.24.34-.15.62-.37.84-.66.23-.28.39-.62.51-1.02.11-.4.17-.84.17-1.33v-.74c0-.47-.06-.91-.17-1.3s-.28-.73-.51-1.02-.51-.51-.86-.67c-.34-.16-.75-.24-1.21-.25z"/><path d="m24.1912 336.78h-4.09v3.09h4.79v1.33h-6.44v-9.85h6.39v1.34h-4.74v2.78h4.09z"/><path d="m33.6909 337.35h-1.67v3.84h-1.64v-9.85h3.14c.51 0 .98.07 1.41.19s.8.31 1.12.55c.31.25.56.55.73.92s.26.8.26 1.3c0 .33-.04.64-.13.91s-.21.52-.37.74-.35.42-.57.58c-.22.17-.47.31-.74.43l2.11 4.14v.08h-1.75zm-1.67-1.31h1.51c.27 0 .52-.04.75-.12s.42-.19.59-.33.29-.32.39-.52.14-.44.14-.71-.04-.52-.13-.73-.21-.39-.37-.53-.36-.25-.59-.33c-.23-.07-.49-.11-.78-.12h-1.5v3.39z"/><path d="m48.322 355.53h-3.11l-.68 2.29h-1.7l3.23-9.85h1.44l3.17 9.85h-1.69zm-2.69-1.38h2.28l-1.13-3.86z"/><path d="m57.431 356.49h4.74v1.33h-6.38v-9.85h1.64z"/><path d="m62.0018 341.05h-18.66v-9.85h18.67z"/><path d="m38.5112 357.69h-20.06v-9.85h20.06z"/><path d="m24.7012 324.71h-6.25v-9.85h6.25z"/></g></g><g clip-path="url(#d)"><path d="m1058.02 375.333v-73.333h-73.339l-36.667 36.667-36.668 36.666v73.334l36.668 36.666 36.667 36.667h73.339v-73.333h-73.339v-73.334z" fill="#303033"/><g clip-path="url(#e)" fill="#fff"><path d="m938.796 399.975c.45.24.98.35 1.59.35.5 0 .96-.08 1.36-.23.41-.15.76-.37 1.06-.65s.54-.62.72-1.01.3-.83.34-1.31h-1.65c-.05.6-.23 1.06-.53 1.38-.3.33-.74.49-1.31.49-.37 0-.69-.08-.94-.25s-.44-.38-.59-.66-.26-.61-.32-.99c-.07-.38-.1-.78-.1-1.21v-1.37c0-.41.03-.8.1-1.18s.18-.7.33-.99.36-.51.61-.68.56-.25.93-.25c.3 0 .56.05.78.14s.4.22.55.39.26.38.34.62.14.51.17.8h1.64c-.05-.5-.16-.95-.33-1.35s-.41-.75-.7-1.03-.64-.5-1.05-.66c-.42-.16-.88-.24-1.41-.24-.6 0-1.12.12-1.57.35s-.83.55-1.13.96c-.3.4-.53.88-.69 1.41-.16.54-.23 1.11-.24 1.72v1.36c0 .61.08 1.19.23 1.72.15.54.38 1.01.68 1.41.3.41.68.72 1.13.96z"/><path d="m951.006 397.875h3.11l.67 2.31h1.69l-3.17-9.95h-1.44l-3.23 9.95h1.7zm1.58-5.31 1.13 3.9h-2.28z"/><path d="m966.307 395.915c.27-.12.51-.26.74-.43.22-.17.42-.37.57-.59.16-.22.28-.47.37-.75s.13-.58.13-.92c0-.5-.09-.94-.26-1.31-.17-.38-.42-.69-.73-.93s-.69-.44-1.12-.56-.9-.19-1.41-.2h-3.14v9.95h1.64v-3.88h1.67l1.89 3.88h1.75v-.08zm-.94-1.06c-.23.08-.48.12-.75.12h-1.51v-3.42h1.5c.29.01.55.04.78.12s.43.19.59.33c.16.15.29.33.37.54.09.21.13.46.13.74 0 .27-.05.51-.14.71-.09.21-.22.38-.39.53-.16.14-.35.25-.58.33z"/><path d="m930.816 415.645h-4.79v-3.13h4.09v-1.32h-4.09v-2.81h4.74v-1.36h-6.39v9.96h6.44z"/><path d="m943.637 408.385v-1.36h-6.39v9.96h6.44v-1.34h-4.79v-3.13h4.09v-1.32h-4.09v-2.81z"/><path d="m955.476 411.695c.16-.22.28-.47.37-.75s.13-.58.13-.92c0-.5-.09-.94-.26-1.31s-.42-.68-.73-.93-.69-.44-1.12-.56c-.43-.13-.9-.19-1.41-.2h-3.14v9.95h1.64v-3.88h1.67l1.89 3.88h1.75v-.08l-2.11-4.18c.27-.12.51-.26.74-.43s.43-.36.58-.59zm-1.27-.9c-.09.21-.22.38-.39.53-.17.14-.36.25-.59.33s-.48.12-.75.12h-1.51v-3.42h1.5c.29 0 .55.04.78.12s.43.19.59.33.29.33.37.54c.09.21.13.46.13.74 0 .27-.04.51-.13.71z"/><path d="m930.566 429.185c-.29-.25-.62-.47-1-.65s-.77-.33-1.19-.46c-.27-.08-.53-.16-.78-.26-.25-.09-.47-.2-.66-.33s-.35-.28-.46-.45c-.12-.17-.18-.37-.18-.61 0-.22.04-.41.13-.59.09-.17.21-.32.36-.44s.33-.22.54-.28.44-.1.68-.1c.29 0 .54.04.76.12s.4.2.56.35c.15.15.27.33.36.54.08.21.14.44.16.69h1.64c0-.45-.1-.86-.28-1.23s-.43-.69-.74-.96-.68-.47-1.09-.62c-.42-.15-.87-.22-1.34-.22-.45 0-.88.06-1.29.19s-.77.31-1.08.55-.56.53-.74.87-.28.72-.28 1.15.09.8.28 1.13c.18.33.42.61.72.86.3.24.64.45 1.02.62s.77.31 1.16.42c.29.09.56.18.81.28s.46.22.64.36.32.29.42.47.15.39.15.63c0 .22-.05.41-.14.58s-.22.31-.38.43-.35.21-.56.26c-.21.06-.44.09-.69.09-.3 0-.57-.04-.81-.11-.24-.08-.46-.19-.64-.34s-.33-.33-.44-.56c-.11-.22-.18-.48-.2-.79h-1.64c0 .34.06.65.16.94s.24.54.41.77.38.43.62.61.49.32.77.44.56.21.87.27c.3.06.6.09.91.09.45 0 .88-.06 1.3-.18s.78-.29 1.09-.52.57-.51.75-.85c.19-.34.28-.73.28-1.17 0-.43-.08-.81-.25-1.14-.17-.31-.4-.6-.69-.85z"/><path d="m967.886 423.695h-30.78v9.95h30.78z"/><path d="m967.887 407.025h-7.64v9.95h7.64z"/><path d="m930.626 390.365h-6.25v9.95h6.25z"/></g></g></svg>