<svg fill="none" height="538" viewBox="0 0 1301 538" width="1301" xmlns="http://www.w3.org/2000/svg" xmlns:xlink="http://www.w3.org/1999/xlink"><clipPath id="a"><path d="m0 0h1301v538h-1301z"/></clipPath><clipPath id="b"><path d="m687.938 12.8115h146.67v220h-146.67z"/></clipPath><clipPath id="c"><path d="m775.878 173.422h44.12v43.55h-44.12z"/></clipPath><clipPath id="d"><path d="m1139.56 12.8115h146.67v220h-146.67z"/></clipPath><clipPath id="e"><path d="m688.064 305.04h146.67v220h-146.67z"/></clipPath><clipPath id="f"><path d="m701.064 393.125h44.07v43.83h-44.07z"/></clipPath><clipPath id="g"><path d="m466.34 305.04h146.67v220h-146.67z"/></clipPath><clipPath id="h"><path d="m478.34 387.04h40v41.68h-40z"/></clipPath><clipPath id="i"><path d="m916.725 305.04h146.67v220h-146.67z"/></clipPath><g clip-path="url(#a)"><path d="m990.214 12.8115v146.6635h-73.326l73.326 73.337h73.336v-146.674z" fill="#303033"/><path d="m1004.98 178.694v3.937h-1.69v-10.281h3.44c.51 0 .99.082 1.42.227.44.145.81.362 1.13.641s.56.609.73 1.002c.18.393.27.837.27 1.333 0 .475-.08.909-.27 1.302-.18.393-.42.713-.73.992s-.69.486-1.13.63c-.43.145-.91.217-1.42.228h-1.75zm0-1.374h1.75c.29 0 .54-.041.77-.134.23-.083.42-.207.58-.362.15-.155.28-.341.37-.558s.13-.455.13-.703c0-.268-.05-.516-.13-.744-.08-.227-.2-.423-.37-.578-.17-.166-.35-.29-.58-.383s-.48-.134-.77-.144h-1.75z" fill="#fff"/><path d="m1017.57 181.247h4.89v1.384h-6.59v-10.281h1.7z" fill="#fff"/><path d="m1033.23 180.244h-3.21l-.71 2.387h-1.75l3.34-10.281h1.48l3.28 10.281h-1.75zm-2.78-1.446h2.36l-1.17-4.03z" fill="#fff"/><path d="m1048.08 173.745h-3.16v8.886h-1.69v-8.886h-3.14v-1.395h7.98v1.395z" fill="#fff"/><path d="m1009.32 195.61h-4.32v4.382h-1.7v-10.282h6.66v1.395h-4.95v3.11h4.32v1.395z" fill="#fff"/><path d="m1022.68 195.518c0 .609-.08 1.188-.24 1.746-.15.558-.39 1.054-.69 1.478-.31.423-.69.764-1.16 1.012-.46.248-1 .383-1.63.383-.62 0-1.16-.124-1.61-.383-.46-.258-.84-.599-1.14-1.023-.3-.423-.54-.919-.68-1.467-.15-.558-.23-1.137-.23-1.746v-1.313c0-.403.03-.796.11-1.188.07-.383.16-.755.3-1.096.13-.341.3-.651.5-.95.2-.29.44-.538.7-.744.27-.207.58-.372.92-.486.35-.114.72-.176 1.13-.176.62 0 1.17.124 1.63.383.47.258.85.599 1.16 1.023.31.423.55.919.7 1.477.16.558.24 1.147.24 1.757v1.313zm-1.7-1.333c0-.383-.05-.776-.11-1.148s-.17-.723-.33-1.023c-.15-.299-.36-.537-.62-.733-.26-.186-.58-.279-.96-.279s-.7.093-.95.279-.45.434-.6.733c-.14.3-.25.641-.31 1.023-.06.383-.09.765-.09 1.148v1.333c0 .382.04.764.1 1.147.06.382.17.723.31 1.023.15.299.35.547.6.733s.57.279.95.279.7-.093.96-.279.47-.434.62-.733c.16-.3.27-.641.33-1.023.06-.383.1-.765.11-1.147v-1.333z" fill="#fff"/><path d="m1031.69 213.343h-1.72v4.009h-1.7v-10.282h3.25c.52 0 1.01.073 1.45.207.45.124.83.32 1.16.579.32.258.58.578.75.961.18.382.27.837.27 1.353 0 .352-.04.662-.13.951s-.22.548-.38.775c-.17.227-.36.434-.59.61-.23.175-.49.32-.77.444l2.18 4.319v.083h-1.8zm-1.71-1.375h1.56c.28 0 .53-.041.77-.124.24-.082.44-.196.61-.341.18-.144.3-.33.4-.547s.15-.465.15-.734c0-.289-.04-.537-.14-.765-.09-.227-.21-.403-.38-.558-.16-.155-.37-.268-.61-.341-.23-.072-.5-.113-.8-.124h-1.55v3.534z" fill="#fff"/><path d="m1042.8 207.07 1.28 4.444 1.42-4.444h2.1v10.282h-1.59v-3.534l.11-4.505-1.58 4.929h-.89l-1.44-4.764.1 4.34v3.534h-1.59v-10.282z" fill="#fff"/><path d="m1048.16 199.992h-19.93v-10.282h19.93z" fill="#fff"/><path d="m1023.1 217.352h-19.93v-10.282h19.93z" fill="#fff"/><path d="m86.9925 378.409-73.3333-73.333h146.6768zm0 73.334 73.3435-73.334h-73.3333-73.3332l73.323 73.334h-73.3333l73.3333 73.333 73.3335-73.333z" fill="#303033"/><path d="m65.1143 332.588v-10.23h2.4982c.6991 0 1.3365.124 1.8917.35s1.0384.555 1.4291.966c.3906.422.6887.915.9046 1.491s.3188 1.223.3188 1.923v.771c0 .699-.1132 1.346-.3188 1.922-.2159.576-.514 1.08-.8944 1.491-.3907.411-.8636.74-1.4085.966-.5552.226-1.172.34-1.8608.34zm1.7168-8.873v7.516h.8328c.4626 0 .8739-.082 1.2132-.247.3495-.164.6374-.391.8635-.679.2365-.298.401-.647.5244-1.058.1131-.412.1747-.874.1747-1.378v-.792c0-.493-.0616-.946-.1747-1.346-.1131-.412-.2879-.761-.5244-1.059-.2364-.299-.5243-.525-.8841-.7-.3495-.164-.7711-.257-1.244-.257z" fill="#fff"/><path d="m66.8003 348.482h4.8731v1.378h-6.5591v-10.23h1.686z" fill="#fff"/><path d="m84.5153 328.126c0 .606-.0822 1.182-.2364 1.737-.1542.556-.3906 1.049-.6888 1.47-.3084.422-.6888.761-1.1514 1.008-.4627.247-.9973.38-1.6244.38-.6169 0-1.1515-.123-1.6038-.38-.4524-.257-.8328-.596-1.131-1.018-.2981-.421-.5346-.915-.6785-1.46-.1542-.555-.2262-1.131-.2262-1.737v-1.306c0-.401.0309-.791.1029-1.182.0719-.38.1644-.751.2981-1.09.1336-.339.2981-.648.5037-.946.1954-.288.4318-.534.6991-.74s.5758-.37.915-.483c.3393-.113.7094-.175 1.1207-.175.6168 0 1.1617.123 1.6244.38.4626.258.843.597 1.1514 1.018.3084.422.5449.915.6991 1.47.1542.556.2364 1.142.2364 1.748zm-1.6963-1.316c0-.38-.0411-.771-.1028-1.141-.0617-.381-.1748-.72-.329-1.018s-.3598-.535-.6168-.73c-.257-.185-.5757-.278-.9561-.278s-.6991.093-.9459.278c-.2467.185-.4523.432-.5963.73-.1439.298-.2467.637-.3084 1.018-.0617.38-.0925.761-.0925 1.141v1.326c0 .381.0411.761.1028 1.141.0616.381.1645.72.3084 1.018.144.298.3495.545.5963.73.2467.185.5655.278.9459.278.3803 0 .699-.093.9561-.278.257-.185.4626-.432.6168-.73s.2673-.637.329-1.018c.0617-.38.0925-.76.1028-1.141v-1.326z" fill="#fff"/><path d="m84.5153 345.398c0 .606-.0822 1.182-.2364 1.737s-.3804 1.049-.6888 1.47c-.3084.422-.6888.761-1.1514 1.008-.4627.247-.9973.38-1.6244.38-.6169 0-1.1515-.123-1.6038-.38-.4524-.257-.8328-.596-1.131-1.018-.2981-.421-.5346-.915-.6785-1.46-.1542-.555-.2262-1.131-.2262-1.737v-1.306c0-.401.0309-.791.1029-1.182.0719-.381.1644-.751.2981-1.09.1336-.339.2981-.648.5037-.946.1954-.288.4318-.534.6991-.74s.5758-.37.915-.483c.3393-.113.7094-.175 1.1207-.175.6168 0 1.1617.123 1.6244.38.4626.257.843.597 1.1514 1.018.3084.422.5449.915.6991 1.47.1542.556.2364 1.142.2364 1.748v1.306zm-1.6963-1.316c0-.38-.0411-.771-.1028-1.141s-.1748-.72-.329-1.018-.3598-.535-.6168-.73c-.257-.185-.5757-.278-.9561-.278s-.6991.093-.9459.278c-.2467.185-.4523.432-.5963.73-.1439.298-.2467.637-.3084 1.018-.0617.38-.0925.761-.0925 1.141v1.326c0 .381.0411.761.1028 1.141.0616.381.1645.72.3084 1.018.144.298.3495.545.5963.73.2467.185.5655.278.9459.278.3803 0 .699-.093.9561-.278.257-.185.4626-.432.6168-.73s.2673-.637.329-1.018c.0617-.38.0925-.76.1028-1.141v-1.326z" fill="#fff"/><path d="m95.4634 329.061.7299-6.713h1.573l-1.3057 10.229h-1.6141l-1.1206-6.806-1.1001 6.806h-1.6141l-1.3056-10.229h1.573l.7299 6.672 1.0486-6.672h1.3263z" fill="#fff"/><path d="m95.3815 347.474h-3.1973l-.6991 2.375h-1.7478l3.3207-10.23h1.4804l3.2591 10.23h-1.7374zm-2.7759-1.44h2.3441l-1.1617-4.009z" fill="#fff"/><path d="m109.847 332.588h-1.697l-3.331-7.043-.01 7.043h-1.706v-10.23h1.706l3.321 7.022.01-7.022h1.707z" fill="#fff"/><path d="m103.144 349.859v-10.229h2.498c.699 0 1.336.123 1.891.349.556.227 1.039.556 1.43.967.39.421.688.915.904 1.491.216.575.319 1.223.319 1.922v.771c0 .699-.113 1.347-.319 1.923-.216.575-.514 1.079-.894 1.49-.391.412-.864.741-1.409.967s-1.172.339-1.861.339zm1.717-8.872v7.515h.832c.463 0 .874-.082 1.213-.246.35-.165.638-.391.864-.679.236-.298.401-.648.524-1.059.113-.411.175-.874.175-1.378v-.791c0-.494-.062-.946-.175-1.347-.113-.411-.288-.761-.524-1.059-.237-.298-.524-.524-.884-.699-.35-.165-.771-.257-1.244-.257z" fill="#fff"/><path d="m65.1143 305.076h45.0817v10.23h-45.0817z" fill="#fff"/><path d="m65.1143 332.516v-10.23h2.4982c.6991 0 1.3365.124 1.8917.35s1.0384.555 1.4291.966c.3906.422.6887.915.9046 1.491s.3188 1.223.3188 1.922v.771c0 .699-.1132 1.347-.3188 1.923-.2159.576-.514 1.079-.8944 1.491-.3907.411-.8636.74-1.4085.966-.5552.226-1.172.339-1.8608.339zm1.7168-8.873v7.516h.8328c.4626 0 .8739-.083 1.2132-.247.3495-.165.6374-.391.8635-.679.2365-.298.401-.647.5244-1.059.1131-.411.1747-.874.1747-1.377v-.792c0-.493-.0616-.946-.1747-1.347-.1131-.411-.2879-.761-.5244-1.059-.2364-.298-.5243-.524-.8841-.699-.3495-.164-.7711-.257-1.244-.257z" fill="#fff"/><path d="m66.8003 348.41h4.8731v1.378h-6.5591v-10.23h1.686z" fill="#fff"/><path d="m84.5153 328.054c0 .606-.0822 1.182-.2364 1.737s-.3906 1.049-.6888 1.47c-.3084.422-.6888.761-1.1514 1.008-.4627.246-.9973.38-1.6244.38-.6169 0-1.1515-.123-1.6038-.38-.4524-.257-.8328-.597-1.131-1.018-.2981-.422-.5346-.915-.6785-1.46-.1542-.555-.2262-1.131-.2262-1.737v-1.306c0-.401.0309-.792.1029-1.182.0719-.381.1644-.751.2981-1.09.1336-.339.2981-.648.5037-.946.1954-.288.4318-.535.6991-.74.2673-.206.5758-.37.915-.483.3393-.113.7094-.175 1.1207-.175.6168 0 1.1617.123 1.6244.38.4626.257.843.597 1.1514 1.018.3084.422.5449.915.6991 1.47s.2364 1.141.2364 1.748zm-1.6963-1.316c0-.381-.0411-.771-.1028-1.142-.0617-.38-.1748-.719-.329-1.017s-.3598-.535-.6168-.73c-.257-.185-.5757-.278-.9561-.278s-.6991.093-.9459.278c-.2467.185-.4523.432-.5963.73-.1439.298-.2467.637-.3084 1.017-.0617.381-.0925.761-.0925 1.142v1.326c0 .38.0411.761.1028 1.141.0616.38.1645.72.3084 1.018.144.298.3495.545.5963.73.2467.185.5655.277.9459.277.3803 0 .699-.092.9561-.277.257-.185.4626-.432.6168-.73s.2673-.638.329-1.018.0925-.761.1028-1.141v-1.326z" fill="#fff"/><path d="m84.5153 345.326c0 .606-.0822 1.182-.2364 1.737s-.3804 1.049-.6888 1.47c-.3084.422-.6888.761-1.1514 1.008-.4627.246-.9973.38-1.6244.38-.6169 0-1.1515-.123-1.6038-.38-.4524-.257-.8328-.597-1.131-1.018-.2981-.422-.5346-.915-.6785-1.46-.1542-.555-.2262-1.131-.2262-1.737v-1.306c0-.401.0309-.792.1029-1.182.0719-.381.1644-.751.2981-1.09.1336-.339.2981-.648.5037-.946.1954-.288.4318-.535.6991-.74.2673-.206.5758-.37.915-.483.3393-.114.7094-.175 1.1207-.175.6168 0 1.1617.123 1.6244.38.4626.257.843.596 1.1514 1.018s.5449.915.6991 1.47.2364 1.141.2364 1.748v1.306zm-1.6963-1.316c0-.381-.0411-.771-.1028-1.142-.0617-.37-.1748-.719-.329-1.017s-.3598-.535-.6168-.73c-.257-.185-.5757-.278-.9561-.278s-.6991.093-.9459.278c-.2467.185-.4523.432-.5963.73-.1439.298-.2467.637-.3084 1.017-.0617.381-.0925.761-.0925 1.142v1.326c0 .38.0411.761.1028 1.141.0616.38.1645.72.3084 1.018.144.298.3495.545.5963.73.2467.185.5655.277.9459.277.3803 0 .699-.092.9561-.277.257-.185.4626-.432.6168-.73s.2673-.638.329-1.018.0925-.761.1028-1.141v-1.326z" fill="#fff"/><path d="m95.4634 328.989.7299-6.714h1.573l-1.3057 10.23h-1.6141l-1.1206-6.806-1.1001 6.806h-1.6141l-1.3056-10.23h1.573l.7299 6.673 1.0486-6.673h1.3263z" fill="#fff"/><path d="m95.3815 347.401h-3.1973l-.6991 2.375h-1.7478l3.3207-10.229h1.4804l3.2591 10.229h-1.7374zm-2.7759-1.439h2.3441l-1.1617-4.009z" fill="#fff"/><path d="m109.847 332.516h-1.697l-3.331-7.043-.01 7.043h-1.706v-10.23h1.706l3.321 7.022.01-7.022h1.707z" fill="#fff"/><path d="m103.144 349.787v-10.229h2.498c.699 0 1.336.123 1.891.349.556.226 1.039.555 1.43.967.39.421.688.915.904 1.49.216.576.319 1.224.319 1.923v.771c0 .699-.113 1.347-.319 1.922-.216.576-.514 1.08-.894 1.491-.391.411-.864.74-1.409.967-.545.226-1.172.339-1.861.339zm1.717-8.872v7.515h.832c.463 0 .874-.082 1.213-.247.35-.164.638-.39.864-.678.236-.298.401-.648.524-1.059.113-.411.175-.874.175-1.378v-.791c0-.494-.062-.946-.175-1.347-.113-.411-.288-.761-.524-1.059-.237-.298-.524-.525-.884-.699-.35-.165-.771-.257-1.244-.257z" fill="#fff"/><path d="m65.1143 305.004h45.0817v10.229h-45.0817z" fill="#fff"/><g fill="#303033"><path d="m310.66 12.8115 73.337 73.3264v-73.3264z"/><path d="m237.322 86.1379 73.337-73.3264h-73.337z"/><path d="m310.659 159.475-73.337-73.3368v73.3368l73.337 73.337 73.337-73.337v-73.3368z"/><path d="m295.211 107.26h-6.924v-10.282h6.924z"/><path d="m333.29 89.8995h-6.924v-10.2818h6.924z"/><path d="m295.252 68.2094c0 .6097-.083 1.1884-.238 1.7464s-.392 1.054-.692 1.4777c-.31.4236-.692.7646-1.157 1.0126s-1.003.3824-1.633.3824c-.62 0-1.157-.124-1.612-.3824-.455-.2583-.837-.5993-1.137-1.023-.299-.4237-.537-.9197-.682-1.4673-.155-.558-.227-1.1367-.227-1.7464v-1.3123c0-.4031.031-.7957.103-1.1884.073-.3823.166-.7543.3-1.0953s.3-.6511.506-.9507c.197-.2894.434-.5374.703-.744.269-.2067.579-.372.92-.4857s.713-.1757 1.126-.1757c.62 0 1.168.124 1.633.3824.465.2583.847.5993 1.157 1.023.31.4236.548.9197.703 1.4777s.237 1.147.237 1.7567v1.3123zm-1.705-1.3227c0-.3823-.041-.775-.103-1.147s-.176-.7233-.331-1.023-.362-.5374-.62-.7337c-.258-.186-.579-.279-.961-.279s-.703.093-.951.279-.454.434-.599.7337-.248.6407-.31 1.023-.093.7647-.093 1.147v1.333c0 .3824.041.7647.103 1.1471.062.3823.166.7233.31 1.023.145.2996.352.5476.6.7336.248.1861.568.2791.95.2791.383 0 .703-.093.961-.2791.259-.186.465-.434.62-.7336.155-.2997.269-.6407.331-1.023.062-.3824.093-.7647.103-1.1471v-1.333z"/><path d="m307.476 72.6939h-1.705l-3.348-7.0784-.01 7.0784h-1.716v-10.2818h1.716l3.337 7.0578.011-7.0578h1.715z"/><path d="m319.391 68.0754h-4.227v3.2241h4.95v1.3847h-6.655v-10.2819h6.603v1.3951h-4.898v2.9037h4.227z"/><path d="m325.488 70.0591c0-.3203.042-.5993.135-.868.093-.2583.217-.5064.382-.7337s.362-.4443.589-.6407c.227-.1963.486-.403.775-.5993-.3-.4237-.527-.8267-.692-1.1987-.166-.372-.248-.7647-.248-1.1677 0-.4133.062-.775.186-1.0953.124-.3204.299-.589.537-.8164.238-.2273.517-.3926.847-.5063.331-.1137.693-.1757 1.106-.1757.351 0 .661.062.951.186.289.124.527.2894.723.5064.196.2066.351.4546.465.7336s.165.5684.165.8784c0 .248-.041.4753-.113.682-.073.2067-.176.403-.31.589-.135.186-.29.3617-.465.5167-.176.1653-.372.3203-.579.4753l-.599.5064 1.911 2.4903c.155-.279.269-.589.362-.93.083-.3307.134-.6923.134-1.0747h1.478c0 .6304-.083 1.2091-.258 1.7464-.176.5373-.434 1.0127-.786 1.4467l1.302 1.6947h-1.973l-.496-.651c-.352.2583-.734.4546-1.127.589-.403.1343-.837.2066-1.302.2066-.475 0-.899-.0723-1.281-.2066-.382-.1344-.703-.3307-.971-.5787-.269-.248-.476-.5373-.61-.8784-.134-.341-.238-.7233-.238-1.1263zm3.111 1.426c.279 0 .558-.0413.826-.1343.269-.093.527-.217.765-.3824l-2.036-2.6867-.113.093c-.197.1654-.352.3307-.465.4857-.114.155-.207.31-.259.4444-.062.1446-.093.2686-.113.3926-.021.124-.031.217-.031.2997 0 .2067.031.403.093.5787.062.186.155.341.279.4753s.268.2377.444.3204c.176.0826.382.1136.61.1136zm-.589-6.6547c0 .2273.051.465.144.7026.093.2377.238.496.414.7647l.723-.5683c.145-.1034.258-.1964.341-.2997s.145-.1963.176-.2997c.031-.1033.062-.1963.072-.2893s.01-.1757.01-.248c0-.124-.02-.248-.051-.3617-.042-.124-.093-.2273-.166-.3203-.072-.093-.155-.1654-.258-.217-.103-.0517-.217-.0827-.341-.0827-.176 0-.331.031-.465.1033-.134.0724-.248.155-.341.2687s-.155.2377-.196.3824c-.042.1446-.062.2996-.062.465z"/><path d="m295.179 88.7626c-.175.2067-.382.3927-.609.5684-.228.1757-.496.3203-.796.4547-.3.1343-.61.2273-.951.2996-.341.0724-.702.1034-1.095.1034-.62 0-1.168-.124-1.643-.3617s-.878-.5683-1.209-.9817c-.331-.4133-.579-.9093-.744-1.4673-.176-.5684-.258-1.1677-.269-1.8187v-1.2711c0-.651.083-1.2606.259-1.8186.175-.558.413-1.0541.733-1.4777.321-.4237.703-.7544 1.168-.992.465-.2377.992-.3617 1.581-.3617.527 0 1.013.0723 1.426.217s.775.3513 1.085.6303c.3.279.537.6097.713 1.0024.176.3926.289.837.331 1.333h-1.664c-.041-.279-.103-.527-.196-.744s-.207-.4133-.362-.5684c-.155-.155-.331-.279-.548-.3513-.217-.0827-.465-.124-.764-.124-.362 0-.662.0827-.92.2687-.258.1756-.475.4133-.641.713-.165.2997-.299.6407-.372 1.0437-.082.3926-.124.806-.124 1.2296v1.2814c0 .434.052.837.135 1.2297.082.3927.217.7337.392 1.0333.176.2997.403.5374.682.713.279.1757.61.2687 1.003.279.165 0 .32-.0103.496-.031.165-.0206.33-.0516.485-.1033s.29-.1033.424-.1757c.124-.0723.227-.1653.31-.2686l.01-2.0564h-1.86v-1.3433h3.514z"/><path d="m304.273 86.0346h-1.726v4.0094h-1.694v-10.2818h3.244c.527 0 1.013.0723 1.457.2067.445.124.827.3203 1.158.5787.32.2583.578.5786.754.961.176.3823.269.837.269 1.3537 0 .3513-.042.6613-.135.9506-.093.2894-.217.5477-.382.775-.165.2274-.362.4341-.589.6097-.227.1757-.486.3204-.765.4444l2.181 4.3194v.0826h-1.809zm-1.726-1.364h1.561c.279 0 .537-.0413.775-.124.237-.0827.434-.1963.609-.341.176-.1447.3-.3307.403-.5477.093-.217.145-.465.145-.7337 0-.2893-.041-.5373-.134-.7646-.093-.2274-.217-.403-.383-.558-.165-.155-.372-.2687-.609-.341-.238-.0724-.507-.1137-.806-.124h-1.55v3.534z"/><path d="m320.342 85.5698c0 .6096-.083 1.1883-.238 1.7463s-.392 1.054-.692 1.4777c-.31.4237-.692.7647-1.157 1.0127s-1.003.3823-1.633.3823c-.62 0-1.157-.124-1.612-.3823s-.837-.5994-1.137-1.023c-.299-.4237-.537-.9197-.682-1.4674-.155-.558-.227-1.1367-.227-1.7463v-1.3124c0-.403.031-.7957.103-1.1883.073-.3824.166-.7544.3-1.0954s.3-.651.506-.9507c.197-.2893.434-.5373.703-.744s.579-.372.92-.4857c.341-.1136.713-.1756 1.126-.1756.62 0 1.168.124 1.633.3823.465.2584.847.5994 1.157 1.023.31.4237.548.9197.703 1.4777s.237 1.147.237 1.7567v1.3124zm-1.705-1.3227c0-.3824-.041-.775-.103-1.147s-.176-.7234-.331-1.0231c-.155-.2996-.362-.5373-.62-.7336-.258-.186-.579-.279-.961-.279s-.703.093-.951.279-.454.434-.599.7336c-.145.2997-.248.6407-.31 1.0231-.062.3823-.093.7646-.093 1.147v1.333c0 .3823.041.7647.103 1.147s.166.7234.31 1.023c.145.2997.352.5477.6.7337s.568.279.95.279c.383 0 .703-.093.961-.279.259-.186.465-.434.62-.7337.155-.2996.269-.6407.331-1.023s.093-.7647.103-1.147v-1.333z"/><path d="m307.518 97.1226.01 6.8924c0 .527-.093 1.013-.258 1.447s-.393.806-.692 1.116c-.3.31-.651.547-1.075.723-.424.165-.899.258-1.416.258-.506 0-.971-.082-1.384-.258-.414-.176-.775-.413-1.065-.713-.299-.31-.527-.682-.692-1.116s-.248-.92-.258-1.457l.01-6.8924h1.664l.01 6.8924c0 .32.041.61.124.868s.186.486.32.682c.145.186.321.341.527.444.207.104.455.155.734.155s.527-.051.744-.155c.217-.103.393-.258.548-.444.144-.196.258-.424.33-.682.073-.258.114-.558.124-.868l.011-6.8924z"/><path d="m315.195 103.467v3.937h-1.695v-10.2814h3.441c.517 0 .992.0826 1.426.2273s.806.3617 1.126.6407c.321.279.558.6096.734 1.0023s.269.837.269 1.3331c0 .475-.083.909-.269 1.302s-.424.713-.734.992-.692.486-1.126.63c-.434.145-.909.217-1.426.228h-1.746zm0-1.374h1.746c.289 0 .548-.041.775-.134.227-.083.424-.207.579-.362s.279-.341.372-.558.124-.455.124-.703c0-.268-.042-.5164-.124-.7437-.083-.2274-.207-.4237-.372-.5787-.166-.1654-.352-.2894-.579-.3824s-.486-.1343-.775-.1446h-1.746z"/><path d="m331.254 104.759c0-.248-.052-.465-.155-.651-.104-.186-.248-.351-.434-.486-.186-.144-.403-.268-.662-.372-.258-.103-.537-.206-.837-.289-.403-.114-.806-.258-1.198-.434-.393-.176-.744-.393-1.054-.641s-.558-.547-.744-.878c-.186-.341-.29-.723-.29-1.1677 0-.4443.093-.837.29-1.1883.186-.3514.444-.651.764-.899.321-.248.693-.434 1.116-.5684.424-.1343.868-.1963 1.333-.1963.496 0 .961.0723 1.385.2273.434.155.806.372 1.126.6407.321.279.579.6097.765.992s.289.806.289 1.2707h-1.694c-.021-.258-.083-.4957-.166-.7127-.082-.217-.206-.403-.372-.558-.155-.155-.351-.279-.578-.3617-.228-.0826-.486-.124-.786-.124-.258 0-.485.031-.702.1034-.217.0723-.403.1653-.558.2893s-.279.279-.372.4547-.135.3823-.135.6097c0 .2373.062.4443.186.6303.124.176.279.331.476.465.196.134.423.248.682.341.258.093.527.186.806.269.434.124.837.279 1.229.475.393.186.734.413 1.034.672.299.258.527.568.702.909.176.341.259.734.259 1.178 0 .455-.093.858-.29 1.209-.196.351-.454.641-.775.878-.32.238-.702.414-1.126.538-.434.124-.878.175-1.343.175-.321 0-.631-.031-.941-.093s-.609-.155-.888-.279c-.29-.124-.548-.279-.796-.454-.248-.186-.455-.393-.641-.631-.186-.237-.32-.506-.423-.795-.104-.3-.155-.62-.166-.972h1.705c.021.31.093.579.207.817.114.237.258.423.455.578.186.155.413.269.661.352.248.072.527.113.837.113.258 0 .496-.031.713-.093s.413-.155.579-.268c.165-.124.299-.269.392-.445.083-.206.135-.403.135-.63z"/><path d="m537.837 12.8115-73.326 73.3264 73.326 73.3371v-73.3371h73.337z"/><path d="m537.837 232.811v-73.336h-73.326z"/><path d="m561.945 180.07c0-.248-.052-.465-.155-.651s-.248-.352-.434-.486c-.186-.145-.403-.269-.661-.372-.259-.103-.538-.207-.837-.289-.403-.114-.806-.259-1.199-.434-.393-.176-.744-.393-1.054-.641s-.558-.548-.744-.878c-.186-.341-.289-.724-.289-1.168s.093-.837.289-1.188c.186-.352.444-.651.765-.899.32-.248.692-.434 1.116-.569.423-.134.868-.196 1.333-.196.496 0 .961.072 1.384.227.434.155.806.372 1.127.641.32.279.578.61.764.992s.29.806.29 1.271h-1.695c-.021-.258-.083-.496-.165-.713-.083-.217-.207-.403-.372-.558-.155-.155-.352-.279-.579-.362-.227-.082-.486-.124-.785-.124-.259 0-.486.031-.703.104-.217.072-.403.165-.558.289s-.279.279-.372.455c-.093.175-.134.382-.134.609 0 .238.062.445.186.631.124.175.279.33.475.465.196.134.424.248.682.341s.527.186.806.268c.434.124.837.279 1.23.476.392.186.733.413 1.033.671.3.259.527.569.703.91.175.341.258.733.258 1.178 0 .454-.093.857-.289 1.209-.197.351-.455.64-.775.878-.321.238-.703.413-1.127.537-.434.124-.878.176-1.343.176-.32 0-.63-.031-.94-.093s-.61-.155-.889-.279c-.289-.124-.548-.279-.796-.455-.248-.186-.454-.392-.64-.63s-.321-.506-.424-.796c-.103-.299-.155-.62-.165-.971h1.705c.02.31.093.579.206.816.114.238.259.424.455.579.186.155.413.269.661.351.248.073.527.114.837.114.259 0 .496-.031.713-.093s.414-.155.579-.269c.165-.124.3-.268.393-.444.082-.207.134-.403.134-.63z"/><path d="m575.172 178.106h-4.227v3.224h4.95v1.385h-6.655v-10.282h6.603v1.395h-4.898v2.904h4.227z"/><path d="m583.697 172.433 1.281 4.444 1.416-4.444h2.108v10.282h-1.591v-3.534l.103-4.506-1.581 4.93h-.888l-1.437-4.764.104 4.34v3.534h-1.592v-10.282z"/><path d="m599.218 197.688h-3.214l-.702 2.387h-1.757l3.338-10.282h1.488l3.275 10.282h-1.746zm-2.78-1.446h2.356l-1.167-4.031z"/><path d="m558.421 213.498v3.937h-1.694v-10.282h3.441c.516 0 .992.083 1.426.228.434.144.806.361 1.126.64s.558.61.734 1.003c.175.392.268.837.268 1.333 0 .475-.082.909-.268 1.302-.186.392-.424.713-.734.992s-.692.485-1.126.63-.91.217-1.426.227h-1.747zm0-1.374h1.747c.289 0 .547-.042.775-.135.227-.082.423-.206.578-.361s.279-.341.372-.558.124-.455.124-.703c0-.269-.041-.517-.124-.744-.082-.227-.206-.424-.372-.579-.165-.165-.351-.289-.578-.382-.228-.093-.486-.134-.775-.145h-1.747z"/><path d="m575.812 217.435h-1.653v-4.588h-3.493v4.588h-1.643v-10.282h1.643v4.299h3.493v-4.299h1.653z"/><path d="m588.667 212.961c0 .61-.082 1.188-.237 1.746s-.393 1.054-.693 1.478c-.31.424-.692.765-1.157 1.013s-1.003.382-1.633.382c-.62 0-1.157-.124-1.612-.382-.455-.259-.837-.6-1.137-1.023-.299-.424-.537-.92-.682-1.468-.155-.558-.227-1.136-.227-1.746v-1.312c0-.403.031-.796.103-1.189.073-.382.166-.754.3-1.095s.3-.651.506-.951c.197-.289.434-.537.703-.744s.579-.372.92-.486c.341-.113.713-.175 1.126-.175.62 0 1.168.124 1.633.382s.847.599 1.157 1.023.548.92.703 1.478.238 1.147.238 1.757v1.312zm-1.705-1.333c0-.382-.041-.775-.103-1.147s-.176-.724-.331-1.023c-.155-.3-.362-.538-.62-.734-.258-.186-.579-.279-.961-.279s-.703.093-.951.279-.454.434-.599.734c-.145.299-.248.641-.31 1.023s-.093.765-.093 1.147v1.333c0 .382.041.765.103 1.147s.166.723.31 1.023c.145.3.352.548.6.734s.568.279.95.279c.383 0 .703-.093.961-.279.259-.186.465-.434.62-.734s.269-.641.331-1.023.093-.765.103-1.147v-1.333z"/><path d="m597.679 213.426h-1.726v4.009h-1.694v-10.282h3.244c.527 0 1.013.073 1.457.207.445.124.827.32 1.158.579.32.258.578.578.754.961.176.382.269.837.269 1.353 0 .352-.042.662-.135.951s-.217.548-.382.775-.361.434-.589.61c-.227.175-.485.32-.764.444l2.18 4.319v.083h-1.809zm-1.715-1.375h1.56c.279 0 .537-.041.775-.124.238-.082.434-.196.61-.341.176-.144.299-.33.403-.547.093-.217.144-.465.144-.734 0-.289-.041-.537-.134-.765-.093-.227-.217-.403-.382-.558-.166-.155-.372-.268-.61-.341-.238-.072-.506-.113-.806-.124h-1.55v3.534z"/><path d="m588.533 199.941h-31.93v-10.282h31.93z"/><path d="m601.605 182.581h-6.923v-10.282h6.923z"/><path d="m86.9959 86.138 73.3261-73.3265h-146.6628v146.6635l73.3367 73.337 73.3261-73.337h-73.3261l73.3261-73.337z"/></g><path d="m59.8807 70.9273h-31.9305v-10.2818h31.9305z" fill="#fff"/><path d="m46.5213 31.7322h-4.2264v3.224h4.9498v1.3847h-6.6549v-10.2818h6.6032v1.395h-4.8981v2.9037h4.2264z" fill="#fff"/><path d="m59.6957 36.3512h-1.7051l-3.348-7.0785-.0103 7.0785h-1.7153v-10.2819h1.7153l3.3378 7.0578.0103-7.0578h1.7153z" fill="#fff"/><path d="m72.5307 33.1892c-.0517.4961-.1653.9507-.3513 1.3537s-.4341.7544-.7441 1.0437c-.31.2894-.682.5167-1.0953.6717-.4237.155-.8887.2377-1.4053.2377-.6304 0-1.1678-.124-1.6432-.3617-.465-.2377-.8576-.5683-1.1676-.9817-.3101-.4133-.5477-.899-.7027-1.457s-.2376-1.147-.2376-1.7774v-1.4053c0-.6304.0827-1.2194.248-1.7774s.3926-1.0437.7129-1.457c.31-.4133.7027-.744 1.1677-.992s1.0128-.3617 1.6225-.3617c.5373 0 1.023.0827 1.4467.2377.4236.155.7852.3823 1.0849.682s.5374.651.7234 1.0643c.186.4134.2997.8887.341 1.3951h-1.6947c-.031-.2997-.0827-.5787-.1757-.8267-.0827-.248-.2067-.4547-.3617-.6407-.155-.1757-.3409-.31-.5682-.403-.2274-.093-.4961-.1447-.8061-.1447-.3823 0-.7027.0827-.9611.2584-.2583.1756-.4649.4133-.6303.7026-.1653.2894-.2789.6304-.3409 1.0231-.0724.3823-.1034.7956-.1034 1.2193v1.4157c0 .4443.031.8577.1034 1.2503.0723.3927.1756.7337.3306 1.0231.155.2893.3616.527.62.6923.2583.1653.5787.2583.9714.2583.589 0 1.0436-.1653 1.3536-.5063s.496-.8163.5477-1.426h1.7154z" fill="#fff"/><path d="m31.4027 49.6919h-1.7256v4.0094h-1.6947v-10.2819h3.2448c.527 0 1.0125.0724 1.4569.2067.4443.124.8267.3203 1.1573.5787.3204.2583.5788.5787.7545.961s.2685.837.2685 1.3537c0 .3513-.0412.6613-.1342.9507-.093.2893-.2171.5476-.3824.775-.1654.2273-.3617.434-.589.6097-.2273.1756-.4857.3203-.7647.4443l2.1804 4.3194v.0827h-1.8084zm-1.7256-1.3641h1.5604c.279 0 .5373-.0413.775-.124.2377-.0826.434-.1963.6096-.341.1757-.1446.2997-.3306.4031-.5476.093-.217.1447-.465.1447-.7337 0-.2894-.0414-.5374-.1344-.7647s-.217-.403-.3823-.558c-.1654-.155-.3721-.2687-.6098-.341s-.5062-.1137-.8059-.124h-1.55v3.534z" fill="#fff"/><path d="m43.7932 48.3382 2.1391-4.9188h1.891l-3.2034 6.5928-.0103 3.6994h-1.643l-.0104-3.7407-3.1828-6.5515h1.8911z" fill="#fff"/><path d="m54.8607 49.7642v3.9371h-1.6947v-10.2819h3.441c.5167 0 .992.0827 1.426.2274.4341.1446.806.3616 1.1264.6406.3203.2791.5581.6097.7337 1.0024.1757.3927.2687.837.2687 1.333 0 .4754-.0827.9094-.2687 1.302-.186.3927-.4237.713-.7337.9921-.31.279-.6923.4856-1.1264.6303-.434.1447-.9093.217-1.426.2273h-1.7463zm0-1.364h1.7463c.2894 0 .5477-.0414.775-.1344.2274-.0826.4238-.2066.5788-.3616s.279-.341.372-.558.124-.4547.124-.7027c0-.2687-.0414-.5167-.124-.744-.0827-.2274-.2067-.4237-.372-.5787-.1654-.1653-.3514-.2893-.5788-.3823-.2273-.093-.4856-.1344-.775-.1447h-1.7463z" fill="#fff"/><path d="m72.8716 44.8247h-3.162v8.8868h-1.6844v-8.8868h-3.1414v-1.395h7.9774v1.395z" fill="#fff"/><path d="m69.0376 67.0522h-1.7257v4.0094h-1.6947v-10.2818h3.2447c.527 0 1.0127.0723 1.4571.2067.4443.124.8267.3203 1.1573.5786.3204.2584.5787.5787.7543.961.1757.3824.2687.8371.2687 1.3537 0 .3514-.0413.6614-.1343.9507s-.217.5477-.3823.775c-.1654.2274-.3617.434-.589.6097s-.4857.3203-.7647.4443l2.1804 4.3194v.0827h-1.8084zm-1.7257-1.364h1.5604c.279 0 .5373-.0413.775-.124.2376-.0827.4339-.1963.6096-.341s.2997-.3307.403-.5477c.093-.217.1447-.465.1447-.7337 0-.2893-.0413-.5373-.1343-.7646-.093-.2274-.217-.4031-.3824-.5581-.1653-.155-.3719-.2686-.6096-.341-.2377-.0723-.5064-.1136-.806-.124h-1.5501v3.5341z" fill="#fff"/><path d="m34.8843 36.1964h-6.9234v-10.2818h6.9234z" fill="#fff"/><path d="m310.997 378.377h-73.327v73.327l73.327 73.336h73.336v-73.336z" fill="#303033"/><path d="m237.67 305.04 73.327 73.337 73.336-73.337z" fill="#303033"/><path d="m369.009 492.868h-6.508v-10.023h6.508zm-40.647-21.175h-1.683v3.909h-1.652v-10.024h3.163c.514 0 .987.071 1.421.202.433.121.806.312 1.128.564.312.252.564.564.735.937.172.383.262.816.262 1.32 0 .342-.04.644-.131.926-.09.282-.211.534-.372.756-.162.221-.353.423-.575.594-.221.171-.473.312-.745.433l2.125 4.211v.081h-1.762zm-1.673-1.34h1.521c.272 0 .524-.04.756-.121.232-.08.423-.191.594-.332.172-.141.292-.322.393-.534.101-.211.141-.453.141-.715 0-.282-.04-.524-.131-.746-.09-.211-.211-.392-.372-.544-.162-.151-.363-.261-.595-.332-.232-.07-.493-.121-.786-.121h-1.511v3.445zm16.128.746h-4.12v3.143h4.825v1.35h-6.487v-10.024h6.437v1.36h-4.775v2.831h4.12zm8.865 3.153h4.775v1.35h-6.427v-10.024h1.652zm16.602-3.153h-4.12v3.143h4.825v1.35h-6.488v-10.024h6.437v1.36h-4.774v2.831h4.12zm-38.422 19.1h-3.132l-.685 2.327h-1.713l3.254-10.024h1.45l3.194 10.024h-1.703zm-2.709-1.411h2.296l-1.138-3.928zm14.999 1.149c0-.242-.05-.454-.151-.635-.1-.181-.241-.342-.423-.473-.181-.141-.393-.262-.644-.363-.252-.101-.524-.202-.816-.282-.393-.111-.786-.252-1.169-.423s-.725-.383-1.028-.625c-.302-.242-.544-.534-.725-.856s-.282-.705-.282-1.138c0-.434.091-.816.282-1.159.192-.342.433-.635.746-.876.312-.242.675-.423 1.088-.554s.846-.192 1.299-.192c.484 0 .937.071 1.35.222s.786.363 1.098.624c.312.272.564.595.745.968.182.372.283.785.283 1.239h-1.653c-.02-.252-.08-.484-.161-.695-.08-.212-.201-.383-.362-.544-.151-.152-.343-.272-.564-.353-.222-.081-.474-.121-.766-.121-.252 0-.474.03-.685.101-.212.06-.393.161-.544.282s-.272.272-.363.443c-.09.171-.131.373-.131.594 0 .232.061.434.182.615.12.171.272.322.463.453s.413.242.665.333c.252.09.514.181.786.262.423.12.816.282 1.198.463.383.181.716.403 1.008.655s.514.554.685.886c.171.333.252.716.252 1.149 0 .443-.091.836-.282 1.178-.192.343-.444.625-.756.857-.312.231-.685.403-1.098.523-.423.121-.856.182-1.31.182-.312 0-.614-.03-.916-.091-.303-.06-.595-.151-.867-.272-.282-.121-.534-.272-.775-.443-.242-.171-.444-.383-.625-.615-.181-.231-.312-.493-.413-.775s-.151-.605-.161-.947h1.662c.02.302.091.564.202.796.11.221.251.413.443.564.181.151.403.262.644.342.242.071.514.111.816.111.252 0 .484-.03.696-.091.211-.06.402-.151.564-.262.161-.12.292-.261.382-.433.081-.201.131-.403.131-.624zm13.59-1.914h-4.12v3.143h4.825v1.35h-6.487v-10.024h6.437v1.36h-4.775v2.831h4.12zm-24.248 21.426h-1.662l-3.264-6.9-.01 6.9h-1.672v-10.023h1.672l3.254 6.88.01-6.88h1.672zm12.25-4.372c0 .595-.08 1.159-.232 1.703-.151.544-.382 1.027-.675 1.44-.302.414-.674.746-1.128.988-.453.241-.977.372-1.591.372-.605 0-1.129-.12-1.572-.372s-.816-.585-1.108-.998-.524-.896-.665-1.44c-.151-.544-.222-1.108-.222-1.703v-1.279c0-.393.031-.786.101-1.158.071-.383.161-.736.292-1.068.131-.333.292-.635.494-.927.191-.282.423-.524.685-.725.262-.202.564-.363.897-.474.332-.111.695-.171 1.098-.171.604 0 1.138.121 1.591.373.454.252.826.574 1.128.997.303.413.534.897.685 1.441.152.544.232 1.118.232 1.712v1.289zm-1.662-1.289c0-.383-.04-.755-.101-1.128-.06-.373-.171-.705-.322-.997-.151-.293-.353-.534-.605-.716-.251-.181-.564-.272-.936-.272-.373 0-.685.091-.927.272-.242.182-.443.423-.584.716-.142.292-.242.624-.303.997-.06.373-.09.745-.09 1.118v1.299c0 .373.04.746.1 1.119.061.372.162.705.303.997s.342.534.584.715c.242.182.554.272.927.272.372 0 .685-.09.937-.272.251-.181.453-.423.604-.715s.262-.625.322-.997c.061-.373.091-.746.101-1.119v-1.289zm14.889-3.002h-3.083v8.663h-1.642v-8.663h-3.062v-1.36h7.777v1.36zm11.313 4.161h-4.12v3.143h4.825v1.349h-6.488v-10.023h6.437v1.36h-4.774v2.831h4.12z" fill="#fff"/><path d="m1214.07 305.04h-73.33v73.33 73.33h73.33v73.34l36.67-36.67 36.67-36.67v-73.33-73.33z" fill="#303033"/><path d="m1165.69 392.72c0-.24-.05-.45-.15-.63s-.24-.34-.42-.47c-.18-.14-.39-.26-.64-.36s-.52-.2-.81-.28c-.39-.11-.78-.25-1.16-.42s-.72-.38-1.02-.62-.54-.53-.72-.85c-.18-.33-.28-.7-.28-1.13s.09-.81.28-1.15c.18-.34.43-.63.74-.87s.67-.42 1.08-.55.84-.19 1.29-.19c.48 0 .93.07 1.34.22.42.15.78.36 1.09.62.31.27.56.59.74.96s.28.78.28 1.23h-1.64c-.02-.25-.08-.48-.16-.69s-.2-.39-.36-.54c-.15-.15-.34-.27-.56-.35s-.47-.12-.76-.12c-.25 0-.47.03-.68.1s-.39.16-.54.28-.27.27-.36.44-.13.37-.13.59c0 .23.06.43.18.61.12.17.27.32.46.45s.41.24.66.33.51.18.78.26c.42.12.81.27 1.19.46.38.18.71.4 1 .65s.51.55.68.88.25.71.25 1.14c0 .44-.09.83-.28 1.17s-.44.62-.75.85-.68.4-1.09.52c-.42.12-.85.17-1.3.17-.31 0-.61-.03-.91-.09s-.59-.15-.86-.27c-.28-.12-.53-.27-.77-.44-.24-.18-.44-.38-.62-.61s-.31-.49-.41-.77c-.1-.29-.15-.6-.16-.94h1.65c.02.3.09.56.2.79s.25.41.44.56c.18.15.4.26.64.34.24.07.51.11.81.11.25 0 .48-.03.69-.09s.4-.15.56-.26c.16-.12.29-.26.38-.43.08-.2.13-.39.13-.61zm13.44-7.39.01 6.67c0 .51-.09.98-.25 1.4s-.38.78-.67 1.08-.63.53-1.04.7c-.41.16-.87.25-1.37.25-.49 0-.94-.08-1.34-.25s-.75-.4-1.03-.69c-.29-.3-.51-.66-.67-1.08s-.24-.89-.25-1.41l.01-6.67h1.61l.01 6.67c0 .31.04.59.12.84s.18.47.31.66c.14.18.31.33.51.43s.44.15.71.15.51-.05.72-.15.38-.25.53-.43c.14-.19.25-.41.32-.66s.11-.54.12-.84l.01-6.67zm7.43 6.14v3.81h-1.64v-9.95h3.33c.5 0 .96.08 1.38.22s.78.35 1.09.62.54.59.71.97.26.81.26 1.29c0 .46-.08.88-.26 1.26s-.41.69-.71.96-.67.47-1.09.61-.88.21-1.38.22h-1.69zm0-1.33h1.69c.28 0 .53-.04.75-.13.22-.08.41-.2.56-.35s.27-.33.36-.54.12-.44.12-.68c0-.26-.04-.5-.12-.72s-.2-.41-.36-.56c-.16-.16-.34-.28-.56-.37s-.47-.13-.75-.14h-1.69zm-12.14 18.13v3.81h-1.64v-9.95h3.33c.5 0 .96.08 1.38.22s.78.35 1.09.62.54.59.71.97.26.81.26 1.29c0 .46-.08.88-.26 1.26s-.41.69-.71.96-.67.47-1.09.61-.88.21-1.38.22h-1.69zm0-1.33h1.69c.28 0 .53-.04.75-.13.22-.08.41-.2.56-.35s.27-.33.36-.54.12-.44.12-.68c0-.26-.04-.5-.12-.72s-.2-.41-.36-.56c-.16-.16-.34-.28-.56-.37s-.47-.13-.75-.14h-1.69zm17.12.81c0 .59-.08 1.15-.23 1.69s-.38 1.02-.67 1.43c-.3.41-.67.74-1.12.98s-.97.37-1.58.37c-.6 0-1.12-.12-1.56-.37s-.81-.58-1.1-.99-.52-.89-.66-1.42c-.15-.54-.22-1.1-.22-1.69v-1.27c0-.39.03-.77.1-1.15.07-.37.16-.73.29-1.06s.29-.63.49-.92c.19-.28.42-.52.68-.72s.56-.36.89-.47.69-.17 1.09-.17c.6 0 1.13.12 1.58.37s.82.58 1.12.99.53.89.68 1.43.23 1.11.23 1.7v1.27zm-1.64-1.29c0-.37-.04-.75-.1-1.11s-.17-.7-.32-.99-.35-.52-.6-.71c-.25-.18-.56-.27-.93-.27s-.68.09-.92.27-.44.42-.58.71-.24.62-.3.99-.09.74-.09 1.11v1.29c0 .37.04.74.1 1.11s.16.7.3.99.34.53.58.71.55.27.92.27.68-.09.93-.27.45-.42.6-.71.26-.62.32-.99.09-.74.1-1.11v-1.29zm10.37 1.74h-1.67v3.88h-1.64v-9.95h3.14c.51 0 .98.07 1.41.2.43.12.8.31 1.12.56.31.25.56.56.73.93s.26.81.26 1.31c0 .34-.04.64-.13.92s-.21.53-.37.75-.35.42-.57.59-.47.31-.74.43l2.11 4.18v.08h-1.75zm-1.67-1.33h1.51c.27 0 .52-.04.75-.12s.42-.19.59-.33.29-.32.39-.53c.09-.21.14-.45.14-.71 0-.28-.04-.52-.13-.74s-.21-.39-.37-.54-.36-.26-.59-.33-.49-.11-.78-.12h-1.5v3.42zm-31.03 13.41h-3.06v8.6h-1.63v-8.6h-3.04v-1.35h7.72v1.35zm35.82 8.61h-30.9v-9.95h30.9zm-36.85-16.81h-6.7v-9.95h6.7zm36.85-16.8h-6.7v-9.95h6.7z" fill="#fff"/><g clip-path="url(#b)" fill="#303033"><path d="m761.272 196.145v-18.333-18.333h-18.334-18.333-18.333-18.334v18.333 18.333 18.334 18.333h18.334 18.333 18.333 18.334v-18.333z"/><path d="m816.271 12.8115h-18.333-18.333-18.334v18.3334 18.3333 18.3333 18.3334 18.3331 18.334 18.333 18.333h18.334 18.333 18.333 18.334v-18.333-18.333-18.334-18.3331-18.3334-18.3333-18.3333-18.3334z"/><g clip-path="url(#c)"><path d="m801.058 173.422h5.92v1.36h-2.15v7.24h2.15v1.35h-5.92v-1.35h2.11v-7.24h-2.11z"/><path d="m819.418 183.372h-1.65l-3.25-6.85-.01 6.85h-1.66v-9.95h1.66l3.23 6.83.02-6.83h1.66z"/><path d="m782.998 197.122c-.05.48-.16.92-.34 1.31s-.42.73-.72 1.01-.66.5-1.06.65c-.41.15-.86.23-1.36.23-.61 0-1.13-.12-1.59-.35-.45-.23-.83-.55-1.13-.95s-.53-.87-.68-1.41-.24-1.12-.24-1.73v-1.36c0-.61.08-1.18.24-1.72s.38-1.01.69-1.41c.3-.4.68-.72 1.13-.96s.98-.35 1.57-.35c.52 0 .99.08 1.4.23s.76.37 1.05.66.52.63.7 1.03.29.86.33 1.35h-1.63c-.03-.29-.08-.56-.17-.8-.08-.24-.2-.44-.34-.62-.15-.17-.33-.3-.55-.39s-.48-.14-.78-.14c-.37 0-.68.08-.93.25s-.45.4-.61.68-.27.61-.33.99c-.07.37-.1.77-.1 1.18v1.37c0 .43.03.83.1 1.21s.17.71.32.99.35.51.6.67.56.25.94.25c.57 0 1.01-.16 1.31-.49s.48-.79.53-1.38z"/><path d="m790.498 198.832h4.74v1.34h-6.38v-9.95h1.64z"/><path d="m805.658 197.862h-3.11l-.68 2.31h-1.7l3.23-9.95h1.44l3.17 9.95h-1.69zm-2.69-1.4h2.28l-1.13-3.9z"/><path d="m816.138 197.682 2.07-7.46h1.79l-3.08 9.95h-1.57l-3.07-9.95h1.79z"/><path d="m794.528 212.512h-4.09v3.12h4.79v1.34h-6.44v-9.95h6.39v1.35h-4.74v2.81h4.09z"/><path d="m782.998 216.972h-7.12v-9.95h7.12z"/><path d="m819.338 216.842h-19.17v-9.95h19.17z"/><path d="m795.408 183.512h-19.53v-9.95h19.53z"/></g></g><g clip-path="url(#d)"><path d="m1139.56 232.812 146.67-146.6671h-73.33l73.33-73.3334h-146.67z" fill="#303033"/><g fill="#fff"><path d="m1171.22 31.1912h-4.18v4.1901h-1.65v-9.8501h6.45v1.3401h-4.79v2.98h4.18v1.3399z"/><path d="m1183.97 30.9612h-4.09v3.0901h4.79v1.33h-6.44v-9.8501h6.39v1.3401h-4.74v2.7799h4.09z"/><path d="m1190.45 35.3813v-9.8501h2.43c.68.01 1.3.1201 1.84.3401s1.01.5299 1.39.9299.67.8801.88 1.4401.31 1.1699.31 1.8499v.7401c0 .68-.11 1.29-.31 1.85-.21.56-.5 1.0399-.88 1.4299-.37.41-.83.7201-1.37.9401s-1.14.33-1.81.33zm1.67-8.5401v7.23h.81c.45-.01.85-.0899 1.18-.2399.34-.15.62-.3701.84-.6601.23-.28.39-.62.51-1.02.11-.4.17-.84.17-1.33v-.7399c0-.47-.06-.9101-.17-1.3001-.11-.3899-.28-.7299-.51-1.0199s-.51-.5101-.86-.6701c-.34-.16-.75-.24-1.21-.25z"/><path d="m1159.09 47.5911h-4.09v3.09h4.79v1.33h-6.44v-9.85h6.39v1.34h-4.74v2.78h4.09z"/><path d="m1168.59 48.1614h-1.67v3.84h-1.64v-9.85h3.14c.51 0 .98.07 1.41.19s.8.31 1.12.55c.31.25.56.55.73.92s.26.8.26 1.3c0 .33-.04.64-.13.91s-.21.52-.37.74-.35.42-.57.58c-.22.17-.47.31-.74.43l2.11 4.14v.08h-1.75zm-1.67-1.31h1.51c.27 0 .52-.04.75-.12s.42-.19.59-.33.29-.32.39-.52.14-.44.14-.71-.04-.52-.13-.73-.21-.39-.37-.53-.36-.25-.59-.33c-.23-.07-.49-.11-.78-.12h-1.5v3.39z"/><path d="m1183.22 66.3413h-3.11l-.68 2.2899h-1.7l3.23-9.85h1.44l3.17 9.85h-1.69zm-2.69-1.38h2.28l-1.13-3.8601z"/><path d="m1192.33 67.3013h4.74v1.3299h-6.38v-9.85h1.64z"/><path d="m1196.9 51.8612h-18.66v-9.85h18.67z"/><path d="m1173.41 68.5014h-20.06v-9.85h20.06z"/><path d="m1159.6 35.5214h-6.25v-9.85h6.25z"/></g></g><g clip-path="url(#e)"><path d="m834.734 378.373v-73.333h-73.335l-36.667 36.667-36.668 36.666v73.334l36.668 36.666 36.667 36.667h73.335v-73.333h-73.335v-73.334z" fill="#303033"/><g clip-path="url(#f)" fill="#fff"><path d="m715.515 403.015c.45.24.98.35 1.59.35.5 0 .96-.08 1.36-.23.41-.15.76-.37 1.06-.65s.54-.62.72-1.01.3-.83.34-1.31h-1.65c-.05.6-.23 1.06-.53 1.38-.3.33-.74.49-1.31.49-.37 0-.69-.08-.94-.25s-.44-.38-.59-.66-.26-.61-.32-.99c-.07-.38-.1-.78-.1-1.21v-1.37c0-.41.03-.8.1-1.18s.18-.7.33-.99.36-.51.61-.68.56-.25.93-.25c.3 0 .56.05.78.14s.4.22.55.39.26.38.34.62.14.51.17.8h1.64c-.05-.5-.16-.95-.33-1.35s-.41-.75-.7-1.03-.64-.5-1.05-.66c-.42-.16-.88-.24-1.41-.24-.6 0-1.12.12-1.57.35s-.83.55-1.13.96c-.3.4-.53.88-.69 1.41-.16.54-.23 1.11-.24 1.72v1.36c0 .61.08 1.19.23 1.72.15.54.38 1.01.68 1.41.3.41.68.72 1.13.96z"/><path d="m727.724 400.915h3.11l.67 2.31h1.69l-3.17-9.95h-1.44l-3.23 9.95h1.7zm1.58-5.31 1.13 3.9h-2.28z"/><path d="m743.024 398.955c.27-.12.51-.26.74-.43.22-.17.42-.37.57-.59.16-.22.28-.47.37-.75s.13-.58.13-.92c0-.5-.09-.94-.26-1.31-.17-.38-.42-.69-.73-.93s-.69-.44-1.12-.56-.9-.19-1.41-.2h-3.14v9.95h1.64v-3.88h1.67l1.89 3.88h1.75v-.08zm-.94-1.06c-.23.08-.48.12-.75.12h-1.51v-3.42h1.5c.29.01.55.04.78.12s.43.19.59.33c.16.15.29.33.37.54.09.21.13.46.13.74 0 .27-.05.51-.14.71-.09.21-.22.38-.39.53-.16.14-.35.25-.58.33z"/><path d="m707.535 418.685h-4.79v-3.13h4.09v-1.32h-4.09v-2.81h4.74v-1.36h-6.39v9.96h6.44z"/><path d="m720.355 411.425v-1.36h-6.39v9.96h6.44v-1.34h-4.79v-3.13h4.09v-1.32h-4.09v-2.81z"/><path d="m732.193 414.735c.16-.22.28-.47.37-.75s.13-.58.13-.92c0-.5-.09-.94-.26-1.31s-.42-.68-.73-.93-.69-.44-1.12-.56c-.43-.13-.9-.19-1.41-.2h-3.14v9.95h1.64v-3.88h1.67l1.89 3.88h1.75v-.08l-2.11-4.18c.27-.12.51-.26.74-.43s.43-.36.58-.59zm-1.27-.9c-.09.21-.22.38-.39.53-.17.14-.36.25-.59.33s-.48.12-.75.12h-1.51v-3.42h1.5c.29 0 .55.04.78.12s.43.19.59.33.29.33.37.54c.09.21.13.46.13.74 0 .27-.04.51-.13.71z"/><path d="m707.284 432.225c-.29-.25-.62-.47-1-.65s-.77-.33-1.19-.46c-.27-.08-.53-.16-.78-.26-.25-.09-.47-.2-.66-.33s-.35-.28-.46-.45c-.12-.17-.18-.37-.18-.61 0-.22.04-.41.13-.59.09-.17.21-.32.36-.44s.33-.22.54-.28.44-.1.68-.1c.29 0 .54.04.76.12s.4.2.56.35c.15.15.27.33.36.54.08.21.14.44.16.69h1.64c0-.45-.1-.86-.28-1.23s-.43-.69-.74-.96-.68-.47-1.09-.62c-.42-.15-.87-.22-1.34-.22-.45 0-.88.06-1.29.19s-.77.31-1.08.55-.56.53-.74.87-.28.72-.28 1.15.09.8.28 1.13c.18.33.42.61.72.86.3.24.64.45 1.02.62s.77.31 1.16.42c.29.09.56.18.81.28s.46.22.64.36.32.29.42.47.15.39.15.63c0 .22-.05.41-.14.58s-.22.31-.38.43-.35.21-.56.26c-.21.06-.44.09-.69.09-.3 0-.57-.04-.81-.11-.24-.08-.46-.19-.64-.34s-.33-.33-.44-.56c-.11-.22-.18-.48-.2-.79h-1.64c0 .34.06.65.16.94s.24.54.41.77.38.43.62.61.49.32.77.44.56.21.87.27c.3.06.6.09.91.09.45 0 .88-.06 1.3-.18s.78-.29 1.09-.52.57-.51.75-.85c.19-.34.28-.73.28-1.17 0-.43-.08-.81-.25-1.14-.17-.31-.4-.6-.69-.85z"/><path d="m744.604 426.735h-30.78v9.95h30.78z"/><path d="m744.605 410.065h-7.64v9.95h7.64z"/><path d="m707.345 393.405h-6.25v9.95h6.25z"/></g></g><path d="m199.16-33.0386v1193.5286" stroke="#e2e2e4" stroke-width="2"/><path d="m425.16-33.0386v1193.5286" stroke="#e2e2e4" stroke-width="2"/><path d="m651.16-33.0386v1193.5286" stroke="#e2e2e4" stroke-width="2"/><path d="m877.16-33.0386v1193.5286" stroke="#e2e2e4" stroke-width="2"/><path d="m1103.16-33.0386v1193.5286" stroke="#e2e2e4" stroke-width="2"/><path d="m-25.0664 267.908h1356.4064" stroke="#e2e2e4" stroke-width="2"/><g clip-path="url(#g)"><path d="m613.01 378.37v-73.33l-36.67 36.67-36.67 36.66v-73.33l-36.66 36.67-36.67 36.66v73.34 73.33l36.67-36.67 36.66-36.66v73.33l36.67-36.67 36.67-36.66z" fill="#303033"/><g clip-path="url(#h)" fill="#fff"><path d="m494.721 393.28.68-6.23h1.46l-1.21 9.49h-1.5l-1.04-6.31-1.02 6.31h-1.49l-1.21-9.49h1.46l.68 6.2.97-6.2h1.23z"/><path d="m506.911 396.54h-1.53v-4.24h-3.23v4.24h-1.51v-9.49h1.52v3.97h3.23v-3.97h1.53v9.49z"/><path d="m511.7 387.05h5.65v1.3h-2.05v6.91h2.05v1.28h-5.65v-1.29h2.01v-6.9h-2.01z"/><path d="m486.04 404.37h-2.92v8.21h-1.56v-8.21h-2.9v-1.29h7.38z"/><path d="m495.6 408.31h-3.91v2.98h4.57v1.28h-6.14v-9.5h6.1v1.29h-4.53v2.68h3.91z"/><path d="m502.45 408.93v3.64h-1.57v-9.5h3.18c.47.01.91.08 1.31.21s.75.33 1.04.59.52.56.68.93c.16.36.24.77.24 1.23 0 .44-.08.84-.24 1.2s-.39.66-.68.91-.64.45-1.04.58-.84.2-1.31.21zm0-1.26h1.61c.27 0 .5-.04.71-.12s.39-.19.54-.34c.15-.14.26-.31.34-.52.08-.2.12-.42.12-.65 0-.25-.04-.48-.12-.69s-.19-.39-.34-.54-.33-.27-.54-.35-.45-.13-.71-.13h-1.61z"/><path d="m516.091 410.37h-2.97l-.65 2.21h-1.62l3.08-9.5h1.38l3.03 9.5h-1.61zm-2.57-1.34h2.18l-1.08-3.72z"/><path d="m480.99 424.96v3.64h-1.56v-9.5h3.18c.47.01.91.08 1.31.21s.75.33 1.04.59.52.56.68.93c.16.36.24.77.24 1.23 0 .44-.08.84-.24 1.2s-.39.66-.68.91-.64.45-1.04.58-.84.2-1.31.21zm0-1.27h1.61c.27 0 .5-.04.71-.12s.39-.19.54-.34c.15-.14.26-.31.34-.52.08-.2.12-.42.12-.65 0-.25-.04-.48-.12-.69s-.19-.39-.34-.54-.33-.27-.54-.35-.45-.13-.71-.13h-1.61z"/><path d="m495.6 424.34h-3.91v2.98h4.57v1.28h-6.14v-9.5h6.1v1.29h-4.53v2.68h3.91z"/><path d="m503.95 424.89h-1.59v3.71h-1.56v-9.5h3c.49.01.94.07 1.35.19s.77.3 1.07.54.53.54.7.89c.17.36.25.77.25 1.25 0 .32-.04.62-.13.88-.08.26-.2.5-.36.71s-.33.4-.55.56c-.21.16-.45.3-.7.41l2.01 3.99v.08h-1.67zm-1.6-1.26h1.44c.26 0 .5-.04.72-.11s.41-.18.56-.32c.16-.14.28-.3.37-.5s.13-.43.13-.68c0-.27-.04-.5-.12-.71-.08-.2-.2-.38-.36-.52-.15-.14-.34-.24-.56-.31s-.47-.11-.74-.12h-1.43v3.27z"/><path d="m516.42 426.15c0-.23-.05-.43-.14-.6s-.23-.32-.4-.45-.38-.24-.61-.34c-.24-.1-.5-.19-.77-.27-.37-.11-.74-.24-1.1-.4s-.69-.36-.97-.59c-.29-.23-.52-.5-.69-.81-.18-.31-.26-.67-.26-1.08s.09-.78.26-1.1c.18-.32.41-.6.71-.83s.64-.4 1.03-.52.8-.18 1.23-.18c.46 0 .88.07 1.28.21s.75.34 1.04.59.53.56.71.91c.17.36.26.75.27 1.18h-1.57c-.02-.24-.07-.46-.15-.66s-.19-.37-.34-.51-.32-.25-.53-.33-.45-.12-.72-.12c-.23 0-.45.03-.65.09s-.37.15-.52.27-.26.26-.34.42-.12.35-.12.56c0 .22.06.41.17.58.11.16.26.31.44.43s.39.23.63.32.48.17.74.24c.4.12.77.26 1.13.43s.68.38.95.62.49.52.65.84.24.68.24 1.09c0 .42-.09.79-.27 1.12-.18.32-.42.59-.72.81s-.65.38-1.04.49-.81.17-1.24.17c-.29 0-.58-.03-.87-.08-.29-.06-.56-.14-.82-.25s-.51-.25-.73-.42c-.23-.17-.42-.36-.59-.58s-.3-.46-.39-.74-.15-.57-.15-.9h1.57c.02.29.08.54.19.75.1.21.24.39.42.53.17.14.38.25.61.32s.49.11.77.11c.23 0 .45-.03.66-.08s.38-.14.54-.25c.15-.11.27-.25.36-.41.06-.18.1-.37.1-.58z"/><path d="m485.77 387.04h-7.43v9.5h7.43z"/></g></g><g clip-path="url(#i)" fill="#303033"><path d="m990.059 304.614-36.53 37.159-37.232 36.458v73.618l37.232-36.458 36.53-37.16 37.231 37.16 36.53 36.458v-73.618l-36.53-36.458z"/><path d="m990.059 451.849h-73.762v73.618l37.232-36.459z"/><path d="m1027.29 489.008 36.53 36.459v-73.618h-73.76z"/><path d="m970.436 489.02h3.11l.67 2.31h1.69l-3.17-9.95h-1.44l-3.23 9.95h1.7zm1.58-5.31 1.13 3.9h-2.28z"/><path d="m988.072 514.84h-20.043v9.95h20.043z"/><path d="m975.298 498.17h-7.232v9.95h7.232z"/><path d="m1011.83 498.17h-7.23v9.95h7.23z"/><path d="m1011.83 481.51h-32.101v9.95h32.101z"/><path d="m1012.09 516.19h-3.07v8.593h-1.63v-8.593h-3.05v-1.36h7.75z"/><path d="m1000.15 514.95.01 6.658c0 .515-.08.985-.241 1.409-.155.419-.376.779-.663 1.08-.292.3-.643.533-1.053.697-.405.164-.861.246-1.367.246-.497 0-.946-.08-1.347-.239-.401-.164-.743-.397-1.025-.697-.287-.301-.511-.664-.67-1.087-.155-.424-.235-.894-.239-1.409l.013-6.658h1.62l.014 6.658c.005.315.043.604.116.869.073.259.18.48.322.663.136.173.303.31.499.41.2.096.433.143.697.143.269 0 .506-.047.711-.143.21-.1.385-.242.526-.424.142-.187.249-.408.322-.663.072-.26.113-.545.123-.855l.013-6.658z"/><path d="m1000.16 503.67c0 .401-.04.788-.11 1.162-.069.374-.169.727-.301 1.06-.141.332-.317.64-.526.922-.21.278-.452.518-.725.718-.264.183-.558.326-.882.431-.319.105-.67.157-1.053.157-.396 0-.761-.055-1.093-.164-.328-.114-.622-.269-.882-.465-.264-.2-.497-.442-.697-.724-.196-.283-.36-.593-.493-.93-.127-.324-.223-.668-.287-1.032-.063-.369-.095-.748-.095-1.135v-1.313c0-.405.034-.797.102-1.175.069-.379.171-.736.308-1.074.132-.323.294-.619.485-.888.196-.274.426-.511.691-.711.255-.196.544-.347.868-.451.328-.11.688-.164 1.08-.164.396 0 .761.054 1.094.164.332.109.631.262.895.458s.495.426.69.69c.196.264.361.554.493.868.146.337.255.7.328 1.087.07.383.11.782.11 1.196zm-1.655-1.326c-.005-.251-.021-.497-.048-.739-.023-.241-.064-.471-.123-.69-.068-.251-.16-.478-.273-.684-.11-.209-.244-.387-.404-.533-.141-.127-.303-.228-.485-.301-.182-.072-.39-.109-.622-.109-.224 0-.424.037-.602.109-.177.069-.332.165-.465.288-.159.15-.294.33-.403.54-.109.205-.194.435-.253.69-.055.219-.096.451-.123.697-.023.242-.034.486-.034.732v1.326c0 .241.011.481.034.718s.062.465.116.683c.06.246.139.477.24.691.104.209.23.387.376.533.141.137.303.246.485.328.187.078.401.116.642.116.233 0 .443-.038.629-.116.192-.077.356-.182.493-.314.159-.151.291-.329.396-.534.109-.209.196-.439.26-.69.055-.219.093-.447.116-.684.027-.241.043-.485.048-.731z"/><path d="m980.115 507.983v-9.953h3.186c.483 0 .936.055 1.36.164.424.105.791.267 1.101.486.31.218.551.499.724.841.178.337.267.738.267 1.203-.005.282-.055.547-.15.793-.092.241-.224.455-.397.642-.123.137-.262.258-.417.362-.15.101-.326.192-.526.274v.014c.296.077.549.191.758.341.21.146.386.313.527.499.146.201.255.424.328.67.077.242.116.497.116.766.005.474-.08.891-.253 1.251s-.412.661-.718.902c-.305.246-.669.433-1.093.561-.42.123-.875.184-1.367.184zm1.655-4.498v3.145h1.804c.26 0 .497-.037.711-.109.214-.073.397-.174.547-.301.164-.132.289-.294.376-.486.091-.196.137-.412.137-.649 0-.251-.037-.472-.11-.663-.073-.196-.182-.362-.328-.499s-.323-.242-.533-.315c-.21-.077-.449-.118-.718-.123zm0-1.251h1.565c.269-.004.515-.041.738-.109.228-.068.42-.169.574-.301.142-.118.253-.262.335-.43.082-.169.123-.363.123-.582 0-.232-.038-.432-.116-.601-.073-.173-.177-.315-.314-.424-.155-.137-.349-.235-.581-.294-.233-.064-.49-.098-.773-.102h-1.551z"/></g></g></svg>